<svg id="圖層_1" data-name="圖層 1" xmlns="http://www.w3.org/2000/svg" viewBox="0 0 397.67 67.36"><defs><style>.cls-1{fill:#fff;}</style></defs><path class="cls-1" d="M37.54,0c.73.1,1.45.22,2.18.3a34.28,34.28,0,0,1,9.7,2.58A35.28,35.28,0,0,1,68.18,21.69c.09.22.16.45.23.67,0,0,0,.1,0,.19-.36-.17-.71-.35-1.07-.51a27.42,27.42,0,0,0-7.38-2,36.18,36.18,0,0,0-6.74-.34,31.6,31.6,0,0,0-9.9,2,34,34,0,0,0-11.16,7c-1.93,1.77-3.81,3.6-5.8,5.3a63.66,63.66,0,0,1-5.46,4.23,23.84,23.84,0,0,1-8,3.64,18.26,18.26,0,0,1-9.94-.4c-.57-.19-1.11-.49-1.67-.72a1,1,0,0,1-.62-.85C.54,39,.43,38.21.3,37.37c-.07-.44-.2-.87-.3-1.3V31.46a10.11,10.11,0,0,0,.29-1.3A30.66,30.66,0,0,1,3.64,19,34.4,34.4,0,0,1,21.05,2.88,33.84,33.84,0,0,1,32.55.14,4,4,0,0,0,33.24,0Z" transform="translate(0 0)"/><path class="cls-1" d="M397.67,14.78c-.38,1.06-.76,2.11-1.13,3.18q-1.28,3.67-2.53,7.35c-.08.22-.17.43-.28.7H374.45c-4.35,10.89-8.68,21.73-13,32.61H341L353.74,26H334c1.53-4,3-7.79,4.52-11.68h59.15Z" transform="translate(0 0)"/><path class="cls-1" d="M32.45,67.36c-.86-.15-1.71-.33-2.57-.45A35.62,35.62,0,0,1,23,65.16a36.39,36.39,0,0,1-8.7-4.37A33.38,33.38,0,0,1,3.15,47.69c-.09-.2-.18-.39-.26-.59,0,0,0-.09,0-.23a3.35,3.35,0,0,1,.49.19,39.82,39.82,0,0,0,11.4,4,38.54,38.54,0,0,0,9.71.62A36.65,36.65,0,0,0,33.43,50a53.69,53.69,0,0,0,13.4-6.8,34.77,34.77,0,0,1,5.7-3.3,12.52,12.52,0,0,1,5.93-1.16,17.82,17.82,0,0,1,8.87,2.92,3.24,3.24,0,0,1,.31.24c1.37,1.09,1.41,1.19.81,2.84a31.09,31.09,0,0,1-5.32,9.32,36.53,36.53,0,0,1-7.46,7A36.85,36.85,0,0,1,41,66.91c-.78.13-1.55.3-2.32.45Z" transform="translate(0 0)"/><path class="cls-1" d="M306.24,38.11l10.2-23.73h19.74c-.11.31-.18.58-.29.84L326.8,38.06q-3.94,9.91-7.89,19.83c-.49,1.21-.19,1-1.53,1-7.15,0-14.31,0-21.47,0a1.19,1.19,0,0,1-1.27-.77q-5.86-11.74-11.78-23.48c-.13-.25-.27-.51-.44-.85-.16.35-.29.61-.4.88q-5.14,11.73-10.27,23.48a1,1,0,0,1-1.1.74c-6.23,0-12.46,0-18.69,0-.23,0-.46,0-.82,0q9-22.35,18-44.53h25.34C298.4,22.2,302.29,30.08,306.24,38.11Z" transform="translate(0 0)"/><path class="cls-1" d="M157.66,28.06H134.45a1.31,1.31,0,0,1-.18-.29,6.88,6.88,0,0,0-6-4.7,33.74,33.74,0,0,0-4.91-.32A20.92,20.92,0,0,0,112.28,26a18.91,18.91,0,0,0-6.67,7.52,17.76,17.76,0,0,0-1.84,5.3A7,7,0,0,0,105.51,45a9,9,0,0,0,3.43,2.09,18.25,18.25,0,0,0,7.66.93,32.49,32.49,0,0,0,8.05-1.67,11.81,11.81,0,0,0,5.39-4,1.54,1.54,0,0,0,.15-.33c-2.84-.12-5.63,0-8.41,0a91.89,91.89,0,0,1,3.65-9.65h30.71l.06.09s0,0,0,.07q-4.93,12.17-9.89,24.32c-.07.17-.16.33-.24.48-1.12-.38-2.21-.8-3.32-1.13a25.72,25.72,0,0,0-8-.93A60.53,60.53,0,0,0,123.57,57c-3.12.67-6.24,1.39-9.39,1.92a32.7,32.7,0,0,1-8.15.44c-1.85-.16-3.7-.2-5.55-.39a36.57,36.57,0,0,1-12.26-3A19.76,19.76,0,0,1,85,54a11.31,11.31,0,0,1-4.39-8.07,20.58,20.58,0,0,1,2.12-11.62,37.23,37.23,0,0,1,8.6-11.51c.77-.72,1.59-1.4,2.4-2.08a34,34,0,0,1,10.07-5.46,56.71,56.71,0,0,1,12-3c2.62-.38,5.26-.57,7.91-.71a72,72,0,0,1,8.18.08c2.48.15,4.95.45,7.42.73a72.87,72.87,0,0,1,10,1.94,13.16,13.16,0,0,1,7,4.51,8.68,8.68,0,0,1,1.26,2.27A11.69,11.69,0,0,1,157.66,28.06Z" transform="translate(0 0)"/><path class="cls-1" d="M244,14.34q2.31,22.28,4.59,44.36c-.59.2-20.94.3-22.4.12l-1.11-5.12h-.82q-11,0-22,0a1.57,1.57,0,0,0-1.34.62c-1.21,1.41-2.47,2.77-3.7,4.16a1.14,1.14,0,0,1-.94.46H174.87l-.27,0c0-.33.23-.46.4-.63q5.67-6,11.36-11.9,15-15.7,30-31.44a1.8,1.8,0,0,1,1.44-.62q12.65,0,25.29.05ZM225.07,42c-.16-4.77-.32-9.4-.48-14-4,4.48-7.83,9-11.66,13.52-.1.12-.19.25-.28.38a.11.11,0,0,0,0,.08.07.07,0,0,0,0,0Z" transform="translate(0 0)"/><path class="cls-1" d="M169.22,14.3h21.51c-.1.3-.19.54-.28.78l-17.25,43c-.32.78-.32.78-1.14.78H151.48C151.54,58.2,168.49,15.68,169.22,14.3Z" transform="translate(0 0)"/><path class="cls-1" d="M38,38.09c.13-.21.25-.43.4-.63A26.87,26.87,0,0,1,55,26.84,22.63,22.63,0,0,1,69.54,28.6l.44.24a41.24,41.24,0,0,1,.27,7.41l-.75-.31a46.71,46.71,0,0,0-7.15-2.8,27.53,27.53,0,0,0-8.94-1,21.81,21.81,0,0,0-5.85,1.34,40.15,40.15,0,0,0-9,4.42l-.52.31Z" transform="translate(0 0)"/><path class="cls-1" d="M378.51,48a5.37,5.37,0,0,1,5.33,5.44A5.39,5.39,0,1,1,378.51,48Zm-.11,9.72a4.35,4.35,0,1,0-4.28-4.38A4.33,4.33,0,0,0,378.4,57.69Z" transform="translate(0 0)"/><path class="cls-1" d="M379.82,53.92l1.25,2.27h-1.3c-.38-.72-.8-1.51-1.24-2.32h-1.1V56.2h-1.09a32.81,32.81,0,0,1,0-5.71,22.54,22.54,0,0,1,3.85.08c.71.1,1.09.69,1.12,1.52s-.2,1.34-1,1.62l-.22.06Zm-2.33-2.6v1.6c.64,0,1.22,0,1.8,0s.87-.29.88-.8a.76.76,0,0,0-.81-.79C378.75,51.29,378.15,51.32,377.49,51.32Z" transform="translate(0 0)"/><path class="cls-1" d="M377.49,51.32c.66,0,1.26,0,1.87,0a.76.76,0,0,1,.81.79c0,.51-.28.78-.88.8s-1.16,0-1.8,0Z" transform="translate(0 0)"/></svg>