<?xml version="1.0" encoding="utf-8"?>
<!-- Generator: Adobe Illustrator 25.2.3, SVG Export Plug-In . SVG Version: 6.00 Build 0)  -->
<svg version="1.1" id="Layer_1" xmlns="http://www.w3.org/2000/svg" xmlns:xlink="http://www.w3.org/1999/xlink" x="0px" y="0px"
	 viewBox="0 0 75 100" style="enable-background:new 0 0 75 100;" xml:space="preserve">
<style type="text/css">
	.st0{fill:none;stroke:#BBB0A1;stroke-width:0.5;stroke-linejoin:bevel;stroke-miterlimit:10;}
</style>
<g>
	<line class="st0" x1="60.56" y1="1.47" x2="60.56" y2="32.28"/>
	<line class="st0" x1="60.56" y1="1.47" x2="60.56" y2="1.33"/>
	<line class="st0" x1="15.06" y1="32.01" x2="15.06" y2="31.73"/>
	<line class="st0" x1="15.06" y1="1.33" x2="15.06" y2="31.73"/>
	<path class="st0" d="M20.14,30.06c0.07,0,0.13-0.06,0.13-0.13c0-0.07-0.06-0.13-0.13-0.13c-0.07,0-0.13,0.06-0.13,0.13
		C20.02,30.01,20.07,30.06,20.14,30.06"/>
	<path class="st0" d="M27.74,30.06c0.07,0,0.13-0.06,0.13-0.13c0-0.07-0.06-0.13-0.13-0.13s-0.13,0.06-0.13,0.13
		C27.62,30.01,27.67,30.06,27.74,30.06"/>
	<path class="st0" d="M26.25,31.73v1.64c0,0.32-0.26,0.59-0.59,0.59h-0.41"/>
	<line class="st0" x1="23.68" y1="33.96" x2="25.25" y2="33.96"/>
	<path class="st0" d="M21.55,31.73v1.64c0,0.32,0.26,0.59,0.59,0.59h1.54"/>
	<path class="st0" d="M14.25,31.71c0.01-0.16,0.14-0.29,0.3-0.29c0.17,0,0.31,0.14,0.31,0.31"/>
	<path class="st0" d="M15.81,31.73c0-0.17,0.14-0.31,0.31-0.31c0.17,0,0.31,0.14,0.31,0.31"/>
	<path class="st0" d="M17.39,31.73c0-0.17,0.14-0.31,0.31-0.31c0.17,0,0.31,0.14,0.31,0.31"/>
	<path class="st0" d="M19.57,31.73c0-0.17-0.14-0.31-0.31-0.31s-0.31,0.14-0.31,0.31"/>
	<path class="st0" d="M21.14,31.73c0-0.17-0.14-0.31-0.31-0.31c-0.17,0-0.31,0.14-0.31,0.31"/>
	<path class="st0" d="M26.82,31.73c0-0.17,0.14-0.31,0.31-0.31c0.17,0,0.31,0.14,0.31,0.31"/>
	<path class="st0" d="M28.39,31.73c0-0.17,0.14-0.31,0.31-0.31c0.17,0,0.31,0.14,0.31,0.31"/>
	<path class="st0" d="M29.97,31.73c0-0.17,0.14-0.31,0.31-0.31c0.17,0,0.31,0.14,0.31,0.31"/>
	<path class="st0" d="M31.54,31.73c0-0.17,0.14-0.31,0.31-0.31c0.17,0,0.31,0.14,0.31,0.31"/>
	<path class="st0" d="M33.11,31.73c0-0.17,0.14-0.31,0.31-0.31s0.31,0.14,0.31,0.31"/>
	<path class="st0" d="M34.68,31.73c0-0.17,0.14-0.31,0.31-0.31c0.17,0,0.31,0.14,0.31,0.31"/>
	<path class="st0" d="M24.29,77.36v0.05c0,0.17-0.14,0.31-0.31,0.31c-0.06,0-0.11-0.02-0.15-0.05"/>
	<path class="st0" d="M25.25,77.36v0.05c0,0.17,0.14,0.31,0.31,0.31c0.17,0,0.31-0.14,0.31-0.31v-0.05"/>
	<path class="st0" d="M26.82,77.36v0.05c0,0.17,0.14,0.31,0.31,0.31c0.17,0,0.31-0.14,0.31-0.31v-0.05"/>
	<path class="st0" d="M28.39,77.36v0.05c0,0.17,0.14,0.31,0.31,0.31c0.17,0,0.31-0.14,0.31-0.31v-0.05"/>
	<path class="st0" d="M30.58,77.36v0.05c0,0.17-0.14,0.31-0.31,0.31c-0.17,0-0.31-0.14-0.31-0.31v-0.05"/>
	<path class="st0" d="M31.54,77.36v0.05c0,0.17,0.14,0.31,0.31,0.31c0.17,0,0.31-0.14,0.31-0.31v-0.05"/>
	<path class="st0" d="M33.11,77.36v0.05c0,0.17,0.14,0.31,0.31,0.31s0.31-0.14,0.31-0.31v-0.05"/>
	<line class="st0" x1="34.68" y1="74.27" x2="34.68" y2="31.78"/>
	<line class="st0" x1="34.68" y1="31.73" x2="34.68" y2="31.78"/>
	<line class="st0" x1="15.81" y1="32.32" x2="15.81" y2="31.78"/>
	<line class="st0" x1="15.81" y1="31.73" x2="15.81" y2="31.78"/>
	<line class="st0" x1="17.39" y1="33.18" x2="17.39" y2="31.78"/>
	<line class="st0" x1="17.39" y1="31.78" x2="17.39" y2="31.73"/>
	<line class="st0" x1="18.96" y1="34.4" x2="18.96" y2="31.78"/>
	<line class="st0" x1="18.96" y1="31.73" x2="18.96" y2="31.78"/>
	<line class="st0" x1="20.53" y1="31.78" x2="20.53" y2="36.16"/>
	<line class="st0" x1="20.53" y1="31.78" x2="20.53" y2="31.73"/>
	<line class="st0" x1="26.82" y1="77.36" x2="26.82" y2="31.78"/>
	<line class="st0" x1="26.82" y1="31.78" x2="26.82" y2="31.73"/>
	<line class="st0" x1="25.25" y1="33.96" x2="25.25" y2="56.67"/>
	<line class="st0" x1="25.25" y1="71.19" x2="25.25" y2="77.36"/>
	<line class="st0" x1="23.68" y1="33.96" x2="23.68" y2="47.37"/>
	<line class="st0" x1="22.1" y1="33.96" x2="22.1" y2="39.17"/>
	<line class="st0" x1="28.39" y1="77.36" x2="28.39" y2="31.78"/>
	<line class="st0" x1="28.39" y1="31.73" x2="28.39" y2="31.78"/>
	<line class="st0" x1="29.97" y1="31.78" x2="29.97" y2="77.36"/>
	<line class="st0" x1="29.97" y1="31.73" x2="29.97" y2="31.78"/>
	<line class="st0" x1="31.54" y1="77.36" x2="31.54" y2="31.78"/>
	<line class="st0" x1="31.54" y1="31.78" x2="31.54" y2="31.73"/>
	<line class="st0" x1="33.11" y1="74.83" x2="33.11" y2="31.78"/>
	<line class="st0" x1="33.11" y1="31.78" x2="33.11" y2="31.73"/>
	<line class="st0" x1="36.26" y1="74.27" x2="36.26" y2="34.44"/>
	<line class="st0" x1="35.29" y1="31.73" x2="35.09" y2="31.73"/>
	<path class="st0" d="M37.89,34.44v-1.32c0-0.77-0.62-1.39-1.39-1.39h-1.2"/>
	<path class="st0" d="M27.74,30.96c0.26-0.05,0.49-0.2,0.63-0.44c0.28-0.48,0.07-1.1-0.45-1.32c-1.2-0.5-2.59-0.77-4.02-0.77
		c-1.43,0-2.82,0.27-4.02,0.77c-0.52,0.22-0.73,0.83-0.45,1.32c0.15,0.27,0.43,0.43,0.72,0.46"/>
	<path class="st0" d="M20.14,30.98c0.14,0.01,0.29,0,0.43-0.06c0.98-0.41,2.13-0.63,3.33-0.63c1.2,0,2.35,0.22,3.33,0.63
		c0.17,0.07,0.35,0.08,0.52,0.05"/>
	<path class="st0" d="M39,57.95c0.01,0.31,0.18,0.6,0.46,0.76c0.48,0.28,1.1,0.07,1.32-0.45c0.5-1.2,0.77-2.59,0.77-4.02
		c0-1.43-0.27-2.82-0.77-4.02c-0.22-0.52-0.83-0.73-1.32-0.45c-0.21,0.12-0.35,0.31-0.42,0.52"/>
	<path class="st0" d="M39,57.95c-0.01-0.13,0.01-0.26,0.07-0.39c0.41-0.98,0.63-2.13,0.63-3.33c0-1.2-0.22-2.35-0.63-3.33
		c-0.09-0.21-0.09-0.43-0.03-0.63"/>
	<line class="st0" x1="29.01" y1="77.36" x2="29.97" y2="77.36"/>
	<line class="st0" x1="29.97" y1="31.73" x2="29.01" y2="31.73"/>
	<line class="st0" x1="33.72" y1="31.73" x2="34.68" y2="31.73"/>
	<line class="st0" x1="33.11" y1="77.36" x2="32.15" y2="77.36"/>
	<line class="st0" x1="37.89" y1="51.25" x2="37.89" y2="56.49"/>
	<line class="st0" x1="37.89" y1="40.5" x2="37.89" y2="34.44"/>
	<line class="st0" x1="37.89" y1="68.28" x2="37.89" y2="74.27"/>
	<line class="st0" x1="37.89" y1="42.85" x2="37.89" y2="48.91"/>
	<line class="st0" x1="37.89" y1="58.83" x2="37.89" y2="65.93"/>
	<line class="st0" x1="31.54" y1="77.36" x2="30.58" y2="77.36"/>
	<line class="st0" x1="32.15" y1="31.73" x2="33.11" y2="31.73"/>
	<line class="st0" x1="30.58" y1="31.73" x2="31.54" y2="31.73"/>
	<line class="st0" x1="18.96" y1="31.73" x2="18" y2="31.73"/>
	<line class="st0" x1="14.85" y1="31.73" x2="15.06" y2="31.73"/>
	<line class="st0" x1="15.81" y1="31.73" x2="15.06" y2="31.73"/>
	<line class="st0" x1="28.39" y1="31.73" x2="27.74" y2="31.73"/>
	<line class="st0" x1="27.74" y1="31.73" x2="27.43" y2="31.73"/>
	<line class="st0" x1="16.43" y1="31.73" x2="17.39" y2="31.73"/>
	<line class="st0" x1="20.14" y1="31.73" x2="19.57" y2="31.73"/>
	<line class="st0" x1="20.14" y1="31.73" x2="20.53" y2="31.73"/>
	<line class="st0" x1="26.82" y1="77.36" x2="25.86" y2="77.36"/>
	<line class="st0" x1="25.25" y1="77.36" x2="24.29" y2="77.36"/>
	<line class="st0" x1="28.39" y1="77.36" x2="27.43" y2="77.36"/>
	<line class="st0" x1="21.55" y1="31.73" x2="21.14" y2="31.73"/>
	<line class="st0" x1="26.25" y1="31.73" x2="26.82" y2="31.73"/>
	<line class="st0" x1="21.55" y1="31.73" x2="26.25" y2="31.73"/>
	<path class="st0" d="M37.89,34.44h-1.32c-0.82,0-1.48-0.66-1.48-1.48v-1.23"/>
	<path class="st0" d="M37.89,74.27v0.6c0,0.17-0.02,0.35-0.05,0.51"/>
	<line class="st0" x1="33.72" y1="77.36" x2="33.75" y2="77.36"/>
	<line class="st0" x1="33.11" y1="77.36" x2="33.72" y2="77.36"/>
	<path class="st0" d="M34.68,74.27h-1.01c-0.31,0-0.56,0.25-0.56,0.56"/>
	<line class="st0" x1="33.11" y1="74.83" x2="33.11" y2="77.36"/>
	<line class="st0" x1="36.26" y1="74.27" x2="34.68" y2="74.27"/>
	<line class="st0" x1="36.26" y1="74.27" x2="37.89" y2="74.27"/>
	<path class="st0" d="M37.84,75.38h-2.21c-1.04,0-1.88,0.84-1.88,1.88v0.11"/>
	<polyline class="st0" points="37.89,42.85 38.32,42.85 38.32,40.5 37.89,40.5 	"/>
	<line class="st0" x1="37.89" y1="42.85" x2="37.89" y2="40.5"/>
	<polyline class="st0" points="38.32,50.28 38.32,51.25 37.89,51.25 	"/>
	<polyline class="st0" points="38.32,50.28 38.32,48.91 37.89,48.91 	"/>
	<line class="st0" x1="37.89" y1="48.91" x2="37.89" y2="51.25"/>
	<polyline class="st0" points="37.89,56.49 38.32,56.49 38.32,57.95 	"/>
	<polyline class="st0" points="37.89,58.83 38.32,58.83 38.32,57.95 	"/>
	<line class="st0" x1="37.89" y1="56.49" x2="37.89" y2="58.83"/>
	<polyline class="st0" points="37.89,68.28 38.32,68.28 38.32,65.93 37.89,65.93 	"/>
	<line class="st0" x1="37.89" y1="65.93" x2="37.89" y2="68.28"/>
	<line class="st0" x1="38.32" y1="50.28" x2="39.04" y2="50.28"/>
	<line class="st0" x1="39.93" y1="50.28" x2="39.04" y2="50.28"/>
	<line class="st0" x1="39.93" y1="57.95" x2="39" y2="57.95"/>
	<line class="st0" x1="39" y1="57.95" x2="38.32" y2="57.95"/>
	<line class="st0" x1="20.14" y1="31.73" x2="20.14" y2="31.78"/>
	<line class="st0" x1="20.14" y1="30.98" x2="20.14" y2="30.06"/>
	<line class="st0" x1="20.14" y1="31.73" x2="20.14" y2="30.98"/>
	<line class="st0" x1="20.14" y1="30.06" x2="20.14" y2="29.94"/>
	<line class="st0" x1="27.74" y1="30.96" x2="27.74" y2="30.06"/>
	<line class="st0" x1="27.74" y1="30.06" x2="27.74" y2="29.94"/>
	<line class="st0" x1="27.74" y1="31.73" x2="27.74" y2="31.78"/>
	<line class="st0" x1="27.74" y1="30.96" x2="27.74" y2="31.73"/>
	<path class="st0" d="M36.75,76.96c0.55-0.36,0.95-0.92,1.09-1.58"/>
	<line class="st0" x1="33.75" y1="77.36" x2="34.69" y2="77.36"/>
	<path class="st0" d="M36.75,76.96c-0.23-0.12-0.5-0.19-0.78-0.19c-0.51,0-0.97,0.23-1.28,0.59"/>
	<path class="st0" d="M36.53,80.03c-0.17,0.06-0.36,0.1-0.55,0.1c-0.2,0-0.38-0.04-0.55-0.1"/>
	<path class="st0" d="M36.75,76.96c0.54,0.28,0.9,0.84,0.9,1.49c0,0.73-0.47,1.35-1.13,1.58"/>
	<path class="st0" d="M35.42,80.03c-0.65-0.23-1.13-0.85-1.13-1.58c0-0.41,0.15-0.79,0.4-1.09"/>
	<path class="st0" d="M35.41,78.45c0,0.31,0.25,0.56,0.56,0.56c0.31,0,0.56-0.25,0.56-0.56c0-0.31-0.25-0.56-0.56-0.56
		C35.66,77.89,35.41,78.14,35.41,78.45z"/>
	<path class="st0" d="M44.17,43.86v30.59c0,0.19,0.15,0.34,0.34,0.34"/>
	<path class="st0" d="M53.18,40.24c-0.19,0-0.34,0.15-0.34,0.34v5.47"/>
	<path class="st0" d="M46.99,55.02c-0.19,0-0.34-0.15-0.34-0.34V40.58c0-0.19,0.15-0.34,0.34-0.34"/>
	<path class="st0" d="M45.75,40.24c-0.19,0-0.34,0.15-0.34,0.34v14.63c0,0.19,0.15,0.34,0.34,0.34"/>
	<path class="st0" d="M45.75,62.21c-0.19,0-0.34,0.15-0.34,0.34v11.89c0,0.19,0.15,0.34,0.34,0.34"/>
	<path class="st0" d="M46.99,62.74c-0.19,0-0.34,0.15-0.34,0.34v11.37c0,0.19,0.15,0.34,0.34,0.34"/>
	<path class="st0" d="M51.43,72.78c-0.05,0.11-0.16,0.18-0.29,0.18h-2.75c-0.18,0-0.33-0.15-0.33-0.33v-1.41
		c0-0.18,0.15-0.33,0.33-0.33h2.59"/>
	<path class="st0" d="M51.6,44.15v-3.56c0-0.19,0.15-0.34,0.34-0.34"/>
	<path class="st0" d="M48.23,40.24c-0.19,0-0.34,0.15-0.34,0.34v3.56"/>
	<path class="st0" d="M47.88,47.63v6.77c0,0.19,0.15,0.34,0.34,0.34"/>
	<path class="st0" d="M48.99,44.15v-3.83c0-0.41,0.33-0.75,0.75-0.75"/>
	<path class="st0" d="M50.48,44.15v-3.83c0-0.41-0.33-0.75-0.75-0.75"/>
	<line class="st0" x1="50.48" y1="44.15" x2="49.74" y2="44.15"/>
	<line class="st0" x1="48.99" y1="44.15" x2="47.88" y2="44.15"/>
	<line class="st0" x1="51.6" y1="44.15" x2="50.48" y2="44.15"/>
	<line class="st0" x1="49.74" y1="47.63" x2="48.99" y2="47.63"/>
	<line class="st0" x1="47.88" y1="47.63" x2="48.99" y2="47.63"/>
	<path class="st0" d="M47.88,47.63h-0.05c-0.47,0-0.84-0.38-0.84-0.84v-1.8c0-0.47,0.38-0.84,0.84-0.84h0.05"/>
	<line class="st0" x1="48.99" y1="44.15" x2="49.74" y2="44.15"/>
	<line class="st0" x1="51.6" y1="47.63" x2="50.48" y2="47.63"/>
	<line class="st0" x1="49.74" y1="47.63" x2="50.48" y2="47.63"/>
	<path class="st0" d="M51.6,47.63h0.09c0.47,0,0.84-0.38,0.84-0.84v-1.8c0-0.47-0.38-0.84-0.84-0.84H51.6"/>
	<path class="st0" d="M51.46,45.5v-0.31c0-0.18-0.15-0.33-0.33-0.33h-2.75c-0.18,0-0.33,0.15-0.33,0.33v1.41
		c0,0.18,0.15,0.33,0.33,0.33h2.75c0.18,0,0.33-0.15,0.33-0.33v-0.31"/>
	<line class="st0" x1="51.46" y1="45.5" x2="51.46" y2="46.28"/>
	<path class="st0" d="M46.4,39.57v-0.49c0-0.27-0.22-0.49-0.49-0.49c-0.27,0-0.49,0.22-0.49,0.49v0.49"/>
	<path class="st0" d="M44.28,35.02c0.23,0,0.42-0.19,0.42-0.42v-1.88"/>
	<path class="st0" d="M43.27,32.72v1.88c0,0.23,0.19,0.42,0.42,0.42"/>
	<line class="st0" x1="44.7" y1="31.54" x2="44.7" y2="32.72"/>
	<line class="st0" x1="43.27" y1="31.54" x2="43.27" y2="32.72"/>
	<line class="st0" x1="43.27" y1="32.72" x2="44.7" y2="32.72"/>
	<path class="st0" d="M44.7,31.54v-0.5c0-0.22-0.18-0.41-0.41-0.41h-0.13c-0.49,0-0.89,0.4-0.89,0.89v0.01"/>
	<line class="st0" x1="43.27" y1="31.54" x2="44.7" y2="31.54"/>
	<path class="st0" d="M44.17,43.86c-0.11,0.04-0.22,0.06-0.34,0.06h-0.18c-0.34,0-0.62-0.28-0.62-0.62"/>
	<line class="st0" x1="46.65" y1="76.77" x2="46.65" y2="78.06"/>
	<path class="st0" d="M43.62,40.32c0.2-0.22,0.45-0.4,0.72-0.53"/>
	<polyline class="st0" points="43.62,40.32 43.62,35.02 43.69,35.02 	"/>
	<polyline class="st0" points="44.34,39.79 44.34,35.02 44.28,35.02 	"/>
	<line class="st0" x1="43.69" y1="35.02" x2="44.28" y2="35.02"/>
	<path class="st0" d="M43.04,76.16c0.02,0.21,0.07,0.42,0.15,0.61"/>
	<path class="st0" d="M44.79,39.63c-0.16,0.04-0.3,0.09-0.44,0.16"/>
	<path class="st0" d="M43.62,40.32c-0.37,0.4-0.59,0.94-0.59,1.53v1.45"/>
	<path class="st0" d="M44.17,43.86c0.36-0.14,0.62-0.49,0.62-0.9v-3.33"/>
	<path class="st0" d="M44.79,39.63c0.17-0.04,0.34-0.06,0.52-0.06h0.1"/>
	<path class="st0" d="M46.65,76.77v-0.91c0-0.3-0.24-0.54-0.54-0.54h-3.08"/>
	<line class="st0" x1="49.74" y1="39.57" x2="54.04" y2="39.57"/>
	<line class="st0" x1="49.74" y1="78.27" x2="52.54" y2="78.27"/>
	<line class="st0" x1="49.74" y1="78.27" x2="46.65" y2="78.27"/>
	<line class="st0" x1="46.4" y1="39.57" x2="49.74" y2="39.57"/>
	<line class="st0" x1="43.03" y1="75.32" x2="43.03" y2="43.3"/>
	<path class="st0" d="M43.04,76.16c-0.01-0.08-0.01-0.17-0.01-0.25v-0.58"/>
	<line class="st0" x1="46.4" y1="39.57" x2="45.41" y2="39.57"/>
	<path class="st0" d="M43.04,76.16h1.71c0.55,0,1.04,0.23,1.39,0.61"/>
	<line class="st0" x1="46.65" y1="78.27" x2="46.3" y2="78.27"/>
	<path class="st0" d="M43.19,76.77c0.13,0.34,0.34,0.64,0.6,0.88"/>
	<line class="st0" x1="46.65" y1="78.06" x2="46.65" y2="78.27"/>
	<path class="st0" d="M46.65,78.06c0-0.5-0.19-0.95-0.51-1.29"/>
	<path class="st0" d="M43.79,77.65c-0.25,0.26-0.4,0.62-0.4,1c0,0.63,0.4,1.16,0.95,1.37"/>
	<path class="st0" d="M45.4,80.03c0.55-0.21,0.95-0.75,0.95-1.37c0-0.13-0.02-0.26-0.05-0.38"/>
	<path class="st0" d="M45.4,80.03c-0.16,0.06-0.34,0.1-0.53,0.1c-0.19,0-0.36-0.04-0.53-0.1"/>
	<path class="st0" d="M43.79,77.65c0.27-0.29,0.65-0.47,1.08-0.47c0.68,0,1.26,0.47,1.42,1.1"/>
	<path class="st0" d="M44.49,78.65c0,0.21,0.17,0.38,0.38,0.38c0.21,0,0.38-0.17,0.38-0.38c0-0.21-0.17-0.38-0.38-0.38
		C44.66,78.27,44.49,78.44,44.49,78.65z"/>
	<line class="st0" x1="49.74" y1="56.01" x2="49.74" y2="55.08"/>
	<line class="st0" x1="49.74" y1="62.69" x2="49.74" y2="61.76"/>
	<path class="st0" d="M47.88,70.19v-6.78c0-0.19,0.15-0.34,0.34-0.34"/>
	<path class="st0" d="M48.23,77.31c-0.19,0-0.34-0.15-0.34-0.34v-3.3"/>
	<line class="st0" x1="47.88" y1="70.19" x2="48.99" y2="70.19"/>
	<line class="st0" x1="50.48" y1="73.67" x2="49.74" y2="73.67"/>
	<path class="st0" d="M47.88,70.19h-0.05c-0.47,0-0.84,0.38-0.84,0.84v1.8c0,0.47,0.38,0.84,0.84,0.84h0.05"/>
	<line class="st0" x1="51.6" y1="73.67" x2="51.65" y2="73.67"/>
	<line class="st0" x1="49.74" y1="70.19" x2="50.48" y2="70.19"/>
	<line class="st0" x1="49.74" y1="73.67" x2="48.99" y2="73.67"/>
	<line class="st0" x1="51.6" y1="73.67" x2="50.48" y2="73.67"/>
	<line class="st0" x1="47.88" y1="73.67" x2="48.99" y2="73.67"/>
	<line class="st0" x1="50.48" y1="70.19" x2="50.81" y2="70.19"/>
	<line class="st0" x1="49.74" y1="70.19" x2="48.99" y2="70.19"/>
	<path class="st0" d="M51.6,73.67v3.3c0,0.19,0.15,0.34,0.34,0.34"/>
	<line class="st0" x1="51.6" y1="47.63" x2="51.6" y2="53.37"/>
	<path class="st0" d="M48.99,73.67v3.86c0,0.41,0.33,0.75,0.75,0.75"/>
	<line class="st0" x1="48.99" y1="55.16" x2="48.99" y2="47.63"/>
	<line class="st0" x1="48.99" y1="70.19" x2="48.99" y2="62.61"/>
	<line class="st0" x1="48.99" y1="56.09" x2="48.99" y2="61.68"/>
	<line class="st0" x1="50.48" y1="47.63" x2="50.48" y2="60.11"/>
	<line class="st0" x1="50.48" y1="70.19" x2="50.48" y2="68.21"/>
	<path class="st0" d="M50.48,73.67v3.86c0,0.41-0.33,0.75-0.75,0.75"/>
	<path class="st0" d="M48.99,56.09l-1.39,0.15c-0.55,0-1,0.41-1,0.9v3.49c0,0.5,0.45,0.9,1,0.9l0.05,0l1.34,0.14"/>
	<line class="st0" x1="49.74" y1="61.76" x2="48.99" y2="61.68"/>
	<line class="st0" x1="48.99" y1="56.09" x2="49.74" y2="56.01"/>
	<line class="st0" x1="49.73" y1="55.08" x2="48.99" y2="55.16"/>
	<line class="st0" x1="49.74" y1="55.08" x2="49.73" y2="55.08"/>
	<path class="st0" d="M48.99,55.16l-1.42,0.15c-1.05,0.01-1.89,0.83-1.89,1.83v3.49c0,1,0.85,1.81,1.89,1.83l1.42,0.15"/>
	<line class="st0" x1="48.99" y1="62.61" x2="49.66" y2="62.68"/>
	<line class="st0" x1="49.73" y1="62.69" x2="49.66" y2="62.68"/>
	<line class="st0" x1="49.73" y1="62.69" x2="49.74" y2="62.69"/>
	<polyline class="st0" points="49.73,62.69 49.73,62.68 49.66,62.68 	"/>
	<path class="st0" d="M1.3,17.99h4.15c2.34,0,4.35,1.66,4.78,3.96l1.47,7.72c0.07,0.38,0.11,0.77,0.11,1.16"/>
	<path class="st0" d="M23.03,43.53l-0.4-2.39c-0.12-0.68-0.29-1.34-0.52-1.98"/>
	<line class="st0" x1="23.68" y1="47.37" x2="23.03" y2="43.54"/>
	<path class="st0" d="M20.53,36.16c-0.46-0.64-0.99-1.23-1.57-1.77"/>
	<polyline class="st0" points="14.25,31.71 11.8,30.83 11.8,30.83 	"/>
	<path class="st0" d="M15.06,32.01c0.26,0.1,0.51,0.2,0.76,0.31"/>
	<path class="st0" d="M23.6,80.03c-0.08,1.43-0.07,2.87,0.05,4.31l1.31,15.54"/>
	<line class="st0" x1="23.03" y1="43.53" x2="23.03" y2="43.54"/>
	<path class="st0" d="M17.39,33.18c-0.5-0.32-1.02-0.61-1.57-0.86"/>
	<path class="st0" d="M20.53,36.16c0.66,0.91,1.19,1.92,1.57,3"/>
	<path class="st0" d="M14.25,31.71l0.72,0.26c0.03,0.01,0.06,0.02,0.08,0.03"/>
	<path class="st0" d="M23.6,80.03c0.05-0.79,0.12-1.58,0.23-2.36"/>
	<path class="st0" d="M25.25,71.19c-0.04,0.15-0.07,0.31-0.1,0.46l-0.66,2.62c-0.28,1.12-0.5,2.26-0.65,3.4"/>
	<path class="st0" d="M25.25,71.19c0.94-3.97,1.09-8.1,0.4-12.13l-0.4-2.39"/>
	<path class="st0" d="M17.39,33.18c0.56,0.36,1.09,0.77,1.57,1.21"/>
	<line class="st0" x1="24.54" y1="52.47" x2="23.68" y2="47.37"/>
	<line class="st0" x1="24.54" y1="52.47" x2="25.25" y2="56.67"/>
	<path class="st0" d="M7.86,21c0-0.02,0-0.03,0-0.05c-0.04-0.84,0.42-2.05,0-2.32"/>
	<line class="st0" x1="6.76" y1="36.96" x2="6.76" y2="36.96"/>
	<path class="st0" d="M6.76,36.96c2.15-1.4,2.82-3.34,2.98-6.13"/>
	<path class="st0" d="M9.75,30.83c0.02-0.38,0.04-0.78,0.04-1.2c0.02-1.56-1.75-5.46-1.93-8.62"/>
	<path class="st0" d="M5.56,30.83v0.01c0,1.98-1.6,3.58-3.58,3.58H0.09"/>
	<path class="st0" d="M5.56,30.83V26.9c0-2.2,0.83-4.3,2.3-5.9"/>
	<path class="st0" d="M6.76,36.96c-0.23,0.05-0.46,0.08-0.7,0.1L4.33,37.2c-1.42,0.12-2.85,0.17-4.28,0.2"/>
	<path class="st0" d="M6.76,36.96c0.28-0.06,0.56-0.13,0.83-0.22"/>
	<path class="st0" d="M0.07,49.23c0.52-0.02,1.04-0.06,1.55-0.11l1.03-0.11c1.73-0.18,3.13-1.49,3.42-3.21l1.52-9.06"/>
	<path class="st0" d="M11.8,30.83c0,0.3-0.03,0.6-0.07,0.9"/>
	<path class="st0" d="M11.73,31.73c-0.1,0.7-0.32,1.39-0.65,2.03c-0.13,0.24-0.27,0.46-0.43,0.68"/>
	<path class="st0" d="M10.65,34.44c-0.22,0.31-0.47,0.6-0.73,0.86"/>
	<path class="st0" d="M7.59,36.74c0.87-0.3,1.66-0.8,2.32-1.44"/>
	<line class="st0" x1="7" y1="93.56" x2="7.89" y2="83.2"/>
	<line class="st0" x1="14.46" y1="74.3" x2="14.21" y2="76.96"/>
	<path class="st0" d="M20.53,55.94c0.5-0.55,1.02-1.07,1.57-1.57"/>
	<path class="st0" d="M15.81,64.33c0.4-1.35,0.92-2.65,1.57-3.89"/>
	<path class="st0" d="M24.61,52.42c-0.02,0.02-0.05,0.03-0.07,0.05"/>
	<path class="st0" d="M24.54,52.47c-0.29,0.2-0.58,0.4-0.86,0.61"/>
	<path class="st0" d="M22.1,54.37c0.5-0.45,1.02-0.89,1.57-1.29"/>
	<path class="st0" d="M14.46,74.3L15,68.51c0.13-1.43,0.41-2.83,0.82-4.18"/>
	<path class="st0" d="M20.53,55.94c-0.56,0.62-1.09,1.27-1.57,1.95"/>
	<line class="st0" x1="12.31" y1="97.41" x2="14.18" y2="77.36"/>
	<line class="st0" x1="14.21" y1="76.96" x2="14.18" y2="77.36"/>
	<path class="st0" d="M18.96,57.9c-0.58,0.81-1.11,1.66-1.57,2.54"/>
	<path class="st0" d="M22.1,43.89c0.31-0.12,0.61-0.24,0.92-0.36"/>
	<path class="st0" d="M9.37,70.5c0.08-0.66,0.17-1.33,0.25-1.99"/>
	<path class="st0" d="M7.89,83.2c0.07-0.98,0.13-1.96,0.19-2.94c0.06-0.98,0.12-1.96,0.17-2.95c0.11-1.96,0.22-3.93,0.3-5.89
		c0.09-1.97,0.19-3.93,0.27-5.9l0.1-2.95L9,59.62l0.06-2.95l0.08-2.95l0.01-0.18c0-0.06,0.01-0.14,0.01-0.2
		c0.01-0.14,0.02-0.28,0.04-0.42c0.01-0.14,0.03-0.28,0.05-0.42c0.02-0.14,0.04-0.28,0.07-0.41c0.1-0.55,0.27-1.09,0.51-1.6
		c0.02-0.05,0.06-0.1,0.08-0.16"/>
	<path class="st0" d="M9.91,66.26c-0.1,0.75-0.19,1.49-0.29,2.24"/>
	<path class="st0" d="M20.53,44.1c0.53-0.11,1.05-0.23,1.57-0.36"/>
	<path class="st0" d="M17.39,44.75c0.52-0.11,1.05-0.21,1.57-0.32"/>
	<path class="st0" d="M14.24,47.99c-0.32,0.35-0.61,0.72-0.86,1.11c-0.28,0.42-0.51,0.87-0.71,1.32"/>
	<path class="st0" d="M18.96,44.43c0.52-0.11,1.05-0.22,1.57-0.33"/>
	<path class="st0" d="M7.89,83.2c0.1-0.98,0.21-1.96,0.31-2.93c0.1-0.98,0.22-1.95,0.33-2.93c0.23-1.95,0.45-3.91,0.71-5.86
		c0.04-0.33,0.08-0.66,0.12-0.98"/>
	<path class="st0" d="M12.67,46.87c-0.34,0.27-0.66,0.55-0.96,0.87c-0.21,0.22-0.41,0.46-0.61,0.7"/>
	<path class="st0" d="M23.03,43.53c-0.31,0.07-0.62,0.14-0.92,0.21"/>
	<path class="st0" d="M12.67,50.42c-0.14,0.33-0.27,0.67-0.38,1.01c-0.12,0.41-0.24,0.81-0.35,1.22c-0.03,0.1-0.05,0.2-0.08,0.31
		c-0.02,0.1-0.05,0.21-0.06,0.31c-0.02,0.1-0.04,0.21-0.05,0.31l-0.05,0.34l-0.43,2.92l-0.18,1.2"/>
	<path class="st0" d="M9.91,66.26c0.03-0.21,0.05-0.42,0.08-0.64l0.4-2.93l0.44-2.92l0.26-1.72"/>
	<path class="st0" d="M18.96,45.14c-0.47,0.19-0.94,0.38-1.41,0.58c-0.06,0.02-0.11,0.05-0.16,0.07"/>
	<path class="st0" d="M14.24,45.82c-0.55,0.29-1.08,0.65-1.57,1.05"/>
	<path class="st0" d="M18.96,45.14c0.52-0.21,1.05-0.43,1.57-0.64"/>
	<path class="st0" d="M11.1,48.43c-0.46,0.58-0.86,1.21-1.18,1.88"/>
	<path class="st0" d="M14.24,47.99c0.28-0.31,0.59-0.6,0.92-0.87c0.21-0.17,0.43-0.33,0.65-0.48"/>
	<path class="st0" d="M20.53,44.5c0.52-0.21,1.05-0.41,1.57-0.61"/>
	<path class="st0" d="M17.39,45.78c-0.17,0.07-0.33,0.14-0.49,0.22c-0.21,0.1-0.41,0.21-0.61,0.33c-0.16,0.09-0.32,0.2-0.47,0.3"/>
	<path class="st0" d="M14.24,45.82c0.02-0.01,0.04-0.02,0.05-0.03c0.47-0.25,0.96-0.46,1.46-0.63c0.02-0.01,0.04-0.01,0.05-0.02"/>
	<path class="st0" d="M17.39,44.75c-0.04,0.01-0.08,0.02-0.12,0.03c-0.24,0.05-0.5,0.1-0.75,0.17c-0.24,0.06-0.47,0.13-0.7,0.21"/>
	<path class="st0" d="M64.49,30.83c0-0.39,0.04-0.77,0.11-1.16l1.47-7.72c0.44-2.3,2.44-3.96,4.78-3.96h2.97"/>
	<path class="st0" d="M51.6,53.37l-0.96,5.69c-0.06,0.35-0.1,0.7-0.15,1.04"/>
	<path class="st0" d="M54.04,39.57c1.02-3.24,3.39-5.91,6.51-7.29"/>
	<path class="st0" d="M50.81,70.19c-0.13-0.65-0.24-1.31-0.33-1.97"/>
	<line class="st0" x1="51.43" y1="72.78" x2="51.31" y2="72.32"/>
	<path class="st0" d="M50.97,70.9c-0.05-0.24-0.11-0.47-0.16-0.71"/>
	<line class="st0" x1="52.83" y1="46.05" x2="51.75" y2="52.46"/>
	<path class="st0" d="M50.48,60.11c-0.36,2.69-0.36,5.42,0,8.11"/>
	<line class="st0" x1="51.75" y1="52.46" x2="51.6" y2="53.37"/>
	<path class="st0" d="M51.31,72.32l-0.17-0.67c-0.01-0.04-0.02-0.07-0.03-0.11"/>
	<path class="st0" d="M52.68,80.03c-0.03-0.59-0.08-1.17-0.15-1.75"/>
	<path class="st0" d="M52.68,80.03c0.08,1.43,0.07,2.87-0.05,4.31L51.33,99.8"/>
	<path class="st0" d="M64.49,30.83L64.49,30.83l-3.17,1.15c-0.26,0.09-0.51,0.2-0.76,0.31"/>
	<path class="st0" d="M52.83,46.05l0.83-4.91c0.09-0.54,0.22-1.06,0.38-1.57"/>
	<path class="st0" d="M51.12,71.54c-0.05-0.21-0.1-0.43-0.14-0.64"/>
	<line class="st0" x1="51.65" y1="73.67" x2="51.43" y2="72.78"/>
	<path class="st0" d="M51.65,73.67l0.15,0.59c0.33,1.32,0.58,2.66,0.73,4.01"/>
	<line class="st0" x1="69.51" y1="36.96" x2="69.51" y2="36.96"/>
	<path class="st0" d="M66.53,30.83c-0.02-0.38-0.04-0.78-0.04-1.2c-0.02-1.56,1.76-5.49,1.93-8.65"/>
	<path class="st0" d="M66.53,30.83c0.16,2.8,0.83,4.74,2.98,6.13"/>
	<path class="st0" d="M68.42,20.97c0,0,0-0.01,0-0.01c0.04-0.84-0.42-2.05,0-2.32"/>
	<path class="st0" d="M70.72,30.83v-3.95c0-2.2-0.84-4.31-2.31-5.91"/>
	<path class="st0" d="M70.72,30.83v0.01c0,1.98,1.6,3.58,3.58,3.58h0.6"/>
	<path class="st0" d="M74.94,37.38c-0.99-0.04-1.99-0.09-2.98-0.17l-1.73-0.14c-0.24-0.02-0.48-0.06-0.72-0.1"/>
	<path class="st0" d="M68.69,36.74c0.26,0.09,0.54,0.16,0.81,0.22"/>
	<path class="st0" d="M74.95,49.14c-0.1-0.01-0.2-0.01-0.3-0.02l-1.02-0.11c-1.73-0.18-3.13-1.49-3.42-3.21l-1.52-9.06"/>
	<path class="st0" d="M64.49,30.83c0,1.02,0.24,2.03,0.73,2.93c0.75,1.42,2,2.47,3.48,2.98"/>
	<line class="st0" x1="68.42" y1="83.2" x2="69.18" y2="92.1"/>
	<path class="st0" d="M52.83,53.23c-0.35-0.27-0.71-0.53-1.08-0.78"/>
	<path class="st0" d="M55.31,55.43c-0.39-0.41-0.81-0.8-1.24-1.18"/>
	<path class="st0" d="M52.83,53.23c0.43,0.33,0.84,0.67,1.24,1.02"/>
	<path class="st0" d="M56.45,56.72c-0.36-0.44-0.74-0.87-1.14-1.28"/>
	<path class="st0" d="M51.7,52.42c0.02,0.01,0.03,0.02,0.05,0.03"/>
	<path class="st0" d="M56.45,56.72c2.73,3.32,4.46,7.42,4.86,11.8l2.63,28.3"/>
	<path class="st0" d="M56.45,44.77c-0.38-0.15-0.76-0.3-1.14-0.45"/>
	<path class="st0" d="M56.45,44.24c-0.38-0.08-0.76-0.17-1.14-0.25"/>
	<path class="st0" d="M55.31,43.99c-0.41-0.09-0.83-0.18-1.24-0.28"/>
	<path class="st0" d="M68.42,83.2c-0.07-0.98-0.13-1.96-0.19-2.94c-0.06-0.98-0.12-1.96-0.17-2.95c-0.11-1.96-0.22-3.93-0.3-5.89
		c-0.09-1.97-0.19-3.93-0.27-5.9l-0.1-2.95l-0.07-2.95l-0.06-2.95l-0.08-2.95l-0.01-0.18c0-0.06-0.01-0.14-0.01-0.2
		c-0.01-0.14-0.02-0.28-0.04-0.42c-0.01-0.14-0.03-0.28-0.05-0.42c-0.02-0.14-0.04-0.28-0.07-0.41c-0.1-0.55-0.27-1.09-0.51-1.6
		c-0.48-1.02-1.11-1.95-1.87-2.74c-0.76-0.79-1.64-1.45-2.59-1.94c-0.47-0.25-0.96-0.46-1.46-0.63c-0.25-0.08-0.5-0.16-0.76-0.22
		c-0.25-0.06-0.51-0.12-0.75-0.17c-0.87-0.17-1.73-0.35-2.6-0.53"/>
	<path class="st0" d="M56.45,44.77c0.77,0.31,1.54,0.63,2.31,0.95c0.23,0.1,0.44,0.19,0.65,0.29c0.21,0.1,0.41,0.21,0.61,0.33
		c0.4,0.23,0.77,0.5,1.12,0.79c0.7,0.57,1.3,1.25,1.78,1.98c0.48,0.73,0.85,1.52,1.09,2.34c0.12,0.41,0.24,0.81,0.35,1.22
		c0.03,0.1,0.05,0.2,0.08,0.31c0.02,0.1,0.04,0.21,0.06,0.31c0.02,0.1,0.04,0.21,0.05,0.31l0.05,0.34l0.43,2.92l0.44,2.92l0.44,2.92
		l0.4,2.93c0.26,1.95,0.5,3.9,0.75,5.86c0.25,1.95,0.48,3.91,0.71,5.86c0.12,0.98,0.23,1.95,0.33,2.93
		c0.11,0.98,0.22,1.95,0.31,2.93"/>
	<path class="st0" d="M55.31,44.32c-0.41-0.16-0.82-0.32-1.24-0.48"/>
	<path class="st0" d="M54.07,43.71c-0.27-0.06-0.54-0.12-0.81-0.18c0.27,0.1,0.54,0.21,0.81,0.31"/>
	<path class="st0" d="M1.3,17.99c0.11-0.66,0.23-1.31,0.35-1.94C4.6,1.55,16.52,0.3,24.44,0.13C28.24,0.05,32.97,0,37.66,0
		c6.97,0,13.85,0.12,17.44,0.46c2.02,0.19,3.83,0.53,5.45,1"/>
	<path class="st0" d="M0.18,30.83c-0.04,1.19-0.07,2.39-0.09,3.59"/>
	<path class="st0" d="M0.07,49.23c0.02,12.44,0.25,23.76,1.05,28.68C2.07,83.7,3.26,89.42,7,93.56"/>
	<path class="st0" d="M0.07,49.23c0-0.27,0-0.54,0-0.81c0-3.58-0.03-7.3-0.01-11.02"/>
	<path class="st0" d="M74.94,37.38c-0.01-0.99-0.02-1.98-0.03-2.96"/>
	<path class="st0" d="M0.06,37.41c0.01-1,0.02-2,0.03-2.99"/>
	<path class="st0" d="M0.18,30.83c0.15-4.53,0.47-8.9,1.12-12.83"/>
	<path class="st0" d="M74.95,49.14c0-3.87,0.01-7.84-0.01-11.76"/>
	<path class="st0" d="M74.95,49.14c0,0.15,0,0.3,0,0.45c0,11.55-0.13,22.08-0.83,27.15c-0.61,6.54-2.26,11.67-4.93,15.36"/>
	<path class="st0" d="M74.91,34.42c-0.02-1.21-0.04-2.4-0.07-3.59"/>
	<path class="st0" d="M73.81,17.99c0.13,0.76,0.25,1.54,0.35,2.33c0.27,2.17,0.45,4.3,0.54,6.4c0.06,1.34,0.1,2.72,0.13,4.1"/>
	<path class="st0" d="M60.56,1.47c8.62,2.48,11.88,8.63,13.26,16.53"/>
	<path class="st0" d="M51.33,99.8c2.74-0.19,5.48-0.59,8.57-1.38c1.46-0.38,2.8-0.91,4.04-1.61"/>
	<path class="st0" d="M12.31,97.41c-2.2-1.02-3.93-2.33-5.31-3.85"/>
	<path class="st0" d="M69.18,92.1c-1.45,2-3.2,3.57-5.24,4.71"/>
	<path class="st0" d="M51.33,99.8c-2.89,0.2-5.77,0.18-9.01,0.16c-1.31-0.01-2.69-0.02-4.15-0.02c-4.16,0.02-8.57,0.16-13.2-0.07"/>
	<path class="st0" d="M12.31,97.41c2.13,0.99,4.7,1.7,7.82,2.07c1.64,0.19,3.25,0.32,4.83,0.4"/>
	<line class="st0" x1="23.6" y1="80.13" x2="52.68" y2="80.13"/>
</g>
</svg>
