<?xml version="1.0" encoding="utf-8"?>
<!-- Generator: Adobe Illustrator 25.2.3, SVG Export Plug-In . SVG Version: 6.00 Build 0)  -->
<svg version="1.1" id="Layer_1" xmlns="http://www.w3.org/2000/svg" xmlns:xlink="http://www.w3.org/1999/xlink" x="0px" y="0px"
	 viewBox="0 0 75 100" style="enable-background:new 0 0 75 100;" xml:space="preserve">
<style type="text/css">
	.st0{fill:none;stroke:#BBB0A1;stroke-width:0.5;stroke-miterlimit:10;}
	.st1{fill:none;stroke:#BBB0A1;stroke-width:0.5;stroke-linecap:round;stroke-miterlimit:10;}
</style>
<g>
	<line class="st0" x1="50.69" y1="69.69" x2="74.65" y2="69.69"/>
	<line class="st0" x1="26.47" y1="69.69" x2="48.54" y2="69.69"/>
	<ellipse class="st0" cx="49.61" cy="6.33" rx="5.63" ry="0.57"/>
	<path class="st0" d="M53.51,17.95c0,0,0.28,4.61,0.26,7.57c-0.03,4.66-0.98,7.66-2.19,9.59c-1.81,2.91-5.51,3.57-8.17,1.98
		c0.32,0.92,0.7,1.7,1.11,2.35c2.34,3.76,7.84,3.76,10.18,0c1.21-1.94,2.16-4.94,2.19-9.59c0.03-4.85-0.27-9.07-0.67-12.44"/>
	<ellipse class="st0" cx="49.61" cy="17.4" rx="6.61" ry="0.67"/>
	<path class="st0" d="M43,17.4c-0.39,3.37-0.7,7.59-0.67,12.44c0.03,4.66,0.98,7.66,2.19,9.59c2.34,3.76,7.84,3.76,10.18,0
		c1.21-1.94,2.16-4.94,2.19-9.59c0.03-4.85-0.27-9.07-0.67-12.44"/>
	<circle class="st0" cx="45.11" cy="35.7" r="0.18"/>
	<circle class="st0" cx="55.23" cy="22.21" r="0.18"/>
	<circle class="st0" cx="47.57" cy="39.1" r="0.18"/>
	<circle class="st0" cx="55.4" cy="27.83" r="0.18"/>
	<circle class="st0" cx="48.48" cy="36.53" r="0.18"/>
	<circle class="st0" cx="48.37" cy="40.24" r="0.18"/>
	<circle class="st0" cx="46.72" cy="19.93" r="0.18"/>
	<circle class="st0" cx="43.47" cy="22.88" r="0.18"/>
	<circle class="st0" cx="52.84" cy="37.28" r="0.18"/>
	<circle class="st0" cx="51.61" cy="30.7" r="0.18"/>
	<circle class="st0" cx="49.55" cy="26.14" r="0.18"/>
	<circle class="st0" cx="54.72" cy="25.33" r="0.18"/>
	<g>
		<g>
			<path class="st0" d="M18.78,17.4c-0.39,3.37-0.7,7.59-0.67,12.44c0.03,4.66,0.98,7.66,2.19,9.59c2.34,3.76,7.84,3.76,10.18,0
				c1.21-1.94,2.16-4.94,2.19-9.59C32.7,24.99,32.4,20.77,32,17.4"/>
			<path class="st0" d="M29.29,17.95c0,0,0.28,4.61,0.26,7.57c-0.03,4.66-0.98,7.66-2.19,9.59c-1.81,2.91-5.51,3.57-8.17,1.98
				c0.32,0.92,0.7,1.7,1.11,2.35c2.34,3.76,7.84,3.76,10.18,0c1.21-1.94,2.16-4.94,2.19-9.59C32.7,24.99,32.4,20.77,32,17.4"/>
			<ellipse class="st0" cx="25.39" cy="17.4" rx="6.61" ry="0.67"/>
			<ellipse class="st0" cx="25.39" cy="6.33" rx="5.63" ry="0.57"/>
			<path class="st0" d="M36.26,79.58v0.86c0,0.87-4.87,1.57-10.87,1.57s-10.87-0.7-10.87-1.57v-0.86"/>
			<path class="st0" d="M28.06,78.06c4.71,0.17,8.2,0.79,8.2,1.52"/>
			<path class="st0" d="M22.72,78.06c-4.71,0.17-8.2,0.79-8.2,1.52"/>
			<path class="st0" d="M36.26,79.58c0,0.87-4.87,1.57-10.87,1.57s-10.87-0.7-10.87-1.57"/>
			<path class="st0" d="M22.72,78.06c-0.14,0.31-0.3,0.6-0.46,0.88"/>
			<path class="st0" d="M28.52,78.94c-0.17-0.27-0.32-0.57-0.47-0.88"/>
			<path class="st1" d="M22.14,79.14c0-0.01,0.01-0.02,0.02-0.04c0.04-0.05,0.07-0.12,0.1-0.17"/>
			<path class="st1" d="M28.52,78.94c0.04,0.06,0.1,0.18,0.1,0.18s0.01,0.02,0.01,0.03"/>
		</g>
		<circle class="st0" cx="21.21" cy="35.06" r="0.18"/>
		<circle class="st0" cx="30.25" cy="32.07" r="0.18"/>
		<circle class="st0" cx="24.94" cy="40.83" r="0.18"/>
		<circle class="st0" cx="23.03" cy="40.25" r="0.18"/>
		<circle class="st0" cx="24.38" cy="34.03" r="0.18"/>
		<circle class="st0" cx="25.36" cy="33.12" r="0.18"/>
		<circle class="st0" cx="28.28" cy="38.51" r="0.18"/>
		<circle class="st0" cx="25.14" cy="35.7" r="0.18"/>
		<circle class="st0" cx="27.8" cy="20.36" r="0.18"/>
		<circle class="st0" cx="19.68" cy="30.13" r="0.18"/>
		<circle class="st0" cx="25.22" cy="29.04" r="0.18"/>
		<circle class="st0" cx="23.21" cy="24.53" r="0.18"/>
	</g>
	<line class="st0" x1="0.42" y1="69.69" x2="24.31" y2="69.69"/>
	<path class="st0" d="M50.49,56.03c0,0.56-0.01,1.14-0.01,1.76c0,9.73,0.03,16.45,1.8,20.27"/>
	<path class="st0" d="M55.24,6.33c0,0,2.58,9.36,2.48,23.77c-0.06,8.6-2.94,12.14-5.25,13.59c-0.86,0.54-1.42,1.45-1.54,2.46
		c-0.21,1.81-0.41,4.84-0.45,9.88"/>
	<path class="st0" d="M48.74,56.3c0,0.48,0.01,0.97,0.01,1.48c0,9.72-0.03,16.45-1.8,20.27"/>
	<path class="st0" d="M43.98,6.33c0,0-2.58,9.36-2.48,23.77c0.06,8.6,2.94,12.14,5.25,13.59c0.86,0.54,1.42,1.45,1.54,2.46
		c0.22,1.84,0.42,4.94,0.45,10.15"/>
	<path class="st0" d="M26.26,56.32c0.03-5.22,0.23-8.33,0.45-10.17c0.12-1.01,0.68-1.92,1.54-2.46c2.31-1.45,5.19-4.99,5.25-13.59
		c0.1-14.42-2.48-23.77-2.48-23.77"/>
	<path class="st0" d="M26.26,56.32c0,0.47,0,0.96,0,1.46c0,9.73,0.03,16.45,1.8,20.27"/>
	<path class="st0" d="M19.76,6.33c0,0-2.58,9.36-2.48,23.77c0.06,8.6,2.94,12.14,5.25,13.59c0.86,0.54,1.42,1.45,1.54,2.46
		c0.21,1.82,0.41,4.86,0.45,9.94"/>
	<path class="st0" d="M24.51,56.09c0,0.54,0.01,1.1,0.01,1.7c0,9.72-0.03,16.45-1.8,20.27"/>
	<path class="st0" d="M26.26,56.32c4.14,0.44,8.06,0.28,11.68,0.27c0.99,0,1.92,0,2.81,0.01c2.9,0.02,5.36,0.04,7.98-0.3"/>
	<path class="st0" d="M38.74,79.58v0.86c0,0.64,2.67,1.2,6.49,1.44"/>
	<path class="st0" d="M59.44,78.91c-1.37-0.42-3.99-0.74-7.16-0.85"/>
	<path class="st0" d="M38.74,79.58c0-0.74,3.49-1.35,8.2-1.52"/>
	<path class="st0" d="M38.74,79.58c0,0.83,4.4,1.5,9.99,1.57"/>
	<path class="st0" d="M46.48,78.94c0.17-0.27,0.32-0.57,0.46-0.88"/>
	<path class="st0" d="M52.28,78.06c0.14,0.31,0.3,0.6,0.47,0.88"/>
	<path class="st0" d="M46.36,79.14c0-0.01,0.01-0.02,0.02-0.04c0.04-0.05,0.07-0.12,0.1-0.17"/>
	<path class="st0" d="M52.74,78.94c0.04,0.06,0.07,0.12,0.1,0.18c0.01,0.01,0.01,0.02,0.01,0.03"/>
	<path class="st0" d="M42.54,85.92c-3.47,0.91,9.18,10.81,12.63,13.46"/>
	<path class="st0" d="M42.54,85.92c-0.67-0.65-0.69-1.45-0.53-2.38c0.2-1.23,2.15-1.13,3.07-1.64l0.15-0.03"/>
	<line class="st0" x1="59.44" y1="78.91" x2="48.73" y2="81.15"/>
	<path class="st0" d="M42.54,85.92c0.22,0.22,0.52,0.41,0.9,0.59c1.21,0.56,15.6,6.89,21.67,9.57"/>
	<line class="st0" x1="45.23" y1="81.88" x2="48.73" y2="81.15"/>
	<line class="st0" x1="59.44" y1="78.91" x2="74.23" y2="75.83"/>
	<path class="st0" d="M68.15,93.39c-6.88-2.95-18.53-7.39-20.41-7.9c-2.25-0.61-4.28-1.44-4.28-1.44s-0.11-0.19-0.01,1.04l0.73,0.81
		"/>
	<path class="st0" d="M68.15,93.39c0.91-1.03,1.71-2.2,2.42-3.51"/>
	<path class="st0" d="M65.12,96.08c-1.55,1.05-3.28,1.83-5.22,2.33c-1.66,0.43-3.21,0.74-4.72,0.96"/>
	<path class="st0" d="M74.23,75.83c-0.04,0.32-0.07,0.62-0.11,0.91c-0.22,2.39-0.59,4.59-1.09,6.61"/>
	<path class="st0" d="M70.57,89.88c1.02-1.89,1.84-4.07,2.45-6.53"/>
	<path class="st0" d="M68.15,93.39c-0.91,1.04-1.92,1.94-3.04,2.69"/>
	<path class="st0" d="M24.51,56.09c-9.05-1.57-10.55-7.92-11.61-14.39c-0.56-3.4-0.71-11.32-0.71-19.94
		c0-6.56-0.16-13.84,0.71-19.79"/>
	<path class="st0" d="M50.49,56.03c0.7-0.13,1.41-0.28,2.16-0.47c5.62-1.45,8.84-6.39,9.61-14.66c0.48-3.43,0.57-10.55,0.56-18.36
		c0-5.14,0.05-10.56-0.17-15.47c-0.06-1.42-0.18-2.86-0.36-4.32c-0.03-0.25-0.07-0.5-0.1-0.75"/>
	<path class="st0" d="M74.23,75.83c0.61-5.35,0.72-15.34,0.72-26.24c0-7.6,0.07-15.62-0.25-22.87c-0.09-2.1-0.27-4.23-0.54-6.4
		C73.09,11.85,70.36,5.05,62.19,2"/>
	<path class="st0" d="M12.9,1.97c3.89-1.48,8.1-1.76,11.54-1.83C28.24,0.05,32.98,0,37.66,0c6.97,0,13.85,0.12,17.44,0.46
		c2.73,0.26,5.07,0.79,7.08,1.54"/>
	<path class="st0" d="M12.9,1.97C7.85,3.89,3.32,7.86,1.65,16.05c-1.88,9.27-1.59,21.5-1.59,32.38C0.07,61.18,0.3,72.89,1.12,77.91
		c1.64,10,3.97,19.8,19.01,21.56c6.4,0.75,12.45,0.49,18.03,0.47c1.46,0,2.84,0.01,4.15,0.02c4.67,0.04,8.58,0.07,12.86-0.58"/>
</g>
</svg>
