<?xml version="1.0" encoding="utf-8"?>
<!-- Generator: Adobe Illustrator 25.2.3, SVG Export Plug-In . SVG Version: 6.00 Build 0)  -->
<svg version="1.1" id="Layer_1" xmlns="http://www.w3.org/2000/svg" xmlns:xlink="http://www.w3.org/1999/xlink" x="0px" y="0px"
	 viewBox="0 0 75 100" style="enable-background:new 0 0 75 100;" xml:space="preserve">
<style type="text/css">
	.st0{fill:none;stroke:#BBB0A1;stroke-width:0.5;stroke-linejoin:bevel;stroke-miterlimit:10;}
</style>
<g>
	<path class="st0" d="M38.12,98.2c0.64-0.21,1.17-0.53,0.67-1.22c-0.49-0.68-1.16-0.68-0.24-0.98c0.92-0.29,1.11,0.42,1.14-0.59
		c0.03-1.01-0.26-0.62,0.62-1.32c0.88-0.7,1.58-1.96,1.58-1.96s-0.15,0.25,0.4,0.29c0.55,0.04,0.51,0.42,1.22,0.13
		c0.72-0.29,1.81-0.59,2.15-0.21c0.34,0.38,1.05,0.29,1.05,0.29l1.22-0.21c0,0,0.93,0.29,1.26,0.97c0.34,0.67,0.21,0.84,1.01,1.35
		c0.8,0.51,1.8,0.29,1.95,0.8c0.15,0.51-0.39,1,0.2,1.15"/>
	<path class="st0" d="M44.5,91.14c-0.04-0.74,0-0.77-0.25-1.39c-0.25-0.61-0.21-1.13-0.21-1.13s0.93-0.03,1.6-0.41
		c0.67-0.38,0.55-1.17,1.35-0.75c0.8,0.42,1.22,1.16,1.22,1.16v1.13c0,0,0.63,0.44,0.72,0.95"/>
	<path class="st0" d="M52.54,86.87c0.59-0.63,1.05-1.6,1.62-1.22c0.57,0.38,0.86-0.21,0.95,0.57c0.08,0.78-0.76,0.86,0.17,1.58
		c0.79,0.61,0.45,0.3,0.72,0.54"/>
	<path class="st0" d="M16.79,93.8c0.28-0.24-0.07,0.07,0.72-0.54c0.93-0.72,0.08-0.8,0.17-1.58c0.08-0.78,0.38-0.19,0.95-0.57
		c0.57-0.38,1.03,0.59,1.62,1.22"/>
	<path class="st0" d="M28.5,90.83c0,0,0.58-0.41,1.16-0.81c0.58-0.39,0.41,0.23,0.97,0.75"/>
	<path class="st0" d="M36.17,93.01c0.57-0.52,0.4-1.14,0.97-0.75s1.16,0.81,1.16,0.81"/>
	<path class="st0" d="M25.29,90.58c0.23-0.5-0.55-0.32-1.14-0.79s0.25-0.25,0.91-1.03c0.65-0.78-0.36-0.53-0.32-1.43
		c0.04-0.9,0.93-0.74,1.35-1.14c0.42-0.39,1.1,0.48,1.1,0.48s0.04,0.42,0.24,1.1c0.2,0.68,0.3,0.79,0.51,1.31"/>
	<path class="st0" d="M0.07,36.06c0.07-7.13,0.4-14.16,1.59-20.01c0.56-2.78,1.46-5.06,2.59-6.95"/>
	<path class="st0" d="M74.91,59.13c-0.08,7.58-0.29,13.99-0.79,17.61c-0.21,2.24-0.54,4.3-0.99,6.21"/>
	<path class="st0" d="M74.91,59.13c0.03-3.03,0.04-6.24,0.04-9.53c0-5.65,0.04-11.54-0.07-17.17"/>
	<path class="st0" d="M0.07,36.06c-0.04,4.16,0,8.36,0,12.37C0.07,61.18,0.3,72.89,1.12,77.91c0.28,1.7,0.58,3.39,0.96,5.03"/>
	<path class="st0" d="M74.78,28.91c0.04,1.16,0.07,2.33,0.09,3.51"/>
	<path class="st0" d="M73.12,82.95c-2.01,8.51-6.44,13.72-13.22,15.47c-6.35,1.64-11.26,1.59-17.58,1.54
		c-1.31-0.01-2.69-0.02-4.15-0.02c-5.58,0.02-11.63,0.28-18.03-0.47C7.65,98.02,3.92,91.01,2.08,82.95"/>
	<path class="st0" d="M74.66,26.15c0.01,0.19,0.03,0.39,0.04,0.58c0.03,0.72,0.06,1.45,0.08,2.19"/>
	<path class="st0" d="M68.86,6.42c3.18,3.53,4.6,8.36,5.3,13.91c0.25,1.97,0.41,3.91,0.5,5.82"/>
	<path class="st0" d="M4.24,9.1c4.78-7.99,13.79-8.83,20.2-8.96C28.24,0.05,32.98,0,37.66,0c6.97,0,13.85,0.12,17.44,0.46
		c6.56,0.63,10.88,2.76,13.76,5.95"/>
	<path class="st0" d="M37.61,22.99c-4.28-0.87-4.86-2.43-6.9-2.62c-1.45-0.14-2.03-1.5-3.26-2.5"/>
	<path class="st0" d="M50.15,8.7c0,0,0.58-1.07,1.07-0.97c0.49,0.1,1.46,0,1.46,0l1.65-0.87c0,0,2.14-0.19,2.92-0.53"/>
	<path class="st0" d="M7.82,10.4c1.33-2.63,0.44-3.32,2.37-2.65c0.45,0.02,0.94,0.08,1.29-0.02c0.68-0.19,1.46-0.97,2.43-1.65
		c0.97-0.68,1.75-0.1,2.53-0.5c0.78-0.4,2.97-2.22,3.74-2.22c0.78,0,2.18,1.75,3.55,1.46c0.52-0.11,0.94-0.21,1.3-0.26"/>
	<path class="st0" d="M35.18,6.76c0.49-0.1,1.46-0.49,1.85-0.39C37.42,6.47,39.75,9,39.75,9s1.17-0.58,1.94-0.68
		c0.37-0.05,0.75-0.52,1.04-1.01"/>
	<path class="st0" d="M57.24,6.32c0.78-0.34,2.55-4.04,2.55-4.04l1.92,4.58"/>
	<path class="st0" d="M42.73,7.31c0.32-0.53,0.53-1.07,0.53-1.07s2.02,2.46,3,3.14s0,0,1.26-0.68c1.26-0.68,1.94-0.87,1.94-0.87
		l0.68,0.87"/>
	<path class="st0" d="M33.06,4.03c0.86,1.16,1.82,2.8,2.12,2.73"/>
	<path class="st0" d="M25.02,4.55c0.59-0.09,1.04-0.08,1.52,0.17c0.78,0.39,2.53,0.39,3.11,0.19c0.58-0.19,1.35-1.7,2.13-1.99
		c0.29-0.11,0.77,0.41,1.29,1.1"/>
	<path class="st0" d="M61.71,6.86l1.46-0.87c0,0,2.23,1.26,2.43,1.75"/>
	<path class="st0" d="M39.46,18.52c0.29-1.17,1.46-1.17,1.85-1.85s1.55-1.46,1.75-2.39c0.19-0.93,2.43-1.99,2.93-2.67
		c0.5-0.68,3.19-1.85,4.17-2.92"/>
	<path class="st0" d="M65.6,7.73c0,0,0,0-1.36,0.97c-0.19,0.14-0.41,0.28-0.65,0.44"/>
	<path class="st0" d="M65.6,7.73c0,0,0-1.07,1.17-0.97s1.17,0.1,1.17,0.1s0.41-0.08,0.94-0.44"/>
	<path class="st0" d="M63.58,9.15c-1.49,0.98-3.84,2.34-5.18,3.35c-1.55,1.17-4.57,2.04-6.12,3.3c-1.02,0.83-4.08,6.73-6.55,11.02"
		/>
	<path class="st0" d="M22.63,16.24C21.74,15.97,21,15.7,21,15.7s-0.49-0.97-1.26-1.46c-0.78-0.49-2.04-0.78-3.6-1.26
		c-1.55-0.49-1.75,0-5.25-1.46"/>
	<path class="st0" d="M10.89,11.52c-0.12-0.05-0.33-0.12-0.57-0.21"/>
	<path class="st0" d="M10.33,11.32c-0.12-0.04-0.24-0.08-0.38-0.13"/>
	<polyline class="st0" points="33.44,11.37 33.79,10 34.81,9.37 35.18,6.76 	"/>
	<polyline class="st0" points="32.99,8.46 31.67,8.46 33.06,4.03 	"/>
	<polyline class="st0" points="36.18,7.54 37.38,8.46 38.29,9.77 	"/>
	<polyline class="st0" points="44.8,10.47 43.77,9.32 42.73,7.31 	"/>
	<path class="st0" d="M17.41,11.37c0,0,0.51-1.66,0.57-1.88c0.06-0.23-0.63-1.28-0.63-1.28l-0.92-0.88l-0.96,0.5l-0.91-0.5
		l-1.71,0.22"/>
	<polyline class="st0" points="62.09,9.77 61.63,9.07 60.38,9.35 59.58,7.54 57.24,6.32 	"/>
	<line class="st0" x1="42.69" y1="10.74" x2="40.18" y2="11.37"/>
	<path class="st0" d="M59.06,11.63c0,0-1.37,0.13-1.6-0.99c-0.23-1.13-2.66,0.73-2.66,0.73l-3.06-0.63l-2.39,0.25l-0.05-1.33"/>
	<line class="st0" x1="61.71" y1="6.86" x2="63.58" y2="9.15"/>
	<line class="st0" x1="61.71" y1="6.86" x2="59.66" y2="5.58"/>
	<line class="st0" x1="7.82" y1="10.4" x2="4.24" y2="9.1"/>
	<line class="st0" x1="10.33" y1="11.32" x2="10.89" y2="11.52"/>
	<line class="st0" x1="10.33" y1="11.32" x2="7.82" y2="10.4"/>
	<line class="st0" x1="73.12" y1="82.95" x2="2.08" y2="82.95"/>
	<line class="st0" x1="2.08" y1="82.95" x2="2.08" y2="82.95"/>
	<line class="st0" x1="73.12" y1="82.95" x2="73.13" y2="82.95"/>
	<line class="st0" x1="14.04" y1="36.06" x2="0.07" y2="36.06"/>
	<line class="st0" x1="23.16" y1="70.37" x2="18.87" y2="70.37"/>
	<line class="st0" x1="10.94" y1="65.61" x2="8.18" y2="65.61"/>
	<line class="st0" x1="16.61" y1="69.43" x2="13.85" y2="69.43"/>
	<line class="st0" x1="22.06" y1="91.14" x2="22.65" y2="91.14"/>
	<line class="st0" x1="23.66" y1="92.14" x2="24.25" y2="92.14"/>
	<line class="st0" x1="8.18" y1="63.85" x2="3.89" y2="63.85"/>
	<line class="st0" x1="15.23" y1="56.87" x2="10.94" y2="56.87"/>
	<line class="st0" x1="16.68" y1="75.01" x2="11.6" y2="75.01"/>
	<line class="st0" x1="64.99" y1="69.43" x2="62.18" y2="69.43"/>
	<line class="st0" x1="15.65" y1="44.22" x2="7.94" y2="44.06"/>
	<path class="st0" d="M40.3,32.21l-0.07-2.76c-0.01-0.31,0.33-0.56,0.76-0.57l3.57-0.09"/>
	<path class="st0" d="M46.05,30.13l-0.02-0.81c-0.01-0.31-0.36-0.55-0.78-0.54l-0.69,0.02"/>
	<path class="st0" d="M45.74,26.82c9.1-0.24,22.7-0.59,28.93-0.67"/>
	<path class="st0" d="M19.08,34.03l8.36-4.72c2.79-1.57,6.14-2.18,9.33-2.25c0,0,3.74-0.11,8.95-0.25"/>
	<path class="st0" d="M35.05,30.53l-0.99,3.05c-0.03,0.08-0.14,0.11-0.23,0.11l-14.75,0.35"/>
	<path class="st0" d="M27.26,29.49l7.21,0.8c0.21,0.02,0.41,0.1,0.57,0.23"/>
	<path class="st0" d="M25.96,33.31c0.02,0.06,0.08,0.1,0.15,0.1l6.74-0.26c0.37-0.01,0.83-0.24,0.95-0.6l0.56-1.64
		c0.04-0.12-0.14-0.27-0.26-0.28l-4.24-0.42c-0.14-0.02-0.3,0.01-0.41,0.1l-3.45,2.82C25.95,33.17,25.94,33.25,25.96,33.31z"/>
	<path class="st0" d="M19.56,33.76l4.69-0.24c0.37-0.02,0.73-0.2,1.02-0.43l3.5-2.82c0.04-0.03,0.06-0.09,0.04-0.14
		c-0.01-0.05-0.06-0.09-0.11-0.1l-2-0.27"/>
	<path class="st0" d="M7.76,38.89c-5,2.51-4.41,3.51-4.41,3.51l0.01,0.03c0.99,1.35,4.56,1.59,4.56,1.59"/>
	<line class="st0" x1="7.92" y1="44.02" x2="7.8" y2="38.89"/>
	<path class="st0" d="M7.76,38.89c6.65-3.17,11.32-4.86,11.32-4.86"/>
	<path class="st0" d="M20.08,51.07c0.33,0.37,0.54,0.84,0.55,1.37c0.03,1.18-0.91,2.16-2.09,2.19"/>
	<path class="st0" d="M16.96,51c-0.39,0.4-0.62,0.94-0.61,1.54c0.03,1.18,1.01,2.12,2.19,2.09"/>
	<line class="st0" x1="18.35" y1="51.02" x2="18.35" y2="51.02"/>
	<path class="st0" d="M18.96,51.09c0.57,0.19,0.99,0.73,1,1.37c0.02,0.82-0.63,1.5-1.44,1.52c-0.82,0.02-1.5-0.63-1.52-1.44
		c-0.02-0.76,0.54-1.39,1.28-1.5"/>
	<path class="st0" d="M18.35,51.02c-0.02,0-0.04,0.01-0.06,0.01"/>
	<path class="st0" d="M17.65,51.02c-0.52,0.3-0.88,0.87-0.86,1.52c0.02,0.94,0.8,1.69,1.75,1.66c0.94-0.02,1.69-0.8,1.66-1.75
		c-0.01-0.6-0.34-1.1-0.81-1.4"/>
	<path class="st0" d="M19.27,52.48c0,0.22-0.09,0.42-0.23,0.56"/>
	<path class="st0" d="M19.04,53.04c-0.14,0.14-0.32,0.23-0.53,0.23c-0.43,0.01-0.79-0.33-0.8-0.76c-0.01-0.37,0.24-0.68,0.58-0.78"
		/>
	<path class="st0" d="M19.27,52.48C19.27,52.48,19.27,52.48,19.27,52.48c-0.01-0.3-0.17-0.55-0.41-0.68"/>
	<path class="st0" d="M18.82,51.99c0.16,0.11,0.27,0.29,0.27,0.49c0.01,0.33-0.26,0.61-0.59,0.62c-0.34,0.01-0.61-0.26-0.62-0.59
		c-0.01-0.26,0.15-0.49,0.39-0.58"/>
	<path class="st0" d="M18.74,52.46c-0.02-0.13-0.12-0.24-0.26-0.23c-0.15,0-0.26,0.13-0.26,0.28c0,0.15,0.13,0.27,0.27,0.26
		c0.15,0,0.26-0.13,0.26-0.28C18.76,52.47,18.75,52.47,18.74,52.46"/>
	<path class="st0" d="M18.68,52.49c0-0.1-0.09-0.19-0.19-0.18c-0.11,0-0.19,0.09-0.19,0.19c0,0.1,0.09,0.19,0.19,0.18
		C18.6,52.68,18.68,52.59,18.68,52.49z"/>
	<line class="st0" x1="18.34" y1="51.03" x2="18.22" y2="52.5"/>
	<line class="st0" x1="18.35" y1="51.02" x2="18.34" y2="51.03"/>
	<polyline class="st0" points="18.82,51.99 18.93,51.33 18.97,51.05 	"/>
	<line class="st0" x1="18.82" y1="51.99" x2="18.74" y2="52.46"/>
	<line class="st0" x1="18.74" y1="52.46" x2="18.73" y2="52.52"/>
	<line class="st0" x1="18.5" y1="51.04" x2="18.38" y2="52.14"/>
	<line class="st0" x1="18.68" y1="52.17" x2="18.82" y2="51.04"/>
	<path class="st0" d="M19.27,52.48c-0.05-0.03-0.11-0.07-0.17-0.07h0"/>
	<path class="st0" d="M18.87,52.96c0.05,0.04,0.1,0.07,0.17,0.08"/>
	<path class="st0" d="M19.27,52.48c0.09,0.06,0.15,0.14,0.16,0.25c0,0.18-0.14,0.32-0.31,0.33c-0.03,0-0.05-0.01-0.07-0.01"/>
	<line class="st0" x1="24.31" y1="54.63" x2="24.27" y2="54.63"/>
	<line class="st0" x1="18.54" y1="54.63" x2="24.27" y2="54.63"/>
	<line class="st0" x1="18.28" y1="51.03" x2="18.34" y2="51.03"/>
	<line class="st0" x1="16.96" y1="51" x2="17.65" y2="51.02"/>
	<line class="st0" x1="16.96" y1="51" x2="15.41" y2="50.97"/>
	<line class="st0" x1="18.5" y1="51.04" x2="18.34" y2="51.03"/>
	<line class="st0" x1="18.82" y1="51.04" x2="18.97" y2="51.05"/>
	<line class="st0" x1="18.5" y1="51.04" x2="18.82" y2="51.04"/>
	<line class="st0" x1="20.08" y1="51.07" x2="28.13" y2="51.23"/>
	<line class="st0" x1="19.38" y1="51.05" x2="20.08" y2="51.07"/>
	<line class="st0" x1="17.65" y1="51.02" x2="18.28" y2="51.03"/>
	<line class="st0" x1="19.38" y1="51.05" x2="18.97" y2="51.05"/>
	<path class="st0" d="M56.44,38.62l-0.15-6.13c-0.01-0.39,0.42-0.71,0.96-0.73l5.39-0.13c0.54-0.01,0.98,0.29,0.99,0.68l0.06,2.43"
		/>
	<path class="st0" d="M46.05,30.13c-1.03,0.22-2.04,0.51-3.02,0.86"/>
	<path class="st0" d="M40.3,32.21c0.87-0.48,1.79-0.88,2.73-1.22"/>
	<path class="st0" d="M46.05,30.13c1.93-0.42,3.92-0.62,5.87-0.67c0,0,16.95-0.48,22.86-0.55"/>
	<path class="st0" d="M40.3,32.21c-0.07,0.04-0.13,0.06-0.2,0.1l-10.59,5.97"/>
	<path class="st0" d="M49.73,33.84l-1.26,3.86c-0.03,0.1-0.18,0.14-0.29,0.14l-1.95,0.05"/>
	<line class="st0" x1="40.44" y1="38.03" x2="46.24" y2="37.89"/>
	<line class="st0" x1="40.44" y1="38.03" x2="29.52" y2="38.28"/>
	<line class="st0" x1="40.31" y1="32.59" x2="46.13" y2="33.23"/>
	<line class="st0" x1="40.31" y1="32.59" x2="39.87" y2="32.54"/>
	<path class="st0" d="M49.73,33.84c-0.21-0.16-0.47-0.26-0.73-0.29l-2.88-0.32"/>
	<line class="st0" x1="40.43" y1="37.41" x2="46.22" y2="37.19"/>
	<path class="st0" d="M40.38,35.43l-2.1,1.72c-0.06,0.05-0.09,0.14-0.06,0.22c0.03,0.08,0.11,0.13,0.19,0.13l2.02-0.08"/>
	<path class="st0" d="M40.38,35.43l2.27-1.85c0.14-0.11,0.34-0.14,0.52-0.12l2.97,0.29"/>
	<path class="st0" d="M46.22,37.19l0.73-0.03c0.47-0.02,1.05-0.31,1.2-0.76l0.71-2.08c0.05-0.15-0.17-0.34-0.33-0.36l-2.39-0.23"/>
	<path class="st0" d="M40.36,34.66l1.41-1.14c0.06-0.04,0.08-0.11,0.06-0.18c-0.02-0.06-0.07-0.12-0.14-0.13l-1.36-0.18"/>
	<line class="st0" x1="39.16" y1="32.87" x2="40.32" y2="33.03"/>
	<path class="st0" d="M30.12,37.94l5.93-0.31c0.46-0.02,0.92-0.25,1.28-0.54l3.02-2.44"/>
	<path class="st0" d="M15.19,44.43c-6.32,3.18-5.59,4.44-5.59,4.44l0.01,0.04c1.25,1.72,5.78,2.01,5.78,2.01"/>
	<line class="st0" x1="15.23" y1="44.43" x2="15.39" y2="50.93"/>
	<path class="st0" d="M15.65,44.22c8.17-3.86,13.87-5.93,13.87-5.93"/>
	<path class="st0" d="M15.19,44.43c0.16-0.07,0.31-0.14,0.46-0.22"/>
	<path class="st0" d="M28.11,59.02c-1.2,0.3-2.08,1.4-2.05,2.69c0.04,1.49,1.28,2.68,2.77,2.64c1.5-0.04,2.68-1.28,2.64-2.78
		c-0.02-1-0.59-1.86-1.41-2.31"/>
	<line class="st0" x1="28.68" y1="58.94" x2="28.68" y2="58.94"/>
	<line class="st0" x1="28.59" y1="59.78" x2="28.59" y2="59.78"/>
	<path class="st0" d="M28.59,59.78c-0.97,0.1-1.71,0.92-1.69,1.91c0.03,1.03,0.88,1.85,1.92,1.83c1.03-0.02,1.85-0.88,1.83-1.92
		c-0.02-0.81-0.55-1.49-1.27-1.73"/>
	<line class="st0" x1="28.62" y1="59.5" x2="28.62" y2="59.5"/>
	<path class="st0" d="M28.62,59.5c-1.14,0.08-2.03,1.05-2,2.21c0.03,1.19,1.02,2.13,2.21,2.11c1.19-0.03,2.13-1.02,2.1-2.21
		c-0.02-0.95-0.66-1.75-1.52-2.01"/>
	<line class="st0" x1="29.4" y1="59.59" x2="29.4" y2="59.59"/>
	<path class="st0" d="M29.76,61.62c-0.01-0.37-0.22-0.68-0.52-0.84"/>
	<path class="st0" d="M29.76,61.62C29.76,61.62,29.76,61.62,29.76,61.62c0.01,0.29-0.11,0.54-0.29,0.73"/>
	<path class="st0" d="M29.46,62.35c-0.17,0.17-0.41,0.29-0.67,0.29c-0.55,0.01-1-0.42-1.02-0.97c-0.01-0.47,0.3-0.86,0.73-0.98"/>
	<path class="st0" d="M29.19,61.01c0.2,0.13,0.34,0.36,0.34,0.62c0.01,0.42-0.33,0.78-0.75,0.79c-0.43,0.01-0.77-0.32-0.78-0.75
		c-0.01-0.33,0.2-0.62,0.49-0.73"/>
	<path class="st0" d="M29.09,61.58c-0.03-0.16-0.17-0.28-0.33-0.27c-0.19,0-0.33,0.16-0.33,0.35c0,0.19,0.16,0.34,0.35,0.33
		c0.19,0,0.33-0.16,0.33-0.35C29.11,61.62,29.1,61.6,29.09,61.58"/>
	<path class="st0" d="M29.01,61.64c0-0.13-0.11-0.23-0.24-0.23c-0.13,0-0.24,0.11-0.23,0.24c0,0.13,0.11,0.23,0.25,0.23
		C28.9,61.88,29.01,61.77,29.01,61.64z"/>
	<polyline class="st0" points="28.59,59.78 28.59,59.7 28.62,59.5 	"/>
	<line class="st0" x1="28.59" y1="59.78" x2="28.43" y2="61.66"/>
	<line class="st0" x1="28.62" y1="59.5" x2="28.66" y2="59.11"/>
	<polyline class="st0" points="29.09,61.58 29.33,60.18 29.4,59.59 	"/>
	<line class="st0" x1="29.09" y1="61.58" x2="29.08" y2="61.68"/>
	<line class="st0" x1="29.45" y1="59.22" x2="29.4" y2="59.59"/>
	<line class="st0" x1="28.86" y1="59.14" x2="28.62" y2="61.2"/>
	<line class="st0" x1="29.25" y1="59.19" x2="29.01" y2="61.25"/>
	<line class="st0" x1="28.38" y1="51.96" x2="27.62" y2="51.25"/>
	<line class="st0" x1="27.92" y1="52.22" x2="26.93" y2="51.22"/>
	<line class="st0" x1="29.56" y1="51.4" x2="29.56" y2="51.39"/>
	<line class="st0" x1="29.39" y1="51.4" x2="29.39" y2="51.43"/>
	<line class="st0" x1="29.39" y1="51.4" x2="29.39" y2="51.4"/>
	<polyline class="st0" points="29.02,50.8 28.62,50.81 27.65,50.09 	"/>
	<polyline class="st0" points="29.76,50.78 29.37,50.79 28.34,49.97 	"/>
	<polyline class="st0" points="30.44,50.76 30.04,50.77 28.93,49.87 	"/>
	<line class="st0" x1="30.17" y1="58.56" x2="30.17" y2="58.56"/>
	<line class="st0" x1="30.17" y1="58.56" x2="30.17" y2="58.56"/>
	<path class="st0" d="M29.53,61.55L29.53,61.55c0.09,0,0.16,0.03,0.23,0.07"/>
	<path class="st0" d="M29.76,61.62c0.11,0.07,0.19,0.19,0.2,0.33c0.01,0.22-0.17,0.41-0.4,0.42c-0.03,0-0.06-0.01-0.09-0.02"/>
	<path class="st0" d="M29.25,62.24c0.06,0.06,0.13,0.09,0.21,0.1"/>
	<path class="st0" d="M29.39,51.4c-0.42,0.01-0.85,0.02-1.27,0.04"/>
	<path class="st0" d="M29.45,51.4c-0.02,0-0.03,0-0.05,0"/>
	<line class="st0" x1="37.49" y1="64.36" x2="28.79" y2="64.36"/>
	<line class="st0" x1="30.21" y1="59.35" x2="46.17" y2="59.67"/>
	<path class="st0" d="M56.44,38.62l4.74-2.67c0.81-0.45,1.65-0.84,2.51-1.2"/>
	<path class="st0" d="M63.69,34.75c3.51-1.46,7.38-2.23,11.18-2.33"/>
	<line class="st0" x1="56.44" y1="38.62" x2="47.91" y2="43.43"/>
	<path class="st0" d="M63.89,43.06l7.43-0.18c0.13,0,0.32-0.05,0.36-0.18l1.58-4.84"/>
	<line class="st0" x1="47.91" y1="43.43" x2="56.56" y2="43.23"/>
	<line class="st0" x1="63.89" y1="43.06" x2="56.56" y2="43.23"/>
	<path class="st0" d="M63.74,36.54l8.61,0.96c0.33,0.03,0.65,0.17,0.91,0.37"/>
	<line class="st0" x1="63.74" y1="36.54" x2="60.9" y2="36.23"/>
	<path class="st0" d="M63.77,38.02L58.9,42c-0.08,0.07-0.11,0.18-0.07,0.28c0.04,0.1,0.13,0.16,0.24,0.16l4.81-0.18"/>
	<path class="st0" d="M63.77,38.02l0.6-0.49c0.17-0.14,0.43-0.18,0.66-0.16l6.72,0.66c0.2,0.02,0.49,0.25,0.42,0.45l-0.9,2.6
		c-0.19,0.56-0.91,0.93-1.51,0.95l-5.9,0.22"/>
	<path class="st0" d="M56.54,42.55c0.43-0.11,0.84-0.34,1.18-0.61l5.56-4.48c0.07-0.05,0.1-0.14,0.07-0.23
		c-0.02-0.08-0.09-0.15-0.18-0.16L60,36.65"/>
	<path class="st0" d="M48.67,43.01l7.44-0.39c0.15-0.01,0.29-0.03,0.43-0.07"/>
	<path class="st0" d="M29.25,59.19c-0.12-0.02-0.26-0.03-0.4-0.05"/>
	<path class="st0" d="M27.92,52.22c-1.74,0.97-2.9,1.78-3.65,2.42"/>
	<path class="st0" d="M30.06,59.28c0.07,0.01,0.13,0.01,0.13,0.01"/>
	<path class="st0" d="M28.86,59.14c-0.06-0.01-0.13-0.02-0.2-0.03"/>
	<path class="st0" d="M29.25,59.19c0.07,0.01,0.13,0.02,0.19,0.02"/>
	<path class="st0" d="M27.92,52.22c0.15-0.08,0.3-0.17,0.46-0.26"/>
	<path class="st0" d="M29.94,51.15c-0.18,0.09-0.32,0.17-0.49,0.26"/>
	<path class="st0" d="M30.06,59.28c-0.12-0.01-0.33-0.03-0.61-0.06"/>
	<path class="st0" d="M29.45,51.4c-0.02,0.01-0.04,0.02-0.06,0.03"/>
	<path class="st0" d="M28.11,59.02c-1.79-0.31-4.22-0.96-5.16-2.25l-0.01-0.05c0,0-0.36-0.63,1.34-2.09"/>
	<path class="st0" d="M28.11,59.02c0.19,0.03,0.38,0.06,0.55,0.09"/>
	<path class="st0" d="M28.38,51.96c0.32-0.17,0.66-0.35,1.01-0.53"/>
	<line class="st0" x1="30.07" y1="54.23" x2="30.07" y2="54.22"/>
	<line class="st0" x1="29.99" y1="51.15" x2="30" y2="51.38"/>
	<line class="st0" x1="30.17" y1="58.56" x2="30.17" y2="58.31"/>
	<line class="st0" x1="30" y1="51.38" x2="30.05" y2="53.36"/>
	<line class="st0" x1="30.17" y1="58.31" x2="30.16" y2="57.87"/>
	<line class="st0" x1="30.19" y1="59.29" x2="30.17" y2="58.56"/>
	<line class="st0" x1="30.05" y1="53.36" x2="30.07" y2="54.22"/>
	<line class="st0" x1="30.16" y1="57.87" x2="30.07" y2="54.23"/>
	<path class="st0" d="M45.9,44.2c1.3-0.51,2.01-0.77,2.01-0.77"/>
	<path class="st0" d="M29.94,51.15c7.29-3.47,13.07-5.82,15.96-6.95"/>
	<path class="st0" d="M47.85,69.46c1.42,0.38,2.48,1.66,2.51,3.2c0.05,1.88-1.44,3.44-3.31,3.48"/>
	<path class="st0" d="M46.86,69.34c-1.86,0.06-3.33,1.61-3.29,3.48c0.05,1.88,1.6,3.36,3.48,3.32"/>
	<line class="st0" x1="46.86" y1="69.34" x2="46.86" y2="69.34"/>
	<line class="st0" x1="46.74" y1="70.4" x2="46.74" y2="70.4"/>
	<path class="st0" d="M47.72,70.51c0.91,0.31,1.57,1.16,1.59,2.17c0.03,1.3-0.99,2.38-2.29,2.41c-1.3,0.03-2.38-1-2.41-2.29
		c-0.03-1.24,0.91-2.28,2.12-2.4"/>
	<line class="st0" x1="46.78" y1="70.04" x2="46.78" y2="70.04"/>
	<line class="st0" x1="47.77" y1="70.15" x2="47.77" y2="70.15"/>
	<path class="st0" d="M46.78,70.04c-1.43,0.1-2.55,1.31-2.51,2.77c0.04,1.5,1.28,2.68,2.77,2.64c1.49-0.04,2.68-1.28,2.64-2.77
		c-0.03-1.2-0.83-2.19-1.91-2.52"/>
	<path class="st0" d="M48.21,72.7c-0.01-0.46-0.28-0.86-0.66-1.06"/>
	<path class="st0" d="M47.84,73.61c-0.22,0.22-0.51,0.36-0.84,0.37c-0.69,0.02-1.26-0.52-1.27-1.21c-0.01-0.58,0.38-1.08,0.92-1.23"
		/>
	<path class="st0" d="M48.21,72.7C48.21,72.7,48.21,72.7,48.21,72.7c0.01,0.36-0.13,0.68-0.37,0.92"/>
	<path class="st0" d="M46.62,71.84c-0.37,0.15-0.62,0.51-0.61,0.92c0.01,0.53,0.45,0.95,0.98,0.94c0.53-0.01,0.95-0.45,0.94-0.99
		c-0.01-0.32-0.18-0.61-0.43-0.78"/>
	<path class="st0" d="M47.38,72.65c-0.04-0.2-0.21-0.35-0.42-0.34c-0.23,0.01-0.42,0.2-0.41,0.44c0.01,0.24,0.2,0.42,0.44,0.42
		c0.24-0.01,0.42-0.2,0.41-0.44C47.39,72.7,47.38,72.68,47.38,72.65"/>
	<path class="st0" d="M47.27,72.73c0-0.17-0.14-0.29-0.3-0.29c-0.17,0-0.3,0.14-0.29,0.31c0,0.17,0.14,0.29,0.31,0.29
		C47.14,73.03,47.27,72.89,47.27,72.73z"/>
	<line class="st0" x1="46.99" y1="68.14" x2="46.91" y2="68.86"/>
	<polyline class="st0" points="46.74,70.4 46.75,70.3 46.78,70.04 	"/>
	<line class="st0" x1="46.78" y1="70.04" x2="46.86" y2="69.34"/>
	<line class="st0" x1="46.54" y1="72.75" x2="46.74" y2="70.4"/>
	<line class="st0" x1="46.91" y1="68.91" x2="46.91" y2="68.86"/>
	<line class="st0" x1="46.86" y1="69.34" x2="46.91" y2="68.91"/>
	<line class="st0" x1="47.9" y1="69.05" x2="47.77" y2="70.15"/>
	<polyline class="st0" points="47.38,72.65 47.68,70.89 47.77,70.15 	"/>
	<line class="st0" x1="47.38" y1="72.65" x2="47.36" y2="72.78"/>
	<line class="st0" x1="47.99" y1="68.3" x2="47.9" y2="69.05"/>
	<path class="st0" d="M47.28,72.23l0.38-3.25c0-0.04-0.02-0.11-0.07-0.11l-0.32-0.04c-0.04,0-0.1,0.02-0.11,0.06l-0.38,3.28"/>
	<path class="st0" d="M46.3,68.51c-0.1,0.04-0.16,0.14-0.16,0.25c0,0.15,0.13,0.27,0.28,0.26c0.01,0,0.02-0.01,0.03-0.01"/>
	<path class="st0" d="M46.3,68.51l0.02-0.02c0,0,0.29-0.08,0.38-0.41l1.57,0.18l-0.09,0.81l-0.27-0.01"/>
	<line class="st0" x1="47.9" y1="69.05" x2="47.9" y2="69.05"/>
	<path class="st0" d="M46.45,69.02c0.02,0,0.05-0.01,0.07-0.02"/>
	<path class="st0" d="M46.3,68.51c0.03-0.02,0.07-0.03,0.1-0.03c0.15,0,0.27,0.12,0.28,0.27c0,0.11-0.06,0.21-0.16,0.25"/>
	<line class="st0" x1="46.3" y1="68.51" x2="46.3" y2="68.51"/>
	<line class="st0" x1="46.3" y1="68.51" x2="46.3" y2="68.51"/>
	<line class="st0" x1="47.94" y1="68.2" x2="48.5" y2="63.41"/>
	<line class="st0" x1="47.07" y1="68.11" x2="47.63" y2="63.32"/>
	<line class="st0" x1="49.15" y1="63.04" x2="49.1" y2="63.48"/>
	<line class="st0" x1="47.67" y1="62.23" x2="48.65" y2="62.35"/>
	<line class="st0" x1="47.67" y1="62.23" x2="47.12" y2="62.17"/>
	<line class="st0" x1="49.1" y1="63.48" x2="48.59" y2="63.42"/>
	<polyline class="st0" points="47.12,62.17 46.98,63.22 48.59,63.42 	"/>
	<line class="st0" x1="47.67" y1="62.23" x2="47.67" y2="62.21"/>
	<line class="st0" x1="47.67" y1="62.23" x2="47.54" y2="63.29"/>
	<line class="st0" x1="50.42" y1="59.81" x2="50.5" y2="59.94"/>
	<line class="st0" x1="50.5" y1="59.94" x2="52.89" y2="63.78"/>
	<line class="st0" x1="50.5" y1="59.94" x2="50.47" y2="60.37"/>
	<line class="st0" x1="50.5" y1="59.94" x2="50.5" y2="59.94"/>
	<line class="st0" x1="50.47" y1="60.37" x2="51.3" y2="61.64"/>
	<line class="st0" x1="51.3" y1="61.64" x2="51.72" y2="62.28"/>
	<line class="st0" x1="52" y1="62.35" x2="51.72" y2="62.28"/>
	<line class="st0" x1="53.5" y1="64.37" x2="52.32" y2="62.56"/>
	<line class="st0" x1="53.09" y1="63.81" x2="52.89" y2="63.78"/>
	<polyline class="st0" points="53.5,64.37 53.55,64.11 50.72,59.8 	"/>
	<line class="st0" x1="50.72" y1="59.8" x2="50.71" y2="59.8"/>
	<line class="st0" x1="51.23" y1="61.89" x2="48.69" y2="62"/>
	<line class="st0" x1="48.66" y1="62.24" x2="48.66" y2="62.24"/>
	<line class="st0" x1="48.66" y1="62.24" x2="51.23" y2="62.12"/>
	<path class="st0" d="M47.11,61.32c-0.2,0-0.36,0.17-0.36,0.38c0.01,0.21,0.17,0.36,0.37,0.36c0.2,0,0.36-0.17,0.36-0.37
		C47.48,61.48,47.31,61.32,47.11,61.32z"/>
	<path class="st0" d="M47.32,61.69c0-0.11-0.09-0.2-0.21-0.2c-0.11,0-0.2,0.1-0.2,0.21c0,0.11,0.1,0.2,0.21,0.2
		C47.23,61.89,47.32,61.8,47.32,61.69z"/>
	<line class="st0" x1="47.23" y1="61.3" x2="45.53" y2="59.7"/>
	<line class="st0" x1="46.74" y1="61.75" x2="44.66" y2="59.66"/>
	<line class="st0" x1="47.96" y1="59.88" x2="47.96" y2="59.88"/>
	<line class="st0" x1="47.96" y1="59.88" x2="47.67" y2="62.21"/>
	<path class="st0" d="M47.42,61.39c0.1-0.03,0.18-0.13,0.19-0.23l0.15-1.28"/>
	<line class="st0" x1="47.75" y1="59.88" x2="47.75" y2="59.89"/>
	<line class="st0" x1="48.69" y1="62" x2="48.66" y2="62.24"/>
	<line class="st0" x1="48.65" y1="62.35" x2="48.66" y2="62.24"/>
	<line class="st0" x1="48.93" y1="59.85" x2="48.69" y2="62"/>
	<line class="st0" x1="49.15" y1="59.85" x2="48.9" y2="61.98"/>
	<polyline class="st0" points="47.29,59.13 46.79,59.14 45.57,58.23 	"/>
	<polyline class="st0" points="46.43,58.09 47.72,59.11 48.22,59.1 	"/>
	<polyline class="st0" points="49.06,59.08 48.57,59.09 47.17,57.97 	"/>
	<path class="st0" d="M49.38,63.61c-0.05-0.05-0.11-0.08-0.18-0.08c-0.15,0-0.26,0.12-0.26,0.27c0,0.03,0.01,0.06,0.02,0.09
		c0.03,0.1,0.14,0.18,0.25,0.17c0.15,0,0.27-0.12,0.26-0.27c0-0.03-0.01-0.05-0.01-0.08c0,0,0,0,0,0"/>
	<path class="st0" d="M49.38,63.61c0.03,0.03,0.06,0.06,0.08,0.1"/>
	<path class="st0" d="M49.32,63.8c0-0.01,0-0.02-0.01-0.03c-0.01-0.04-0.06-0.08-0.11-0.08c-0.06,0-0.11,0.05-0.11,0.12
		c0,0.02,0,0.03,0.01,0.04c0.02,0.04,0.06,0.07,0.11,0.07C49.27,63.91,49.32,63.86,49.32,63.8z"/>
	<path class="st0" d="M50.08,66.25c0.02-0.01,0.04-0.03,0.07-0.03c0.01,0,0.02,0.01,0.03,0.01"/>
	<path class="st0" d="M50.38,66.44C50.38,66.43,50.38,66.43,50.38,66.44c0-0.03,0-0.05-0.01-0.07c0-0.01-0.02-0.02-0.02-0.03"/>
	<path class="st0" d="M50.08,66.25c-0.03,0.01-0.06,0.02-0.08,0.04"/>
	<path class="st0" d="M49.93,66.44c0-0.06,0.02-0.11,0.06-0.15"/>
	<path class="st0" d="M50.34,66.34c-0.01-0.01-0.02-0.03-0.03-0.04"/>
	<line class="st0" x1="50.32" y1="66.59" x2="50.32" y2="66.58"/>
	<path class="st0" d="M49.96,66.54c-0.01-0.01-0.02-0.02-0.02-0.03c0,0,0,0,0-0.01"/>
	<path class="st0" d="M50,66.58c-0.01-0.01-0.02-0.02-0.03-0.04"/>
	<path class="st0" d="M50.32,66.58c0.03-0.04,0.06-0.09,0.06-0.14"/>
	<path class="st0" d="M50.22,66.63c0.03-0.01,0.06-0.02,0.08-0.04"/>
	<path class="st0" d="M49.93,66.44C49.93,66.44,49.93,66.44,49.93,66.44c0,0.03,0,0.05,0.01,0.07"/>
	<line class="st0" x1="50.3" y1="66.6" x2="50.31" y2="66.59"/>
	<path class="st0" d="M50.14,66.65c0.01,0,0.01,0.01,0.02,0.01c0.02,0,0.04-0.02,0.06-0.03"/>
	<path class="st0" d="M50.15,66.35c-0.05,0-0.09,0.04-0.09,0.09c0,0.01,0,0.02,0.01,0.03c0.01,0.04,0.05,0.06,0.09,0.06
		c0.05,0,0.09-0.04,0.09-0.09c0-0.01,0-0.02-0.01-0.03C50.23,66.37,50.19,66.35,50.15,66.35z"/>
	<line class="st0" x1="49.94" y1="66.51" x2="49.94" y2="66.52"/>
	<line class="st0" x1="49.48" y1="65.28" x2="49.9" y2="66.4"/>
	<line class="st0" x1="49.9" y1="66.4" x2="49.94" y2="66.51"/>
	<line class="st0" x1="48.96" y1="63.89" x2="49.48" y2="65.28"/>
	<path class="st0" d="M48.73,68.87c0.06-0.09,0.07-0.22,0-0.31c-0.08-0.12-0.25-0.15-0.37-0.06c-0.02,0.01-0.04,0.04-0.06,0.06
		c-0.07,0.09-0.07,0.22,0,0.32"/>
	<path class="st0" d="M50.21,66.23c-0.01,0-0.02-0.01-0.04-0.01"/>
	<path class="st0" d="M50.08,66.25c-0.02,0.01-0.04,0-0.06,0.01c-0.01,0-0.02,0.01-0.02,0.02"/>
	<path class="st0" d="M50.08,66.25c0.03-0.01,0.06-0.03,0.09-0.02"/>
	<line class="st0" x1="49.99" y1="66.29" x2="50" y2="66.28"/>
	<path class="st0" d="M50.31,66.3c0.01,0.01,0.01,0.01,0.02,0.01"/>
	<path class="st0" d="M50.22,66.63c0.02-0.01,0.05,0,0.06-0.02"/>
	<path class="st0" d="M50.21,66.23c0.04,0.01,0.07,0.03,0.1,0.06"/>
	<path class="st0" d="M50.22,66.63c-0.03,0.01-0.05,0.02-0.08,0.02"/>
	<path class="st0" d="M50,66.58c0.03,0.03,0.05,0.04,0.09,0.06"/>
	<path class="st0" d="M50.08,66.64c0.02,0.01,0.03,0.01,0.05,0.02"/>
	<path class="st0" d="M49.93,66.44c0,0.04,0.01,0.07,0.03,0.1"/>
	<path class="st0" d="M49.93,66.44c0-0.05,0.01-0.1,0.04-0.14c0-0.01,0.01-0.01,0.02-0.01"/>
	<path class="st0" d="M50,66.58c-0.01-0.01-0.02-0.01-0.02-0.01c-0.01-0.01,0-0.02-0.01-0.02"/>
	<line class="st0" x1="49.9" y1="66.4" x2="48.3" y2="68.55"/>
	<line class="st0" x1="49.97" y1="66.3" x2="49.9" y2="66.4"/>
	<line class="st0" x1="47.17" y1="68.88" x2="46.91" y2="68.86"/>
	<line class="st0" x1="47.66" y1="68.94" x2="47.91" y2="68.97"/>
	<line class="st0" x1="51.3" y1="61.64" x2="51.3" y2="61.62"/>
	<path class="st0" d="M51.3,61.64l-0.07,0.25c-0.03,0.11,0.03,0.28,0.14,0.3l0.36,0.09"/>
	<line class="st0" x1="50.32" y1="66.59" x2="50.31" y2="66.59"/>
	<path class="st0" d="M50.33,66.56c0,0.01-0.01,0.01-0.01,0.01"/>
	<path class="st0" d="M50.33,66.56c0.03-0.04,0.04-0.08,0.04-0.13"/>
	<path class="st0" d="M50.34,66.34c0.02,0.03,0.03,0.06,0.03,0.1"/>
	<polyline class="st0" points="48.65,62.35 49.23,62.42 49.15,63.04 49.38,63.61 	"/>
	<polyline class="st0" points="49.38,63.61 49.41,63.68 49.46,63.71 	"/>
	<line class="st0" x1="50.31" y1="66.59" x2="48.73" y2="68.87"/>
	<line class="st0" x1="50.32" y1="66.59" x2="50.33" y2="66.56"/>
	<path class="st0" d="M50.3,66.6c0.01-0.01,0.01-0.01,0.02-0.02"/>
	<path class="st0" d="M50.3,66.6c-0.01,0.01-0.01,0.02-0.02,0.02"/>
	<path class="st0" d="M49.46,63.71L49.46,63.71l0.91,2.66l-0.03-0.06c0.01,0.01,0,0.02,0.01,0.03"/>
	<path class="st0" d="M48.73,68.87c-0.01,0.02-0.03,0.05-0.06,0.06c-0.12,0.09-0.28,0.06-0.37-0.06"/>
	<line class="st0" x1="48.96" y1="63.89" x2="48.59" y2="63.42"/>
	<line class="st0" x1="48.59" y1="63.42" x2="48.58" y2="63.41"/>
	<line class="st0" x1="50.01" y1="66.96" x2="49.66" y2="66.72"/>
	<line class="st0" x1="49.48" y1="65.28" x2="49.48" y2="65.28"/>
	<line class="st0" x1="49.94" y1="65.12" x2="49.48" y2="65.28"/>
	<line class="st0" x1="49.77" y1="64.64" x2="49.31" y2="64.81"/>
	<line class="st0" x1="46.91" y1="68.91" x2="46.91" y2="68.91"/>
	<line class="st0" x1="46.41" y1="69.02" x2="46.45" y2="69.02"/>
	<line class="st0" x1="46.91" y1="68.91" x2="46.45" y2="69.02"/>
	<path class="st0" d="M47.92,72.61L47.92,72.61c0.11,0,0.2,0.03,0.28,0.08"/>
	<path class="st0" d="M48.21,72.7c0.14,0.09,0.24,0.24,0.25,0.41c0.01,0.28-0.22,0.52-0.5,0.52c-0.04,0-0.08-0.01-0.11-0.02"/>
	<path class="st0" d="M47.84,73.61c-0.1-0.02-0.19-0.06-0.27-0.13"/>
	<path class="st0" d="M46.16,59.94c0.53-0.02,1.06-0.03,1.59-0.05"/>
	<path class="st0" d="M48.93,59.85c0.06,0,0.12,0,0.18-0.01l1.6-0.04"/>
	<line class="st0" x1="50.72" y1="59.8" x2="74.91" y2="59.13"/>
	<path class="st0" d="M47.96,59.88c-0.07,0-0.14,0-0.21,0.01"/>
	<path class="st0" d="M48.93,59.85c-0.32,0.01-0.65,0.02-0.97,0.03"/>
	<line class="st0" x1="57.76" y1="76.14" x2="47.05" y2="76.14"/>
</g>
</svg>
