<?xml version="1.0" encoding="utf-8"?>
<!-- Generator: Adobe Illustrator 25.2.3, SVG Export Plug-In . SVG Version: 6.00 Build 0)  -->
<svg version="1.1" id="Layer_1" xmlns="http://www.w3.org/2000/svg" xmlns:xlink="http://www.w3.org/1999/xlink" x="0px" y="0px"
	 viewBox="0 0 75 100" style="enable-background:new 0 0 75 100;" xml:space="preserve">
<style type="text/css">
	.st0{fill:none;stroke:#BBB0A1;stroke-width:0.5;stroke-linejoin:bevel;stroke-miterlimit:10;}
</style>
<g>
	<path class="st0" d="M72.46,12.78c0.05,0.14,0.1,0.28,0.14,0.42C72.55,13.06,72.5,12.92,72.46,12.78z"/>
	<path class="st0" d="M71.04,9.59c0.01,0.01,0.02,0.03,0.02,0.04C71.05,9.62,71.05,9.6,71.04,9.59z"/>
	<path class="st0" d="M71.53,10.53c0,0.01,0.01,0.02,0.01,0.03C71.54,10.55,71.53,10.54,71.53,10.53z"/>
	<path class="st0" d="M70.51,8.7c0.01,0.02,0.02,0.03,0.03,0.05C70.53,8.73,70.52,8.72,70.51,8.7z"/>
	<path class="st0" d="M69.95,7.88c0.01,0.02,0.02,0.03,0.03,0.05C69.98,7.91,69.96,7.89,69.95,7.88z"/>
	<path class="st0" d="M74.81,62.28c0,0.08,0,0.15,0,0.23C74.81,62.44,74.81,62.36,74.81,62.28z"/>
	<polygon class="st0" points="74.76,29.28 74.76,29.28 74.76,29.28 	"/>
	<path class="st0" d="M74.83,61.17c0,0.07,0,0.14,0,0.21C74.83,61.31,74.83,61.24,74.83,61.17z"/>
	<path class="st0" d="M74.9,56.02c0,0.02,0,0.04,0,0.05C74.9,56.05,74.9,56.04,74.9,56.02z"/>
	<path class="st0" d="M73.73,18.16c0.04,0.22,0.07,0.45,0.1,0.68C73.8,18.61,73.76,18.38,73.73,18.16z"/>
	<path class="st0" d="M69.36,7.11c0.01,0.01,0.02,0.03,0.04,0.04C69.39,7.14,69.38,7.12,69.36,7.11z"/>
	<path class="st0" d="M72.75,13.69c0.09,0.31,0.19,0.63,0.27,0.96C72.94,14.33,72.85,14.01,72.75,13.69z"/>
	<path class="st0" d="M51.59,0.16c0.07,0,0.14,0.01,0.22,0.01C51.73,0.17,51.66,0.17,51.59,0.16z"/>
	<path class="st0" d="M42.04,0.02c0.06,0,0.11,0,0.17,0C42.16,0.02,42.1,0.02,42.04,0.02z"/>
	<path class="st0" d="M49.25,0.11c0.15,0,0.29,0.01,0.43,0.01C49.54,0.11,49.4,0.11,49.25,0.11z"/>
	<path class="st0" d="M36.14,0c0.25,0,0.5,0,0.75,0C36.64,0,36.39,0,36.14,0z"/>
	<path class="st0" d="M39.57,0c0.15,0,0.31,0,0.46,0C39.88,0.01,39.72,0,39.57,0z"/>
	<path class="st0" d="M56.65,0.59c0.03,0,0.07,0.01,0.1,0.01C56.72,0.6,56.69,0.6,56.65,0.59z"/>
	<path class="st0" d="M68.11,5.73c0.01,0.01,0.02,0.02,0.02,0.02C68.13,5.75,68.12,5.74,68.11,5.73z"/>
	<path class="st0" d="M67.46,5.13C67.46,5.13,67.46,5.13,67.46,5.13C67.46,5.13,67.46,5.13,67.46,5.13z"/>
	<path class="st0" d="M54.07,0.3c0.05,0,0.1,0.01,0.15,0.01C54.17,0.31,54.12,0.3,54.07,0.3z"/>
	<path class="st0" d="M68.75,6.39c0.01,0.01,0.02,0.02,0.03,0.04C68.77,6.42,68.76,6.4,68.75,6.39z"/>
	<path class="st0" d="M59.27,1.1c0.03,0.01,0.06,0.01,0.08,0.02C59.32,1.11,59.3,1.1,59.27,1.1z"/>
	<path class="st0" d="M74.85,60.07c0-0.01,0-0.02,0-0.03C74.85,60.05,74.85,60.06,74.85,60.07L74.85,60.07z"/>
	<path class="st0" d="M74.95,38.08c0-0.01,0-0.03,0-0.04l0,0C74.95,38.05,74.95,38.07,74.95,38.08z"/>
	<path class="st0" d="M74.95,41.24c0-0.02,0-0.04,0-0.06C74.95,41.2,74.95,41.22,74.95,41.24L74.95,41.24z"/>
	<path class="st0" d="M74.95,41.34c0-0.03,0-0.07,0-0.1l0,0C74.95,41.28,74.95,41.31,74.95,41.34z"/>
	<path class="st0" d="M74.94,46.81L74.94,46.81c0-0.93,0.01-1.86,0.01-2.8l0,0C74.94,44.95,74.94,45.88,74.94,46.81z"/>
	<path class="st0" d="M74.95,44.01c0-0.05,0-0.1,0-0.15C74.95,43.91,74.95,43.96,74.95,44.01L74.95,44.01z"/>
	<path class="st0" d="M74.92,34.71c0-0.01,0-0.01,0-0.02l0,0C74.92,34.7,74.92,34.71,74.92,34.71z"/>
	<polygon class="st0" points="74.88,32.94 74.88,32.93 74.88,32.93 	"/>
	<polygon class="st0" points="74.95,38.04 74.95,38.04 74.95,38.04 	"/>
	<path class="st0" d="M74.79,63.4c0,0.06,0,0.13,0,0.19C74.78,63.53,74.78,63.46,74.79,63.4z"/>
	<path class="st0" d="M74.92,34.69c0-0.01,0-0.01,0-0.02C74.91,34.68,74.91,34.69,74.92,34.69L74.92,34.69z"/>
	<path class="st0" d="M74.94,47.64c0-0.28,0-0.55,0-0.83l0,0C74.94,47.09,74.94,47.37,74.94,47.64z"/>
	<path class="st0" d="M74.69,66.66c0,0.01,0,0.03,0,0.04C74.69,66.68,74.69,66.67,74.69,66.66z"/>
	<path class="st0" d="M74.76,64.49c0,0.05,0,0.1,0,0.16C74.76,64.6,74.76,64.55,74.76,64.49z"/>
	<path class="st0" d="M74.73,65.57c0,0.04,0,0.08,0,0.12C74.73,65.65,74.73,65.61,74.73,65.57z"/>
	<path class="st0" d="M74.85,60.22c0-0.05,0-0.1,0-0.15l0,0C74.85,60.12,74.85,60.17,74.85,60.22z"/>
	<path class="st0" d="M74.92,53.78c0-0.02,0-0.04,0-0.06v0C74.92,53.75,74.92,53.76,74.92,53.78z"/>
	<path class="st0" d="M74.93,52.11c0-0.03,0-0.06,0-0.09l0,0C74.93,52.05,74.93,52.08,74.93,52.11z"/>
	<path class="st0" d="M74.92,53.73c0-0.03,0-0.06,0-0.09C74.92,53.66,74.92,53.7,74.92,53.73L74.92,53.73z"/>
	<path class="st0" d="M74.93,52.02c0-0.01,0-0.01,0-0.02C74.93,52.01,74.93,52.01,74.93,52.02L74.93,52.02z"/>
	<path class="st0" d="M34.92,0.01c0.22,0,0.43,0,0.65,0C35.35,0,35.13,0,34.92,0.01z"/>
	<path class="st0" d="M74.32,22.79c0,0.01,0,0.01,0,0.02C74.32,22.8,74.32,22.8,74.32,22.79z"/>
	<path class="st0" d="M57.22,99.11c-0.19,0.04-0.38,0.07-0.57,0.1C56.84,99.18,57.03,99.15,57.22,99.11z"/>
	<path class="st0" d="M44.5,100c-0.16,0-0.32,0-0.48,0C44.19,100,44.34,100,44.5,100z"/>
	<path class="st0" d="M62.43,97.53c-0.02,0.01-0.03,0.02-0.05,0.02C62.4,97.54,62.41,97.53,62.43,97.53z"/>
	<path class="st0" d="M61.67,97.85c-0.05,0.02-0.09,0.04-0.14,0.05C61.58,97.88,61.62,97.86,61.67,97.85z"/>
	<path class="st0" d="M58.24,98.9c-0.11,0.02-0.21,0.05-0.32,0.07C58.03,98.94,58.14,98.92,58.24,98.9z"/>
	<path class="st0" d="M46.48,99.98c-0.13,0-0.27,0.01-0.4,0.01C46.21,99.99,46.35,99.98,46.48,99.98z"/>
	<path class="st0" d="M1.34,17.17c0.02-0.11,0.04-0.22,0.07-0.33C1.38,16.95,1.36,17.06,1.34,17.17z"/>
	<path class="st0" d="M42.45,99.99c-0.11,0-0.23,0-0.34,0C42.23,99.99,42.34,99.99,42.45,99.99z"/>
	<path class="st0" d="M1.15,18.21c0.02-0.11,0.04-0.23,0.06-0.34C1.19,17.98,1.17,18.1,1.15,18.21z"/>
	<path class="st0" d="M38.96,99.96C38.95,99.96,38.95,99.96,38.96,99.96C38.95,99.96,38.96,99.96,38.96,99.96z"/>
	<path class="st0" d="M0.38,25.19C0.42,24.59,0.46,24,0.51,23.4C0.46,24,0.42,24.59,0.38,25.19z"/>
	<path class="st0" d="M67.23,94.35c-0.01,0.01-0.02,0.02-0.03,0.03C67.21,94.38,67.22,94.36,67.23,94.35z"/>
	<path class="st0" d="M70.59,89.76c-0.06,0.11-0.11,0.22-0.17,0.33C70.47,89.98,70.53,89.87,70.59,89.76z"/>
	<path class="st0" d="M1.56,16.12c0.02-0.1,0.04-0.19,0.06-0.28C1.6,15.93,1.58,16.03,1.56,16.12z"/>
	<path class="st0" d="M70.91,89.1c-0.04,0.08-0.07,0.16-0.11,0.24C70.84,89.26,70.87,89.18,70.91,89.1z"/>
	<path class="st0" d="M72.89,83.08c-0.01,0.03-0.01,0.06-0.02,0.09C72.88,83.14,72.89,83.11,72.89,83.08z"/>
	<path class="st0" d="M73.5,80.14c-0.02,0.09-0.03,0.17-0.05,0.25C73.46,80.31,73.48,80.23,73.5,80.14z"/>
	<path class="st0" d="M72.16,85.83c-0.01,0.02-0.01,0.04-0.02,0.06C72.14,85.87,72.15,85.85,72.16,85.83z"/>
	<path class="st0" d="M69.36,91.84c-0.15,0.22-0.3,0.43-0.46,0.64C69.06,92.27,69.21,92.06,69.36,91.84z"/>
	<path class="st0" d="M70.21,90.46c-0.07,0.13-0.14,0.25-0.22,0.38C70.07,90.71,70.14,90.58,70.21,90.46z"/>
	<path class="st0" d="M68.15,93.39c-0.05,0.06-0.11,0.12-0.16,0.18C68.04,93.51,68.1,93.45,68.15,93.39z"/>
	<path class="st0" d="M69.8,91.15c-0.09,0.15-0.18,0.29-0.28,0.43C69.62,91.44,69.71,91.3,69.8,91.15z"/>
	<path class="st0" d="M24.35,0.2c0.2-0.01,0.39-0.01,0.6-0.02C24.75,0.18,24.55,0.19,24.35,0.2z"/>
	<path class="st0" d="M25.33,0.16c0.22-0.01,0.44-0.01,0.67-0.02C25.77,0.15,25.55,0.15,25.33,0.16z"/>
	<path class="st0" d="M23.42,0.24c0.18-0.01,0.36-0.02,0.55-0.02C23.78,0.22,23.6,0.23,23.42,0.24z"/>
	<path class="st0" d="M33.68,0.01c0.23,0,0.45,0,0.68,0C34.14,0.01,33.91,0.01,33.68,0.01z"/>
	<path class="st0" d="M22.5,0.28c0.18-0.01,0.36-0.02,0.55-0.03C22.86,0.26,22.68,0.27,22.5,0.28z"/>
	<path class="st0" d="M21.5,0.34c0.22-0.01,0.45-0.03,0.69-0.04C21.95,0.31,21.72,0.33,21.5,0.34z"/>
	<path class="st0" d="M31.25,0.03c0.24,0,0.48-0.01,0.72-0.01C31.72,0.03,31.49,0.03,31.25,0.03z"/>
	<path class="st0" d="M32.47,0.02c0.23,0,0.45,0,0.68-0.01C32.93,0.02,32.7,0.02,32.47,0.02z"/>
	<path class="st0" d="M18.68,0.6c0.39-0.05,0.8-0.1,1.21-0.14C19.48,0.5,19.08,0.55,18.68,0.6z"/>
	<path class="st0" d="M30.02,0.05c0.25,0,0.51-0.01,0.76-0.01C30.53,0.04,30.28,0.05,30.02,0.05z"/>
	<path class="st0" d="M27.41,0.1c0.72-0.02,1.46-0.03,2.22-0.04C28.87,0.07,28.13,0.08,27.41,0.1z"/>
	<path class="st0" d="M26.35,0.13c0.25-0.01,0.51-0.01,0.76-0.02C26.85,0.12,26.6,0.12,26.35,0.13z"/>
	<path class="st0" d="M14.45,1.46c0.08-0.02,0.15-0.04,0.23-0.06C14.6,1.42,14.52,1.44,14.45,1.46z"/>
	<path class="st0" d="M4.07,9.29c0-0.01,0.01-0.01,0.01-0.02C4.08,9.28,4.07,9.28,4.07,9.29z"/>
	<path class="st0" d="M10.77,2.9c0.01,0,0.01-0.01,0.02-0.01C10.78,2.89,10.77,2.89,10.77,2.9z"/>
	<path class="st0" d="M17.53,0.77c0.21-0.04,0.43-0.07,0.65-0.1C17.97,0.71,17.75,0.74,17.53,0.77z"/>
	<path class="st0" d="M12.66,2.06c0.02-0.01,0.05-0.02,0.07-0.03C12.7,2.04,12.68,2.05,12.66,2.06z"/>
	<path class="st0" d="M3.6,10.18c0.01-0.02,0.02-0.04,0.03-0.06C3.62,10.13,3.61,10.15,3.6,10.18z"/>
	<path class="st0" d="M3.18,11.06C3.18,11.04,3.19,11.02,3.2,11C3.19,11.02,3.18,11.04,3.18,11.06z"/>
	<path class="st0" d="M16.45,0.97c0.15-0.03,0.31-0.06,0.46-0.09C16.76,0.92,16.6,0.94,16.45,0.97z"/>
	<path class="st0" d="M15.42,1.21c0.11-0.03,0.22-0.05,0.33-0.08C15.64,1.15,15.53,1.18,15.42,1.21z"/>
	<path class="st0" d="M13.53,1.75c0.05-0.02,0.09-0.03,0.14-0.05C13.62,1.72,13.57,1.73,13.53,1.75z"/>
	<path class="st0" d="M1.81,15.05c0.02-0.06,0.03-0.13,0.05-0.19C1.84,14.93,1.83,14.99,1.81,15.05z"/>
	<path class="st0" d="M0.98,19.26c0.01-0.1,0.03-0.2,0.05-0.3C1.01,19.06,1,19.16,0.98,19.26z"/>
	<path class="st0" d="M20.58,99.49L20.58,99.49c3.99,0.53,7.71,0.5,12.1,0.47c0.66,0,1.33-0.01,2.02-0.01
		c-0.69,0-1.36,0.01-2.02,0.01C28.29,99.99,24.57,100.02,20.58,99.49z"/>
	<polygon class="st0" points="60.63,1.47 60.62,1.46 60.62,1.46 	"/>
	<path class="st0" d="M73.72,78.85C73.72,78.85,73.72,78.85,73.72,78.85c0.05-0.31,0.11-0.62,0.16-0.94
		c0.02-0.14,0.04-0.28,0.07-0.43c-0.02,0.15-0.04,0.29-0.07,0.43C73.83,78.23,73.78,78.54,73.72,78.85z"/>
	<path class="st0" d="M74.76,29.28c0-0.01,0-0.02,0-0.02C74.76,29.26,74.76,29.27,74.76,29.28L74.76,29.28z"/>
	<path class="st0" d="M35.76,99.94c0.35,0,0.71,0,1.08,0c0.02,0,0.04,0,0.06,0c-0.02,0-0.04,0-0.06,0
		C36.47,99.94,36.11,99.94,35.76,99.94z"/>
	<polygon class="st0" points="74.19,75.39 74.2,75.38 74.19,75.39 	"/>
	<polygon class="st0" points="74.19,75.39 74.19,75.39 74.19,75.39 	"/>
	<path class="st0" d="M7.97,4.69C7.97,4.69,7.97,4.69,7.97,4.69c-0.1,0.08-0.19,0.15-0.28,0.23l0,0C7.78,4.84,7.88,4.76,7.97,4.69z"
		/>
	<path class="st0" d="M34.71,99.94c0.35,0,0.7,0,1.05,0C35.4,99.94,35.05,99.94,34.71,99.94z"/>
	<path class="st0" d="M71.99,11.56c0,0,0-0.01,0-0.01l0,0C71.99,11.55,71.99,11.55,71.99,11.56z"/>
	<path class="st0" d="M73.72,78.89c0-0.01,0-0.02,0.01-0.04c0,0,0,0,0,0C73.72,78.86,73.72,78.88,73.72,78.89z"/>
	<path class="st0" d="M52.93,99.67c0.64-0.06,1.29-0.12,1.94-0.19c0.42-0.05,0.83-0.11,1.23-0.17c-0.4,0.06-0.81,0.12-1.23,0.17
		C54.22,99.55,53.57,99.61,52.93,99.67z"/>
	<path class="st0" d="M73.62,17.53c-0.09-0.5-0.18-0.99-0.27-1.48c0-0.02-0.01-0.03-0.01-0.05c0,0.02,0.01,0.03,0.01,0.05
		C73.45,16.53,73.54,17.03,73.62,17.53z"/>
	<path class="st0" d="M7.35,5.21C7.35,5.21,7.35,5.21,7.35,5.21C7.25,5.29,7.16,5.38,7.08,5.46c0,0,0,0,0,0
		C7.16,5.38,7.25,5.29,7.35,5.21z"/>
	<path class="st0" d="M59.04,98.7c0.01,0,0.01,0,0.02-0.01C59.05,98.7,59.04,98.7,59.04,98.7L59.04,98.7z"/>
	<path class="st0" d="M23.05,0.25c0.12-0.01,0.24-0.01,0.36-0.02C23.29,0.24,23.17,0.25,23.05,0.25z"/>
	<path class="st0" d="M23.97,0.21c0.13-0.01,0.26-0.01,0.39-0.02C24.22,0.2,24.09,0.21,23.97,0.21z"/>
	<path class="st0" d="M24.95,0.17c0.13,0,0.25-0.01,0.38-0.01C25.2,0.17,25.08,0.17,24.95,0.17z"/>
	<path class="st0" d="M15.75,1.13c0.23-0.05,0.46-0.11,0.7-0.15C16.21,1.02,15.98,1.07,15.75,1.13z"/>
	<path class="st0" d="M46.48,99.98c2.1-0.03,4.25-0.12,6.45-0.31c-0.26,0.02-0.51,0.05-0.77,0.07
		C50.23,99.88,48.34,99.95,46.48,99.98z"/>
	<path class="st0" d="M22.19,0.3c0.1-0.01,0.21-0.01,0.31-0.02C22.4,0.29,22.29,0.29,22.19,0.3z"/>
	<path class="st0" d="M13.67,1.7c0.25-0.08,0.51-0.16,0.78-0.24C14.18,1.54,13.92,1.62,13.67,1.7z"/>
	<path class="st0" d="M14.68,1.4c0.24-0.07,0.49-0.13,0.74-0.2C15.17,1.27,14.92,1.33,14.68,1.4z"/>
	<path class="st0" d="M39.97,99.97c0.71,0.01,1.43,0.01,2.15,0.02C41.39,99.99,40.68,99.98,39.97,99.97L39.97,99.97z"/>
	<path class="st0" d="M37.95,79.23c-0.28-0.34-0.73-0.74-1.31-1.18c-2.6,0.19-9.28-2.78-10.52-4.82c-0.05-0.01-0.1-0.02-0.15-0.03
		c-0.62-0.1-1.28-0.16-1.95-0.19c0.08,1.01,0.97,2.12,4.18,3.22c5.64,1.94,9.47,6.26,10.01,10.16c0.54,3.9-4,6.47-4,6.47
		c-3.9-2.1-5.43-7.66-6.21-9.53c-0.78-1.87-2.24,0.6-1.51,2.4c0.73,1.81,6.74,6.66,6.07,8.9c-0.67,2.24-10.27,6.24-10.82,4.24
		c-0.63-2.28-1.67-6.17-1.49-8.87c0.16-2.32-1.6-2.8-2.54-0.89c-0.94,1.92,1.97,4.01,2.94,9.31c0.07,0.38,0.04,0.73-0.08,1.05
		c3.99,0.53,7.71,0.5,12.1,0.47c0.66,0,1.33-0.01,2.02-0.01c0.35,0,0.7,0,1.05,0c0,0,0,0,0,0c0.35,0,0.71,0,1.08,0
		c0.02,0,0.04,0,0.06,0c0.68,0,1.37,0.01,2.06,0.02c0,0,0,0,0,0c0.34,0,0.67,0.01,1.01,0.01C42.13,92.45,41.48,83.48,37.95,79.23z"
		/>
	<path class="st0" d="M16.91,0.89c0.21-0.04,0.41-0.08,0.62-0.11C17.32,0.81,17.12,0.85,16.91,0.89z"/>
	<path class="st0" d="M18.19,0.67c0.17-0.02,0.33-0.05,0.49-0.07C18.52,0.62,18.35,0.65,18.19,0.67z"/>
	<path class="st0" d="M38.96,99.96c0.33,0,0.67,0.01,1.01,0.01l0,0C39.63,99.97,39.29,99.96,38.96,99.96z"/>
	<path class="st0" d="M25.99,0.14c0.12,0,0.24-0.01,0.36-0.01C26.23,0.13,26.11,0.14,25.99,0.14z"/>
	<path class="st0" d="M56.75,0.61c0.83,0.13,1.68,0.29,2.52,0.49C58.43,0.89,57.59,0.73,56.75,0.61z"/>
	<path class="st0" d="M59.35,1.12c0.42,0.1,0.85,0.22,1.27,0.35C60.2,1.34,59.78,1.22,59.35,1.12z"/>
	<path class="st0" d="M54.22,0.31c0.8,0.07,1.61,0.16,2.44,0.28C55.83,0.47,55.02,0.38,54.22,0.31z"/>
	<path class="st0" d="M51.81,0.17c0.73,0.03,1.49,0.07,2.26,0.13C53.29,0.24,52.54,0.2,51.81,0.17z"/>
	<path class="st0" d="M0.05,52.7L0.05,52.7c0.01,3.4,0.03,6.68,0.08,9.7l0,0C0.08,59.37,0.06,56.1,0.05,52.7z"/>
	<path class="st0" d="M40.03,0.01c0.68,0,1.35,0.01,2.01,0.01C41.38,0.01,40.71,0.01,40.03,0.01z"/>
	<path class="st0" d="M0.3,26.72c0.02-0.51,0.05-1.02,0.08-1.53C0.35,25.7,0.32,26.21,0.3,26.72c-0.06,1.44-0.11,2.91-0.14,4.4l0,0
		C0.19,29.63,0.24,28.16,0.3,26.72z"/>
	<path class="st0" d="M0.1,34.32L0.1,34.32c-0.01,0.6-0.02,1.2-0.02,1.81l0,0C0.08,35.52,0.09,34.92,0.1,34.32z"/>
	<path class="st0" d="M68.14,5.76c0.21,0.2,0.41,0.42,0.61,0.64C68.55,6.17,68.34,5.96,68.14,5.76z"/>
	<path class="st0" d="M67.46,5.13c0.22,0.19,0.44,0.39,0.65,0.6C67.9,5.53,67.68,5.33,67.46,5.13z"/>
	<path class="st0" d="M30.79,0.04c0.15,0,0.31,0,0.46-0.01C31.09,0.04,30.94,0.04,30.79,0.04z"/>
	<path class="st0" d="M5.47,91.6L5.47,91.6c0.65,0.97,1.37,1.84,2.16,2.62l0,0C6.85,93.44,6.13,92.57,5.47,91.6z"/>
	<path class="st0" d="M29.63,0.06c0.13,0,0.26,0,0.39-0.01C29.89,0.05,29.76,0.06,29.63,0.06z"/>
	<path class="st0" d="M58.34,98.6c-2.08-0.33-4.02-0.65-5.69-0.91c-1.69-0.25-3.09-0.45-4.1-0.59c-1.01-0.13-1.59-0.17-1.59-0.17
		s0.48,0.33,1.36,0.85c0.44,0.26,0.97,0.57,1.6,0.88c0.63,0.33,1.34,0.69,2.14,1.03c0.03,0.01,0.06,0.03,0.1,0.04
		c0.26-0.02,0.51-0.04,0.77-0.07c0.64-0.06,1.29-0.12,1.94-0.19c0.42-0.05,0.83-0.11,1.23-0.17c0.19-0.03,0.37-0.06,0.55-0.09
		c0.19-0.03,0.38-0.07,0.57-0.1c0.24-0.05,0.47-0.09,0.7-0.14c0.11-0.02,0.21-0.05,0.32-0.07c0.27-0.06,0.53-0.12,0.79-0.19
		c0,0,0,0,0,0C58.81,98.67,58.57,98.63,58.34,98.6z"/>
	<path class="st0" d="M27.11,0.11c0.1,0,0.2-0.01,0.3-0.01C27.31,0.1,27.21,0.11,27.11,0.11z"/>
	<path class="st0" d="M31.97,0.03c0.17,0,0.34,0,0.51,0C32.3,0.02,32.13,0.02,31.97,0.03z"/>
	<path class="st0" d="M35.56,0c0.19,0,0.39,0,0.58,0C35.95,0,35.76,0,35.56,0z"/>
	<path class="st0" d="M0.42,71.35L0.42,71.35c0.03,0.64,0.07,1.25,0.11,1.83l0,0C0.49,72.6,0.45,71.99,0.42,71.35z"/>
	<path class="st0" d="M34.36,0.01c0.18,0,0.37,0,0.55,0C34.73,0.01,34.55,0.01,34.36,0.01z"/>
	<path class="st0" d="M33.15,0.02c0.18,0,0.35,0,0.53,0C33.51,0.01,33.33,0.01,33.15,0.02z"/>
	<path class="st0" d="M10.79,2.89c0.34-0.17,0.69-0.34,1.05-0.5C11.48,2.55,11.13,2.71,10.79,2.89z"/>
	<path class="st0" d="M69.53,91.59c-0.06,0.09-0.11,0.17-0.17,0.26C69.42,91.76,69.47,91.67,69.53,91.59z"/>
	<path class="st0" d="M67.99,93.57c-0.24,0.27-0.5,0.53-0.76,0.78C67.49,94.1,67.75,93.84,67.99,93.57z"/>
	<path class="st0" d="M62.38,97.55c-0.23,0.1-0.47,0.2-0.71,0.3C61.91,97.75,62.15,97.65,62.38,97.55z"/>
	<path class="st0" d="M41.45,56.82c-0.07,0.15-0.15,0.31-0.23,0.46c0.16,0.06,0.34,0.13,0.54,0.21c0.39,0.14,0.86,0.34,1.39,0.52
		c0-0.02,0-0.04,0-0.06c0.01-0.34,0.03-0.79,0.03-1.25c-0.5,0.02-0.95,0.05-1.32,0.08C41.72,56.79,41.58,56.8,41.45,56.82z"/>
	<path class="st0" d="M50.7,56.98c-0.17-0.41-0.36-0.64-0.66-0.39l-0.01,0.01c-0.08,0.09-0.16,0.19-0.23,0.31"/>
	<path class="st0" d="M50.94,63.17c0.2-0.14,0.33-0.41,0.4-0.74c-0.87-0.15-1.7-0.29-2.48-0.41C49.19,62.95,49.98,63.82,50.94,63.17
		z"/>
	<path class="st0" d="M42.01,55.64L42,55.66c-0.16,0.37-0.35,0.76-0.55,1.15c0.13-0.01,0.27-0.03,0.42-0.04
		c0.38-0.03,0.82-0.06,1.32-0.08C43.2,55.07,43.02,53.29,42.01,55.64z"/>
	<path class="st0" d="M41.23,57.28c-0.45,0.94-0.87,1.93-0.96,2.91c-0.24,1.32,0.56,3.17,1.97,1.69c0.7-0.82,0.91-2.9,0.93-3.87
		c-0.53-0.18-1-0.38-1.39-0.52C41.57,57.41,41.39,57.34,41.23,57.28z"/>
	<path class="st0" d="M56.65,99.21c-0.18,0.03-0.37,0.06-0.55,0.09C56.29,99.28,56.47,99.25,56.65,99.21z"/>
	<path class="st0" d="M57.92,98.97c-0.23,0.05-0.46,0.1-0.7,0.14C57.46,99.07,57.69,99.02,57.92,98.97z"/>
	<path class="st0" d="M61.53,97.9c-0.77,0.3-1.59,0.57-2.47,0.8C59.94,98.47,60.76,98.2,61.53,97.9z"/>
	<path class="st0" d="M59.03,98.7c-0.26,0.07-0.52,0.13-0.79,0.19C58.51,98.83,58.78,98.77,59.03,98.7z"/>
	<path class="st0" d="M73.72,78.89c-0.07,0.42-0.15,0.84-0.22,1.25C73.57,79.72,73.65,79.31,73.72,78.89z"/>
	<path class="st0" d="M27.59,54.34c-1.12,0.61-2.14,1.31-3.04,2.07c3.19,3.89,0.75,12.38,0.18,14.2c3.8-2.48,5.35-8.03,6.16-9.96
		c0.84-2.03,2.42,0.65,1.63,2.6c-0.79,1.95-7.29,7.21-6.56,9.63c0.03,0.11,0.09,0.23,0.17,0.35 M36.64,78.05
		c0.54-0.04,0.91-0.22,1.01-0.57c0.68-2.46,1.81-6.67,1.61-9.6c-0.17-2.5,1.73-3.03,2.75-0.96c1.02,2.07-2.13,4.34-3.18,10.07
		c-0.52,2.85,4.15,4.07,8.83,4.36c0.63,0.04,1.27,0.06,1.89,0.07c4.02,0.06,7.51-0.51,7.01-1.22c-0.04-0.05-0.07-0.11-0.1-0.16
		c-0.88-1.32-1.23-2.72-1.84-3.88c-0.12-0.23-0.25-0.46-0.4-0.67c-0.19-0.27-0.51-0.97-0.86-1.89c-0.39-1.01-0.82-2.28-1.18-3.54
		c-0.5-1.77-0.85-3.51-0.74-4.5c0.08-0.74,0.41-1.06,1.14-0.65c0.6,0.34,1.08,0.85,1.48,1.5c0.61,1.01,1.04,2.38,1.43,4.1
		c0.24,1.08,0.48,2.29,0.73,3.65c0.08,0.4,0.15,0.82,0.24,1.24c0.08,0.42,0.2,0.8,0.33,1.16c1.19,3.24,4.24,3.76,5.54,3.47
		c1.82-0.41,8.11-2,7.76-2.3c-0.04-0.03-0.13-0.13-0.28-0.27c-0.53-0.55-1.71-1.84-2.89-3.28c-0.83-1.01-1.66-2.1-2.25-3.04
		c-0.51-0.8-0.84-1.5-0.85-1.96c-0.05-1.55,2.12,0.62,3.16,2.02c0.28,0.38,0.48,0.7,0.53,0.88c0.11,0.37,0.73,1.05,1.54,1.71
		c1.04,0.85,2.39,1.68,3.4,1.83c0.39,0.06,1.02-0.04,1.76-0.23c0,0,0,0,0-0.01c0.15-1.55,0.27-3.41,0.37-5.5
		c-4.21-2.55-9.28-6.28-10.93-7.48c-2.71-1.98-13.33-9.98-18.23-11.7c-3.55-1.25-7.21-1.52-10.23-1.02c0,0-0.01,0-0.01,0
		c-0.18,1.04-1.22,2.18-4.5,3.3c-1.08,0.37-2.1,0.83-3.05,1.35 M43.16,57.94c0,0.02,0,0.04,0,0.06c-0.02,0.97-0.23,3.05-0.93,3.87
		c-1.4,1.48-2.21-0.37-1.97-1.69c0.09-0.98,0.51-1.97,0.96-2.91c0.07-0.16,0.15-0.31,0.23-0.46c0.19-0.4,0.39-0.78,0.55-1.15
		l0.01-0.02c1.01-2.35,1.19-0.57,1.18,1.05C43.19,57.15,43.18,57.6,43.16,57.94z M51.34,62.43c-0.08,0.33-0.2,0.6-0.4,0.74
		c-0.96,0.65-1.75-0.22-2.07-1.14c-0.13-0.37-0.19-0.75-0.16-1.04c0.05-0.32,0.11-0.74,0.19-1.18c0.18-1.02,0.46-2.2,0.9-2.9
		c0.07-0.11,0.15-0.22,0.23-0.31l0.01-0.01c0.3-0.25,0.5-0.02,0.66,0.39c0.06,0.14,0.11,0.31,0.17,0.48
		c0.16,0.49,0.34,1.21,0.35,1.78c0.05,0.26,0.12,0.68,0.16,1.15C51.45,61.07,51.47,61.85,51.34,62.43z M59.93,63.14
		c-0.53-0.26-0.88-1.16-0.87-1.77c0.01-0.49,0.25-0.79,0.83-0.46c0.09,0.06,0.25,0.26,0.43,0.48c0.27,0.35,0.57,0.79,0.64,0.97
		C61.17,63.09,60.57,63.46,59.93,63.14z"/>
	<path class="st0" d="M74.57,69.88c-0.1,2.09-0.22,3.95-0.37,5.5C74.35,73.83,74.47,71.98,74.57,69.88
		C74.57,69.88,74.57,69.88,74.57,69.88z"/>
	<path class="st0" d="M73.45,80.4c-0.17,0.9-0.35,1.8-0.56,2.68C73.1,82.2,73.28,81.3,73.45,80.4z"/>
	<path class="st0" d="M60.32,61.39c-0.29,0-0.58,0-0.88-0.01c-0.13,0-0.26-0.01-0.38-0.01c-0.01,0.61,0.34,1.51,0.87,1.77
		c0.64,0.32,1.25-0.05,1.04-0.78C60.89,62.18,60.59,61.74,60.32,61.39z"/>
	<path class="st0" d="M72.43,75.62c-1.01-0.14-2.36-0.98-3.4-1.83c-0.68,0.15-1.39,0.28-2.13,0.39c1.18,1.43,2.36,2.72,2.89,3.28
		c0.85-0.03,1.65-0.13,2.4-0.2c0.67-0.04,1.26-0.14,1.82-0.21c0.07-0.5,0.13-1.05,0.19-1.65c0,0,0,0,0,0
		C73.46,75.58,72.83,75.67,72.43,75.62z"/>
	<path class="st0" d="M70.42,90.09c-0.07,0.12-0.13,0.25-0.2,0.37C70.28,90.33,70.35,90.21,70.42,90.09z"/>
	<path class="st0" d="M70,90.83c-0.06,0.11-0.13,0.21-0.19,0.32C69.87,91.05,69.93,90.94,70,90.83z"/>
	<path class="st0" d="M50.34,60.16c-0.49-0.11-0.97-0.23-1.44-0.36c-0.08,0.44-0.14,0.86-0.19,1.18c-0.04,0.29,0.02,0.67,0.16,1.04
		c0.78,0.12,1.61,0.25,2.48,0.41c0.13-0.58,0.11-1.36,0.04-2.04C51.03,60.32,50.68,60.24,50.34,60.16z"/>
	<path class="st0" d="M49.8,56.9c-0.44,0.7-0.72,1.89-0.9,2.9c0.47,0.12,0.95,0.24,1.44,0.36c0.34,0.08,0.69,0.16,1.04,0.23
		c-0.05-0.47-0.11-0.89-0.16-1.15c-0.01-0.58-0.19-1.29-0.35-1.78c-0.06-0.17-0.11-0.34-0.17-0.48"/>
	<path class="st0" d="M70.8,89.33c-0.07,0.14-0.14,0.28-0.21,0.42C70.66,89.62,70.73,89.48,70.8,89.33z"/>
	<path class="st0" d="M60.32,61.39c-0.18-0.23-0.34-0.42-0.43-0.48c-0.58-0.33-0.82-0.02-0.83,0.46c0.13,0,0.26,0.01,0.38,0.01
		C59.74,61.39,60.03,61.39,60.32,61.39z"/>
	<path class="st0" d="M7.35,5.21c0.11-0.1,0.22-0.19,0.34-0.29C7.57,5.02,7.46,5.11,7.35,5.21z"/>
	<path class="st0" d="M1.62,15.84c0.06-0.26,0.13-0.53,0.19-0.79C1.75,15.31,1.68,15.57,1.62,15.84z"/>
	<path class="st0" d="M66.76,92.47c-0.55-0.01-1.11-0.04-1.67-0.04l-1.66-0.09c-0.56,0-1.09-0.08-1.64-0.12
		c-0.54-0.05-1.08-0.08-1.6-0.18c-0.52-0.09-1.06-0.13-1.55-0.24c-0.5-0.11-0.99-0.23-1.49-0.32c-0.48-0.12-0.94-0.3-1.41-0.43
		c-0.47-0.11-0.9-0.31-1.33-0.49c-0.42-0.18-0.86-0.33-1.25-0.52c-0.39-0.21-0.77-0.41-1.13-0.6c-0.76-0.35-1.36-0.82-1.96-1.18
		c-0.6-0.36-1.08-0.73-1.48-1.04c-0.81-0.62-1.32-0.96-1.32-0.96s0.26,0.53,0.78,1.44c0.26,0.45,0.57,1.02,1.06,1.57
		c0.47,0.56,0.95,1.27,1.66,1.86c0.35,0.31,0.71,0.63,1.08,0.96c0.39,0.32,0.84,0.58,1.28,0.88c0.44,0.31,0.91,0.6,1.43,0.83
		c0.51,0.25,1.03,0.5,1.57,0.73c1.1,0.39,2.26,0.78,3.46,0.98c0.6,0.14,1.2,0.23,1.8,0.29c0.6,0.06,1.22,0.16,1.81,0.17
		c0.6,0.02,1.2,0.04,1.8,0.06c0.05,0,0.1,0,0.15,0c0.74-0.5,1.41-1.05,2.03-1.63c0.01-0.01,0.02-0.02,0.03-0.03
		c0.27-0.25,0.52-0.52,0.76-0.78c0.05-0.06,0.11-0.12,0.16-0.18c0.25-0.29,0.49-0.58,0.72-0.88C68.18,92.5,67.47,92.48,66.76,92.47z
		"/>
	<path class="st0" d="M3.63,10.11c0.14-0.28,0.29-0.55,0.44-0.82C3.92,9.56,3.77,9.83,3.63,10.11z"/>
	<path class="st0" d="M68.15,93.39c0.26-0.3,0.51-0.6,0.75-0.91c-0.01,0.01-0.02,0.02-0.02,0.03C68.65,92.81,68.4,93.1,68.15,93.39z
		"/>
	<path class="st0" d="M1.86,14.87c0.35-1.34,0.79-2.61,1.31-3.8C2.65,12.26,2.21,13.53,1.86,14.87z"/>
	<path class="st0" d="M61.97,87.82c-1.13-0.08-2.26-0.18-3.38-0.38c-1.11-0.17-2.2-0.45-3.24-0.76c-1.04-0.32-2.03-0.72-2.94-1.17
		c-0.9-0.46-1.72-0.97-2.42-1.54c-0.71-0.54-1.27-1.15-1.71-1.72c-0.25-0.31-0.46-0.61-0.63-0.9c-4.68-0.3-9.35-1.51-8.83-4.36
		c1.05-5.73,4.2-8,3.18-10.07c-1.02-2.07-2.92-1.55-2.75,0.96c0.2,2.93-0.93,7.13-1.61,9.6c-0.1,0.36-0.47,0.53-1.01,0.57
		c0.58,0.44,1.03,0.84,1.31,1.18c3.53,4.25,4.18,13.22,2.02,20.74c0.71,0.01,1.42,0.02,2.15,0.02c0.11,0,0.23,0,0.34,0
		c0.52,0,1.05,0.01,1.57,0.01c0.16,0,0.32,0,0.48,0c0.52,0,1.05,0,1.57-0.01c0.13,0,0.27,0,0.4-0.01c1.86-0.03,3.75-0.1,5.68-0.25
		c-0.03-0.01-0.06-0.03-0.1-0.04c-0.8-0.34-1.51-0.71-2.14-1.03c-0.64-0.31-1.17-0.62-1.6-0.88c-0.87-0.51-1.36-0.85-1.36-0.85
		s0.59,0.04,1.59,0.17c1.01,0.13,2.42,0.33,4.1,0.59c1.66,0.27,3.61,0.58,5.69,0.91c0.23,0.03,0.46,0.07,0.7,0.1
		c0.01,0,0.01,0,0.02-0.01c0.88-0.23,1.7-0.5,2.47-0.8c0.05-0.02,0.09-0.04,0.14-0.05c0.24-0.1,0.48-0.19,0.71-0.3
		c0.02-0.01,0.03-0.02,0.05-0.02c1-0.45,1.91-0.95,2.74-1.51c-0.05,0-0.1,0-0.15,0c-0.6-0.02-1.2-0.04-1.8-0.06
		c-0.6-0.01-1.21-0.11-1.81-0.17c-0.6-0.05-1.21-0.15-1.8-0.29c-1.2-0.2-2.35-0.59-3.46-0.98c-0.54-0.22-1.07-0.48-1.57-0.73
		c-0.52-0.23-0.99-0.52-1.43-0.83c-0.44-0.31-0.89-0.57-1.28-0.88c-0.37-0.33-0.73-0.66-1.08-0.96c-0.71-0.59-1.19-1.3-1.66-1.86
		c-0.49-0.55-0.8-1.12-1.06-1.57c-0.53-0.91-0.78-1.44-0.78-1.44s0.51,0.34,1.32,0.96c0.4,0.31,0.88,0.68,1.48,1.04
		c0.6,0.36,1.2,0.83,1.96,1.18c0.36,0.19,0.74,0.39,1.13,0.6c0.39,0.19,0.83,0.34,1.25,0.52c0.42,0.18,0.85,0.37,1.33,0.49
		c0.47,0.13,0.92,0.3,1.41,0.43c0.5,0.09,0.99,0.21,1.49,0.32c0.5,0.12,1.04,0.15,1.55,0.24c0.52,0.1,1.06,0.13,1.6,0.18
		c0.54,0.04,1.08,0.12,1.64,0.12l1.66,0.09c0.56,0,1.12,0.03,1.67,0.04c0.72,0.01,1.42,0.03,2.12,0.04
		c0.01-0.01,0.02-0.02,0.02-0.03c0.16-0.21,0.31-0.42,0.46-0.64c0.06-0.08,0.11-0.17,0.17-0.26c0.09-0.14,0.19-0.29,0.28-0.43
		c0.07-0.11,0.13-0.21,0.19-0.32c0.07-0.12,0.15-0.25,0.22-0.38c0.07-0.12,0.14-0.24,0.2-0.37c0.06-0.11,0.11-0.22,0.17-0.33
		c0.07-0.14,0.14-0.28,0.21-0.42c0.04-0.08,0.07-0.16,0.11-0.24c0.29-0.62,0.55-1.26,0.79-1.92C68.84,87.7,65.43,88.02,61.97,87.82z
		"/>
	<path class="st0" d="M3.2,11c0.13-0.28,0.26-0.56,0.39-0.83C3.46,10.45,3.33,10.72,3.2,11z"/>
	<path class="st0" d="M11.84,2.39c0.26-0.11,0.54-0.22,0.81-0.33C12.38,2.17,12.11,2.28,11.84,2.39z"/>
	<path class="st0" d="M68.78,6.43c0.2,0.22,0.39,0.44,0.58,0.68C69.17,6.87,68.98,6.65,68.78,6.43z"/>
	<path class="st0" d="M62.43,97.53c1.91-0.85,3.47-1.91,4.76-3.14c-0.61,0.58-1.29,1.13-2.03,1.63
		C64.34,96.57,63.43,97.08,62.43,97.53z"/>
	<path class="st0" d="M12.73,2.03c0.26-0.1,0.53-0.19,0.8-0.28C13.25,1.84,12.99,1.94,12.73,2.03z"/>
	<path class="st0" d="M7.98,4.68c0.83-0.66,1.76-1.26,2.79-1.79C9.74,3.42,8.81,4.02,7.98,4.68z"/>
	<path class="st0" d="M38.95,99.96c-0.69-0.01-1.38-0.01-2.06-0.02C37.57,99.95,38.26,99.95,38.95,99.96z"/>
	<path class="st0" d="M72.19,77.26c-0.75,0.07-1.55,0.17-2.4,0.2c0.14,0.15,0.24,0.24,0.28,0.27c0.35,0.29-5.94,1.89-7.76,2.3
		c-1.3,0.29-4.35-0.23-5.54-3.47c-0.73-0.13-1.45-0.27-2.16-0.39c0.6,1.16,0.96,2.55,1.84,3.88c0.13,0.03,0.26,0.06,0.4,0.09
		c1.09,0.28,2.23,0.44,3.36,0.61l1.72,0.16c0.57,0.05,1.15,0.03,1.72,0.05c0.57,0.02,1.13-0.01,1.69-0.05
		c0.56-0.05,1.11-0.05,1.65-0.15c1.08-0.16,2.11-0.33,3.06-0.6c0.96-0.22,1.84-0.56,2.65-0.86c0.36-0.12,0.7-0.28,1.03-0.43
		c0.05-0.31,0.11-0.62,0.16-0.94c0.02-0.14,0.04-0.28,0.07-0.43c0.02-0.14,0.04-0.29,0.06-0.45C73.45,77.12,72.85,77.21,72.19,77.26
		z"/>
	<path class="st0" d="M72.69,79.28c-0.8,0.3-1.68,0.64-2.65,0.86c-0.96,0.28-1.99,0.45-3.06,0.6c-0.54,0.1-1.09,0.1-1.65,0.15
		c-0.56,0.05-1.13,0.08-1.69,0.05c-0.57-0.02-1.15,0.01-1.72-0.05l-1.72-0.16c-1.14-0.17-2.28-0.33-3.36-0.61
		c-0.13-0.03-0.26-0.06-0.4-0.09c0.04,0.05,0.06,0.11,0.1,0.16c0.5,0.71-2.99,1.28-7.01,1.22c0.17,0.1,0.35,0.2,0.55,0.29
		c0.31,0.16,0.64,0.32,0.99,0.46c1.4,0.6,3.13,1.05,5.02,1.38c1.9,0.32,3.97,0.52,6.07,0.64c1.05,0.08,2.11,0.1,3.15,0.15
		c1.05,0.03,2.08,0.05,3.08,0.08c1.46,0.04,2.84,0.07,4.11,0.1c0.12-0.45,0.23-0.9,0.34-1.36c0.01-0.03,0.01-0.06,0.02-0.09
		c0.21-0.88,0.39-1.78,0.56-2.68c0.02-0.08,0.03-0.17,0.05-0.25c0.08-0.42,0.15-0.83,0.22-1.25c0-0.01,0-0.02,0.01-0.04
		C73.4,79.01,73.06,79.16,72.69,79.28z"/>
	<path class="st0" d="M46.08,99.99C45.55,100,45.03,100,44.5,100C45.03,100,45.55,99.99,46.08,99.99z"/>
	<path class="st0" d="M44.03,100c-0.53,0-1.05,0-1.57-0.01C42.98,100,43.5,100,44.03,100z"/>
	<path class="st0" d="M73.95,77.49c0.09-0.62,0.17-1.32,0.25-2.1c-0.06,0.6-0.12,1.15-0.19,1.65C73.99,77.2,73.97,77.35,73.95,77.49
		z"/>
	<path class="st0" d="M70.91,89.1c0.48-1.03,0.88-2.1,1.23-3.21c-0.14,0.43-0.28,0.86-0.43,1.28C71.46,87.83,71.2,88.47,70.91,89.1z
		"/>
	<path class="st0" d="M68.42,84.43c-1-0.03-2.03-0.05-3.08-0.08c-1.04-0.05-2.1-0.07-3.15-0.15c-2.1-0.12-4.17-0.32-6.07-0.64
		c-1.89-0.33-3.63-0.77-5.02-1.38c-0.36-0.14-0.69-0.3-0.99-0.46c-0.2-0.09-0.38-0.19-0.55-0.29c-0.62-0.01-1.25-0.03-1.89-0.07
		c0.17,0.29,0.38,0.59,0.63,0.9c0.44,0.56,1.01,1.17,1.71,1.72c0.69,0.56,1.52,1.07,2.42,1.54c0.91,0.45,1.89,0.85,2.94,1.17
		c1.04,0.31,2.13,0.59,3.24,0.76c1.11,0.2,2.25,0.3,3.38,0.38c3.46,0.2,6.87-0.12,9.73-0.64c0.15-0.42,0.3-0.85,0.43-1.28
		c0.01-0.02,0.01-0.04,0.02-0.06c0.13-0.43,0.26-0.86,0.38-1.3C71.26,84.5,69.88,84.47,68.42,84.43z"/>
	<path class="st0" d="M1.03,18.96c0.04-0.25,0.08-0.5,0.12-0.75C1.11,18.46,1.07,18.71,1.03,18.96z"/>
	<path class="st0" d="M1.4,16.84c0.05-0.24,0.1-0.48,0.15-0.72C1.5,16.36,1.45,16.6,1.4,16.84z"/>
	<path class="st0" d="M1.21,17.87c0.04-0.24,0.08-0.47,0.13-0.7C1.29,17.4,1.25,17.63,1.21,17.87z"/>
	<path class="st0" d="M72.16,85.83c0.27-0.87,0.5-1.75,0.72-2.65c-0.11,0.46-0.22,0.91-0.34,1.36
		C72.41,84.97,72.29,85.4,72.16,85.83z"/>
	<path class="st0" d="M74.93,49.07c0,0.99,0,1.96-0.01,2.93c0-1.18,0.01-2.37,0.01-3.57c0-0.26,0-0.52,0-0.79c0,0.26,0,0.53,0,0.79
		C74.93,48.64,74.93,48.85,74.93,49.07z"/>
	<path class="st0" d="M68.71,47.56c-0.14,0.09-0.35,0.22-0.6,0.37c0.24-0.03,0.48-0.06,0.71-0.08
		C68.78,47.76,68.74,47.66,68.71,47.56z"/>
	<path class="st0" d="M63.96,47.22c0.74,0.07,1.42,0.12,2.02,0.18c0.57,0,1.11,0.05,1.56,0.06c0.49-0.04,0.86-0.05,1.11-0.06
		c-0.15-0.39-0.29-0.78-0.44-1.17c-1.22,0.29-2.86,0.66-4.44,0.97C63.83,47.21,63.9,47.22,63.96,47.22z"/>
	<path class="st0" d="M69.84,47.7c0.01,0.03,0.02,0.06,0.03,0.09c0.05,0,0.09,0,0.14,0C69.96,47.76,69.89,47.73,69.84,47.7z"/>
	<path class="st0" d="M27.62,54.33c0.95-0.52,1.97-0.97,3.05-1.35c3.27-1.12,4.32-2.26,4.5-3.3c-3.03,0.51-6.66,1.88-9.24,3.29
		C26.89,53.61,27.43,54.12,27.62,54.33z"/>
	<path class="st0" d="M53.51,50.74c0.22,0.77,1.41,0.55,3.86-0.1c0.37-0.1,1.51-0.47,3-0.91c-0.53,0.03-1.07,0.05-1.63,0.04
		c-0.98,0.01-1.98-0.03-2.99-0.11c-0.4-0.02-0.81-0.06-1.21-0.11C53.82,49.99,53.41,50.41,53.51,50.74z"/>
	<path class="st0" d="M64.96,38.09c-0.2,0.03-0.45,0.07-0.73,0.11c-0.27,0.04-0.59,0.1-0.93,0.15c0.81,0.16,1.5,0.34,2,0.54
		C65.19,38.62,65.08,38.36,64.96,38.09z"/>
	<path class="st0" d="M46.81,39.9c-1.03,0.76-1.93,1.61-2.57,2.55c-0.04,0.05-0.06,0.1-0.09,0.15c0.25,0.08,0.51,0.16,0.77,0.23
		c0.57,0.16,1.19,0.31,1.81,0.44c0.85-0.79,2.11-1.98,3.5-3.03c-0.65-0.07-1.29-0.13-1.9-0.19C47.78,40.01,47.29,39.96,46.81,39.9z"
		/>
	<path class="st0" d="M48.32,40.06c0.61,0.06,1.26,0.12,1.9,0.19c0.75-0.57,1.54-1.1,2.32-1.5c-0.01,0-0.03,0-0.04,0
		c-0.48-0.07-0.97-0.14-1.45-0.21l-0.18-0.03l-0.23-0.05l-0.36-0.07l-0.72-0.14c-0.01,0-0.01,0-0.02,0
		c-0.96,0.49-1.89,1.04-2.73,1.66C47.29,39.96,47.78,40.01,48.32,40.06z"/>
	<path class="st0" d="M58.37,35.11c0,0-1.07,0.23-2.64,0.7c0.02,0,0.04,0.01,0.06,0.01c0.9,0.15,1.76,0.3,2.58,0.44
		c0.83,0.15,1.62,0.29,2.35,0.42c0.73,0.13,1.41,0.29,2.01,0.42c0.6,0.13,1.12,0.29,1.55,0.4c0.19,0.05,0.36,0.11,0.51,0.16
		c-0.77-1.79-1.53-3.37-2.13-4.74c-0.14-0.3-0.27-0.58-0.41-0.86c-0.05,0.02-0.13,0.06-0.24,0.11c-0.2,0.09-0.54,0.21-0.96,0.31
		c-0.74,0.2-1.76,0.37-2.99,0.46C58.9,34.07,58.37,35.11,58.37,35.11z"/>
	<path class="st0" d="M44.15,42.61c-0.77,1.35,0.73,2.13,1.68,1.46c0.19-0.13,0.5-0.42,0.9-0.79c-0.62-0.13-1.24-0.28-1.81-0.44
		C44.65,42.77,44.4,42.69,44.15,42.61z"/>
	<path class="st0" d="M69.18,45.99c0.18,0.46,0.36,0.93,0.55,1.4c0.25-0.01,0.6-0.02,1.04-0.02c0.46,0.04,1.01-0.07,1.59-0.13
		c0.3-0.04,0.6-0.05,0.93-0.12c0.33-0.07,0.68-0.14,1.04-0.21c0.2-0.03,0.41-0.07,0.62-0.12c0-0.93,0.01-1.86,0.01-2.8
		c-0.7,0.09-1.38,0.13-2,0.18c-0.8,0.02-1.52,0-2.17-0.04c-0.43-0.04-0.81-0.09-1.15-0.15c0.4,1.02,0.54,1.75,0.54,1.75
		S69.78,45.84,69.18,45.99z"/>
	<path class="st0" d="M25.62,53.14c-1.23,0.7-2.19,1.39-2.67,1.98c0.65,0.33,1.17,0.77,1.6,1.3c0.91-0.76,1.92-1.46,3.04-2.07"/>
	<path class="st0" d="M7.09,74.17c0.26-0.9-3.41-2.49-6.48-2.8c-0.06-0.01-0.12-0.01-0.18-0.02c0.03,0.64,0.07,1.25,0.11,1.83
		c1.48,0.44,2.62,0.81,2.99,0.9C5.78,74.68,6.88,74.88,7.09,74.17z"/>
	<path class="st0" d="M6.81,69.99c-1.96,1.27,1.85,2.43,2.68,2.47C11.09,72.34,8.06,69.17,6.81,69.99z"/>
	<path class="st0" d="M47.92,0.09c0.45,0.01,0.9,0.01,1.33,0.02c-2.16-0.04-4.55-0.07-7.04-0.09c1.57,0.01,3.1,0.03,4.57,0.05
		C47.16,0.07,47.55,0.08,47.92,0.09z"/>
	<path class="st0" d="M3.51,37.11c1.07-1.38-1.19-2.27-3.41-2.79c-0.01,0.6-0.02,1.2-0.02,1.81C1.64,36.95,3.02,37.75,3.51,37.11z"
		/>
	<path class="st0" d="M2.05,83.66c0.14,0.55,0.3,1.09,0.46,1.61h0C2.35,84.75,2.19,84.21,2.05,83.66L2.05,83.66z"/>
	<path class="st0" d="M39.57,0c-0.74,0-1.49,0-2.23,0c-0.15,0-0.3,0-0.45,0c0.15,0,0.3,0,0.45,0C38.08,0,38.83,0,39.57,0z"/>
	<path class="st0" d="M22.34,51.13c-0.37-0.1-0.74-0.2-1.11-0.28c-3.96-0.86-7.93-0.46-12.81,0.2C5.93,51.4,2.6,51.77,0.05,52.7
		c0.01,3.4,0.03,6.68,0.08,9.7c2.11-0.23,4.47-0.27,6.08,0.03C9.34,63,13.28,67.36,14.19,68c0.91,0.64,2.38-0.16,1.47-1.49
		c-3.2-4.7-13.07-6.79-13.07-6.79s-0.91-1.77,1.67-3.1c1.32-0.69,10.63-5.58,18.68-1.49c0.48-0.59,1.44-1.29,2.67-1.98"/>
	<path class="st0" d="M17.72,78.72l-0.01-0.02c-1.2-2.79-1.13,0.71-1.07,2.13c0.01,0.87,0.2,2.86,0.86,3.63
		c1.3,1.37,2.04-0.34,1.82-1.56C19.19,81.46,18.28,79.98,17.72,78.72z"/>
	<path class="st0" d="M24.02,73.01c0.67,0.03,1.32,0.09,1.95,0.19c0.05,0.01,0.1,0.02,0.15,0.03c-0.07-0.12-0.13-0.24-0.17-0.35
		c-0.73-2.42,5.77-7.68,6.56-9.63c0.79-1.95-0.79-4.63-1.63-2.6c-0.81,1.93-2.35,7.48-6.16,9.96c-0.07,0.22-0.11,0.35-0.11,0.35
		C24.38,71.55,23.96,72.25,24.02,73.01z"/>
	<path class="st0" d="M10.3,79.58L10.3,79.58c-0.39-0.31-0.58,0.18-0.78,0.8c-0.14,0.45-0.31,1.11-0.32,1.65
		c-0.15,0.8-0.48,3.11,0.26,3.63c1.24,0.85,2.18-1.08,2.06-2.02C11.36,82.54,11.04,80.37,10.3,79.58z"/>
	<path class="st0" d="M7.96,87.27c-1.26,0.71-1.93,2.17-2.49,4.34c0.65,0.97,1.37,1.84,2.16,2.62C8.78,90.92,9.95,86.14,7.96,87.27z
		"/>
	<path class="st0" d="M60.96,55.36c-0.14,0.06-0.27,0.12-0.38,0.2c-0.83,0.62-0.84,1.31,0.24,1.52c0.45,0.05,2.28-0.31,2.64-0.48
		c1.11-0.73,0.22-1.29-0.91-1.41"/>
	<path class="st0" d="M67.46,5.13c-2.04-1.78-4.4-2.93-6.83-3.66c0.28,0.08,0.55,0.17,0.83,0.27C63.59,2.47,65.65,3.55,67.46,5.13z"
		/>
	<path class="st0" d="M62.26,4.13c0.75,2.65,1.24,6.27,1.28,9.91c0,0.91-0.01,1.82-0.06,2.72c-0.04,0.9-0.12,1.78-0.23,2.63
		c-0.1,0.85-0.24,1.67-0.39,2.45c-0.15,0.77-0.35,1.5-0.54,2.16c-0.19,0.66-0.42,1.26-0.63,1.78c-0.21,0.52-0.43,0.96-0.63,1.32
		c-0.08,0.15-0.16,0.29-0.23,0.4c0.08,0.17,0.19,0.41,0.38,0.79c0.1-0.16,0.21-0.35,0.35-0.58c0.42-0.67,1-1.63,1.73-2.75
		c1.42-2.27,3.42-5.19,5.35-8.11c1.2-1.81,2.38-3.63,3.36-5.3c0,0,0,0,0,0c-0.14-0.34-0.29-0.66-0.44-0.98
		c0-0.01-0.01-0.02-0.01-0.03c-0.15-0.31-0.31-0.61-0.47-0.9c-0.01-0.01-0.02-0.03-0.02-0.04c-0.16-0.29-0.33-0.57-0.5-0.84
		c-0.01-0.02-0.02-0.03-0.03-0.05c-0.17-0.27-0.35-0.53-0.53-0.78c-0.01-0.02-0.02-0.03-0.03-0.05c-0.18-0.25-0.36-0.49-0.55-0.73
		c-0.01-0.01-0.02-0.03-0.04-0.04c-0.19-0.23-0.38-0.46-0.58-0.68c-0.01-0.01-0.02-0.02-0.03-0.04c-0.2-0.22-0.41-0.43-0.61-0.64
		c-0.01-0.01-0.02-0.02-0.02-0.02c-0.21-0.21-0.43-0.41-0.65-0.6c0,0,0,0,0,0c-1.81-1.58-3.87-2.66-6-3.39
		C61.73,2.39,62.01,3.2,62.26,4.13z"/>
	<path class="st0" d="M74.8,41.3c-0.79,0.32-1.54,0.55-2.24,0.83c-0.7,0.24-1.35,0.45-1.92,0.64c-0.52,0.12-0.98,0.28-1.39,0.39
		c0.14,0.29,0.27,0.57,0.37,0.84c0.34,0.05,0.72,0.11,1.15,0.15c0.65,0.04,1.37,0.06,2.17,0.04c0.62-0.05,1.3-0.09,2-0.18
		c0-0.05,0-0.1,0-0.15c0-0.83,0-1.67,0.01-2.51c0-0.03,0-0.07,0-0.1C74.9,41.26,74.85,41.28,74.8,41.3z"/>
	<path class="st0" d="M74.41,49.02c-0.41-0.05-0.8-0.08-1.16-0.14c-0.12-0.02-0.25-0.05-0.37-0.08c0.64,0.79,1.17,2.01,1.58,3.31
		c0.15-0.02,0.3-0.06,0.46-0.09c0-0.01,0-0.01,0-0.02c0-0.97,0.01-1.95,0.01-2.93C74.76,49.05,74.58,49.04,74.41,49.02z"/>
	<path class="st0" d="M73.34,16c-0.09-0.46-0.2-0.91-0.31-1.35c0,0.01,0,0.01,0.01,0.02C73.14,15.11,73.24,15.55,73.34,16z"/>
	<path class="st0" d="M74.32,46.93c-0.36,0.07-0.71,0.14-1.04,0.21c-0.33,0.07-0.63,0.08-0.93,0.12c-0.59,0.05-1.13,0.16-1.59,0.13
		c-0.44,0-0.79,0.01-1.04,0.02c-0.18-0.48-0.36-0.94-0.55-1.4c-0.28,0.07-0.61,0.15-0.97,0.23c0.14,0.39,0.29,0.78,0.44,1.17
		c-0.25,0.01-0.62,0.02-1.11,0.06c-0.45-0.01-0.98-0.06-1.56-0.06c-0.6-0.05-1.28-0.11-2.02-0.18c-0.07-0.01-0.13-0.02-0.2-0.03
		c-1.18,0.23-2.32,0.42-3.24,0.51c-2.18,0.22-4.63,1.04-5.99,1.85c0.4,0.04,0.81,0.08,1.21,0.11c1.02,0.08,2.02,0.12,2.99,0.11
		c0.55,0.01,1.09-0.01,1.63-0.04c2.22-0.66,5.23-1.47,7.74-1.8c0.26-0.15,0.46-0.28,0.6-0.37c0.04,0.1,0.07,0.19,0.11,0.29
		c0.37-0.04,0.73-0.06,1.06-0.07c-0.01-0.03-0.02-0.06-0.03-0.09c0.05,0.03,0.12,0.06,0.17,0.09c1.09-0.01,1.97,0.15,2.45,0.56
		c0.15,0.13,0.29,0.28,0.42,0.44c0.12,0.03,0.24,0.06,0.37,0.08c0.36,0.05,0.75,0.09,1.16,0.14c0.17,0.03,0.34,0.04,0.52,0.05
		c0-0.21,0-0.43,0-0.64c0-0.26,0-0.52,0-0.79c0-0.28,0-0.55,0-0.83C74.73,46.86,74.52,46.9,74.32,46.93z"/>
	<path class="st0" d="M66.93,29.45c-1.34,0.56-2.52,0.91-3.37,1.08c-0.42,0.09-0.78,0.12-1,0.13c-0.06,0-0.1,0-0.15,0
		c0.3,0.58,0.62,1.22,0.96,1.93c0.19,0.41,0.39,0.84,0.6,1.28c0.22-0.1,0.54-0.24,0.95-0.41c0.42-0.17,0.92-0.38,1.5-0.58
		c0.58-0.21,1.24-0.45,1.92-0.72c0.68-0.27,1.46-0.49,2.18-0.86c0.37-0.17,0.75-0.33,1.13-0.49l0.29-0.12l0.13-0.05l0.15-0.08
		c0.21-0.1,0.42-0.21,0.63-0.31c0.66-0.32,1.27-0.64,1.91-0.97c0-0.01,0-0.02,0-0.02c-0.06-1.45-0.15-2.88-0.25-4.28v0
		C71.93,26.92,69.21,28.5,66.93,29.45z"/>
	<path class="st0" d="M74.07,33.21c-0.22,0.07-0.45,0.14-0.67,0.22l-0.16,0.05c-0.1,0.03-0.13,0.03-0.2,0.05l-0.36,0.08
		c-0.48,0.1-0.94,0.21-1.39,0.3c-0.9,0.22-1.74,0.23-2.52,0.3c-0.78,0.07-1.48,0.05-2.11,0.03c-0.62-0.01-1.17-0.05-1.62-0.07
		c-0.41-0.03-0.74-0.06-0.97-0.08c0.62,1.31,1.32,2.78,2.02,4.41c0.22-0.07,0.54-0.15,0.92-0.28c0.39-0.15,0.85-0.34,1.39-0.56
		c0.54-0.25,1.14-0.49,1.79-0.8c1.3-0.6,2.82-1.29,4.45-2.04c0.09-0.04,0.19-0.08,0.28-0.13c0-0.01,0-0.01,0-0.02
		c-0.01-0.58-0.02-1.16-0.03-1.74c0,0,0,0,0,0C74.61,33.03,74.33,33.13,74.07,33.21z"/>
	<path class="st0" d="M60.71,4.35c0.03,2.65,0.07,6.18,0.11,9.71c0.04,3.52,0.04,7.02-0.05,9.66c-0.04,0.66-0.07,1.27-0.1,1.8
		c-0.06,0.53-0.08,1.01-0.13,1.39c-0.01,0.08-0.02,0.15-0.03,0.22c-0.09-0.94-0.27-2.37-0.65-4.1c-0.33-1.58-0.84-3.39-1.48-5.3
		c-0.65-1.9-1.46-3.9-2.39-5.84c-0.93-1.94-1.97-3.82-3.04-5.53c-1.09-1.7-2.2-3.23-3.27-4.46c-0.61-0.72-1.21-1.33-1.76-1.83
		c-0.37-0.01-0.76-0.01-1.14-0.02c0.47,0.7,1.01,1.64,1.62,2.74c0.74,1.38,1.59,3,2.45,4.76c0.88,1.75,1.79,3.62,2.69,5.51
		c0.9,1.88,1.79,3.77,2.61,5.56c0.82,1.79,1.58,3.46,2.24,4.89c0.65,1.45,1.2,2.66,1.58,3.5c0.03,0.07,0.06,0.13,0.09,0.2
		c0,0,0,0,0,0c-0.5-0.62-1.22-1.49-2.09-2.51c-1.72-2.04-4.01-4.75-6.29-7.47c-2.28-2.71-4.53-5.44-6.19-7.52
		c-0.82-1.05-1.48-1.94-1.87-2.6c-0.19-0.33-0.31-0.6-0.33-0.8c-0.03-0.19,0.09-0.28,0.08-0.29c0.02,0.01-0.14,0.02-0.23,0.26
		c-0.07,0.22-0.09,0.58-0.03,0.99c0.12,0.83,0.47,1.96,1.04,3.23c1.1,2.56,3.09,5.66,5.45,8.46c2.35,2.8,5.06,5.29,7.32,6.87
		c1.11,0.81,2.1,1.4,2.81,1.79c0.16,0.08,0.3,0.16,0.42,0.22c0.09,0.17,0.24,0.41,0.44,0.82c0.08,0.17,0.17,0.35,0.27,0.55
		c-0.15-0.09-0.5-0.28-1-0.57c-0.69-0.39-1.67-0.94-2.85-1.57c-2.35-1.29-5.51-2.88-8.62-4.5c-3.11-1.61-6.17-3.26-8.22-4.78
		c-0.49-0.4-0.95-0.76-1.29-1.13c-0.36-0.37-0.61-0.72-0.78-1.05c-0.16-0.32-0.27-0.61-0.29-0.82c-0.03-0.21-0.05-0.32-0.05-0.32
		s-0.04,0.11-0.1,0.32c-0.08,0.21-0.12,0.54-0.08,0.97c0.04,0.42,0.16,0.96,0.43,1.48c0.24,0.55,0.61,1.1,1.05,1.67
		c1.78,2.26,4.85,4.41,8.07,6.08c3.24,1.67,6.66,2.89,9.31,3.53c1.32,0.34,2.45,0.53,3.24,0.63c0.63,0.08,1.04,0.1,1.19,0.11
		c0.36,0.73,0.83,1.64,1.35,2.73c-0.06-0.01-0.14-0.02-0.24-0.04c-0.23-0.03-0.54-0.11-0.94-0.2c-0.8-0.19-1.93-0.5-3.27-0.87
		c-1.34-0.36-2.9-0.77-4.57-1.22c-1.67-0.43-3.45-0.88-5.23-1.32c-3.56-0.87-7.11-1.69-9.72-2.45c-0.65-0.2-1.25-0.37-1.76-0.57
		c-0.51-0.2-0.96-0.38-1.3-0.57c-0.34-0.19-0.63-0.36-0.78-0.51c-0.17-0.15-0.27-0.23-0.27-0.23s0.03,0.12,0.09,0.34
		c0.03,0.12,0.08,0.25,0.17,0.4c0.07,0.16,0.16,0.34,0.3,0.51c0.25,0.37,0.59,0.8,1.05,1.21c0.44,0.43,0.98,0.86,1.59,1.29
		c0.6,0.42,1.27,0.82,1.99,1.2c7.9-2.15,15.98,2.09,17.25,2.75c0.73,0.38,1.2,0.79,1.5,1.19c1.23-0.09,2.25-0.26,2.99-0.46
		c0.42-0.1,0.75-0.23,0.96-0.31c0.1-0.05,0.18-0.08,0.24-0.11c0.13,0.28,0.27,0.56,0.41,0.86c0.61,1.38,1.36,2.95,2.13,4.74
		c-0.15-0.05-0.32-0.11-0.51-0.16c-0.43-0.11-0.95-0.28-1.55-0.4c-0.6-0.13-1.28-0.29-2.01-0.42c-0.73-0.13-1.51-0.27-2.35-0.42
		c-0.82-0.14-1.69-0.29-2.58-0.44c-0.02,0-0.04-0.01-0.06-0.01c-1.71,0.51-4.02,1.32-6.19,2.43c0.01,0,0.01,0,0.02,0l0.72,0.14
		l0.36,0.07l0.23,0.05l0.18,0.03c0.49,0.07,0.97,0.14,1.45,0.21c0.01,0,0.03,0,0.04,0c0.65-0.33,1.29-0.58,1.9-0.7
		c2.36-0.43,6.23-0.21,8.86,0.31c0.34-0.05,0.65-0.11,0.93-0.15c0.28-0.04,0.53-0.08,0.73-0.11c0.11,0.27,0.23,0.53,0.34,0.81
		c0.2,0.08,0.36,0.16,0.49,0.24c0.3,0.2,0.58,0.41,0.85,0.63c-0.07-0.16-0.14-0.33-0.21-0.49c-0.07-0.18-0.15-0.35-0.22-0.53
		c0.21,0.06,0.49,0.14,0.82,0.18c0.43,0.03,1.01,0.1,1.64,0.08c0.61-0.03,1.33-0.03,2.07-0.14c1.28-0.15,2.72-0.43,4.21-0.83
		c0,0,0,0,0-0.01c-0.01-1.11-0.02-2.22-0.03-3.32c0-0.01,0-0.01,0-0.02c-0.09,0.04-0.19,0.09-0.28,0.13
		c-1.63,0.75-3.15,1.44-4.45,2.04c-0.65,0.31-1.25,0.55-1.79,0.8c-0.53,0.21-1,0.4-1.39,0.56c-0.38,0.12-0.69,0.21-0.92,0.28
		c-0.7-1.63-1.4-3.1-2.02-4.41c0.24,0.02,0.56,0.05,0.97,0.08c0.45,0.03,1,0.07,1.62,0.07c0.62,0.02,1.32,0.04,2.11-0.03
		c0.78-0.07,1.62-0.08,2.52-0.3c0.45-0.09,0.91-0.2,1.39-0.3l0.36-0.08c0.07-0.02,0.1-0.02,0.2-0.05l0.16-0.05
		c0.22-0.07,0.44-0.14,0.67-0.22c0.27-0.08,0.54-0.18,0.81-0.28c0,0,0,0,0,0c-0.03-1.23-0.07-2.44-0.12-3.65c0,0,0,0,0,0
		c-0.64,0.33-1.25,0.65-1.91,0.97c-0.21,0.11-0.42,0.21-0.63,0.31l-0.15,0.08l-0.13,0.05l-0.29,0.12c-0.38,0.17-0.77,0.32-1.13,0.49
		c-0.72,0.37-1.5,0.58-2.18,0.86c-0.68,0.27-1.34,0.51-1.92,0.72c-0.58,0.2-1.08,0.41-1.5,0.58c-0.41,0.17-0.73,0.31-0.95,0.41
		c-0.21-0.44-0.41-0.87-0.6-1.28c-0.34-0.71-0.66-1.35-0.96-1.93c0.04,0,0.09,0,0.15,0c0.22-0.01,0.58-0.04,1-0.13
		c0.85-0.16,2.03-0.52,3.37-1.08c2.29-0.94,5.01-2.53,7.59-4.47c0,0,0,0,0,0c-0.06-0.73-0.12-1.45-0.19-2.16c0-0.01,0-0.01,0-0.02
		c-0.07-0.71-0.15-1.41-0.23-2.11c-0.18,0.15-0.35,0.29-0.53,0.44c-1.41,1.17-2.82,2.34-4.14,3.46c-1.31,1.13-2.54,2.18-3.59,3.09
		c-1.05,0.92-1.93,1.68-2.57,2.2c-0.32,0.25-0.56,0.46-0.76,0.59c-0.05,0.04-0.1,0.07-0.14,0.1c-0.41-0.81-0.77-1.49-1.05-2.04
		c0.17-0.11,0.38-0.26,0.63-0.44c0.65-0.47,1.54-1.19,2.53-2.12c2.01-1.84,4.41-4.57,6.42-7.61c0.79-1.19,1.51-2.43,2.14-3.66
		c0-0.01,0-0.01-0.01-0.02c-0.08-0.33-0.18-0.65-0.27-0.96c-0.05-0.17-0.1-0.33-0.16-0.49c-0.05-0.14-0.09-0.28-0.14-0.42
		c-0.15-0.42-0.3-0.83-0.47-1.23c0,0,0-0.01,0-0.01c-0.97,1.67-2.15,3.49-3.36,5.3c-1.93,2.92-3.93,5.84-5.35,8.11
		c-0.73,1.12-1.31,2.08-1.73,2.75c-0.14,0.23-0.26,0.42-0.35,0.58c-0.19-0.38-0.29-0.62-0.38-0.79c0.07-0.12,0.15-0.25,0.23-0.4
		c0.2-0.36,0.42-0.8,0.63-1.32c0.21-0.52,0.44-1.12,0.63-1.78c0.19-0.66,0.39-1.39,0.54-2.16c0.15-0.77,0.29-1.59,0.39-2.45
		c0.11-0.85,0.19-1.73,0.23-2.63c0.06-0.9,0.06-1.81,0.06-2.72c-0.04-3.64-0.53-7.26-1.28-9.91c-0.25-0.93-0.52-1.74-0.8-2.39
		c-0.27-0.09-0.55-0.18-0.83-0.27c0,0-0.01,0-0.01,0C60.67,2.21,60.69,3.2,60.71,4.35z"/>
	<path class="st0" d="M70.89,18.34c-2.01,3.03-4.41,5.76-6.42,7.61c-0.99,0.94-1.88,1.65-2.53,2.12c-0.25,0.19-0.46,0.33-0.63,0.44
		c0.28,0.55,0.64,1.23,1.05,2.04c0.04-0.03,0.08-0.06,0.14-0.1c0.2-0.12,0.44-0.34,0.76-0.59c0.64-0.52,1.52-1.28,2.57-2.2
		c1.05-0.9,2.28-1.96,3.59-3.09c1.32-1.12,2.73-2.29,4.14-3.46c0.18-0.15,0.35-0.29,0.53-0.44c-0.08-0.63-0.16-1.24-0.25-1.85
		c-0.03-0.23-0.07-0.46-0.1-0.68c-0.03-0.21-0.07-0.42-0.11-0.63c-0.09-0.5-0.18-0.99-0.27-1.48c0-0.02-0.01-0.03-0.01-0.05
		c-0.09-0.46-0.2-0.9-0.31-1.33C72.41,15.92,71.68,17.15,70.89,18.34z"/>
	<path class="st0" d="M74.32,22.79c-0.13-1.36-0.29-2.68-0.49-3.95c0.09,0.61,0.18,1.22,0.25,1.85
		C74.17,21.38,74.25,22.08,74.32,22.79z"/>
	<path class="st0" d="M70.74,38.88c-0.74,0.11-1.46,0.11-2.07,0.14c-0.63,0.02-1.21-0.05-1.64-0.08c-0.34-0.04-0.61-0.12-0.82-0.18
		c0.07,0.17,0.15,0.35,0.22,0.53c0.07,0.16,0.14,0.33,0.21,0.49c1.25,1.04,2.07,2.29,2.61,3.39c0.41-0.11,0.88-0.26,1.39-0.39
		c0.57-0.19,1.22-0.41,1.92-0.64c0.7-0.28,1.45-0.51,2.24-0.83c0.05-0.02,0.1-0.04,0.15-0.06c0-0.02,0-0.04,0-0.06
		c0-1.03,0-2.07,0-3.11c0-0.01,0-0.03,0-0.04C73.45,38.44,72.01,38.72,70.74,38.88z"/>
	<path class="st0" d="M74.47,52.11c0.17,0.53,0.32,1.08,0.45,1.62c0-0.03,0-0.06,0-0.09c0-0.51,0.01-1.02,0.01-1.53
		c0-0.03,0-0.06,0-0.09C74.77,52.05,74.61,52.09,74.47,52.11z"/>
	<path class="st0" d="M49.68,1.92c1.07,1.23,2.18,2.76,3.27,4.46c1.08,1.7,2.12,3.59,3.04,5.53c0.92,1.94,1.73,3.93,2.39,5.84
		c0.64,1.91,1.15,3.72,1.48,5.3c0.38,1.73,0.56,3.16,0.65,4.1c0.01-0.07,0.02-0.15,0.03-0.22c0.05-0.38,0.08-0.86,0.13-1.39
		c0.03-0.54,0.07-1.14,0.1-1.8c0.09-2.64,0.09-6.14,0.05-9.66c-0.04-3.53-0.08-7.06-0.11-9.71c-0.02-1.15-0.04-2.14-0.09-2.89
		c0,0,0,0,0,0c-0.42-0.13-0.84-0.24-1.27-0.35C59.32,1.11,59.3,1.1,59.27,1.1c-0.84-0.2-1.68-0.36-2.52-0.49
		c-0.03,0-0.07-0.01-0.1-0.01c-0.82-0.12-1.64-0.21-2.44-0.28c-0.05,0-0.1-0.01-0.15-0.01c-0.77-0.06-1.53-0.1-2.26-0.13
		c-0.07,0-0.15-0.01-0.22-0.01c-0.35-0.01-0.7-0.02-1.03-0.03c-0.28-0.01-0.58-0.01-0.88-0.02c-0.14,0-0.28-0.01-0.43-0.01
		c-0.43-0.01-0.88-0.02-1.33-0.02C48.47,0.59,49.07,1.2,49.68,1.92z"/>
	<path class="st0" d="M73.53,58.28c-0.38-0.02-0.8-0.04-1.25-0.07c0.1,0.32,0.2,0.64,0.3,0.96c0.08,0.28,0.17,0.57,0.25,0.85
		c0.49-0.01,0.91-0.02,1.23-0.02c-0.12-0.39-0.24-0.79-0.36-1.18C73.65,58.64,73.59,58.46,73.53,58.28z"/>
	<path class="st0" d="M69.89,58.04c-2.74-0.18-5.68-0.32-6.92,0.07"/>
	<path class="st0" d="M73.53,58.28c0.06,0.18,0.12,0.35,0.18,0.53c0.12,0.39,0.24,0.79,0.36,1.18c0.24,0,0.43,0.01,0.55,0.02
		c0.08,0.01,0.16,0.03,0.23,0.05c0-0.01,0-0.02,0-0.03c0.01-0.57,0.02-1.14,0.02-1.73C74.53,58.32,74.07,58.31,73.53,58.28z"/>
	<path class="st0" d="M0.16,31.12c4.13-1.73,8.41-0.03,9.46,0.27c1.48,0.42,2.98,1.43,4.33,2.43c0.01-0.01,0.03-0.01,0.04-0.02
		c0.15-0.06,0.31-0.12,0.46-0.17c-0.01-0.01-0.01-0.02-0.02-0.04c-0.02-0.04-0.04-0.07-0.06-0.11c-0.18-0.31-0.36-0.62-0.53-0.93
		c-0.01-0.02-0.02-0.04-0.03-0.06c-0.18-0.33-0.36-0.65-0.53-0.99c-0.01-0.01-0.01-0.02-0.02-0.03c0,0,0,0.01,0.01,0.01
		c-0.39-0.77-0.75-1.57-1.02-2.38c-0.86-2.54-1.37-4.62-2.05-7.08c-0.96-4.29-1.17-8.56-0.58-12.95C9.62,9,9.63,8.93,9.64,8.86
		C9.69,8.54,9.74,8.22,9.79,7.9C9.71,7.26,9.71,6.61,9.66,5.97C9,5.62,8.35,5.27,7.69,4.92c0,0,0,0,0,0
		c-0.11,0.1-0.23,0.19-0.34,0.29c0,0,0,0,0,0C7.3,5.69,7.25,6.16,7.21,6.64C7.26,6.92,7.3,7.2,7.34,7.49c0,0.02,0.01,0.05,0.01,0.07
		c0.04,0.3,0.08,0.6,0.12,0.91c0,0,0,0.01,0,0.01c0.08,0.63,0.14,1.28,0.2,1.96c0,0.01,0,0.03,0,0.04c0,0,0,0,0,0
		c0.29,3.79,0.12,8.23-1.29,12.63c0,0,0,0,0-0.01c-0.01,0.03-0.02,0.06-0.03,0.1c-0.07,0.21-0.14,0.42-0.21,0.63
		c-0.01,0.03-0.03,0.07-0.04,0.1c-0.07,0.21-0.15,0.42-0.23,0.63c-0.02,0.05-0.04,0.1-0.06,0.14c-0.08,0.2-0.16,0.39-0.24,0.59
		c-0.03,0.07-0.06,0.14-0.09,0.21c-0.07,0.17-0.15,0.35-0.23,0.52c-0.05,0.1-0.1,0.21-0.15,0.31c-0.07,0.14-0.13,0.27-0.2,0.41
		c-0.08,0.15-0.16,0.3-0.23,0.45c-0.05,0.09-0.09,0.18-0.14,0.27c-0.11,0.2-0.22,0.4-0.34,0.6c-0.02,0.04-0.04,0.08-0.07,0.12
		c-0.14,0.24-0.29,0.48-0.44,0.72c-0.06-0.1-0.12-0.2-0.18-0.3c-0.02-0.04-0.04-0.08-0.06-0.11c-0.04-0.07-0.07-0.14-0.1-0.21
		c-0.02-0.05-0.04-0.1-0.06-0.14c-0.03-0.06-0.06-0.13-0.08-0.2c-0.02-0.05-0.04-0.11-0.06-0.16c-0.02-0.06-0.05-0.13-0.07-0.2
		c-0.02-0.06-0.04-0.12-0.05-0.17c-0.02-0.07-0.04-0.13-0.06-0.2c-0.02-0.06-0.03-0.12-0.05-0.19c-0.02-0.07-0.03-0.13-0.05-0.2
		c-0.01-0.07-0.03-0.13-0.04-0.2c-0.01-0.07-0.02-0.13-0.04-0.2c-0.01-0.07-0.03-0.14-0.04-0.21c-0.01-0.06-0.02-0.13-0.03-0.19
		c-0.01-0.08-0.02-0.15-0.03-0.23c-0.01-0.05-0.01-0.1-0.02-0.15c-0.04-0.33-0.06-0.66-0.07-1c0-0.04,0-0.08,0-0.12
		c0-0.11-0.01-0.21-0.01-0.32c0-0.04,0-0.08,0-0.12c0-0.11,0-0.22,0-0.33c0-0.04,0-0.08,0-0.12c0-0.11,0-0.23,0.01-0.34
		c0-0.03,0-0.07,0-0.1c0-0.12,0.01-0.24,0.02-0.37c0-0.02,0-0.04,0-0.06c0.01-0.13,0.02-0.27,0.02-0.4c0,0,0,0,0,0
		c0.01-0.11,0.02-0.22,0.02-0.33c0,0,0,0.01,0,0.01c0.17-2.1,0.59-4.19,0.99-5.77c0.27-1.07,0.61-2.33,0.98-3.61c0,0,0,0.01,0,0.01
		c0.01-0.03,0.02-0.05,0.02-0.08c0.08-0.26,0.15-0.51,0.23-0.77c0.01-0.02,0.01-0.04,0.02-0.06C5,11.54,5.07,11.3,5.15,11.06
		c0.02-0.07,0.05-0.15,0.07-0.22c0.06-0.19,0.13-0.38,0.19-0.56c0.03-0.08,0.05-0.15,0.08-0.23c0.07-0.21,0.15-0.42,0.22-0.62
		C5.73,9.4,5.74,9.35,5.76,9.31C5.85,9.07,5.94,8.83,6.04,8.6c0.02-0.04,0.03-0.08,0.05-0.12c0.08-0.18,0.15-0.36,0.23-0.54
		C6.34,7.87,6.37,7.81,6.4,7.75c0.07-0.15,0.14-0.3,0.21-0.45c0.03-0.06,0.05-0.11,0.08-0.17C6.78,6.94,6.88,6.76,6.97,6.6
		C7,6.22,7.04,5.84,7.08,5.46c0,0,0,0,0,0c-1.2,1.12-2.19,2.4-2.99,3.81c0,0.01-0.01,0.01-0.01,0.02c-0.15,0.27-0.3,0.54-0.44,0.82
		c-0.01,0.02-0.02,0.04-0.03,0.06C3.46,10.45,3.33,10.72,3.2,11c-0.01,0.02-0.02,0.04-0.03,0.06c-0.53,1.19-0.96,2.47-1.31,3.8
		c-0.02,0.06-0.03,0.13-0.05,0.19c-0.07,0.26-0.13,0.52-0.19,0.79c-0.02,0.09-0.04,0.19-0.06,0.28c-0.05,0.24-0.1,0.48-0.15,0.72
		c-0.02,0.11-0.04,0.22-0.07,0.33c-0.05,0.23-0.09,0.47-0.13,0.7c-0.02,0.11-0.04,0.23-0.06,0.34c-0.04,0.25-0.08,0.5-0.12,0.75
		c-0.02,0.1-0.03,0.2-0.05,0.3c-0.05,0.35-0.1,0.71-0.15,1.06c-0.13,1.03-0.24,2.06-0.32,3.07c-0.05,0.6-0.1,1.19-0.13,1.79
		c-0.03,0.51-0.06,1.03-0.08,1.53C0.24,28.16,0.19,29.63,0.16,31.12z"/>
	<path class="st0" d="M72.28,58.21c-0.13-0.01-0.26-0.02-0.4-0.03c-0.16,0.11-0.34,0.24-0.55,0.39c-0.36,0.27-0.85,0.54-1.45,0.82
		c-0.3,0.14-0.62,0.31-0.96,0.46c-0.22,0.08-0.45,0.17-0.69,0.25c1.66,0.02,3.35-0.05,4.6-0.08c-0.08-0.28-0.17-0.57-0.25-0.85
		C72.49,58.84,72.38,58.53,72.28,58.21z"/>
	<path class="st0" d="M51.59,0.16c-0.35-0.01-0.7-0.02-1.03-0.03c-0.28-0.01-0.58-0.01-0.88-0.02c0.3,0.01,0.59,0.01,0.88,0.02
		C50.89,0.14,51.24,0.15,51.59,0.16z"/>
	<path class="st0" d="M74.47,52.11c-0.41-1.3-0.94-2.52-1.58-3.31c-0.14-0.17-0.28-0.32-0.42-0.44c-0.48-0.42-1.36-0.58-2.45-0.56
		c-0.05,0-0.09,0-0.14,0c-0.34,0.01-0.69,0.03-1.06,0.07c-0.23,0.02-0.47,0.05-0.71,0.08c-2.51,0.33-5.53,1.15-7.74,1.8
		c-1.49,0.44-2.62,0.81-3,0.91c-2.45,0.65-3.63,0.86-3.86,0.1c-0.1-0.33,0.32-0.76,1.03-1.18c1.35-0.81,3.8-1.63,5.99-1.85
		c0.92-0.09,2.07-0.29,3.24-0.51c1.58-0.31,3.22-0.68,4.44-0.97c0.37-0.09,0.69-0.17,0.97-0.23c0.61-0.15,0.98-0.24,0.98-0.24
		s-0.13-0.73-0.54-1.75c-0.1-0.26-0.23-0.54-0.37-0.84c-0.53-1.09-1.36-2.35-2.61-3.39c-0.26-0.22-0.54-0.44-0.85-0.63
		c-0.13-0.08-0.3-0.17-0.49-0.24c-0.5-0.2-1.19-0.39-2-0.54c-2.63-0.51-6.49-0.74-8.86-0.31c-0.61,0.11-1.26,0.36-1.9,0.7
		c-0.78,0.4-1.57,0.93-2.32,1.5c-1.39,1.06-2.65,2.25-3.5,3.03c-0.4,0.37-0.71,0.66-0.9,0.79c-0.95,0.67-2.45-0.12-1.68-1.46
		c0.03-0.05,0.05-0.1,0.09-0.15c0.65-0.95,1.54-1.8,2.57-2.55c0.84-0.62,1.77-1.17,2.73-1.66c2.17-1.12,4.47-1.92,6.19-2.43
		c1.57-0.47,2.64-0.7,2.64-0.7s0.53-1.04-0.31-2.16c-0.3-0.4-0.76-0.81-1.5-1.19c-1.27-0.66-9.35-4.9-17.25-2.75
		c-0.99,0.27-1.99,0.64-2.96,1.13c-6.58,3.34-1.8,17.14-1.8,17.14c0.27,0.67,0.77,1.49,0.61,2.39c0,0,0.01,0,0.01,0
		c3.02-0.5,6.67-0.23,10.23,1.02c4.9,1.73,15.52,9.72,18.23,11.7c1.65,1.21,6.73,4.93,10.93,7.48c0.05-1.01,0.09-2.07,0.13-3.19
		c0-0.01,0-0.03,0-0.04c0.01-0.32,0.02-0.64,0.03-0.97c0-0.04,0-0.08,0-0.12c0.01-0.3,0.02-0.61,0.03-0.92c0-0.05,0-0.1,0-0.16
		c0.01-0.3,0.02-0.6,0.02-0.9c0-0.06,0-0.13,0-0.19c0.01-0.29,0.01-0.59,0.02-0.89c0-0.08,0-0.15,0-0.23c0.01-0.3,0.01-0.6,0.02-0.9
		c0-0.07,0-0.14,0-0.21c0.01-0.31,0.01-0.63,0.02-0.95c0-0.05,0-0.1,0-0.15c-0.08-0.02-0.15-0.04-0.23-0.05
		C74.5,60.01,74.31,60,74.07,60c-0.32,0-0.74,0.01-1.23,0.02c-1.25,0.04-2.94,0.1-4.6,0.08c-2.81-0.03-5.54-0.29-5.85-1.33
		c-0.09-0.31,0.14-0.52,0.58-0.66c1.23-0.4,4.18-0.26,6.92-0.07c0.69,0.05,1.37,0.09,2,0.14c0.13,0.01,0.27,0.02,0.4,0.03
		c0.45,0.03,0.87,0.06,1.25,0.07c0.54,0.03,1,0.04,1.34,0.03c0.01-0.74,0.02-1.49,0.02-2.24c0-0.02,0-0.04,0-0.05
		c0.01-0.74,0.01-1.48,0.02-2.23c0-0.02,0-0.04,0-0.06C74.79,53.19,74.64,52.64,74.47,52.11z M53.8,46.23c2.13,1.38-2,2.63-2.9,2.67
		C49.18,48.76,52.46,45.33,53.8,46.23z M63.46,56.6c-0.35,0.18-2.19,0.53-2.64,0.48c-1.08-0.2-1.07-0.9-0.24-1.52
		c0.11-0.08,0.24-0.15,0.38-0.2c0.46-0.18,1.05-0.23,1.58-0.17C63.68,55.3,64.57,55.87,63.46,56.6z"/>
	<path class="st0" d="M26.12,73.24c1.24,2.04,7.92,5.01,10.52,4.82"/>
	<path class="st0" d="M74.85,60.04c0.02-1.29,0.04-2.62,0.05-3.97c-0.01,0.76-0.01,1.5-0.02,2.24
		C74.87,58.9,74.86,59.47,74.85,60.04z"/>
	<path class="st0" d="M62.97,58.11c-0.44,0.14-0.67,0.35-0.58,0.66c0.31,1.03,3.03,1.3,5.85,1.33c0.24-0.08,0.47-0.16,0.69-0.25
		c0.34-0.15,0.66-0.31,0.96-0.46c0.6-0.28,1.09-0.55,1.45-0.82c0.21-0.15,0.39-0.28,0.55-0.39c-0.63-0.04-1.31-0.09-2-0.14"/>
	<path class="st0" d="M74.92,34.71c0.02,1.11,0.03,2.21,0.03,3.32C74.94,36.93,74.93,35.82,74.92,34.71z"/>
	<path class="st0" d="M74.95,38.08c0,1.04,0,2.07,0,3.11C74.95,40.15,74.95,39.12,74.95,38.08z"/>
	<path class="st0" d="M74.32,22.81c0.07,0.71,0.13,1.43,0.19,2.16C74.46,24.24,74.39,23.52,74.32,22.81z"/>
	<path class="st0" d="M67.5,72.08c-0.05-0.18-0.25-0.5-0.53-0.88c-0.55-0.01-1.11-0.02-1.69-0.04c-0.2-0.01-0.41-0.02-0.62-0.02
		c0.59,0.94,1.42,2.02,2.25,3.04c0.74-0.11,1.45-0.24,2.13-0.39C68.22,73.13,67.61,72.45,67.5,72.08z"/>
	<path class="st0" d="M74.95,41.34c0,0.84,0,1.68-0.01,2.51C74.95,43.02,74.95,42.18,74.95,41.34z"/>
	<path class="st0" d="M74.51,24.98c0.11,1.4,0.19,2.83,0.25,4.28C74.7,27.8,74.62,26.38,74.51,24.98z"/>
	<path class="st0" d="M74.88,32.94c0.01,0.58,0.02,1.16,0.03,1.74C74.91,34.09,74.89,33.51,74.88,32.94z"/>
	<path class="st0" d="M74.83,61.38c-0.01,0.3-0.01,0.6-0.02,0.9C74.82,61.99,74.82,61.69,74.83,61.38z"/>
	<path class="st0" d="M9.67,5.59c0.56-0.48,1.17-0.88,1.77-1.3l0.04-0.45c0.02-0.18,0.05-0.36,0.09-0.54
		c0.01-0.03,0.01-0.07,0.02-0.1c0.04-0.17,0.08-0.34,0.14-0.51c0.01-0.02,0.02-0.04,0.02-0.07c0.03-0.08,0.06-0.15,0.09-0.23
		c0,0,0,0,0,0c-0.36,0.16-0.71,0.32-1.05,0.5c-0.01,0-0.01,0.01-0.02,0.01C9.74,3.42,8.81,4.02,7.98,4.68c0,0,0,0,0,0
		C8.54,4.99,9.11,5.29,9.67,5.59z"/>
	<path class="st0" d="M74.93,52.11c0,0.51,0,1.02-0.01,1.53C74.92,53.13,74.92,52.62,74.93,52.11z"/>
	<path class="st0" d="M74.85,60.22c-0.01,0.32-0.01,0.64-0.02,0.95C74.84,60.86,74.84,60.54,74.85,60.22z"/>
	<path class="st0" d="M74.8,62.51c-0.01,0.3-0.01,0.59-0.02,0.89C74.79,63.11,74.8,62.81,74.8,62.51z"/>
	<path class="st0" d="M74.92,53.78c0,0.75-0.01,1.5-0.02,2.23C74.91,55.28,74.91,54.54,74.92,53.78z"/>
	<path class="st0" d="M69.99,7.92c0.18,0.25,0.35,0.51,0.53,0.78C70.34,8.44,70.17,8.18,69.99,7.92z"/>
	<path class="st0" d="M73.62,17.53c0.04,0.21,0.07,0.42,0.11,0.63C73.69,17.95,73.66,17.73,73.62,17.53z"/>
	<path class="st0" d="M69.4,7.15c0.19,0.23,0.37,0.48,0.55,0.73C69.77,7.63,69.59,7.38,69.4,7.15z"/>
	<path class="st0" d="M0.98,19.26c-0.05,0.35-0.1,0.71-0.15,1.06c-0.13,1.03-0.24,2.06-0.32,3.07c0.09-1.02,0.19-2.04,0.32-3.07
		C0.88,19.97,0.93,19.61,0.98,19.26z"/>
	<path class="st0" d="M70.54,8.75c0.17,0.27,0.34,0.55,0.5,0.84C70.88,9.3,70.71,9.02,70.54,8.75z"/>
	<path class="st0" d="M7.07,5.46c-1.2,1.12-2.19,2.4-2.99,3.81C4.89,7.86,5.87,6.58,7.07,5.46z"/>
	<path class="st0" d="M6.97,6.6C6.88,6.76,6.78,6.94,6.69,7.13C6.66,7.19,6.63,7.24,6.61,7.3C6.54,7.44,6.47,7.59,6.4,7.75
		C6.37,7.81,6.34,7.87,6.31,7.94C6.24,8.11,6.16,8.29,6.09,8.47C6.07,8.51,6.05,8.55,6.04,8.6C5.94,8.83,5.85,9.07,5.76,9.31
		C5.74,9.35,5.73,9.4,5.71,9.44c-0.07,0.2-0.15,0.41-0.22,0.62c-0.03,0.07-0.05,0.15-0.08,0.23c-0.06,0.19-0.13,0.37-0.19,0.56
		c-0.02,0.07-0.05,0.15-0.07,0.22C5.07,11.3,5,11.54,4.92,11.78c-0.01,0.02-0.01,0.04-0.02,0.06c-0.08,0.26-0.16,0.51-0.23,0.77
		c-0.01,0.03-0.02,0.05-0.02,0.08c0,0,0-0.01,0-0.01c-0.38,1.28-0.71,2.54-0.98,3.61c-0.4,1.58-0.82,3.67-0.99,5.77
		c0,0,0-0.01,0-0.01c-0.01,0.11-0.02,0.22-0.02,0.33c0,0,0,0,0,0c-0.01,0.14-0.02,0.27-0.02,0.4c0,0.02,0,0.04,0,0.06
		c-0.01,0.12-0.01,0.24-0.02,0.37c0,0.03,0,0.07,0,0.1c0,0.11-0.01,0.23-0.01,0.34c0,0.04,0,0.08,0,0.12c0,0.11,0,0.22,0,0.33
		c0,0.04,0,0.08,0,0.12c0,0.11,0,0.21,0.01,0.32c0,0.04,0,0.08,0,0.12c0.01,0.34,0.04,0.68,0.07,1c0.01,0.05,0.01,0.1,0.02,0.15
		c0.01,0.08,0.02,0.15,0.03,0.23c0.01,0.06,0.02,0.13,0.03,0.19c0.01,0.07,0.02,0.14,0.04,0.21c0.01,0.07,0.02,0.13,0.04,0.2
		c0.01,0.07,0.03,0.13,0.04,0.2c0.01,0.07,0.03,0.13,0.05,0.2c0.02,0.06,0.03,0.12,0.05,0.19c0.02,0.07,0.04,0.13,0.06,0.2
		c0.02,0.06,0.04,0.12,0.05,0.17c0.02,0.07,0.04,0.13,0.07,0.2c0.02,0.05,0.04,0.11,0.06,0.16c0.03,0.07,0.05,0.13,0.08,0.2
		c0.02,0.05,0.04,0.1,0.06,0.14c0.03,0.07,0.07,0.14,0.1,0.21c0.02,0.04,0.04,0.08,0.06,0.11c0.06,0.1,0.12,0.21,0.18,0.3
		c0.15-0.24,0.3-0.48,0.44-0.72c0.02-0.04,0.04-0.08,0.07-0.12c0.12-0.2,0.23-0.4,0.34-0.6c0.05-0.09,0.09-0.18,0.14-0.27
		c0.08-0.15,0.16-0.3,0.23-0.45c0.07-0.14,0.13-0.27,0.2-0.41c0.05-0.1,0.1-0.21,0.15-0.31c0.08-0.17,0.15-0.34,0.23-0.52
		c0.03-0.07,0.06-0.14,0.09-0.21c0.08-0.2,0.16-0.39,0.24-0.59c0.02-0.05,0.04-0.1,0.06-0.14c0.08-0.21,0.16-0.42,0.23-0.63
		c0.01-0.03,0.03-0.07,0.04-0.1c0.07-0.21,0.14-0.42,0.21-0.63c0.01-0.03,0.02-0.06,0.03-0.1c0,0,0,0,0,0.01
		c1.41-4.4,1.58-8.85,1.29-12.63c0,0,0,0,0,0c0-0.01,0-0.03,0-0.04c-0.05-0.68-0.12-1.33-0.2-1.96c0,0,0-0.01,0-0.01
		C7.44,8.17,7.4,7.86,7.35,7.57c0-0.02-0.01-0.05-0.01-0.07C7.3,7.2,7.26,6.92,7.21,6.64C7.25,6.16,7.3,5.69,7.35,5.21
		C7.25,5.29,7.16,5.38,7.08,5.46C7.04,5.84,7,6.22,6.97,6.6z"/>
	<path class="st0" d="M72.6,13.2c0.05,0.16,0.11,0.33,0.16,0.49C72.7,13.53,72.65,13.36,72.6,13.2z"/>
	<path class="st0" d="M71.06,9.63c0.16,0.29,0.32,0.59,0.47,0.9C71.38,10.22,71.22,9.92,71.06,9.63z"/>
	<path class="st0" d="M71.54,10.56c0.15,0.32,0.3,0.64,0.44,0.98C71.84,11.2,71.7,10.88,71.54,10.56z"/>
	<path class="st0" d="M71.99,11.56c0.16,0.39,0.32,0.81,0.47,1.23C72.31,12.36,72.15,11.95,71.99,11.56z"/>
	<path class="st0" d="M74.76,29.28c0.05,1.2,0.09,2.42,0.12,3.65C74.85,31.7,74.82,30.48,74.76,29.28z"/>
	<path class="st0" d="M12.94,4.19c0.02,0,0.05,0,0.07-0.01c-0.11,0.03-0.22,0.04-0.32,0.07c-0.08,0.02-0.17,0.04-0.25,0.05
		c-0.27,0.05-0.54,0.1-0.8,0.13c-0.01,0.02-0.02,0.05-0.05,0.06c-0.57,0.4-1.15,0.77-1.68,1.22c1.29,0.69,2.58,1.39,3.86,2.11
		c0.69-0.41,1.38-0.85,2.17-1.01c0.12-0.12,0.23-0.25,0.35-0.36c0.05-0.04,0.09-0.09,0.14-0.13c0.11-0.1,0.21-0.19,0.32-0.28
		c0.05-0.04,0.11-0.09,0.16-0.13c0.11-0.09,0.22-0.17,0.34-0.25c0.05-0.04,0.1-0.07,0.15-0.11c0.17-0.11,0.33-0.22,0.5-0.32
		c0.01-0.01,0.02-0.01,0.03-0.02c0.16-0.09,0.33-0.18,0.5-0.27c0.06-0.03,0.12-0.06,0.18-0.09c0.12-0.06,0.25-0.11,0.37-0.17
		c0.07-0.03,0.14-0.06,0.2-0.08c0.05-0.02,0.09-0.04,0.14-0.06c-0.01,0.01-0.02,0.01-0.03,0.02c3.96-1.52,9.12-0.77,13.36,0.39
		c0,0,0,0,0,0c0,0,0.01,0,0.01,0c0.35,0.1,0.7,0.19,1.03,0.29c0,0,0,0,0,0c0.32,0.09,0.62,0.19,0.93,0.28
		c0.04,0.01,0.08,0.02,0.11,0.04c0.28,0.09,0.56,0.18,0.83,0.27c0.06,0.02,0.12,0.04,0.19,0.06c0.27,0.09,0.53,0.18,0.77,0.27
		c-0.19,0.1-0.38,0.2-0.57,0.3c-0.09,0.04-0.18,0.08-0.27,0.13c-0.11,0.05-0.22,0.1-0.33,0.15c-0.1,0.04-0.19,0.08-0.29,0.12
		c-0.11,0.05-0.22,0.09-0.33,0.14c-0.09,0.04-0.19,0.07-0.29,0.11c-0.12,0.04-0.24,0.09-0.35,0.13c-0.09,0.03-0.18,0.06-0.27,0.09
		c-0.13,0.04-0.25,0.09-0.38,0.13c-0.09,0.03-0.18,0.05-0.27,0.08c-0.14,0.04-0.27,0.08-0.41,0.12c-0.09,0.02-0.18,0.05-0.26,0.07
		c-0.14,0.04-0.28,0.07-0.42,0.11c-0.09,0.02-0.18,0.04-0.27,0.06c-0.14,0.03-0.28,0.06-0.42,0.09c-0.03,0.01-0.07,0.02-0.1,0.02
		c0.01,0,0.01,0,0.02-0.01c-1.71,0.36-3.51,0.54-5.29,0.57c0,0,0.01,0,0.01,0c-0.01,0-0.02,0-0.03,0c-0.19,0-0.38,0-0.57,0
		c-0.05,0-0.09,0-0.14,0c-0.2,0-0.4,0-0.59-0.01c-0.04,0-0.08,0-0.12,0c-0.21-0.01-0.41-0.01-0.62-0.02c-0.03,0-0.06,0-0.09,0
		c-0.21-0.01-0.43-0.02-0.64-0.04c-0.02,0-0.04,0-0.06,0c-0.22-0.02-0.44-0.03-0.66-0.05c-0.01,0-0.02,0-0.04,0
		c-0.23-0.02-0.45-0.04-0.67-0.07c0,0-0.01,0-0.01,0c-2.19-0.25-4.21-0.72-5.83-1.35c-0.72,0.15-1.35,0.53-1.98,0.91
		c1.64,0.93,3.25,1.9,4.83,2.95c0.16,0.06,0.31,0.11,0.47,0.17c0.03,0.01,0.07,0.02,0.1,0.03c0.97,0.34,2.02,0.69,3.11,1.05
		c0,0,0,0,0,0c2.31,0.77,4.83,1.64,7.39,2.78c2.44,1.09,4.72,2.49,6.65,3.95c0,0,0,0-0.01-0.01c0.04,0.03,0.07,0.06,0.11,0.09
		c0.1,0.07,0.19,0.15,0.29,0.22c0.06,0.05,0.11,0.09,0.17,0.14c0.1,0.08,0.2,0.16,0.3,0.24c0.05,0.04,0.1,0.08,0.14,0.12
		c0.12,0.1,0.24,0.2,0.35,0.3c0.02,0.02,0.05,0.04,0.07,0.06c0.29,0.25,0.57,0.5,0.83,0.74c0.03,0.02,0.05,0.05,0.08,0.07
		c0.1,0.1,0.21,0.2,0.31,0.29c0.03,0.03,0.06,0.06,0.1,0.09c0.09,0.09,0.18,0.18,0.27,0.27c0.03,0.03,0.06,0.06,0.09,0.1
		c0.09,0.09,0.18,0.19,0.26,0.28c0.03,0.03,0.05,0.05,0.08,0.08c0.1,0.1,0.19,0.21,0.28,0.31c0.01,0.01,0.02,0.03,0.04,0.04
		c0.21,0.24,0.4,0.47,0.58,0.71c0.02,0.02,0.03,0.05,0.05,0.07c0.07,0.09,0.13,0.18,0.2,0.26c0.02,0.03,0.05,0.07,0.07,0.1
		c0.05,0.08,0.11,0.15,0.16,0.23c0.02,0.04,0.05,0.07,0.07,0.11c0.05,0.07,0.09,0.14,0.13,0.21c0.02,0.04,0.04,0.07,0.06,0.11
		c0.04,0.07,0.08,0.15,0.12,0.22c0.02,0.03,0.03,0.06,0.05,0.09c0.05,0.1,0.1,0.2,0.15,0.3c-0.18-0.04-0.37-0.08-0.57-0.12
		c-0.03-0.01-0.06-0.01-0.09-0.02c-0.17-0.04-0.35-0.08-0.54-0.12c-0.05-0.01-0.09-0.02-0.14-0.03c-0.21-0.05-0.42-0.09-0.65-0.15
		c-0.1-0.02-0.2-0.05-0.29-0.07c-0.11-0.03-0.23-0.05-0.35-0.08c-0.07-0.02-0.14-0.03-0.21-0.05c0.01,0,0.01,0,0.02,0
		c-4.03-1.02-9.93-3.06-15.54-7.79c0.01,0.01,0.03,0.03,0.04,0.04c-0.1-0.08-0.19-0.17-0.29-0.25c-0.08-0.07-0.16-0.14-0.24-0.21
		c-0.21-0.18-0.41-0.37-0.62-0.56c-0.05-0.05-0.1-0.09-0.15-0.14c-0.26-0.24-0.52-0.49-0.78-0.74c-0.03-0.03-0.07-0.07-0.1-0.1
		c-0.22-0.22-0.44-0.44-0.66-0.67c-0.07-0.07-0.14-0.15-0.21-0.22c-0.19-0.2-0.37-0.4-0.56-0.6c-0.07-0.08-0.15-0.16-0.22-0.25
		c-0.19-0.21-0.37-0.43-0.56-0.65c-0.06-0.07-0.13-0.15-0.19-0.22c-0.14-0.17-0.28-0.34-0.42-0.51c-1.16-0.78-2.35-1.51-3.55-2.22
		c0.42,0.79,0.86,1.53,1.49,2.19c0.07,0.04,0.13,0.09,0.2,0.13c0.05,0.03,0.09,0.06,0.14,0.1c0.13,0.09,0.27,0.19,0.4,0.29
		c0.02,0.02,0.05,0.03,0.07,0.05c0,0-0.01,0-0.01,0c4.15,3.22,7.44,9.77,9.27,14.15c0.59,1.41,1.12,3.43,1.45,4.88
		c0,0,0,0.01,0,0.01c0.05,0.22,0.1,0.43,0.14,0.62c0,0.01,0,0.02,0.01,0.03c0.02,0.09,0.04,0.18,0.06,0.26c0,0,0,0,0,0
		c0.02,0.08,0.03,0.15,0.05,0.22c0,0.01,0.01,0.03,0.01,0.04c0.01,0.07,0.03,0.13,0.04,0.19c0,0,0,0,0,0
		c0.01,0.06,0.02,0.11,0.03,0.15c0,0.01,0,0.02,0.01,0.02c0.01,0.04,0.02,0.08,0.02,0.11c0,0.01,0,0.01,0,0.02
		c0,0.02,0.01,0.04,0.01,0.05c0,0.01,0,0.01,0,0.02c0,0.01,0,0.02,0,0.02c-0.15-0.07-0.3-0.14-0.46-0.22
		c-0.05-0.03-0.1-0.05-0.15-0.08c-0.11-0.06-0.23-0.13-0.35-0.21c-0.05-0.03-0.09-0.06-0.14-0.09c-0.15-0.1-0.3-0.2-0.45-0.32
		c-0.05-0.04-0.11-0.08-0.16-0.12c-0.1-0.08-0.21-0.16-0.31-0.25c-0.07-0.05-0.13-0.11-0.2-0.17c-0.1-0.09-0.2-0.18-0.3-0.27
		c-0.12-0.11-0.24-0.22-0.36-0.34c-0.06-0.06-0.13-0.12-0.19-0.18c0,0,0,0,0.01,0.01c-3.63-3.64-7.25-10.39-8.63-15.41c0,0,0,0,0,0
		c0-0.01,0-0.02-0.01-0.03c-0.02-0.06-0.03-0.13-0.05-0.19c-0.04-0.16-0.08-0.32-0.12-0.48c-0.02-0.07-0.03-0.15-0.05-0.22
		c-0.04-0.16-0.07-0.31-0.1-0.47c-0.01-0.06-0.02-0.11-0.03-0.17c-0.04-0.21-0.07-0.41-0.1-0.61c0-0.01,0-0.03-0.01-0.04
		c-0.03-0.18-0.05-0.36-0.06-0.54c0-0.05-0.01-0.1-0.01-0.15c-0.01-0.14-0.02-0.28-0.02-0.42c0-0.05,0-0.09,0-0.14
		c0-0.1,0-0.19,0-0.28c-0.64-0.71-1.09-1.52-1.54-2.38c-0.01-0.02-0.01-0.04-0.01-0.05c-1.59-0.93-3.2-1.82-4.83-2.69
		c0.04,0.59,0.05,1.18,0.12,1.77c0.13,0.21,0.26,0.42,0.39,0.64c0.05,0.08,0.1,0.16,0.14,0.25c0.19,0.33,0.38,0.67,0.56,1.02
		c0,0.01,0.01,0.01,0.01,0.01c0,0,0,0,0,0c1.76,3.34,3.23,7.52,4.06,11.46c0.63,2.55,0.74,5.66,0.92,8.22
		c0.04,0.57,0.06,1.15,0.04,1.74c0,0,0,0,0,0c0,0.01,0,0.02,0,0.02c0,0.18-0.01,0.35-0.02,0.53c0,0.02,0,0.04,0,0.05
		c-0.01,0.18-0.02,0.36-0.04,0.54c0,0.03,0,0.05-0.01,0.08c-0.01,0.15-0.03,0.3-0.04,0.45c0,0.04-0.01,0.07-0.01,0.11
		c-0.01,0.05-0.01,0.1-0.02,0.15c1.12-0.28,2.24-0.43,3.28-0.33c2.33,0.16,3.57,1.15,3.62,2.26c-1.73,1.69-2.84,3.01-3.69,4.29
		c0.6,0.61,1.2,1.23,1.8,1.82c0.28-0.44,0.51-0.86,0.61-1.17c0.72-2.09,2.55-5.06,2.55-5.06c1.1-2.07,1.86-0.48,2.95,1.6
		c1.18,2.26,2.91,4.9,2.97,7.29c0.07,2.35-1.74,4.09-4.03,5.46c-1.17,0.7-2.45,1.3-3.67,1.83c1.53,0.61,2.69,1.26,3.53,1.82
		c2.58-1.41,6.21-2.78,9.24-3.29c0.15-0.9-0.34-1.72-0.61-2.39c0,0-4.77-13.81,1.8-17.14c0.97-0.49,1.97-0.86,2.96-1.13
		c-0.72-0.38-1.39-0.79-1.99-1.2c-0.61-0.43-1.15-0.86-1.59-1.29c-0.45-0.41-0.8-0.84-1.05-1.21c-0.13-0.17-0.23-0.36-0.3-0.51
		c-0.08-0.15-0.14-0.29-0.17-0.4c-0.06-0.22-0.09-0.34-0.09-0.34s0.09,0.08,0.27,0.23c0.15,0.15,0.44,0.31,0.78,0.51
		c0.35,0.19,0.79,0.37,1.3,0.57c0.51,0.2,1.11,0.37,1.76,0.57c2.61,0.76,6.16,1.57,9.72,2.45c1.78,0.44,3.56,0.88,5.23,1.32
		c1.67,0.45,3.24,0.86,4.57,1.22c1.34,0.37,2.47,0.68,3.27,0.87c0.4,0.08,0.71,0.17,0.94,0.2c0.1,0.02,0.18,0.03,0.24,0.04
		c-0.52-1.09-0.98-1.99-1.35-2.73c-0.15,0-0.56-0.02-1.19-0.11c-0.79-0.1-1.92-0.29-3.24-0.63c-2.65-0.64-6.07-1.86-9.31-3.53
		c-3.22-1.67-6.29-3.82-8.07-6.08c-0.44-0.57-0.81-1.12-1.05-1.67c-0.27-0.52-0.39-1.06-0.43-1.48c-0.04-0.43,0-0.76,0.08-0.97
		c0.07-0.21,0.1-0.32,0.1-0.32s0.02,0.11,0.05,0.32c0.01,0.2,0.13,0.49,0.29,0.82c0.17,0.32,0.42,0.68,0.78,1.05
		c0.34,0.37,0.8,0.74,1.29,1.13c2.05,1.52,5.11,3.17,8.22,4.78c3.11,1.62,6.27,3.2,8.62,4.5c1.18,0.63,2.16,1.18,2.85,1.57
		c0.5,0.29,0.84,0.48,1,0.57c-0.1-0.19-0.19-0.38-0.27-0.55c-0.2-0.41-0.35-0.65-0.44-0.82c-0.13-0.07-0.27-0.14-0.42-0.22
		c-0.7-0.39-1.7-0.98-2.81-1.79c-2.26-1.58-4.97-4.06-7.32-6.87c-2.35-2.8-4.35-5.9-5.45-8.46c-0.57-1.26-0.92-2.4-1.04-3.23
		c-0.07-0.41-0.04-0.77,0.03-0.99c0.09-0.24,0.25-0.25,0.23-0.26c0.01,0.01-0.1,0.09-0.08,0.29c0.03,0.2,0.15,0.46,0.33,0.8
		c0.39,0.66,1.05,1.55,1.87,2.6c1.66,2.08,3.91,4.81,6.19,7.52c2.29,2.72,4.58,5.43,6.29,7.47c0.87,1.02,1.59,1.89,2.09,2.51
		c0,0,0,0,0,0c-0.03-0.06-0.06-0.13-0.09-0.2c-0.38-0.85-0.93-2.05-1.58-3.5c-0.66-1.43-1.42-3.1-2.24-4.89
		c-0.82-1.78-1.7-3.67-2.61-5.56c-0.9-1.89-1.81-3.76-2.69-5.51c-0.87-1.76-1.71-3.38-2.45-4.76c-0.61-1.1-1.15-2.04-1.62-2.74
		c-1.46-0.02-3-0.04-4.57-0.05c-0.06,0-0.11,0-0.17,0c-0.67,0-1.34-0.01-2.01-0.01c-0.15,0-0.31,0-0.46,0c-0.74,0-1.49,0-2.23,0
		c-0.15,0-0.3,0-0.45,0c-0.25,0-0.5,0-0.75,0c-0.19,0-0.39,0-0.58,0c-0.22,0-0.43,0-0.65,0c-0.19,0-0.37,0-0.55,0
		c-0.23,0-0.46,0-0.68,0c-0.18,0-0.35,0-0.53,0c-0.23,0-0.46,0-0.68,0.01c-0.17,0-0.34,0-0.51,0c-0.24,0-0.48,0.01-0.72,0.01
		c-0.15,0-0.31,0-0.46,0.01c-0.26,0-0.51,0.01-0.76,0.01c-0.13,0-0.26,0-0.39,0.01c-0.76,0.01-1.5,0.03-2.22,0.04
		c-0.1,0-0.2,0.01-0.3,0.01c-0.26,0.01-0.51,0.01-0.76,0.02c-0.12,0-0.24,0.01-0.36,0.01c-0.22,0.01-0.45,0.01-0.67,0.02
		c-0.13,0-0.25,0.01-0.38,0.01c-0.2,0.01-0.4,0.01-0.6,0.02c-0.13,0.01-0.26,0.01-0.39,0.02c-0.19,0.01-0.37,0.02-0.55,0.02
		c-0.12,0.01-0.24,0.01-0.36,0.02c-0.19,0.01-0.37,0.02-0.55,0.03c-0.1,0.01-0.21,0.01-0.31,0.02c-0.24,0.01-0.46,0.03-0.69,0.04
		c-0.03,0-0.07,0-0.11,0.01C18.6,2.16,15.7,3.56,12.94,4.19z"/>
	<path class="st0" d="M74.57,69.88c0.05-1.01,0.09-2.07,0.13-3.19C74.66,67.81,74.61,68.87,74.57,69.88
		C74.57,69.88,74.57,69.88,74.57,69.88z"/>
	<path class="st0" d="M74.75,64.65c-0.01,0.31-0.02,0.62-0.03,0.92C74.74,65.27,74.75,64.96,74.75,64.65z"/>
	<path class="st0" d="M74.72,65.69c-0.01,0.33-0.02,0.65-0.03,0.97C74.7,66.34,74.71,66.02,74.72,65.69z"/>
	<path class="st0" d="M21.39,0.35c0.03,0,0.07,0,0.11-0.01c-0.59,0.04-1.13,0.08-1.6,0.13c0,0,0,0,0,0c0,0,0,0,0,0
		C20.35,0.42,20.85,0.38,21.39,0.35z"/>
	<path class="st0" d="M56.44,75.4c-0.08-0.43-0.16-0.84-0.24-1.24c-0.25-0.04-0.5-0.07-0.74-0.11c-0.72-0.12-1.42-0.28-2.12-0.45
		c0.35,0.92,0.67,1.62,0.86,1.89c0.15,0.21,0.28,0.44,0.4,0.67c0.71,0.12,1.43,0.26,2.16,0.39C56.63,76.2,56.52,75.82,56.44,75.4z"
		/>
	<path class="st0" d="M56.2,74.16c-0.26-1.35-0.49-2.57-0.73-3.65c-0.86-0.1-1.71-0.21-2.52-0.32c-0.27-0.04-0.52-0.08-0.78-0.13
		c0.36,1.26,0.79,2.53,1.18,3.54c0.69,0.17,1.4,0.33,2.12,0.45C55.7,74.09,55.96,74.12,56.2,74.16z"/>
	<path class="st0" d="M54.04,66.41c-0.4-0.66-0.88-1.16-1.48-1.5c-0.72-0.41-1.06-0.09-1.14,0.65c0.28,0.1,0.55,0.2,0.84,0.3
		C52.84,66.05,53.44,66.23,54.04,66.41z"/>
	<path class="st0" d="M74.78,63.59c-0.01,0.3-0.01,0.61-0.02,0.9C74.77,64.2,74.77,63.89,74.78,63.59z"/>
	<path class="st0" d="M11.75,2.62c-0.01,0.02-0.02,0.04-0.02,0.07c-0.05,0.17-0.1,0.34-0.14,0.51c-0.01,0.03-0.01,0.07-0.02,0.1
		c-0.04,0.18-0.07,0.36-0.09,0.54l-0.04,0.45c-0.6,0.42-1.21,0.82-1.77,1.3c-0.57-0.3-1.13-0.6-1.7-0.91
		c-0.1,0.08-0.19,0.15-0.28,0.23C8.35,5.27,9,5.62,9.66,5.97C9.71,6.61,9.71,7.26,9.79,7.9c-0.05,0.32-0.1,0.64-0.15,0.96
		C9.63,8.93,9.62,9,9.61,9.08c-0.59,4.39-0.38,8.66,0.58,12.95c0.68,2.46,1.19,4.54,2.05,7.08c0.27,0.81,0.63,1.61,1.02,2.38
		c0,0,0-0.01-0.01-0.01c0.01,0.01,0.01,0.02,0.02,0.03c0.17,0.33,0.34,0.66,0.53,0.99c0.01,0.02,0.02,0.04,0.03,0.06
		c0.17,0.31,0.35,0.62,0.53,0.93c0.02,0.04,0.04,0.07,0.06,0.11c0.01,0.01,0.01,0.02,0.02,0.04c0.52-0.19,1.04-0.36,1.57-0.49
		c0.01-0.05,0.01-0.1,0.02-0.15c0-0.03,0.01-0.07,0.01-0.11c0.02-0.15,0.03-0.3,0.04-0.45c0-0.03,0.01-0.05,0.01-0.08
		c0.01-0.18,0.03-0.36,0.04-0.54c0-0.02,0-0.04,0-0.05c0.01-0.18,0.02-0.35,0.02-0.53c0-0.01,0-0.02,0-0.02c0,0,0,0,0,0
		c0.01-0.58,0-1.17-0.04-1.74c-0.18-2.56-0.28-5.67-0.92-8.22c-0.83-3.94-2.31-8.13-4.06-11.46c0,0,0,0,0,0
		c0-0.01-0.01-0.01-0.01-0.01c-0.18-0.35-0.37-0.69-0.56-1.02c-0.05-0.08-0.1-0.17-0.14-0.25c-0.13-0.22-0.26-0.43-0.39-0.64
		C9.96,7.29,9.95,6.7,9.91,6.1c1.62,0.87,3.24,1.76,4.83,2.69c0,0.02,0,0.03,0.01,0.05c0.44,0.86,0.89,1.66,1.54,2.38
		c0,0.09,0,0.19,0,0.28c0,0.04,0,0.09,0,0.14c0,0.14,0.01,0.27,0.02,0.42c0,0.05,0.01,0.1,0.01,0.15c0.02,0.17,0.04,0.35,0.06,0.54
		c0,0.01,0,0.03,0.01,0.04c0.03,0.2,0.06,0.4,0.1,0.61c0.01,0.06,0.02,0.11,0.03,0.17c0.03,0.15,0.06,0.31,0.1,0.47
		c0.02,0.07,0.03,0.15,0.05,0.22c0.04,0.16,0.08,0.32,0.12,0.48c0.02,0.06,0.03,0.13,0.05,0.19c0,0.01,0,0.02,0.01,0.03c0,0,0,0,0,0
		c1.37,5.02,4.99,11.77,8.63,15.41c0,0,0,0-0.01-0.01c0.06,0.06,0.12,0.12,0.19,0.18c0.12,0.12,0.24,0.23,0.36,0.34
		c0.1,0.09,0.2,0.18,0.3,0.27c0.07,0.06,0.13,0.11,0.2,0.17c0.1,0.09,0.21,0.17,0.31,0.25c0.05,0.04,0.11,0.08,0.16,0.12
		c0.15,0.11,0.3,0.22,0.45,0.32c0.05,0.03,0.09,0.06,0.14,0.09c0.12,0.07,0.23,0.14,0.35,0.21c0.05,0.03,0.1,0.05,0.15,0.08
		c0.15,0.08,0.31,0.16,0.46,0.22c0,0,0-0.01,0-0.02c0,0,0-0.01,0-0.02c0-0.01-0.01-0.03-0.01-0.05c0-0.01,0-0.01,0-0.02
		c-0.01-0.03-0.01-0.07-0.02-0.11c0-0.01,0-0.02-0.01-0.02c-0.01-0.05-0.02-0.1-0.03-0.15c0,0,0,0,0,0
		c-0.01-0.06-0.03-0.12-0.04-0.19c0-0.01-0.01-0.03-0.01-0.04c-0.01-0.07-0.03-0.14-0.05-0.22c0,0,0,0,0,0
		c-0.02-0.08-0.04-0.17-0.06-0.26c0-0.01,0-0.02-0.01-0.03c-0.04-0.19-0.09-0.4-0.14-0.62c0,0,0-0.01,0-0.01
		c-0.34-1.45-0.86-3.47-1.45-4.88c-1.83-4.38-5.13-10.93-9.27-14.15c0,0,0.01,0,0.01,0c-0.02-0.02-0.05-0.03-0.07-0.05
		c-0.13-0.1-0.26-0.2-0.4-0.29c-0.05-0.03-0.09-0.06-0.14-0.1c-0.07-0.05-0.13-0.09-0.2-0.13c-0.64-0.65-1.07-1.4-1.49-2.19
		c1.2,0.71,2.38,1.45,3.55,2.22c0.14,0.17,0.28,0.35,0.42,0.51c0.06,0.08,0.13,0.15,0.19,0.22c0.19,0.22,0.37,0.44,0.56,0.65
		c0.07,0.08,0.15,0.16,0.22,0.25c0.18,0.2,0.37,0.41,0.56,0.6c0.07,0.07,0.14,0.15,0.21,0.22c0.22,0.23,0.44,0.45,0.66,0.67
		c0.03,0.03,0.07,0.07,0.1,0.1c0.26,0.25,0.52,0.5,0.78,0.74c0.05,0.05,0.1,0.09,0.15,0.14c0.21,0.19,0.41,0.38,0.62,0.56
		c0.08,0.07,0.16,0.14,0.24,0.21c0.1,0.08,0.19,0.17,0.29,0.25c-0.01-0.01-0.03-0.03-0.04-0.04c5.6,4.73,11.51,6.78,15.54,7.79
		c-0.01,0-0.01,0-0.02,0c0.07,0.02,0.14,0.03,0.21,0.05c0.12,0.03,0.23,0.06,0.35,0.08c0.1,0.02,0.2,0.05,0.29,0.07
		c0.22,0.05,0.44,0.1,0.65,0.15c0.05,0.01,0.09,0.02,0.14,0.03c0.19,0.04,0.37,0.08,0.54,0.12c0.03,0.01,0.06,0.01,0.09,0.02
		c0.2,0.04,0.39,0.08,0.57,0.12c-0.04-0.1-0.09-0.2-0.15-0.3c-0.02-0.03-0.03-0.06-0.05-0.09c-0.04-0.07-0.08-0.14-0.12-0.22
		c-0.02-0.04-0.04-0.07-0.06-0.11c-0.04-0.07-0.09-0.14-0.13-0.21c-0.02-0.04-0.05-0.07-0.07-0.11c-0.05-0.08-0.1-0.15-0.16-0.23
		c-0.02-0.03-0.05-0.07-0.07-0.1c-0.06-0.09-0.13-0.18-0.2-0.26c-0.02-0.02-0.03-0.05-0.05-0.07c-0.18-0.23-0.37-0.47-0.58-0.71
		c-0.01-0.01-0.02-0.03-0.04-0.04C40.19,22.21,40.1,22.11,40,22c-0.03-0.03-0.05-0.05-0.08-0.08c-0.09-0.09-0.17-0.18-0.26-0.28
		c-0.03-0.03-0.06-0.06-0.09-0.1c-0.09-0.09-0.18-0.18-0.27-0.27c-0.03-0.03-0.06-0.06-0.1-0.09c-0.1-0.1-0.2-0.2-0.31-0.29
		c-0.03-0.02-0.05-0.05-0.08-0.07c-0.26-0.25-0.54-0.5-0.83-0.74c-0.02-0.02-0.05-0.04-0.07-0.06c-0.12-0.1-0.23-0.2-0.35-0.3
		c-0.05-0.04-0.1-0.08-0.14-0.12c-0.1-0.08-0.2-0.16-0.3-0.24c-0.06-0.05-0.11-0.09-0.17-0.14c-0.1-0.07-0.19-0.15-0.29-0.22
		c-0.04-0.03-0.07-0.06-0.11-0.09c0,0,0,0,0.01,0.01c-1.93-1.47-4.21-2.87-6.65-3.95c-2.55-1.14-5.08-2-7.39-2.78c0,0,0,0,0,0
		c-1.1-0.37-2.14-0.71-3.11-1.05c-0.03-0.01-0.07-0.02-0.1-0.03c-0.16-0.06-0.31-0.11-0.47-0.17c-1.58-1.05-3.19-2.03-4.83-2.95
		c0.62-0.38,1.26-0.76,1.98-0.91c1.62,0.63,3.64,1.1,5.83,1.35c0,0,0.01,0,0.01,0c0.22,0.03,0.45,0.05,0.67,0.07
		c0.01,0,0.02,0,0.04,0c0.22,0.02,0.44,0.04,0.66,0.05c0.02,0,0.04,0,0.06,0c0.21,0.01,0.42,0.03,0.64,0.04c0.03,0,0.06,0,0.09,0
		c0.2,0.01,0.41,0.02,0.62,0.02c0.04,0,0.08,0,0.12,0c0.2,0,0.4,0.01,0.59,0.01c0.05,0,0.09,0,0.14,0c0.19,0,0.38,0,0.57,0
		c0.01,0,0.02,0,0.03,0c0,0-0.01,0-0.01,0c1.78-0.03,3.58-0.22,5.29-0.57c-0.01,0-0.01,0-0.02,0.01c0.03-0.01,0.07-0.02,0.1-0.02
		c0.14-0.03,0.28-0.06,0.42-0.09c0.09-0.02,0.18-0.04,0.27-0.06c0.14-0.03,0.28-0.07,0.42-0.11c0.09-0.02,0.18-0.05,0.26-0.07
		c0.14-0.04,0.27-0.08,0.41-0.12c0.09-0.03,0.18-0.05,0.27-0.08c0.13-0.04,0.26-0.08,0.38-0.13c0.09-0.03,0.18-0.06,0.27-0.09
		c0.12-0.04,0.24-0.09,0.35-0.13c0.1-0.04,0.19-0.07,0.29-0.11c0.11-0.04,0.22-0.09,0.33-0.14c0.1-0.04,0.2-0.08,0.29-0.12
		c0.11-0.05,0.22-0.1,0.33-0.15c0.09-0.04,0.18-0.08,0.27-0.13c0.2-0.1,0.39-0.2,0.57-0.3c-0.25-0.09-0.51-0.18-0.77-0.27
		c-0.06-0.02-0.12-0.04-0.19-0.06c-0.27-0.09-0.54-0.18-0.83-0.27c-0.04-0.01-0.08-0.02-0.11-0.04c-0.3-0.1-0.61-0.19-0.93-0.28
		c0,0,0,0,0,0c-0.34-0.1-0.68-0.2-1.03-0.29c0,0-0.01,0-0.01,0c0,0,0,0,0,0c-4.24-1.15-9.4-1.91-13.36-0.39
		c0.01-0.01,0.02-0.01,0.03-0.02c-0.05,0.02-0.09,0.04-0.14,0.06c-0.07,0.03-0.14,0.06-0.2,0.08c-0.13,0.05-0.25,0.11-0.37,0.17
		c-0.06,0.03-0.12,0.06-0.18,0.09c-0.17,0.08-0.34,0.17-0.5,0.27c-0.01,0.01-0.02,0.01-0.03,0.02c-0.17,0.1-0.34,0.21-0.5,0.32
		c-0.05,0.03-0.1,0.07-0.15,0.11c-0.11,0.08-0.23,0.16-0.34,0.25c-0.06,0.04-0.11,0.09-0.16,0.13c-0.11,0.09-0.22,0.18-0.32,0.28
		c-0.05,0.04-0.09,0.08-0.14,0.13c-0.12,0.12-0.24,0.24-0.35,0.36c-0.79,0.15-1.49,0.6-2.17,1.01c-1.28-0.72-2.57-1.42-3.86-2.11
		c0.53-0.45,1.11-0.82,1.68-1.22c0.03-0.02,0.04-0.04,0.05-0.06c0.27-0.04,0.53-0.08,0.8-0.13c0.08-0.02,0.17-0.03,0.25-0.05
		c0.11-0.02,0.22-0.04,0.32-0.07c-0.02,0-0.05,0-0.07,0.01c2.75-0.63,5.65-2.03,8.45-3.84c-0.55,0.04-1.05,0.08-1.5,0.12
		c0,0,0,0,0,0c-0.41,0.04-0.81,0.09-1.21,0.14c-0.17,0.02-0.33,0.05-0.49,0.07c-0.22,0.03-0.44,0.06-0.65,0.1
		c-0.21,0.04-0.42,0.07-0.62,0.11c-0.15,0.03-0.31,0.06-0.46,0.09c-0.24,0.05-0.47,0.1-0.7,0.15c-0.11,0.03-0.22,0.05-0.33,0.08
		c-0.25,0.06-0.5,0.13-0.74,0.2c-0.08,0.02-0.15,0.04-0.23,0.06c-0.26,0.08-0.52,0.16-0.78,0.24c-0.05,0.02-0.1,0.03-0.14,0.05
		c-0.27,0.09-0.54,0.19-0.8,0.28c-0.02,0.01-0.05,0.02-0.07,0.03c-0.28,0.11-0.55,0.22-0.81,0.33c0,0,0,0,0,0
		C11.81,2.47,11.78,2.54,11.75,2.62z"/>
	<path class="st0" d="M66.96,71.2c-1.04-1.4-3.21-3.57-3.16-2.02c0.01,0.46,0.35,1.16,0.85,1.96c0.21,0.01,0.42,0.02,0.62,0.02
		C65.85,71.18,66.41,71.19,66.96,71.2z"/>
	<path class="st0" d="M55.47,70.51c-0.39-1.72-0.82-3.09-1.43-4.1c-0.61-0.18-1.2-0.37-1.78-0.56c-0.29-0.1-0.56-0.2-0.84-0.3
		c-0.11,0.99,0.24,2.74,0.74,4.5c0.26,0.04,0.52,0.08,0.78,0.13C53.77,70.31,54.61,70.41,55.47,70.51z"/>
	<path class="st0" d="M3.74,42.53c0,0-0.41,0.64-0.27,3.15c0.1,1.81,1.09,2.77,1.64,3.13c0.44,0.28,0.88-0.3,0.86-1.08
		c-0.08-3-1.85-4.84-1.15-7.26c0.01-0.04,0.02-0.08,0.03-0.12c0.53-1.69,4.4-4.11,5.92-4.97c0.06-0.03,0.11-0.06,0.17-0.1
		c0.84-0.47,2.05-1.05,3.01-1.45c-1.35-1-2.85-2.01-4.33-2.43c-1.05-0.3-5.34-2-9.46-0.27c-0.03,1.06-0.05,2.12-0.06,3.19
		c2.22,0.52,4.48,1.41,3.41,2.79c-0.49,0.64-1.87-0.16-3.43-0.98c-0.03,2.79-0.03,5.62-0.03,8.43C1.55,43.04,3.17,41.31,3.74,42.53z
		"/>
	<path class="st0" d="M0.05,44.55L0.05,44.55c0-2.81,0-5.63,0.03-8.43l0,0C0.05,38.92,0.04,41.75,0.05,44.55z"/>
	<path class="st0" d="M0.16,31.12L0.16,31.12c-0.03,1.06-0.05,2.12-0.06,3.19l0,0C0.11,33.24,0.13,32.18,0.16,31.12z"/>
	<path class="st0" d="M19.39,43.19c0.44-0.36,1.13-1.21,1.64-2c-0.59-0.59-1.2-1.21-1.8-1.82c-0.69,1.03-1.21,2.03-1.76,3.17
		C17.11,43.28,16.74,45.36,19.39,43.19z"/>
	<path class="st0" d="M25.62,53.14c0.1-0.06,0.21-0.11,0.31-0.17c-0.84-0.56-1.99-1.21-3.53-1.82c0,0,0,0,0,0
		c-0.02-0.01-0.04-0.01-0.06-0.01"/>
	<path class="st0" d="M27.59,54.34c0.01-0.01,0.02-0.01,0.04-0.02c-0.19-0.2-0.73-0.72-1.69-1.36c-0.1,0.06-0.21,0.11-0.31,0.17"/>
	<path class="st0" d="M27.62,54.33c-0.01,0.01-0.02,0.01-0.04,0.02"/>
	<path class="st0" d="M0.05,49.59c0-1.66,0-3.35,0-5.04l0,0C0.05,46.25,0.05,47.93,0.05,49.59c0,1.04,0,2.08,0,3.1l0,0
		C0.05,51.67,0.05,50.64,0.05,49.59z"/>
	<path class="st0" d="M14.45,33.64c-0.15,0.06-0.31,0.11-0.46,0.17c-0.01,0.01-0.03,0.01-0.04,0.02c-0.96,0.4-2.17,0.98-3.01,1.45
		c-0.06,0.03-0.12,0.07-0.17,0.1c-1.52,0.86-5.39,3.28-5.92,4.97c-0.01,0.04-0.02,0.08-0.03,0.12c-0.7,2.42,1.07,4.26,1.15,7.26
		c0.02,0.79-0.42,1.36-0.86,1.08c-0.55-0.35-1.54-1.31-1.64-3.13c-0.14-2.51,0.27-3.15,0.27-3.15c-0.57-1.22-2.18,0.51-3.69,2.03
		c0,1.69,0,3.38,0,5.04c0,1.04,0,2.08,0,3.1c2.55-0.93,5.87-1.3,8.36-1.64c4.88-0.66,8.85-1.06,12.81-0.2
		c0.37,0.08,0.74,0.17,1.11,0.28"/>
	<path class="st0" d="M22.4,51.15c1.22-0.53,2.51-1.13,3.67-1.83c2.28-1.37,4.1-3.11,4.03-5.46c-0.06-2.39-1.79-5.04-2.97-7.29
		c-1.09-2.08-1.84-3.67-2.95-1.6c0,0-1.83,2.97-2.55,5.06c-0.1,0.31-0.33,0.73-0.61,1.17c-0.51,0.8-1.2,1.65-1.64,2
		c-2.65,2.17-2.28,0.08-1.92-0.65c0.55-1.14,1.08-2.14,1.76-3.17c0.85-1.28,1.96-2.61,3.69-4.29c-0.05-1.11-1.29-2.1-3.62-2.26
		c-1.05-0.09-2.17,0.05-3.28,0.33"/>
	<path class="st0" d="M16.02,33.15c-0.53,0.13-1.05,0.3-1.57,0.49"/>
	<path class="st0" d="M15.1,98.42c-2.86-0.74-5.29-2.08-7.31-4.03C9.81,96.33,12.24,97.68,15.1,98.42c1.93,0.5,3.73,0.84,5.48,1.07
		l0,0C18.83,99.26,17.03,98.92,15.1,98.42z"/>
	<path class="st0" d="M0.13,62.4L0.13,62.4c0.06,3.34,0.15,6.37,0.28,8.94l0,0C0.28,68.77,0.19,65.74,0.13,62.4z"/>
	<path class="st0" d="M24.54,56.42c-0.43-0.52-0.95-0.97-1.6-1.3c-8.06-4.09-17.36,0.81-18.68,1.49c-2.58,1.34-1.67,3.1-1.67,3.1
		s9.87,2.09,13.07,6.79c0.91,1.33-0.56,2.13-1.47,1.49c-0.91-0.64-4.85-5-7.97-5.57c-1.61-0.29-3.98-0.26-6.08-0.03
		c0.06,3.34,0.15,6.37,0.28,8.94c0.06,0.01,0.12,0.01,0.18,0.02c3.08,0.31,6.74,1.91,6.48,2.8c-0.21,0.71-1.3,0.51-3.57-0.09
		c-0.36-0.1-1.5-0.47-2.99-0.9c0.1,1.37,0.21,2.58,0.35,3.57c0.2,2.14,0.51,4.12,0.93,5.96c4.26-3,10.69-7.34,14.17-8.53
		c2.74-0.94,5.53-1.29,8.03-1.16c-0.06-0.77,0.36-1.47,0.59-2.04c0,0,0.04-0.13,0.11-0.35 M9.49,72.46
		c-0.83-0.04-4.65-1.19-2.68-2.47C8.06,69.17,11.09,72.34,9.49,72.46z"/>
	<path class="st0" d="M2.51,85.27L2.51,85.27c0.76,2.43,1.75,4.54,2.96,6.33l0,0C4.26,89.81,3.27,87.7,2.51,85.27z"/>
	<path class="st0" d="M24.72,70.62c0.57-1.82,3.01-10.31-0.18-14.2"/>
	<path class="st0" d="M7.79,94.39c-0.05-0.05-0.11-0.11-0.16-0.16l0,0C7.69,94.28,7.74,94.33,7.79,94.39z"/>
	<path class="st0" d="M1.82,82.7C1.82,82.7,1.82,82.7,1.82,82.7c0.07,0.32,0.15,0.64,0.23,0.96h0C1.97,83.35,1.89,83.03,1.82,82.7z"
		/>
	<path class="st0" d="M1.82,82.7C1.82,82.7,1.82,82.7,1.82,82.7c-0.42-1.84-0.73-3.82-0.93-5.96c-0.14-0.99-0.25-2.19-0.35-3.57l0,0
		c0.1,1.37,0.21,2.58,0.35,3.57C1.08,78.88,1.4,80.87,1.82,82.7z"/>
	<path class="st0" d="M2.51,85.27c0.76,2.43,1.75,4.54,2.96,6.33c0.55-2.17,1.23-3.63,2.49-4.34c1.98-1.12,0.82,3.65-0.33,6.96
		c0.05,0.05,0.11,0.11,0.16,0.16c2.02,1.95,4.45,3.3,7.31,4.03c1.93,0.5,3.73,0.84,5.48,1.07c0.12-0.32,0.15-0.67,0.08-1.05
		c-0.97-5.3-3.88-7.39-2.94-9.31c0.94-1.92,2.7-1.43,2.54,0.89c-0.19,2.71,0.86,6.6,1.49,8.87c0.55,2,10.14-2,10.82-4.24
		c0.67-2.24-5.34-7.1-6.07-8.9c-0.73-1.81,0.73-4.28,1.51-2.4c0.78,1.87,2.31,7.43,6.21,9.53c0,0,4.54-2.57,4-6.47
		c-0.54-3.9-4.37-8.22-10.01-10.16c-3.21-1.1-4.1-2.22-4.18-3.22c-2.51-0.12-5.3,0.23-8.03,1.16c-3.48,1.19-9.9,5.53-14.17,8.53
		c0.07,0.32,0.15,0.64,0.23,0.96 M9.46,85.66c-0.74-0.52-0.41-2.83-0.26-3.63c0.01-0.53,0.18-1.19,0.32-1.65
		c0.2-0.62,0.39-1.11,0.77-0.81l0.01,0.01c0.73,0.79,1.05,2.96,1.22,4.06C11.64,84.57,10.7,86.51,9.46,85.66z M17.51,84.46
		c-0.66-0.77-0.85-2.76-0.86-3.63c-0.06-1.42-0.13-4.92,1.07-2.13l0.01,0.02c0.56,1.26,1.46,2.74,1.6,4.18
		C19.55,84.12,18.8,85.83,17.51,84.46z"/>
	<path class="st0" d="M53.8,46.23c-1.35-0.89-4.63,2.54-2.9,2.67C51.8,48.85,55.93,47.6,53.8,46.23z"/>
</g>
</svg>
