<?xml version="1.0" encoding="utf-8"?>
<!-- Generator: Adobe Illustrator 25.2.3, SVG Export Plug-In . SVG Version: 6.00 Build 0)  -->
<svg version="1.1" id="Layer_1" xmlns="http://www.w3.org/2000/svg" xmlns:xlink="http://www.w3.org/1999/xlink" x="0px" y="0px"
	 viewBox="0 0 75 100" style="enable-background:new 0 0 75 100;" xml:space="preserve">
<style type="text/css">
	.st0{fill:none;stroke:#BBB0A1;stroke-width:0.5;stroke-miterlimit:10;}
</style>
<g>
	<g>
		<path class="st0" d="M74.8,65.31c-0.12,4.84-0.33,8.85-0.69,11.43c-0.15,1.6-0.36,3.12-0.64,4.55"/>
		<path class="st0" d="M74.92,35.12c-0.03-2.65-0.09-5.26-0.19-7.78"/>
		<path class="st0" d="M74.88,61.53c0.05-3.7,0.07-7.75,0.07-11.93c0-4.76,0.02-9.68-0.03-14.47"/>
		<path class="st0" d="M73.48,81.29c-1.82,9.49-6.36,15.26-13.58,17.12c-6.35,1.64-11.26,1.59-17.58,1.54
			c-1.31-0.01-2.69-0.02-4.15-0.02c-5.58,0.02-11.63,0.28-18.03-0.47c-2.87-0.34-5.28-0.97-7.31-1.83"/>
		<path class="st0" d="M74.8,65.31c0.03-1.21,0.05-2.47,0.07-3.78"/>
		<path class="st0" d="M2.93,86.1c0.92,2.86,2.22,5.49,4.26,7.66"/>
		<path class="st0" d="M7.19,93.76c1.46,1.55,3.29,2.87,5.63,3.87"/>
		<path class="st0" d="M0.08,35.05c0.09-6.78,0.44-13.43,1.57-19C4.6,1.55,16.52,0.3,24.44,0.13C28.24,0.05,32.97,0,37.66,0
			c6.97,0,13.85,0.12,17.44,0.46c13.82,1.32,17.72,9.3,19.06,19.86c0.27,2.17,0.45,4.3,0.54,6.4c0.01,0.2,0.01,0.41,0.02,0.62"/>
		<path class="st0" d="M0.08,35.05c-0.06,4.49-0.02,9.04-0.01,13.38C0.07,61.18,0.3,72.89,1.12,77.91c0.46,2.8,0.98,5.59,1.81,8.19"
			/>
		<path class="st0" d="M31.09,51.39c0-0.65,0-1.26-0.02-1.8c-0.02-0.76-0.02-1.73-0.78-2.56c-0.66-0.72-1.36-0.64-2.02-0.64h-2.58
			c-0.65,0-1.36-0.08-2.01,0.64c-0.76,0.83-0.76,1.8-0.78,2.56c-0.01,0.54-0.02,1.15-0.02,1.8c0,1.01,0.02,1.93,0.06,2.63
			c0.02,0.76,0.02,1.72,0.78,2.56c0.65,0.73,1.36,0.64,2.01,0.64h2.58c0.66,0,1.36,0.09,2.02-0.64c0.76-0.84,0.76-1.81,0.78-2.56
			C31.14,53.32,31.09,52.4,31.09,51.39z"/>
		<path class="st0" d="M12.93,56.58c0.76-0.84,0.76-1.81,0.78-2.56c0.04-0.7-0.01-1.62-0.01-2.63c0-0.65-0.01-1.26-0.02-1.8
			c-0.02-0.76-0.02-1.73-0.78-2.56c-0.66-0.72-1.36-0.64-2.02-0.64H8.3c-0.66,0-1.35-0.08-2.01,0.64c-0.75,0.83-0.76,1.8-0.78,2.56
			c-0.02,0.54-0.02,1.15-0.02,1.8c0,1.01,0.02,1.93,0.05,2.63c0.02,0.76,0.02,1.72,0.78,2.56c0.66,0.73,1.36,0.64,2.01,0.64h2.58
			C11.57,57.22,12.27,57.31,12.93,56.58z"/>
		<path class="st0" d="M53.73,35.05c4.92,0,9.84,0.19,14.74,0.58"/>
		<polyline class="st0" points="20.06,35.05 0.16,35.05 0.08,35.05 		"/>
		<line class="st0" x1="62.98" y1="28.57" x2="74.72" y2="27.34"/>
		<path class="st0" d="M62.98,28.57l-1.18,0.12c-0.35,0.04-0.69,0.28-0.92,0.55l-3.8,4.43c-0.1,0.11,0.01,0.31,0.08,0.44l0.52,0.98"
			/>
		<line class="st0" x1="62.98" y1="28.57" x2="62.98" y2="28.56"/>
		<line class="st0" x1="62.98" y1="28.57" x2="57.97" y2="33.95"/>
		<path class="st0" d="M18.53,70.17l0.29,16.82c1.97,2.32,6.61,5.98,6.61,5.98c14.9-2.48,28.88-6.55,28.88-6.55s0.3-2.69,0.3-5.9
			c0-3.54-0.63-8.36-0.63-8.36l-0.38,0V42.69c0-1-1.13-1.81-2.52-1.81H21.04c-1.39,0-2.51,0.81-2.51,1.81V70.17z"/>
		<path class="st0" d="M74.92,35.12c-5.63,0.4-10.76,1.18-14.75,2.21"/>
		<path class="st0" d="M58.04,45.92v9.16c0,1.01,1.23,1.69,2.13,2.15c0,0,0,0,0,0"/>
		<path class="st0" d="M58.04,45.92v-7.05c0-0.87,1.28-1.32,2.13-1.54c0,0,0,0,0,0"/>
		<path class="st0" d="M60.17,57.23c4.42,2.26,9.45,3.6,14.71,4.3"/>
		<line class="st0" x1="60.17" y1="57.23" x2="60.17" y2="37.33"/>
		<line class="st0" x1="58.04" y1="45.92" x2="58.04" y2="45.92"/>
		<path class="st0" d="M58.04,45.92c-1.97,1.51-3.15,3.45-3.15,5.57c0,7.15,10.76,13.66,19.92,13.81"/>
		<path class="st0" d="M14.33,95.96c22.58-2.88,44.5-9.79,44.5-9.79c5.72-1.88,10.77-3.57,14.65-4.88"/>
		<path class="st0" d="M14.33,95.96c-0.01,0-0.01,0-0.02,0"/>
		<line class="st0" x1="12.22" y1="88.91" x2="2.93" y2="86.1"/>
		<line class="st0" x1="14.33" y1="95.96" x2="12.82" y2="97.64"/>
		<polyline class="st0" points="14.33,95.96 18.88,90.93 12.22,88.91 		"/>
		<line class="st0" x1="12.22" y1="88.91" x2="7.19" y2="93.76"/>
		<polyline class="st0" points="17.36,21.08 16.75,21.06 16.31,18.84 		"/>
		<path class="st0" d="M25.36,8.47c1.09,2.15,1.45,6.23,1.45,6.23"/>
		<line class="st0" x1="57.53" y1="22.28" x2="17.36" y2="21.08"/>
		<path class="st0" d="M25.36,8.47c-0.32-0.62-0.69-1.08-1.14-1.23c-2-0.66-7.91,2.66-7.91,2.66v8.94"/>
		<line class="st0" x1="59.68" y1="19.28" x2="26.8" y2="14.7"/>
		<polyline class="st0" points="59.68,19.28 58.8,22.31 57.53,22.28 		"/>
		<line class="st0" x1="26.8" y1="14.7" x2="16.31" y2="18.84"/>
		<path class="st0" d="M16.24,14.48l-1.11-5.47c0,0,6.21-3.1,7.91-2.66"/>
		<path class="st0" d="M25.36,8.47c0.03,0.06,0.04,0.1,0.04,0.1"/>
		<path class="st0" d="M25.36,8.47c-0.17-0.38-0.86-1.74-2.32-2.12"/>
		<path class="st0" d="M59.68,19.28l0.96,0.15c0,0,0.37-2.59-0.81-3.4c-1.18-0.81-36.8-9.68-36.8-9.68"/>
		<line class="st0" x1="41.42" y1="15.57" x2="45.28" y2="16.13"/>
		<path class="st0" d="M17.36,21.08c-0.01-0.01-0.02-0.02-0.02-0.03"/>
		<path class="st0" d="M17.36,21.08c0.97,1.19,2.19,3.72,2.39,8.05c0.12,2.77,0.4,6.08,0.59,8.14c0.1,1.12,1.03,1.98,2.16,1.99
			l28.73,0.34c1.17,0.01,2.14-0.89,2.21-2.06c0.14-2.32,0.39-5.95,0.74-7.57c0.49-2.33,3.05-7.13,3.36-7.7"/>
		<path class="st0" d="M57.53,22.28c0.02-0.04,0.03-0.06,0.03-0.06"/>
		<path class="st0" d="M20.49,75.66v1.01c0,0.87,0.71,1.58,1.58,1.58H51.3c0.79,0,1.46-0.59,1.56-1.37l0.73-5.49V51.92l-1.6-1.96
			c-0.11-0.14-0.17-0.31-0.17-0.48v-4.58c0-0.2-0.08-0.38-0.21-0.53l-1.35-1.42c-0.14-0.15-0.34-0.24-0.55-0.24H22.07
			c-0.87,0-1.58,0.71-1.58,1.58v15.29"/>
		<line class="st0" x1="20.49" y1="75.66" x2="20.49" y2="59.58"/>
		<line class="st0" x1="20.49" y1="75.66" x2="20.42" y2="75.66"/>
		<line class="st0" x1="50.54" y1="75.66" x2="52.82" y2="75.66"/>
		<line class="st0" x1="20.49" y1="75.66" x2="50.54" y2="75.66"/>
		<path class="st0" d="M19.61,81.1v1c0,0.49,0.4,0.89,0.89,0.89l32.18-0.21c0.4,0,0.75-0.28,0.85-0.66l-0.01-1.01"/>
		<line class="st0" x1="50.54" y1="75.67" x2="50.54" y2="75.66"/>
		<line class="st0" x1="50.54" y1="43.31" x2="50.54" y2="52.36"/>
		<line class="st0" x1="50.54" y1="74.51" x2="50.54" y2="75.66"/>
		<line class="st0" x1="20.45" y1="59.58" x2="20.49" y2="59.58"/>
		<line class="st0" x1="30.26" y1="60.27" x2="20.49" y2="60.27"/>
		<line class="st0" x1="44.43" y1="60.27" x2="42.85" y2="60.27"/>
		<line class="st0" x1="53.58" y1="58.87" x2="53.08" y2="58.98"/>
	</g>
	<g>
		<g>
			<path class="st0" d="M40.97,67.79L40.97,67.79c0,0.12-0.1,0.22-0.22,0.22H23.5"/>
			<path class="st0" d="M40.97,74.61L40.97,74.61c0,0.12-0.1,0.22-0.22,0.22H23.5"/>
			<path class="st0" d="M40.97,68.79L40.97,68.79c0,0.12-0.1,0.22-0.22,0.22H21.43c-0.12,0-0.22-0.1-0.22-0.22l0,0"/>
			<path class="st0" d="M29.52,73.58L29.52,73.58c0,0.12-0.1,0.22-0.22,0.22h-7.87c-0.12,0-0.22-0.1-0.22-0.22l0,0"/>
			<path class="st0" d="M40.97,73.58L40.97,73.58c0,0.12-0.1,0.22-0.22,0.22h-6.14c-0.12,0-0.22-0.1-0.22-0.22l0,0"/>
			<path class="st0" d="M21.21,70.03c0,0.12,0.1,0.22,0.22,0.22h2.25"/>
			<path class="st0" d="M23.68,72.59h-2.25c-0.12,0-0.22-0.1-0.22-0.22l0,0"/>
			<path class="st0" d="M25.88,72.59h3.24c0.12,0,0.22-0.1,0.22-0.22l0,0"/>
			<line class="st0" x1="23.68" y1="71.42" x2="20.79" y2="71.42"/>
			<line class="st0" x1="23.68" y1="71.42" x2="23.68" y2="70.95"/>
			<line class="st0" x1="23.68" y1="72.59" x2="23.68" y2="71.89"/>
			<line class="st0" x1="23.68" y1="70.24" x2="23.68" y2="70.95"/>
			<line class="st0" x1="25.88" y1="71.89" x2="25.88" y2="71.42"/>
			<line class="st0" x1="25.88" y1="72.59" x2="25.88" y2="71.89"/>
			<path class="st0" d="M23.68,72.59v0.03c0,0.29,0.24,0.53,0.53,0.53h1.14c0.29,0,0.53-0.24,0.53-0.53v-0.03"/>
			<line class="st0" x1="23.68" y1="71.89" x2="23.68" y2="71.42"/>
			<line class="st0" x1="25.88" y1="70.95" x2="25.88" y2="70.24"/>
			<line class="st0" x1="25.88" y1="71.42" x2="25.88" y2="70.95"/>
			<path class="st0" d="M25.88,70.24v-0.06c0-0.29-0.24-0.53-0.53-0.53h-1.14c-0.29,0-0.53,0.24-0.53,0.53v0.06"/>
			<path class="st0" d="M23.5,67.9c0.03-0.07,0.04-0.14,0.04-0.22v-0.12c0-0.22-0.17-0.39-0.39-0.39"/>
			<path class="st0" d="M23.15,75.66c0.22,0,0.39-0.17,0.39-0.39v-0.12c0-0.08-0.01-0.15-0.04-0.22"/>
			<line class="st0" x1="43.04" y1="73.37" x2="42.22" y2="73.37"/>
			<line class="st0" x1="42.22" y1="69.46" x2="43.04" y2="69.46"/>
			<path class="st0" d="M21.26,75.28c-0.14-0.13-0.25-0.28-0.34-0.46"/>
			<path class="st0" d="M41.84,75.65c0.13-0.01,0.26-0.05,0.38-0.09"/>
			<path class="st0" d="M42.22,67.28c-0.12-0.05-0.25-0.08-0.38-0.09"/>
			<path class="st0" d="M41.84,67.19c-0.05-0.01-0.11-0.01-0.16-0.01h-0.37v1.95c0,0.19,0.15,0.34,0.34,0.34h0.57h-0.57
				c-0.19,0-0.34-0.15-0.34-0.34v-1.95H22.23c-0.68,0-1.25,0.47-1.4,1.11h2.1c0.26,0,0.48-0.16,0.57-0.39
				c-0.09,0.23-0.31,0.39-0.57,0.39h-2.1c-0.02,0.11-0.04,0.22-0.04,0.33v5.6c0,0.11,0.01,0.22,0.04,0.33h2.1
				c0.26,0,0.48,0.16,0.57,0.39c-0.09-0.23-0.31-0.39-0.57-0.39h-2.1c0.02,0.1,0.06,0.19,0.1,0.28"/>
			<polyline class="st0" points="43.04,73.37 43.18,73.37 43.18,69.46 43.04,69.46 			"/>
			<path class="st0" d="M21.26,75.28c0.26,0.23,0.6,0.38,0.97,0.38h19.08v-1.95c0-0.19,0.15-0.34,0.34-0.34h0.57h-0.57
				c-0.19,0-0.34,0.15-0.34,0.34v1.95h0.37c0.05,0,0.11,0,0.16-0.01"/>
			<g>
				<path class="st0" d="M42.22,75.56c0.21-0.08,0.4-0.22,0.56-0.38c-0.18-0.17-0.3-0.41-0.3-0.68c0-0.43,0.29-0.79,0.69-0.9v-0.22
					h-0.14"/>
				<path class="st0" d="M42.78,75.17c0.17,0.16,0.39,0.25,0.63,0.25c0.52,0,0.93-0.42,0.93-0.93s-0.42-0.93-0.93-0.93
					c-0.08,0-0.16,0.01-0.24,0.03"/>
				<path class="st0" d="M43.18,73.59c-0.4,0.11-0.69,0.47-0.69,0.9c0,0.27,0.12,0.51,0.3,0.68"/>
			</g>
			<g>
				<path class="st0" d="M43.04,69.46h0.14v-0.23c-0.4-0.11-0.69-0.47-0.69-0.9c0-0.27,0.11-0.51,0.29-0.68
					c-0.15-0.16-0.34-0.29-0.55-0.37"/>
				<path class="st0" d="M43.18,69.23c0.08,0.02,0.16,0.03,0.24,0.03c0.52,0,0.93-0.42,0.93-0.93s-0.42-0.93-0.93-0.93
					c-0.25,0-0.47,0.1-0.64,0.26"/>
			</g>
			<line class="st0" x1="29.55" y1="71.42" x2="25.88" y2="71.42"/>
			<line class="st0" x1="33.78" y1="71.42" x2="30.14" y2="71.42"/>
			<line class="st0" x1="29.55" y1="71.42" x2="30.14" y2="71.42"/>
			<line class="st0" x1="33.78" y1="71.42" x2="34.37" y2="71.42"/>
			<path class="st0" d="M38.06,72.59h-3.25c-0.12,0-0.22-0.1-0.22-0.22l0,0"/>
			<path class="st0" d="M40.27,72.59h2.08c0.12,0,0.22-0.1,0.22-0.22l0,0"/>
			<line class="st0" x1="38.06" y1="72.59" x2="38.06" y2="71.89"/>
			<line class="st0" x1="40.27" y1="71.42" x2="40.27" y2="70.95"/>
			<path class="st0" d="M38.06,72.59v0.03c0,0.29,0.24,0.53,0.53,0.53h1.14c0.29,0,0.53-0.24,0.53-0.53v-0.03"/>
			<path class="st0" d="M40.27,70.24v-0.06c0-0.29-0.24-0.53-0.53-0.53H38.6c-0.29,0-0.53,0.24-0.53,0.53v0.06"/>
			<line class="st0" x1="38.06" y1="70.95" x2="38.06" y2="71.42"/>
			<line class="st0" x1="40.27" y1="71.89" x2="40.27" y2="71.42"/>
			<line class="st0" x1="40.27" y1="70.95" x2="40.27" y2="70.24"/>
			<line class="st0" x1="40.27" y1="72.59" x2="40.27" y2="71.89"/>
			<line class="st0" x1="38.06" y1="70.24" x2="38.06" y2="70.95"/>
			<line class="st0" x1="38.06" y1="71.89" x2="38.06" y2="71.42"/>
			<path class="st0" d="M42.57,70.03c0,0.12-0.1,0.22-0.22,0.22h-2.08"/>
			<line class="st0" x1="25.88" y1="70.24" x2="38.06" y2="70.24"/>
			<line class="st0" x1="43.18" y1="71.42" x2="40.27" y2="71.42"/>
			<line class="st0" x1="34.37" y1="71.42" x2="38.06" y2="71.42"/>
			<path class="st0" d="M30.14,71.42l0.14,1.35c0,0.35,0.26,0.63,0.57,0.63h2.21c0.31,0,0.57-0.28,0.57-0.63l0-0.03l0.14-1.32"/>
			<path class="st0" d="M29.55,71.42l0.15,1.37c0.01,0.66,0.52,1.2,1.15,1.2h2.21c0.63,0,1.15-0.54,1.15-1.2l0.15-1.37"/>
		</g>
		<g>
			<circle class="st0" cx="38.42" cy="58.71" r="0.07"/>
			<circle class="st0" cx="34.68" cy="58.71" r="0.07"/>
			
				<rect x="36.03" y="60.36" transform="matrix(-1.836970e-16 1 -1 -1.836970e-16 97.3068 24.9021)" class="st0" width="0.35" height="1.49"/>
			<polyline class="st0" points="35.97,62.04 35.97,62.67 36.44,62.67 36.44,62.04 			"/>
			
				<rect x="36.11" y="61" transform="matrix(-1.836970e-16 1 -1 -1.836970e-16 97.5779 25.1732)" class="st0" width="0.19" height="0.76"/>
			<line class="st0" x1="34.68" y1="58.71" x2="34.68" y2="59.5"/>
			<line class="st0" x1="38.42" y1="58.71" x2="38.42" y2="59.5"/>
			<path class="st0" d="M38.69,58.94c-0.11,0.19-0.35,0.28-0.56,0.19c-0.47-0.2-1.03-0.31-1.61-0.31s-1.14,0.11-1.61,0.31
				c-0.21,0.09-0.44,0-0.56-0.19h0c-0.14-0.23-0.03-0.53,0.22-0.64c0.58-0.24,1.26-0.37,1.95-0.37c0.69,0,1.37,0.13,1.95,0.37
				C38.73,58.41,38.83,58.71,38.69,58.94L38.69,58.94z"/>
			<path class="st0" d="M31.82,66.52L31.82,66.52h1.31l0,0c0,0.17-0.13,0.3-0.3,0.3h-0.71C31.95,66.82,31.82,66.69,31.82,66.52z"/>
			<path class="st0" d="M39.99,66.52L39.99,66.52h1.31l0,0c0,0.17-0.13,0.3-0.3,0.3h-0.71C40.13,66.82,39.99,66.69,39.99,66.52z"/>
			<path class="st0" d="M41.97,60.57c0.15,0,0.28,0.12,0.28,0.26c0,0.07,0.06,0.13,0.13,0.13h0.47v-0.73c0-0.41-0.34-0.75-0.75-0.75
				h-0.52l0.12,0.83C41.7,60.46,41.82,60.57,41.97,60.57z"/>
			<path class="st0" d="M30.96,60.83c0-0.14,0.12-0.26,0.28-0.26c0.15,0,0.28-0.12,0.28-0.26l0.12-0.83h-0.62
				c-0.41,0-0.75,0.34-0.75,0.75v0.73h0.56C30.9,60.96,30.96,60.9,30.96,60.83z"/>
			<path class="st0" d="M30.6,64.98h-0.34v0.79c0,0.41,0.34,0.75,0.75,0.75h0.66l-0.12-0.74C31.47,65.32,31.07,64.98,30.6,64.98z"/>
			<path class="st0" d="M41.66,65.78l-0.12,0.74h0.56c0.41,0,0.75-0.34,0.75-0.75v-0.79H42.6C42.13,64.98,41.73,65.32,41.66,65.78z"
				/>
			<path class="st0" d="M42.85,61.73c0-0.25-0.2-0.45-0.45-0.45H30.71c-0.25,0-0.45,0.2-0.45,0.45"/>
			<line class="st0" x1="30.26" y1="63.55" x2="42.85" y2="63.55"/>
			<line class="st0" x1="30.26" y1="64.35" x2="42.85" y2="64.35"/>
			<line class="st0" x1="31.37" y1="65.36" x2="41.83" y2="65.36"/>
			<polyline class="st0" points="36.64,61.73 36.64,61.47 35.76,61.47 35.76,61.73 			"/>
			<path class="st0" d="M36.64,61.73v0.02l-0.14,0.17h1.54v0.26h4.37c0.25,0,0.45-0.2,0.45-0.45"/>
			<path class="st0" d="M30.26,61.73c0,0.25,0.2,0.45,0.45,0.45h4.27v-0.26h0.93l-0.14-0.17v-0.02"/>
			<polyline class="st0" points="36,62.04 35.9,61.92 34.98,61.92 34.98,62.17 			"/>
			<polyline class="st0" points="38.04,62.17 38.04,61.92 36.5,61.92 36.4,62.04 			"/>
			<polyline class="st0" points="35.76,61.73 35.76,61.74 35.9,61.92 			"/>
			<polyline class="st0" points="36.5,61.92 36.64,61.74 36.64,61.73 			"/>
			<line class="st0" x1="36.4" y1="62.04" x2="36.5" y2="61.92"/>
			<line class="st0" x1="35.9" y1="61.92" x2="36" y2="62.04"/>
			<path class="st0" d="M42.53,62.17H42.4h-4.37v0.62h-3.06v-0.62h-4.27h-0.13c-0.17,0-0.32,0.14-0.32,0.32v2.49h0.34
				c0.47,0,0.87,0.34,0.94,0.8l0.12,0.74h9.86l0.12-0.74c0.08-0.46,0.48-0.8,0.94-0.8h0.25v-2.49
				C42.85,62.32,42.71,62.17,42.53,62.17z"/>
			<polyline class="st0" points="34.98,62.17 34.98,62.79 38.04,62.79 38.04,62.17 			"/>
			<path class="st0" d="M42.4,61.28h0.13c0.17,0,0.32-0.14,0.32-0.32l0,0h-0.47c-0.07,0-0.13-0.06-0.13-0.13
				c0-0.14-0.12-0.26-0.28-0.26c-0.15,0-0.28-0.12-0.28-0.26l-0.12-0.83h-9.94l-0.12,0.83c0,0.14-0.12,0.26-0.28,0.26
				c-0.15,0-0.28,0.12-0.28,0.26c0,0.07-0.06,0.13-0.13,0.13h-0.56l0,0c0,0.17,0.14,0.32,0.32,0.32h0.13H42.4z"/>
		</g>
		<g>
			<path class="st0" d="M52.18,52.17v-0.36c-0.05,0.03-0.1,0.04-0.16,0.04h-0.16c-0.06,0-0.11-0.02-0.16-0.04v0.36"/>
			<path class="st0" d="M52.18,51.81c0.08-0.05,0.14-0.15,0.14-0.25v-0.74c0-0.16-0.13-0.3-0.3-0.3h-0.16c-0.16,0-0.3,0.13-0.3,0.3
				v0.74c0,0.11,0.06,0.2,0.14,0.25"/>
			<path class="st0" d="M51.71,51.81c0.05,0.03,0.1,0.04,0.16,0.04h0.16c0.06,0,0.11-0.02,0.16-0.04"/>
			<path class="st0" d="M53.08,72.61v0.56c0,0.07-0.01,0.13-0.01,0.2"/>
			<line class="st0" x1="51.21" y1="74.51" x2="51.05" y2="74.51"/>
			<path class="st0" d="M53.07,73.37c-0.05,0.33-0.22,0.62-0.47,0.83c0.19,0.15,0.32,0.38,0.32,0.64c0,0.45-0.37,0.82-0.82,0.82
				c-0.45,0-0.82-0.37-0.82-0.82c0-0.12,0.03-0.23,0.07-0.34h-0.16"/>
			<line class="st0" x1="46.51" y1="74.51" x2="46.35" y2="74.51"/>
			<path class="st0" d="M46.35,74.51H46.2c0.05,0.1,0.07,0.22,0.07,0.34c0,0.45-0.37,0.82-0.82,0.82c-0.45,0-0.82-0.37-0.82-0.82
				c0-0.25,0.11-0.48,0.29-0.63c-0.26-0.21-0.44-0.5-0.49-0.84"/>
			<polyline class="st0" points="51.47,52.36 51.71,52.36 51.71,52.17 			"/>
			<path class="st0" d="M52.18,52.17v0.19h0.15c0.42,0,0.76,0.34,0.76,0.76v0.16"/>
			<polyline class="st0" points="51.71,52.17 51.71,52.36 52.18,52.36 52.18,52.17 			"/>
			<polyline class="st0" points="52.32,72.61 53.08,72.61 53.08,53.28 52.32,53.28 			"/>
			<path class="st0" d="M46.71,74.51h0.75V52.36h-0.43v-0.02c0-0.09-0.07-0.16-0.16-0.16s-0.16,0.07-0.16,0.16v0.02"/>
			<path class="st0" d="M46.71,52.36h-0.68v0.23c0,0.07-0.06,0.13-0.13,0.13c-0.14,0-0.26,0.12-0.26,0.28v0
				c0,0.15-0.12,0.28-0.26,0.28h-0.18"/>
			<path class="st0" d="M45.21,72.61h0.75V52.73v19.88h0.27c0.15,0,0.27,0.12,0.27,0.27v1.62h0.21"/>
			<polyline class="st0" points="45.21,53.28 44.43,53.28 44.43,72.61 45.21,72.61 			"/>
			<path class="st0" d="M52.32,53.28h-0.2c-0.14,0-0.26-0.12-0.26-0.28v0c0-0.15-0.12-0.28-0.26-0.28c-0.07,0-0.13-0.06-0.13-0.13
				v-0.23h-0.31v-0.02c0-0.09-0.07-0.16-0.16-0.16l0,0c-0.09,0-0.16,0.07-0.16,0.16v0.02"/>
			<path class="st0" d="M50.84,74.51h0.21v-1.62c0-0.15,0.12-0.27,0.27-0.27h0.25V52.73v19.88h0.74"/>
			<path class="st0" d="M50.84,52.36h-0.11h-0.31v-0.02c0-0.09-0.07-0.16-0.16-0.16c-0.09,0-0.16,0.07-0.16,0.16v0.02"/>
			<polyline class="st0" points="50.1,52.36 50.1,74.51 50.84,74.51 			"/>
			<polygon class="st0" points="48.29,56.86 47.93,56.86 47.93,58.36 48.29,58.36 48.29,57.99 48.29,57.23 			"/>
			<rect x="48.29" y="57.23" class="st0" width="0.01" height="0.76"/>
			<polyline class="st0" points="49.26,71.52 49.94,71.52 49.94,68.46 49.26,68.46 			"/>
			<polygon class="st0" points="48.29,68.94 47.93,68.94 47.93,70.43 48.29,70.43 48.29,70.06 48.29,69.31 			"/>
			<path class="st0" d="M53.07,73.37c0.01-0.06,0.01-0.13,0.01-0.2v-0.56h-0.77h-0.74h-0.25c-0.15,0-0.27,0.12-0.27,0.27v1.62h0.15"
				/>
			<path class="st0" d="M46.35,74.51h0.15v-1.62c0-0.15-0.12-0.27-0.27-0.27h-0.27h-0.75h-0.78v0.56c0,0.07,0.01,0.13,0.01,0.2"/>
			<path class="st0" d="M44.44,73.37c0.05,0.34,0.23,0.64,0.49,0.84c0.14-0.12,0.32-0.19,0.52-0.19c0.33,0,0.61,0.2,0.74,0.48h0.16"
				/>
			<path class="st0" d="M49.26,66.09h0.34h0.06c0.12,0,0.22-0.1,0.22-0.22v-4.14c0-0.12-0.1-0.22-0.22-0.22H49.6h-0.34"/>
			<path class="st0" d="M51.61,52.73c0.14,0,0.26,0.12,0.26,0.28v0c0,0.15,0.12,0.28,0.26,0.28h0.2h0.77v-0.16
				c0-0.42-0.34-0.76-0.76-0.76h-0.15h-0.47h-0.24v0.23C51.47,52.67,51.53,52.73,51.61,52.73z"/>
			<path class="st0" d="M45.39,53.28c0.14,0,0.26-0.12,0.26-0.28v0c0-0.15,0.12-0.28,0.26-0.28c0.07,0,0.13-0.06,0.13-0.13v-0.23
				h-0.85c-0.42,0-0.76,0.34-0.76,0.76v0.16h0.78H45.39z"/>
			<polyline class="st0" points="48.78,58.05 48.52,58.05 48.52,57.99 48.3,57.99 48.3,69.31 48.52,69.31 48.52,69.25 48.78,69.25 
							"/>
			<path class="st0" d="M48.78,70.12h-0.26v-0.06H48.3v3.97c0,0.26,0.21,0.48,0.48,0.48"/>
			<path class="st0" d="M48.78,52.36c-0.26,0-0.48,0.21-0.48,0.48v4.39h0.21v-0.06h0.26"/>
			<path class="st0" d="M48.78,57.17h0.03L49,57.31v-1.54h0.26v-2.94c0-0.26-0.21-0.48-0.48-0.48"/>
			<path class="st0" d="M48.78,74.51c0.26,0,0.48-0.21,0.48-0.48v-2.51H49v-1.54l-0.19,0.14h-0.03"/>
			<path class="st0" d="M48.78,69.25h0.03L49,69.39v-0.93h0.26v-1.97c-0.11-0.05-0.18-0.16-0.18-0.29v-0.11h0.08
				c-0.12,0-0.22-0.1-0.22-0.22v-4.14c0-0.12,0.1-0.22,0.22-0.22h-0.08v-0.11c0-0.13,0.07-0.24,0.18-0.29v-2.26H49v-0.93l-0.19,0.14
				h-0.03"/>
			<polyline class="st0" points="49.26,69.92 49.12,69.92 49.12,69.89 49,69.98 49,71.52 49.26,71.52 			"/>
			<polyline class="st0" points="49.26,68.46 49,68.46 49,69.39 49.12,69.48 49.12,69.45 49.26,69.45 			"/>
			<path class="st0" d="M49.26,61.5h-0.05h-0.06c-0.12,0-0.22,0.1-0.22,0.22v4.14c0,0.12,0.1,0.22,0.22,0.22h0.06h0.05"/>
			<polyline class="st0" points="49.26,66.09 49.21,66.09 49.21,66.11 			"/>
			<path class="st0" d="M46.2,74.51c-0.13-0.28-0.41-0.48-0.74-0.48c-0.2,0-0.38,0.07-0.52,0.19"/>
			<path class="st0" d="M52.6,74.2c-0.14-0.11-0.31-0.17-0.5-0.17c-0.33,0-0.61,0.2-0.74,0.48"/>
			<path class="st0" d="M48.3,70.06h-0.01v0.37h-0.36v-1.49h0.36v0.37h0.01V57.99h-0.01v0.37h-0.36v-1.49h0.36v0.37h0.01v-4.39V52.6
				c0-0.13-0.11-0.24-0.24-0.24h-0.28v-0.02c0-0.09-0.07-0.16-0.15-0.17c-0.09,0-0.17,0.07-0.17,0.16v0.02v22.15h0.6
				c0.13,0,0.24-0.11,0.24-0.24v-0.24V70.06z"/>
			<path class="st0" d="M50.1,52.36h-0.6c-0.13,0-0.24,0.11-0.24,0.24v0.24v2.94h0.68v3.06h-0.68v2.26
				c0.04-0.02,0.09-0.03,0.14-0.03h0.01c0.18,0,0.32,0.14,0.32,0.32v0.11h-0.08c0.12,0,0.22,0.1,0.22,0.22v4.14
				c0,0.12-0.1,0.22-0.22,0.22h0.08v0.11c0,0.18-0.14,0.32-0.32,0.32H49.4c-0.05,0-0.1-0.01-0.14-0.03v1.97h0.68v3.06h-0.68v2.51
				v0.24c0,0.13,0.11,0.24,0.24,0.24h0.6V52.36z"/>
		</g>
	</g>
</g>
</svg>
