<svg enable-background="new 0 0 75 100" viewBox="0 0 75 100" xmlns="http://www.w3.org/2000/svg"><g fill="none" stroke="#bbb0a1" stroke-miterlimit="10" stroke-width=".5"><path d="m74.76 60.74c-.09 6.76-.31 12.42-.77 15.74-.22 2.38-.58 4.57-1.08 6.58"/><path d="m74.82 49.34v.08c0 2.47 0 4.89-.02 7.22"/><path d="m8.41 94.52c1 .87 2.15 1.65 3.49 2.32"/><path d="m16.39 98.47c-1.69-.42-3.18-.97-4.5-1.62"/><path d="m.33 29.84c-.14 3.55-.16 7.21-.16 10.82"/><path d="m17.24 98.66c.53.11 1.08.22 1.65.31"/><path d="m8.41 94.52c-4.78-4.17-6.11-10.48-7.16-16.87-.41-2.49-.67-6.62-.83-11.71"/><path d="m62.39 97.21c.48-.21.94-.43 1.38-.68"/><path d="m.25 57.8c.02 1.24.03 2.45.06 3.62"/><path d="m70.73 89.07c-.25.49-.51.95-.78 1.4"/><path d="m17.24 98.66c-.29-.06-.57-.12-.85-.19"/><path d="m69.95 90.47c-.16.26-.33.52-.5.77"/><path d="m74.82 47.27c.01-6.92.04-14.09-.25-20.64-.09-2.09-.26-4.22-.54-6.37-.52-4.13-1.44-7.85-3.19-10.94"/><path d="m.68 24.09c.24-2.86.59-5.59 1.09-8.1 2.94-14.45 14.82-15.69 22.72-15.86 3.79-.08 8.5-.13 13.17-.13 6.95 0 13.8.12 17.38.46 8.37.8 13.09 4.06 15.81 8.85"/><path d="m.25 57.8c-.04-3.05-.05-6.26-.05-9.54 0-2.48-.02-5.03-.02-7.61"/><path d="m.33 29.84c.03-.78.06-1.55.11-2.31"/><path d="m46.52 99.64c-.82.01-1.65 0-2.5 0"/><path d="m52.1 99.41c-.43.04-.86.07-1.29.09"/><path d="m64.46 96.13c.26-.16.51-.33.76-.5"/><path d="m49.76 99.56c-.59.03-1.18.05-1.77.06"/><path d="m31.36 99.67c-.51 0-1.02 0-1.53 0"/><path d="m65.5 95.43c-.09.07-.18.13-.27.19"/><path d="m49.76 99.56c.35-.02.7-.03 1.06-.06"/><path d="m46.52 99.64c.49 0 .98-.01 1.46-.02"/><path d="m52.1 99.41c2.46-.21 4.95-.6 7.72-1.32.9-.23 1.75-.53 2.56-.88"/><path d="m31.36 99.67c.78 0 1.55-.01 2.32-.02"/><path d="m63.77 96.53c.23-.13.47-.26.69-.41"/><path d="m18.89 98.97c.42.07.86.13 1.3.18 3.31.39 6.53.5 9.64.52"/><path d="m69.46 91.24c-.26.39-.54.77-.82 1.13"/><path d="m74.76 60.74c.02-1.33.03-2.69.04-4.1"/><path d="m44.02 99.64c-.32 0-.65 0-.98-.01"/><path d="m35.47 99.63c.91-.01 1.81-.02 2.69-.02 1.46 0 2.83.01 4.14.02.25 0 .49 0 .74.01"/><path d="m.41 65.94c-.04-1.43-.08-2.94-.11-4.52"/><path d="m71.83 86.57c.05-.13.1-.27.15-.4"/><path d="m71.97 86.17c.19-.52.36-1.05.53-1.6"/><path d="m72.5 84.57c.15-.49.28-1 .41-1.51"/><path d="m65.5 95.43c1.16-.86 2.21-1.87 3.14-3.05"/><path d="m74.82 49.34c0-.69 0-1.38 0-2.07"/><path d="m.68 24.09c-.09 1.13-.17 2.27-.24 3.43"/><path d="m71.83 86.57c-.33.88-.7 1.71-1.1 2.49"/><path d="m35.47 99.63c-.59.01-1.19.01-1.79.02"/><path d="m12.52 88.66c.4-.55.03-1.46.33-2.43.37-1.19-.82-1.1-.91-1.74s-.18-2.01-.55-2.74.09-1.65-.55-2.38-1.01.27-1.55 0c-.55-.27.18-.82.64-1.19s1.74.37 2.01-.46c.27-.82-.64-.46-.91-1.65s-1.37-1.1-1.37-1.1"/><path d="m19.25 74.59 3.02-.88"/><path d="m12.52 88.66c-.09.13-.22.23-.41.32-1.01.46-1.92-2.84-2.38-.91-.46 1.92.18 3.02-.27 4.57"/><path d="m8.82 60.3v1.41"/><path d="m13.48 50.29h5.68"/><path d="m8.82 54.28v6.02"/><path d="m9.64 74.99-.07-.89"/><path d="m8.82 52.29v-2"/><path d="m22.27 73.71v-5.8"/><path d="m8.41 94.52c.38-.34.64-.49 1.05-1.88"/><path d="m22.27 67.91v-3.92"/><path d="m22.27 63.99v-3.69"/><path d="m22.27 52.29v8.01"/><path d="m8.82 65.11.75 8.99"/><path d="m22.27 50.29v2"/><path d="m8.82 54.28v-1.99"/><path d="m.41 65.94c.03 0 .05-.01.08-.01 1.28-.27 1.1-.09 1.19.64s-.55 1.65.73 1.19.64-.82 1.1 0 .18.55.55 1.41 1.65.33 2.2 1.25c.55.91.27.82.95.73.67-.09.24 1.46 1.22 1.65.98.18.4 1.01 0 1.1s-.88-.09-1.16.55c-.27.64.46.82 1.1.55s1.28 0 1.28 0"/><path d="m28.1 39.32c-4.28-.87-4.86-2.43-6.9-2.62-1.45-.14-2.03-1.5-3.26-2.5"/><path d="m40.64 25.04s.58-1.07 1.07-.97 1.46 0 1.46 0l1.65-.87s2.14-.19 2.92-.53"/><path d="m15.51 20.89c-.36.06-.78.15-1.3.26-1.36.29-2.77-1.46-3.55-1.46s-2.96 1.82-3.74 2.22-1.55-.18-2.53.5-1.75 1.46-2.43 1.65c-.35.1-.84.05-1.29.02"/><path d="m25.67 23.1c.49-.1 1.46-.49 1.85-.39s2.72 2.62 2.72 2.62 1.17-.58 1.94-.68c.37-.05.75-.52 1.04-1.01"/><path d="m47.73 22.66c.78-.34 2.55-4.04 2.55-4.04l1.92 4.58"/><path d="m33.22 23.65c.32-.53.53-1.07.53-1.07s2.02 2.46 3 3.14c.97.68 0 0 1.26-.68s1.94-.87 1.94-.87l.68.87"/><path d="m23.55 20.36c.86 1.16 1.82 2.8 2.12 2.74"/><path d="m15.51 20.89c.59-.09 1.04-.08 1.52.17.78.39 2.53.39 3.11.19.58-.19 1.35-1.7 2.13-1.99.29-.11.77.41 1.29 1.1"/><path d="m52.2 23.19 1.46-.87s2.23 1.26 2.43 1.75"/><path d="m29.95 34.85c.29-1.17 1.46-1.17 1.85-1.85s1.55-1.46 1.75-2.39c.19-.93 2.43-1.99 2.93-2.67s3.19-1.85 4.17-2.92"/><path d="m54.07 25.48c.24-.16.46-.31.65-.44 1.36-.97 1.36-.97 1.36-.97"/><path d="m56.09 24.07s0-1.07 1.17-.97 1.17.1 1.17.1.58-.1 1.26-.68.87-1.5 2.33-2.25c1.46-.76 2.82-.76 2.72-2.41s.87-3.11 2.43-3.21c1.51-.09 3.56-5.02 3.69-5.33"/><path d="m70.85 9.32c0-.01.01-.02.01-.02"/><path d="m54.07 25.48c-1.49.98-3.84 2.34-5.18 3.35-1.55 1.17-4.57 2.04-6.12 3.3s-5.73 9.31-7.48 10.58"/><path d="m17.95 36.36 3.43 9.09"/><path d="m22.27 50.29h.94l-1.83-4.84"/><path d="m17.95 36.36-2.17-5.74"/><path d="m19.16 50.29-3.38-19.67"/><path d="m22.27 50.29h-.89"/><path d="m19.16 50.29h2.22"/><path d="m15.5 24.14-.2 6.48-.36 1.25"/><path d="m15.52 24.14.26 6.48"/><path d="m15.78 30.62-.27 2.34"/><path d="m8.82 50.29h-.85l5.13-13.93"/><path d="m15.51 32.96-2.03 17.33"/><path d="m8.82 50.29h4.66"/><path d="m13.12 32.58-.02 3.78"/><path d="m13.12 32.58c-.9-.27-1.63-.54-1.63-.54s-.49-.97-1.26-1.46c-.78-.49-2.04-.78-3.6-1.26-1.55-.49-1.75 0-5.25-1.46-.19-.08-.52-.2-.94-.34"/><path d="m15.51 32.96-.57-1.09"/><path d="m13.12 32.58 1.06-1.33.2-5.11.24 4.99.32.74"/><path d="m15.51 32.96-1.13 3.4h-1.28"/><path d="m17.95 34.2v2.16"/><path d="m16.49 32.5.14-.58.25-3.95.3 3.76.77.74v1.73"/><path d="m15.51 23.6c-.15 0-.27.12-.27.27s.12.26.26.27"/><path d="m15.52 24.14c.15-.01.26-.12.26-.27s-.12-.27-.27-.27"/><path d="m15.52 24.14-.01.01-.01-.01"/><path d="m15.51 20.89v2.71"/><path d="m15.51 20.89v-1.63"/><path d="m17.95 51.28c0-.31-.25-.57-.57-.57-.31 0-.57.25-.57.62v.84l1.13-.05v-.84z"/><path d="m14.65 52.18 1.13-.07v-.84c0-.31-.25-.57-.57-.57-.31 0-.57.25-.57.63v.85z"/><path d="m12.16 52.09.57.03v-.84c0-.31-.13-.57-.28-.57-.16 0-.28.25-.28.54v.84z"/><path d="m19.91 51.9.52-.1v-.74c0-.31-.12-.57-.26-.57s-.26.25-.26.57z"/><path d="m21.38 50.29c-.07 0-.13.25-.13.57v.84l.26-.03v-.81c0-.32-.06-.57-.13-.57"/><path d="m10.66 51.91.57.04v-.84c0-.15-.13-.4-.28-.4-.16 0-.28.25-.28.36v.84z"/><path d="m17.03 56.68s-.38-1.4-.76-1.35c-.38.04-.59.85-.76 1.31v3.85h1.52z"/><path d="m11.4 60.13 1.24.17v-3.67s-.31-1.35-.62-1.3c-.31.04-.48.82-.62 1.26z"/><path d="m20.62 56.46s-.2-1.35-.41-1.3c-.2.04-.31.82-.41 1.26v3.71l.81-.16v-3.51z"/><path d="m12.63 62.97s-.41.47-.48.71c-.04.15-.25.37-.45.58"/><path d="m11.4 64.63c.08-.11.19-.24.31-.36"/><path d="m12.72 66.38-1.01-2.12"/><path d="m11.71 64.26-.31-.65"/><path d="m20.84 63.96-.22.43"/><path d="m21.51 62.64-.67 1.32"/><path d="m21.71 65.78-.87-1.82"/><path d="m20.62 63.51.22.45"/><path d="m11.68 62.3v-.78"/><path d="m10.66 61.91.29.73"/><path d="m9.79 62.8.68.44"/><path d="m10.26 64.16h-.62"/><path d="m10.47 65-.68.43"/><path d="m10.95 65.61-.29.64"/><path d="m11.68 66.08v.61"/><path d="m13.64 65.61-.67-.61"/><path d="m13.3 64.39h.61"/><path d="m13.13 63.24.51-.22"/><path d="m12.44 62.64.28-.55"/><path d="m16.48 67.53v-1.6"/><path d="m19.25 62.8.56.33"/><path d="m19.81 61.69.41.67"/><path d="m20.8 62.09v-.77"/><path d="m19.53 64.16h-.45"/><path d="m19.81 65-.51.43"/><path d="m20.22 65.78-.41.6"/><path d="m20.8 65.78v.91"/><path d="m22.02 65.21-.31-.21"/><path d="m21.87 63.8.4.19"/><path d="m21.87 62.8.2-.44"/><path d="m21.51 62.27.2-.56"/><path d="m13.91 74.9.24-1.09"/><path d="m19.25 74.59c0-.37 0-.95 0-.95l-.48.03"/><path d="m19.25 74.59c0 .37-1.08 2.8-1.22 3.45-.14.64-.81 2.36-.81 2.36s-1.01-.91-1.32-1.79c-.3-.88-1.99-3.72-1.99-3.72"/><path d="m18.77 73.67-2.5.14h-2.12"/><path d="m13.91 74.9-4.34-.8"/><path d="m9.57 74.1-.1-.02"/><path d="m20.8 82.09v3.34l1.25-.3-.2-3.28s-.14-.98-.42-.88c-.29.11-.63 1.12-.63 1.12z"/><path d="m18 83.37v1.89l-.88.85h-.84"/><path d="m18 83.37-.88 1.25-.84-1.11"/><path d="m16.28 83.51v2.6"/><path d="m13.6 92.46v-2.32s-.38-1.52-1.08-1.47"/><path d="m13.6 92.46v.53l2.98.75"/><path d="m14.49 90.83c.36.17.86 0 .86 0v-.48l-.57-.25z"/><path d="m16.31 90.9 1.5-1.55"/><path d="m16.31 90.9 2.51.28"/><path d="m21.07 89.51-3.26-.16"/><path d="m16.7 91.18-.12 3.27"/><path d="m11.39 89.07-.22 1.43v1.85l-1.71.29"/><path d="m13.6 92.46-2.21-.86"/><path d="m14.15 61.07v12.74"/><path d="m14.15 61.07-5.33-.77"/><path d="m18.74 61.02-4.59.05"/><path d="m18.74 61.02 3.53-.72"/><path d="m22.27 52.29-3.53.33-4.59.05-5.33-.38"/><path d="m18.77 73.67v.04"/><path d="m18.74 61.02.03 12.65"/><path d="m5.59 69.9 3.23-4.79"/><path d="m.3 61.42 8.52.29"/><path d="m8.82 61.71v3.4"/><path d="m23.94 27.71.34-1.37 1.02-.63.37-2.61"/><path d="m23.48 24.8h-1.31l1.38-4.44"/><path d="m26.67 23.87 1.2.93.92 1.31"/><path d="m35.29 26.81-1.03-1.16-1.04-2"/><path d="m33.22 23.65-.04-.09"/><path d="m7.9 27.71s.51-1.65.57-1.88-.63-1.28-.63-1.28l-.92-.88-.96.5-.91-.5-1.71.22"/><path d="m47.73 22.66 2.34 1.21.8 1.81 1.25-.28.46.71"/><path d="m33.18 27.08-2.51.63"/><path d="m4.43 28.89-1.89.53-2.21.42"/><path d="m10.47 43.52s-.43-1.74-.82-1.74-.11 1.31-1.17 1.81-1.06-.1-1.55-.5c-.5-.4-.81-.8-1.02-1.31-.21-.5-1.91-.1-2.57-.6s-.94-.5-1.95-.72c-.44-.1-.82.03-1.21.21"/><path d="m56.55 59.95c-.13.65-.39 1.1-.47 1.74-.1.87.18.73 0 1.44-.18.72-1.48.9-1.23 1.49.24.59 1.13.4.89.98s-1.13 1.07-.08 1.76c1.05.68 1.86.6 2.26 1"/><path d="m56.55 59.95c.05-.23.08-.48.08-.78"/><path d="m21.38 45.45s.86-.05 1.65 0 1.9-.15 2.65 0 1.49-.64 2.43.01 1.58.34 2.57.85c.99.5.76.2 1.68.5s1.96-.4 2.04 0"/><path d="m39.8 50.99c-1.01-.04-1.21-1.37-1.81-1.87s-1.71-.3-2.21-.91c-.5-.6-1.31-1.01-1.39-1.41"/><path d="m59.29 53.07c.49.22.95 1.26.95 1.26"/><path d="m56.63 59.17c0-1.13.81-.73 1.69-1.26.89-.53 1.68.04 1.68.04s0 0 .06-.17-.52-.78-.43-1.32c.09-.55.12-1.26 0-1.72-.11-.46.61-.4.61-.4"/><path d="m57.92 68.37c.4.4 1.53.3 1.53.8s-.65 0-.73.73-.65 1.62-.57 2.26c.08.65-.4 1.3-.32 1.98s-.08 1.41-.08 1.41"/><path d="m70.81 83.18c.03.01.05.02.05.02"/><path d="m57.76 75.55s.81 1.66 1.05 1.47.65.46 1.05.62 1.05.24 1.29 0 .08-.97.73-.97.81-.2 1.45.34c.65.54.65.69 1.45.78.81.09 1.21.31 1.94 0s.16-.01.97.16 1.05-.57 1.61 0c.57.57.37.49 1.56.65s1.27.81 1.1 1.29-1 .97-1.1 1.53c-.11.56.59.48 0 1.05-.48.46-.18.64-.05.69"/><path d="m39.8 50.99c1.01.04 1.71-.93 2.31-.49.6.43.6.46 2.01.95s2.01.54 2.92.67c.91.12.8-1.75 1.66-1.62s.65 2.17.65 2.17l.89-.16s-.2-.59.33-.78.29.1.49.49-.26-.52.33-.52.68.98.68.98h.68s.18-2.08.56-2.08.48 1.24.61 1.2c.13-.03.26-1.04.49-.94s.78 2.44 1.2 2.5.72.52 1.04.42c.33-.1.2-1.66.62-1.59s.85 1.46 1.17 1.46.13-.65.68-.62c.05 0 .11.02.16.04"/><path d="m57.76 75.55s0 0-1.19-.24-.18-.73-.02-1.23-.57-1.36-1.21-2.16c-.65-.81-.89.08-1.66.32s-.84.89-.36 2.25.49.5 0 1.14c-.49.65-.84 1.13-.84 1.13-.01 1.05-.37 1.22.61 1.47s1.87.05 1.83 1.06-.55.55-.08 1.49c.46.95.13 1.83.97 2.13.84.29-.21 1.52 1.22 1.84 1.43.31.63 2.28 1.77 1.23s.97-2.61 2.4-1.91 2.23.79 2.72.68c.48-.11.19-1.75.95-1.84"/><path d="m37.03 60.3c.31.04.75.08 2 0"/><path d="m32.86 76.96-.04.06"/><path d="m28.1 61.91.69 1.98s.63-.07 1.16.31c.53.37 1.18-.4 1.83.19s.57 1.22.57 1.22.48-1.26 1.12-.5c.65.76.16 2.37.65 2.78.48.4 1.18 1.28 1.18 1.28s.11 0-.37.73-.81 1.51-.81 1.51"/><path d="m57.46 58.23s-1.04-.29-2.35 0-2.04-.62-3.65 0-1.21.46-2.34.54-2.58-.4-4.03 0 .65-.08-1.45.4-2.74.24-3.47.48 1.37.49-1.13.65"/><path d="m32.86 76.96 2.43-3.59v-1.13l-1.17-.83"/><path d="m37.03 60.3c-.31-.04-.5-.08-1.25 0"/><path d="m28.1 61.91s.61-.48 1.33-.89c.73-.41 1.05-.16 2.91-.72s1.93.16 3.43 0"/><path d="m33.68 82.32-7.31 4.6"/><path d="m33.68 82.32 1.34-.85"/><path d="m35.02 81.47v4.5h.76l.13-5.19h-.89z"/><path d="m47.42 93.01v.49l-1.41.46v4.38l1.97 1.27"/><path d="m47.42 93.01-2.66-2.75-4.38-4.83-4.11-4.46"/><path d="m44.18 60.3h5.42"/><path d="m42.78 59.34h4.11"/><path d="m56.63 59.17h-3.93"/><path d="m47.24 62.36h8.86"/><path d="m37.45 61.69h4.79"/><path d="m35.78 60.3h1.25"/><path d="m37.03 60.3h2.01"/><path d="m39.04 60.3h3.2"/><path d="m44.83 63.51h-2.59"/><path d="m51.32 59.95h5.23"/><path d="m50.81 73.37h-5.33"/><path d="m59.29 53.07h1.73"/><path d="m59.29 53.07h-.07"/><path d="m57.64 52.48h1.81"/><path d="m47.96 67.52 3.19.01"/><path d="m53.08 68.37h4.84"/><path d="m57.51 50.32.18-2.78-1.57 2.78z"/><path d="m57.51 50.32h1.39"/><path d="m45.51 47.19-1.4 2.48h2.06"/><path d="m46.33 47.21.1-1.67-.92 1.65"/><path d="m46.33 47.21-.16 2.46"/><path d="m46.17 49.67h2.07"/><path d="m34.39 46.81 11.12.38"/><path d="m46.33 47.21 1.63.06h9.96 16.9"/><path d="m65.58 53.46c.05.17 0 .81-.65.26-.66-.55-.38-1.86-.76-1.06s-.22 2.2-.53 1.22-.29-1.15-.94-1.41c-.66-.27-.38 1.19-.49 1.85-.11.65-.6-.65-1.17-.65s-.79.65-.79.65"/><path d="m18.69 94.69-6.8 2.15"/><path d="m52.63 86.92-1.31-.81"/><path d="m36.91 92.46-2.34 1.28"/><path d="m33.68 93.75.89-.01"/><path d="m36.91 92.46 5.28.35 5.23.2"/><path d="m52.63 86.92 1.31.81-6.52 5.28"/><path d="m33.68 93.75-4.33.03"/><path d="m31.99 92.03-2.4.61"/><path d="m31.99 92.03 2.58 1.71"/><path d="m31.99 92.03.72-.85"/><path d="m32.71 91.18 4.2 1.28"/><path d="m30.01 92.03 2.7-.85"/><path d="m30.53 77.87-4.48 2.28"/><path d="m30.7 80.97-1.11 1.05-1.92-.55 1.02-.69-2.64-.63"/><path d="m32.86 76.96 4.05.55"/><path d="m31.36 76.76 1.5.2"/><path d="m31.36 76.76-2.25 3.39"/><path d="m33.68 82.32-.97-.6-.72 1.13-1.46-.83.17 1.36.66.4"/><path d="m26.05 80.15v1.57l-.38 1.48"/><path d="m29.83 84.74-.48-.27-.5.27-1.72-.55.36-.81-1.82-.18"/><path d="m31.36 76.76c.93.21-.45-1.89.38-1.86.83.02.49-.68 1.27-1.82s.42-.96 1.11-1.67"/><path d="m28.1 61.91-.85-1.78h-3.18l-1.32 3.38h5.35v5.66"/><path d="m28.37 66.38s.37.51.97 1.15.06.62-.24 1.1-1.01.53-1.36 1.26.1 1.44-1.38 1.69c-1.47.25-.51-1.03-.7-2.42-.2-1.39-.88-.17-1.66-.8s-.9-.51-1.74-.45"/><path d="m16.31 79.37-.03 4.14"/><path d="m17.74 79 .26 4.37"/><path d="m16.31 90.9-.03-4.79"/><path d="m17.81 89.35-.07-3.24"/><path d="m29.35 93.78c-.1-.64.1-2.13-.17-2.2s.03-1.08-.57-.81c-.61.27-.91.34-1.52.34s-.37-1-.51-1.48.47-1.05-.41-.75-1.11-1.05-1.45-.95"/><path d="m22.27 73.71 1.15 2.27"/><path d="m23.42 75.98 1 1.96 1.11 1.28-.3 3.44.44.54"/><path d="m21.07 89.51c-.11.17-.26.36-.5.58-.78.71-1.99 1.05-2.16 1.45-.17.41-.71 1.18 0 1.69s1.28-.03.68.88c-.15.23-.28.42-.39.57"/><path d="m23.42 75.98 1.81-1.08-2.96-1.19"/><path d="m18.89 98.97c-.13-.15-.27-.31-.42-.49-.38-.48-.75.02-1.23.19"/><path d="m25.67 83.2.7.85v2.87"/><path d="m24.72 87.93 1.65-1.01"/><path d="m16.39 98.47c-.14-.23-.07-.65.02-1.38.14-1.15 1.82-1.76 1.82-1.76s.13-.17.46-.64"/><path d="m24.72 87.93s-.77-.27-.4-.84.06-1.22-.21-1.18c-.27.03-.47-1.55-.57-1.17-.1.39-.98.05-.71 1.57s-.03 1.38-.3 1.79-.57-.41-.95.27c-.25.46-.28.77-.51 1.14"/><path d="m29.83 99.66c-.08-.15-.11-.3-.04-.45.2-.44-.07-.64.17-1.35s.79-1.28.48-1.32c-.31-.03-.89.71-.99-.81s0-1.32-.1-1.96"/><path d="m8.82 54.28s-1.29 1.05-2.03.23c-.75-.82-1.37.83-2.35.82s0 1.78-1.25 2.68 0 0-1.56 0 2.81-.9.78-1.68c-2.03-.78-.82.91-1.86 1.31-.13.05-.23.1-.3.16"/><path d="m38.93 79.68 4.62 2.55 4.6 2.51"/><path d="m38.45 79.94v-1.31h-1.06v1.05"/><path d="m52.1 89.22v2.6"/><path d="m52.1 91.82v2.64 4.95"/><path d="m37.82 77.3-.06-.53 1.17.37.08.96 2.03 1.01 11.06-1.24 5.36 8.6-.66.06"/><path d="m37.82 77.3.1.8"/><path d="m52.63 86.92 4.17-.39"/><path d="m37.82 77.3-.62-.16-.28 1.32"/><path d="m56.8 86.53v.88l3.58 3.12-1.1.17"/><path d="m59.28 90.7-7.18 1.12"/><path d="m59.26 92.61-.06 4.5"/><path d="m59.26 92.3.02-1.6"/><path d="m59.26 92.61v-.31"/><path d="m71.14 85.22 1.36-.65"/><path d="m71.14 85.22-.81.38 1.64.57"/><path d="m72.91 83.06-2.1.12"/><path d="m64.85 83.38 2.07.81h2.06l2.16 1.03"/><path d="m64.85 83.38 5.65-.18.31-.02"/><path d="m64.85 83.38v1.84"/><path d="m59.45 68.75c.64-.21 1.17-.53.67-1.22-.49-.68-1.16-.68-.24-.98.92-.29 1.11.42 1.14-.59s-.26-.62.62-1.32 1.58-1.96 1.58-1.96-.15.25.4.29.51.42 1.22.13c.72-.29 1.81-.59 2.15-.21s1.05.29 1.05.29l1.22-.21s.93.29 1.26.97c.34.67.21.84 1.01 1.35s1.8.29 1.95.8-.39 1 .2 1.15"/><path d="m65.27 53.44c.59-.16.04-.65.2-1.15.15-.51 1.15-.29 1.95-.8s.67-.67 1.01-1.35c.34-.67 1.26-.97 1.26-.97l1.22.21s.72.08 1.05-.29c.34-.38 1.43-.08 2.15.21.38.16.55.12.7.05"/><path d="m69.02 61.25c-.08-.51-.72-.95-.72-.95v-1.13s-.42-.74-1.22-1.16-.67.37-1.35.75c-.67.38-1.6.41-1.6.41s-.04.52.21 1.13.21.65.25 1.39"/><path d="m71.34 55.18c.59-.63 1.05-1.6 1.62-1.22s.86-.21.95.57c.08.78-.76.86.17 1.58.79.61.45.3.72.54"/><path d="m71.72 60.49s.51-.17.89-.54c.38-.38.76.08 1.35.38.29.15.55.32.81.42"/><path d="m71.72 60.49s-.04-.21-.38.34"/><path d="m72.73 62.36c.21-.74.84-.86.23-1.2s-1.24-.67-1.24-.67"/><path d="m41.27 54.17c-.1.04-.07.04.03.03"/><path d="m41.6 58.85c.92-.08 1.16-.75 2.26-.84s.77 1.38 1.1-.09c.34-1.47.42-1.35.25-2.23s-.63-1.52-.63-1.52"/><path d="m44.58 54.17s.17-.68-.21-1.1-.83-.31-.83-.31l-.76 1.12s-1.15.27-1.48.32"/><path d="m53.94 57.16-.63-1.01s.34-.38.63-1.39-.29-.8.97-1.31.8.84 1.19 1.71"/><path d="m56.8 56.95c.34-.76.11-1.42.84-1.15.72.27 1 .23.9.55"/><path d="m41.3 54.2c-.01-.01-.02-.02-.03-.03"/><path d="m36.16 53.54s-.83-1.05-1.39-.63c-.55.42-.55.42-.55.42"/><path d="m27.94 60.31c1.1.09.72.39 1.39-.18s-.47-1.18 1.2-.79 1.44.12 2.48 0 .75-.62 2.09-.37c1.35.25.58.01 1.81.2 1.23.18.47.25 1.52.17s.14.28 1.42-.17 1.07.86 1.24-.66.21-.46.17-2.02c-.04-1.54.76-1.6.04-2.29"/><path d="m36.16 53.54s.72.13 1.3-.47.85-.16 1.82-.4 1.22.78 2 1.5"/><path d="m23.9 51c.97.01 2.05.69 2.05.69s2.13-.93 2.84-.34c.72.59 1.04.91 1.74 1.13s.74.08 1.5.19 2.19.66 2.19.66"/><path d="m37.04 58.01c.13-.21.13-.38 0-.85-.13-.46-1.22-.21-2.32-.51s-.93-.46-1.22-1.14c0 0-.55-.17 0-.67.55-.51.72-1.52.72-1.52"/><path d="m44.58 54.17s-.63.08-1.05.34c-.41.26-.22.25-.29 1.16"/><path d="m30.13 58.14c-.21-.52-.31-.63-.51-1.31s-.24-1.1-.24-1.1-.67-.88-1.1-.48c-.42.39-1.31.24-1.35 1.14s.97.65.32 1.43-1.5.57-.91 1.03 1.37.29 1.14.79"/><path d="m36.16 53.54c.16-1.02-.1-1.84.98-1.84s.67-.08 1.33-.37 1.34-.33 1.34-.33"/><path d="m33.68 99.65v-5.9"/><path d="m33.68 93.74v.01"/><path d="m43.04 99.63.51-.52"/><path d="m45.48 98.34v1.03"/><path d="m45.48 98.34v-1.99h-1.21l-.25 3.29"/><path d="m44.02 99.64-.03.36"/><path d="m46.52 99.64-1.04-1.3"/><path d="m50.81 99.5v-.39h-1.05v.45"/><path d="m49.55 27.97s-1.37.13-1.6-.99-2.66.73-2.66.73l-3.06-.63-2.39.25-.05-1.33"/><path d="m54.07 25.48-1.87-2.29"/><path d="m52.2 23.19-2.04-1.27"/><path d="m56.63 91.82v1.06"/><path d="m35.47 99.63v-.16"/><path d="m58.53 91.6v1.07"/><path d="m54.98 92.11v1.07"/><path d="m31.36 99.67v-.08"/><path d="m31.36 94.69v1.06"/><path d="m53.3 92.35v1.07"/><path d="m35.42 93.37v1.07"/><path d="m59.26 92.3c-.24.08-.52-.17 0 .3"/><path d="m67.11 89.17c1.18-.85.49.15 1.46.77"/><path d="m68.64 92.38c-.05-.14-.08-.32-.07-.56.07-1.44.98-1.26 0-1.87"/><path d="m65.22 95.22v.41"/><path d="m59.26 92.61c.67.63-.26 1.02 1.25 1.17s1.64-.78 2.44-.04"/><path d="m65.5 95.43c-.23-.05-.27-.21-.27-.21"/><path d="m62.96 93.74c.81.75 1.5 1.48 2.27 1.48"/><path d="m59.26 92.3c.07-.02.15-.08.19-.19.19-.5.75-.2 2.09-.51s.06-.74.34-1.34 1.32.39 2.25.44-.35-1.05 0-1.14c.35-.08 1.79.46 2.97-.39"/><path d="m63.77 96.53c.09-.28.13-.51.13-.51"/><path d="m62.96 93.74c-.8.47-.56.52-1.41.95s-1.61.25-1.16 1.07.52 1.1 1.22 1.17c.3.03.55.16.78.29"/><path d="m64.46 96.13-.56-.11"/><path d="m63.9 96.02.23-1.24"/><path d="m69.02 91.18.44.06"/><path d="m69.68 90.5.27-.03"/><path d="m70.73 89.07h-1.71l-.45.87"/><path d="m67.11 89.17 1.91-2.25 2.68-.64.13.29"/></g></svg>