<?xml version="1.0" encoding="utf-8"?>
<!-- Generator: Adobe Illustrator 25.2.3, SVG Export Plug-In . SVG Version: 6.00 Build 0)  -->
<svg version="1.1" id="Layer_1" xmlns="http://www.w3.org/2000/svg" xmlns:xlink="http://www.w3.org/1999/xlink" x="0px" y="0px"
	 viewBox="0 0 75 100" style="enable-background:new 0 0 75 100;" xml:space="preserve">
<style type="text/css">
	.st0{fill:none;stroke:#BBB0A1;stroke-width:0.5;stroke-miterlimit:10;}
</style>
<g>
	<path class="st0" d="M0.32,67.13c0.01,0.21,0.01,0.43,0.02,0.64"/>
	<path class="st0" d="M74.73,67.77c0.01-0.21,0.01-0.42,0.02-0.64"/>
	<path class="st0" d="M70.98,89.07c-2.42,4.92-6.11,8.06-11.08,9.35c-6.35,1.64-11.26,1.59-17.58,1.54
		c-1.31-0.01-2.69-0.02-4.15-0.01c-5.58,0.02-11.63,0.28-18.03-0.47c-9.17-1.07-13.61-5.13-16.05-10.4"/>
	<path class="st0" d="M74.56,71.65c0.01-0.22,0.02-0.45,0.04-0.68"/>
	<path class="st0" d="M0.53,71.66c0.15,2.59,0.34,4.73,0.59,6.25c0.64,3.9,1.39,7.78,2.96,11.15"/>
	<path class="st0" d="M3.19,11.13c4.38-9.88,14.34-10.85,21.25-11C28.24,0.05,32.98,0,37.66,0c6.97,0,13.85,0.12,17.44,0.46
		c9.4,0.9,14.22,4.89,16.75,10.67"/>
	<path class="st0" d="M74.56,71.65c-0.11,2.02-0.26,3.75-0.45,5.09c-0.46,4.91-1.51,9.02-3.14,12.33"/>
	<path class="st0" d="M72.55,12.9c-0.21-0.61-0.44-1.2-0.69-1.77"/>
	<path class="st0" d="M72.55,12.9c0.78,2.27,1.28,4.76,1.62,7.42c0.27,2.17,0.45,4.3,0.54,6.4c0.31,7.25,0.25,15.27,0.25,22.87
		c0,6.41-0.04,12.51-0.19,17.54"/>
	<path class="st0" d="M2.5,12.9c0.21-0.62,0.44-1.21,0.68-1.77"/>
	<path class="st0" d="M2.5,12.9c-0.33,0.97-0.62,2.01-0.85,3.14c-1.88,9.27-1.59,21.5-1.59,32.38c0,6.83,0.07,13.34,0.26,18.71"/>
	<path class="st0" d="M0.49,70.98c0.01,0.23,0.02,0.46,0.04,0.68"/>
	<path class="st0" d="M74.73,67.77c-0.04,1.13-0.08,2.2-0.13,3.2"/>
	<path class="st0" d="M0.49,70.98c-0.05-1.01-0.1-2.08-0.14-3.21"/>
	<line class="st0" x1="70.98" y1="89.07" x2="4.08" y2="89.07"/>
	<line class="st0" x1="10.49" y1="88.24" x2="10.49" y2="79.91"/>
	<line class="st0" x1="13.25" y1="80.24" x2="13.25" y2="88.23"/>
	<path class="st0" d="M11.22,79.52l-0.19,0.07v-0.16c-0.24,0.12-0.43,0.29-0.54,0.48c-0.09,0.24-0.14,0.49-0.14,0.75v6.94
		c0,0.22,0.05,0.44,0.14,0.64c0.12,0.2,0.3,0.37,0.54,0.49v-0.16l0.19,0.07v0.17c0.17,0.06,0.35,0.09,0.55,0.1v-0.14h0.19v0.14
		c0.2-0.01,0.39-0.05,0.57-0.11v-0.16l0.19-0.07v0.15c0.24-0.12,0.42-0.29,0.53-0.49v0.01c0.09-0.2,0.14-0.42,0.14-0.64v-6.94
		c0-0.14-0.01-0.28-0.04-0.42"/>
	<path class="st0" d="M11.22,79.52L11.22,79.52v-0.17c0.17-0.06,0.35-0.1,0.55-0.11v0.14h0.19v-0.14c0.2,0.01,0.39,0.05,0.57,0.11
		v0.16l0.19,0.07v-0.15c0.12,0.06,0.21,0.13,0.3,0.2"/>
	<line class="st0" x1="11.22" y1="79.52" x2="11.22" y2="88.64"/>
	<line class="st0" x1="11.03" y1="88.57" x2="11.03" y2="79.59"/>
	<line class="st0" x1="11.96" y1="79.38" x2="11.96" y2="88.78"/>
	<line class="st0" x1="11.77" y1="79.38" x2="11.77" y2="88.78"/>
	<line class="st0" x1="12.72" y1="79.59" x2="12.72" y2="88.57"/>
	<line class="st0" x1="12.53" y1="79.52" x2="12.53" y2="88.64"/>
	<line class="st0" x1="13.07" y1="78.22" x2="14.13" y2="78.22"/>
	<line class="st0" x1="14.13" y1="78.22" x2="14.13" y2="78.22"/>
	<path class="st0" d="M14.34,77.59h-0.19c0,0-0.01,0.01-0.02,0.02"/>
	<path class="st0" d="M14.13,77.6c-0.04,0.04-0.28,0.25-0.87,0.48"/>
	<polyline class="st0" points="14.15,78.71 13.6,78.71 13.6,80.24 14.15,80.24 	"/>
	<line class="st0" x1="14.15" y1="80.24" x2="14.15" y2="78.71"/>
	<path class="st0" d="M14.15,78.71c0.01,0.08,0.1,0.15,0.18,0.15h0.14"/>
	<line class="st0" x1="14.85" y1="78.22" x2="14.85" y2="78.22"/>
	<line class="st0" x1="15.92" y1="78.22" x2="14.85" y2="78.22"/>
	<path class="st0" d="M15.72,78.08c-0.6-0.23-0.83-0.44-0.87-0.48"/>
	<polyline class="st0" points="14.85,77.6 14.84,77.59 14.64,77.59 	"/>
	<polyline class="st0" points="14.84,80.24 15.38,80.24 15.38,78.71 14.84,78.71 	"/>
	<line class="st0" x1="14.84" y1="80.24" x2="14.84" y2="78.71"/>
	<path class="st0" d="M14.52,78.86h0.14c0.08,0,0.17-0.08,0.18-0.15"/>
	<line class="st0" x1="14.52" y1="78.86" x2="14.46" y2="78.86"/>
	<path class="st0" d="M13.72,80.24v3.07c0.15,0.39,0.43,0.89,0.51,1.04c0.08,0.15,0.09,0.29,0.09,0.29
		c0.01,0.15-0.17,0.33-0.32,0.32"/>
	<polyline class="st0" points="13.63,84.74 13.39,84.74 13.39,85.92 	"/>
	<line class="st0" x1="13.63" y1="84.86" x2="13.85" y2="84.86"/>
	<polyline class="st0" points="13.62,85.74 13.62,84.86 13.63,84.86 	"/>
	<line class="st0" x1="13.85" y1="85.18" x2="13.83" y2="85.18"/>
	<line class="st0" x1="13.85" y1="85.44" x2="13.83" y2="85.44"/>
	<polyline class="st0" points="14.03,85.44 14.03,85.18 13.85,85.18 	"/>
	<polyline class="st0" points="14.03,85.44 14.03,85.44 13.85,85.44 	"/>
	<line class="st0" x1="18.52" y1="79.91" x2="18.52" y2="88.24"/>
	<line class="st0" x1="15.76" y1="80.24" x2="15.76" y2="88.23"/>
	<path class="st0" d="M15.99,79.64c0.09-0.08,0.19-0.15,0.3-0.2v0.15l0.19-0.07v-0.16c0.17-0.06,0.36-0.1,0.56-0.11v0.14h0.19v-0.14
		c0.2,0.01,0.38,0.04,0.55,0.11v0.17l0.19,0.07v-0.16c0.24,0.12,0.43,0.29,0.55,0.48c0.09,0.24,0.14,0.49,0.14,0.75v6.94
		c0,0.22-0.05,0.44-0.14,0.64c-0.12,0.2-0.31,0.37-0.55,0.49v-0.16l-0.19,0.07v0.17c-0.17,0.06-0.35,0.09-0.55,0.1v-0.14h-0.19v0.14
		c-0.2-0.01-0.4-0.05-0.56-0.11v-0.16l-0.19-0.07v0.15c-0.24-0.12-0.42-0.29-0.53-0.49v0.01c-0.09-0.2-0.14-0.42-0.14-0.64v-6.94
		c0-0.14,0.01-0.28,0.04-0.42"/>
	<line class="st0" x1="17.78" y1="79.52" x2="17.78" y2="88.64"/>
	<line class="st0" x1="17.98" y1="79.59" x2="17.98" y2="88.57"/>
	<line class="st0" x1="17.05" y1="79.38" x2="17.05" y2="88.78"/>
	<line class="st0" x1="17.24" y1="79.38" x2="17.24" y2="88.78"/>
	<line class="st0" x1="16.29" y1="79.59" x2="16.29" y2="88.57"/>
	<line class="st0" x1="16.49" y1="79.52" x2="16.49" y2="88.64"/>
	<path class="st0" d="M15.29,80.24v3.07c-0.15,0.39-0.42,0.89-0.51,1.04c-0.08,0.15-0.09,0.29-0.09,0.29
		c-0.01,0.17,0.22,0.37,0.38,0.34"/>
	<polyline class="st0" points="15.38,84.74 15.62,84.74 15.62,85.92 	"/>
	<rect x="13.39" y="83.28" class="st0" width="0.23" height="1.18"/>
	<rect x="15.38" y="83.28" class="st0" width="0.24" height="1.18"/>
	<rect x="13.39" y="81.82" class="st0" width="0.23" height="1.18"/>
	<rect x="15.38" y="81.82" class="st0" width="0.24" height="1.18"/>
	<polyline class="st0" points="15.39,85.74 15.39,84.86 15.38,84.86 	"/>
	<line class="st0" x1="15.16" y1="84.86" x2="15.38" y2="84.86"/>
	<line class="st0" x1="13.63" y1="84.74" x2="13.63" y2="84.86"/>
	<line class="st0" x1="13.63" y1="85.74" x2="13.63" y2="84.86"/>
	<polyline class="st0" points="13.63,85.74 13.63,85.92 13.39,85.92 	"/>
	<line class="st0" x1="13.85" y1="85.18" x2="13.85" y2="85.44"/>
	<line class="st0" x1="13.85" y1="85.18" x2="13.85" y2="84.86"/>
	<polyline class="st0" points="13.85,85.44 13.85,85.74 13.63,85.74 	"/>
	<line class="st0" x1="13.62" y1="85.74" x2="13.63" y2="85.74"/>
	<line class="st0" x1="15.38" y1="84.86" x2="15.38" y2="84.74"/>
	<line class="st0" x1="15.38" y1="85.74" x2="15.38" y2="84.86"/>
	<polyline class="st0" points="15.38,85.74 15.38,85.92 15.62,85.92 	"/>
	<line class="st0" x1="15.16" y1="85.44" x2="15.16" y2="85.18"/>
	<line class="st0" x1="15.16" y1="85.18" x2="15.16" y2="84.86"/>
	<line class="st0" x1="15.38" y1="85.74" x2="15.39" y2="85.74"/>
	<polyline class="st0" points="15.16,85.44 15.16,85.74 15.38,85.74 	"/>
	<polyline class="st0" points="14.98,85.44 14.98,85.18 15.16,85.18 	"/>
	<line class="st0" x1="15.18" y1="85.18" x2="15.16" y2="85.18"/>
	<polyline class="st0" points="14.98,85.44 14.98,85.44 15.16,85.44 	"/>
	<line class="st0" x1="15.16" y1="85.44" x2="15.18" y2="85.44"/>
	<path class="st0" d="M14.28,80.27c-0.34,0.32-0.51,0.02-0.51,0.02"/>
	<path class="st0" d="M14.73,80.27c0.34,0.32,0.51,0.02,0.51,0.02"/>
	<path class="st0" d="M14.3,76.5c0.38,0,0.68-0.31,0.68-0.68c0-0.38-0.31-0.68-0.68-0.68c-0.01,0-0.02,0-0.04,0
		c-0.36,0.02-0.65,0.31-0.65,0.68C13.62,76.2,13.92,76.5,14.3,76.5z"/>
	<path class="st0" d="M16.04,75.05h0.02c0.24-0.01,0.42-0.21,0.42-0.44c0-0.24-0.2-0.44-0.44-0.44c-0.25,0-0.44,0.2-0.44,0.44
		S15.79,75.05,16.04,75.05L16.04,75.05"/>
	<line class="st0" x1="16.04" y1="75.05" x2="14.27" y2="75.14"/>
	<line class="st0" x1="16.04" y1="75.05" x2="16.06" y2="75.05"/>
	<line class="st0" x1="15.38" y1="76.31" x2="14.37" y2="76.5"/>
	<line class="st0" x1="17.04" y1="76.01" x2="15.38" y2="76.31"/>
	<line class="st0" x1="23.04" y1="75.24" x2="23.04" y2="75.24"/>
	<path class="st0" d="M17.34,75.96l4.93-0.67c0.08-0.01,0.18,0,0.26,0.04l0.51-0.08"/>
	<polyline class="st0" points="17.04,76.01 17.17,75.98 17.34,75.96 	"/>
	<path class="st0" d="M17.38,75.5c0-0.18-0.14-0.32-0.32-0.32c-0.17,0-0.32,0.14-0.32,0.32c0,0.17,0.14,0.31,0.32,0.31
		C17.24,75.81,17.38,75.67,17.38,75.5z"/>
	<path class="st0" d="M17.04,76.01c0.02,0,0.04,0.01,0.06,0.01c0.08,0,0.16-0.02,0.23-0.06"/>
	<path class="st0" d="M17.04,76.01c-0.26-0.03-0.46-0.24-0.46-0.51c0-0.29,0.24-0.52,0.52-0.52c0.29,0,0.52,0.23,0.52,0.52
		c0,0.21-0.12,0.38-0.29,0.46"/>
	<line class="st0" x1="21.94" y1="74.34" x2="21.96" y2="74.34"/>
	<line class="st0" x1="21.94" y1="74.34" x2="17.11" y2="74.98"/>
	<line class="st0" x1="22.01" y1="74.52" x2="22.24" y2="75.16"/>
	<line class="st0" x1="21.94" y1="74.34" x2="22.01" y2="74.52"/>
	<line class="st0" x1="21.88" y1="74.16" x2="21.94" y2="74.34"/>
	<line class="st0" x1="18.8" y1="74.65" x2="21.11" y2="74.07"/>
	<line class="st0" x1="21.11" y1="74.07" x2="21.11" y2="74.07"/>
	<line class="st0" x1="18.59" y1="73.85" x2="18.78" y2="73.8"/>
	<path class="st0" d="M18.56,74.04c0.03,0.24,0.16,0.61,0.25,0.6"/>
	<path class="st0" d="M18.59,73.85c-0.04,0-0.05,0.09-0.03,0.2"/>
	<path class="st0" d="M16.48,74.61l1.07-0.08c0.04,0.1,0.13,0.2,0.32,0.06"/>
	<line class="st0" x1="18.23" y1="74.12" x2="17.87" y2="74.59"/>
	<line class="st0" x1="18.56" y1="74.04" x2="18.56" y2="74.04"/>
	<line class="st0" x1="18.56" y1="74.04" x2="18.23" y2="74.12"/>
	<line class="st0" x1="14.11" y1="73.25" x2="15.38" y2="73.4"/>
	<line class="st0" x1="8.84" y1="72.63" x2="12.58" y2="73.07"/>
	<line class="st0" x1="21.11" y1="74.07" x2="22.42" y2="74.22"/>
	<line class="st0" x1="8.84" y1="72.63" x2="8.34" y2="72.58"/>
	<line class="st0" x1="7.22" y1="72.44" x2="8.34" y2="72.58"/>
	<line class="st0" x1="7.22" y1="72.44" x2="6.7" y2="72.38"/>
	<line class="st0" x1="21.11" y1="74.07" x2="15.38" y2="73.4"/>
	<line class="st0" x1="0.53" y1="71.66" x2="6.7" y2="72.38"/>
	<line class="st0" x1="12.75" y1="73.09" x2="14.11" y2="73.25"/>
	<line class="st0" x1="12.58" y1="73.07" x2="12.75" y2="73.09"/>
	<path class="st0" d="M23.45,67.4c-0.26,0.33-0.69,0.57-1.08,0.56L0.32,67.13"/>
	<path class="st0" d="M23.67,66.99c-0.04,0.15-0.12,0.28-0.22,0.41"/>
	<path class="st0" d="M25.3,72.88c-0.24,0.11-0.4,0.17-0.4,0.17c-0.39,0.11-1.12,0.09-1.12,0.09"/>
	<path class="st0" d="M23.67,66.99c0.09-0.36,0.43-1.9,0.85-0.73c0.36,1.02,0.59,1.48,1.2,2.81c0.61,1.33,1.4,2.73,0.76,3.17
		c-0.37,0.26-0.84,0.48-1.17,0.63"/>
	<path class="st0" d="M6.79,73.92c0.17-0.64,0.17-0.71,0.29-0.97c0.06-0.13,0.1-0.33,0.14-0.5"/>
	<path class="st0" d="M8.42,74.11c0.03-0.05,0.06-0.1,0.08-0.15H8.49l0.34-1.33"/>
	<line class="st0" x1="8.84" y1="72.63" x2="8.84" y2="72.63"/>
	<path class="st0" d="M8.42,74.11c-0.16,0.27-0.44,0.45-0.77,0.45c-0.41,0-0.76-0.27-0.86-0.65L6.7,72.38"/>
	<line class="st0" x1="8.34" y1="72.57" x2="8.34" y2="72.58"/>
	<path class="st0" d="M8.42,74.11c0-0.02,0.02-0.48-0.06-0.81c-0.02-0.13-0.03-0.45-0.02-0.73"/>
	<line class="st0" x1="8.42" y1="74.11" x2="8.42" y2="74.12"/>
	<line class="st0" x1="12.58" y1="73.07" x2="12.58" y2="73.07"/>
	<path class="st0" d="M12.58,73.07l-3.4,5.12l-0.18,0.27c-0.05,0.08-0.21,0.06-0.3,0.01l-0.33-0.21c-0.29-0.39-1.45-0.41-1.83-0.11
		l-1.46,2.38l0.06,0.04l0.88-0.67c0.39-0.29,1.05-0.36,1.45-0.1l0.34,0.21c0.08,0.06,0.24,0.08,0.3-0.01l0.18-0.27l0.4-0.28l4-5.96
		c-0.04-0.12,0-0.27,0.06-0.41"/>
	<line class="st0" x1="12.75" y1="73.09" x2="12.75" y2="73.09"/>
	<line class="st0" x1="23.45" y1="67.4" x2="23.45" y2="67.42"/>
	<polyline class="st0" points="23.97,61.36 23.93,64.75 23.45,67.4 	"/>
	<path class="st0" d="M36.35,75.34c-0.03,0-4.62-0.09-8.46-1.2h0"/>
	<line class="st0" x1="36.35" y1="75.34" x2="36.36" y2="75.34"/>
	<line class="st0" x1="25.3" y1="72.88" x2="25.3" y2="72.88"/>
	<path class="st0" d="M25.3,72.88c1.09,0.88,2.59,1.27,2.6,1.27"/>
	<line class="st0" x1="27.29" y1="75.96" x2="27.27" y2="76.02"/>
	<line class="st0" x1="27.9" y1="74.14" x2="27.29" y2="75.96"/>
	<line class="st0" x1="27.9" y1="74.14" x2="27.9" y2="74.14"/>
	<path class="st0" d="M27.72,74.12c0,0-0.62,0.23-1.48,0.59c-0.86,0.36-1.74,0.77-2.54,0.76"/>
	<path class="st0" d="M31.63,70.27c-0.18,0.3-0.35,0.49-0.35,0.49c-0.08,0.09-0.24,0.03-0.35,0.01c0,0-0.19-0.04-0.46-0.13"/>
	<path class="st0" d="M31.63,70.27c0.15-0.25,0.31-0.58,0.39-0.94c0.02-0.13-0.17-0.21-0.3-0.25c-1.69-0.54-1.65-0.58-2.18-0.81
		c-0.17-0.08-0.34-0.13-0.51-0.17"/>
	<path class="st0" d="M29.03,68.1c-0.47-0.11-0.86-0.09-1.09-0.04c-0.1,0.02-0.24,0.14-0.22,0.24c0.09,0.49,0.69,1.23,1.42,1.71
		c0.46,0.31,0.97,0.51,1.33,0.62"/>
	<line class="st0" x1="31.63" y1="70.27" x2="31.63" y2="70.27"/>
	<path class="st0" d="M31.63,70.27c-0.23-0.25-0.73-0.82-1.22-1.63"/>
	<line class="st0" x1="29.03" y1="68.1" x2="29.03" y2="68.1"/>
	<path class="st0" d="M30.47,70.64c-0.3-0.44-0.98-1.44-1.44-2.54"/>
	<line class="st0" x1="30.47" y1="70.64" x2="30.48" y2="70.64"/>
	<path class="st0" d="M34.86,67.82c0,0-0.26,1.07,0.1,3.14"/>
	<path class="st0" d="M33.94,68.83c-0.1,1.46,0.3,3.04,0.3,3.04"/>
	<path class="st0" d="M33.94,68.83c0.33-0.79,0.92-1.01,0.92-1.01"/>
	<path class="st0" d="M35.07,67.88c0,0-0.29,1,0.12,2.96l-0.22,0.12c0,0-0.59,0.27-0.72,0.91"/>
	<line class="st0" x1="35.61" y1="82.02" x2="35.41" y2="80.14"/>
	<line class="st0" x1="35.41" y1="79.37" x2="35.41" y2="80.14"/>
	<path class="st0" d="M35.41,79.37c0-0.16,0.14-0.33,0.29-0.39l0.91-0.33"/>
	<polyline class="st0" points="38.88,85.7 38.88,85.7 38.87,85.71 	"/>
	<path class="st0" d="M37.94,86.21c0.03,0,0.07-0.02,0.1-0.02"/>
	<path class="st0" d="M37.92,79.1c0.01,0,0.01,0,0.02,0"/>
	<path class="st0" d="M37.94,86.21c-0.01,0-0.01,0-0.02,0"/>
	<path class="st0" d="M36.62,86.04c-0.01-0.01-0.03-0.02-0.04-0.02l-0.33-0.23"/>
	<path class="st0" d="M36.62,86.04c0.1,0.07,0.22,0.12,0.35,0.14"/>
	<path class="st0" d="M38.03,79.12c-0.03-0.01-0.07-0.02-0.1-0.02"/>
	<path class="st0" d="M36.62,79.27c0.1-0.07,0.22-0.12,0.35-0.14"/>
	<path class="st0" d="M38.03,86.19c0.12-0.02,0.24-0.07,0.34-0.14"/>
	<path class="st0" d="M38.38,79.26c-0.11-0.07-0.22-0.12-0.34-0.14"/>
	<path class="st0" d="M38.87,85.71l-0.45,0.31c-0.02,0.01-0.03,0.02-0.05,0.03"/>
	<polyline class="st0" points="36.11,79.61 36.11,79.61 35.68,79.8 35.68,85.51 36.11,85.7 36.11,85.7 	"/>
	<path class="st0" d="M38.87,79.6l-0.45-0.31c-0.02-0.01-0.03-0.02-0.05-0.03"/>
	<path class="st0" d="M36.24,79.52l0.33-0.23c0.01-0.01,0.03-0.02,0.04-0.02"/>
	<path class="st0" d="M36.96,79.12c0.04-0.01,0.08-0.03,0.12-0.03"/>
	<line class="st0" x1="36.11" y1="85.7" x2="36.24" y2="85.79"/>
	<line class="st0" x1="36.11" y1="79.61" x2="36.24" y2="79.52"/>
	<polyline class="st0" points="38.88,85.7 39.32,85.51 39.32,79.8 38.88,79.61 	"/>
	<polyline class="st0" points="38.87,79.6 38.88,79.61 38.88,79.61 	"/>
	<path class="st0" d="M36.96,86.19c0.04,0.01,0.08,0.03,0.12,0.03"/>
	<rect x="34.88" y="82.3" class="st0" width="0.19" height="0.71"/>
	<line class="st0" x1="36.11" y1="85.7" x2="36.11" y2="79.61"/>
	<line class="st0" x1="36.62" y1="86.05" x2="36.62" y2="86.05"/>
	<line class="st0" x1="36.62" y1="79.26" x2="36.62" y2="79.27"/>
	<line class="st0" x1="36.62" y1="86.04" x2="36.62" y2="79.27"/>
	<line class="st0" x1="36.96" y1="79.12" x2="36.96" y2="86.19"/>
	<line class="st0" x1="36.96" y1="79.11" x2="36.96" y2="79.12"/>
	<path class="st0" d="M36.41,76.48c-0.02-0.02-0.05-0.03-0.05-0.06v-1.08"/>
	<path class="st0" d="M36.58,76.54c-0.05-0.01-0.12-0.03-0.17-0.07"/>
	<path class="st0" d="M37.02,74.8c0,0-0.67,0.02-0.67,0.25v0.29"/>
	<line class="st0" x1="37.02" y1="77.03" x2="37.02" y2="77.74"/>
	<line class="st0" x1="37.02" y1="73.81" x2="37.02" y2="73.98"/>
	<line class="st0" x1="37.02" y1="72.69" x2="37.02" y2="72.94"/>
	<line class="st0" x1="37.02" y1="73.44" x2="37.02" y2="72.94"/>
	<line class="st0" x1="37.02" y1="74.8" x2="37.02" y2="77.03"/>
	<line class="st0" x1="37.02" y1="73.98" x2="37.02" y2="74.8"/>
	<line class="st0" x1="37.02" y1="73.81" x2="37.02" y2="73.44"/>
	<line class="st0" x1="37.02" y1="72.94" x2="37.02" y2="72.94"/>
	<path class="st0" d="M36.35,72.74c0.01-0.01,0.02-0.03,0.05-0.04"/>
	<path class="st0" d="M36.4,72.69c0.16-0.08,0.57-0.13,1.06-0.13c0.63,0,1.14,0.09,1.14,0.2"/>
	<line class="st0" x1="36.32" y1="72.76" x2="36.32" y2="72.76"/>
	<path class="st0" d="M36.32,72.76c0-0.01,0.02-0.02,0.03-0.03"/>
	<path class="st0" d="M36.32,72.76L36.32,72.76c0,0.01,0.02,0.02,0.03,0.03"/>
	<path class="st0" d="M37.5,71.48c0.61,0,1.1,0.09,1.1,0.19v1.09c0,0.08-0.25,0.14-0.62,0.17"/>
	<path class="st0" d="M36.35,72.79c0.07,0.06,0.32,0.12,0.67,0.15"/>
	<path class="st0" d="M37.5,71.48c-0.01,0-0.03,0-0.04,0c-0.25,0-0.46,0.02-0.65,0.04"/>
	<path class="st0" d="M36.32,72.33v-0.65c0-0.06,0.2-0.12,0.48-0.16"/>
	<line class="st0" x1="37.02" y1="72.94" x2="37.02" y2="72.94"/>
	<line class="st0" x1="36.32" y1="72.33" x2="36.32" y2="72.76"/>
	<path class="st0" d="M37.02,73.98H36.3c-0.27,0-0.49-0.22-0.49-0.49v-1.05c0-0.02-0.02-0.07-0.07-0.11
		c-0.03-0.03-0.1-0.07-0.21-0.06l-1.12,0.16"/>
	<line class="st0" x1="37.03" y1="73.98" x2="37.02" y2="73.98"/>
	<path class="st0" d="M34.32,71.87v0.38l1.18-0.14c0.17-0.03,0.29,0.05,0.35,0.09c0.08,0.07,0.13,0.16,0.13,0.24v1.05
		c0,0.18,0.14,0.32,0.32,0.32h0.72"/>
	<line class="st0" x1="37.02" y1="73.81" x2="37.03" y2="73.81"/>
	<line class="st0" x1="37.02" y1="73.44" x2="37.03" y2="73.44"/>
	<polyline class="st0" points="36.35,72.79 36.35,73.44 37.02,73.44 	"/>
	<path class="st0" d="M36.32,72.33c-0.07-0.34-0.43-0.66-0.88-0.59l-0.86,0.09V71.3"/>
	<path class="st0" d="M36.35,72.74v-0.29c0-0.04-0.02-0.08-0.03-0.12"/>
	<line class="st0" x1="36.35" y1="72.79" x2="36.35" y2="72.74"/>
	<line class="st0" x1="36.81" y1="70.92" x2="36.98" y2="71.18"/>
	<line class="st0" x1="36.81" y1="70.92" x2="35.04" y2="68.32"/>
	<line class="st0" x1="36.73" y1="69.52" x2="36.65" y2="69.52"/>
	<polyline class="st0" points="36.65,69.52 36.49,69.52 36.49,68.97 36.3,68.97 36.3,69.45 37.34,71.05 	"/>
	<path class="st0" d="M37.49,70.58c-0.06,0.02-0.15-0.01-0.18-0.06l-0.66-1"/>
	<line class="st0" x1="36.65" y1="69.52" x2="36.65" y2="69.52"/>
	<path class="st0" d="M37.5,69.94c0.23,0,0.42-0.11,0.42-0.24c0-0.14-0.19-0.24-0.42-0.24"/>
	<path class="st0" d="M37.5,69.94L37.5,69.94c-0.23,0-0.41-0.11-0.41-0.24c0-0.14,0.18-0.24,0.41-0.24l0,0"/>
	<path class="st0" d="M30.42,74.01l-0.15-0.03c-0.04-0.01-0.16,0.09-0.28,0.14c-0.16,0.06-0.31,0.08-0.25,0.09
		c0.5,0.12,0.93,0.18,0.93,0.18c0.08,0.01-0.08-0.09-0.15-0.19C30.45,74.11,30.49,74.02,30.42,74.01z"/>
	<line class="st0" x1="0.35" y1="67.77" x2="23.22" y2="68.7"/>
	<line class="st0" x1="23.78" y1="73.14" x2="0.49" y2="70.98"/>
	<polyline class="st0" points="36.44,71.59 36.44,70.96 36.03,70.96 36.03,71.87 	"/>
	<line class="st0" x1="36.32" y1="72.05" x2="36.21" y2="72.05"/>
	<path class="st0" d="M37.01,75.61c0,0-0.17-0.58-0.59-0.6"/>
	<polyline class="st0" points="13.02,79.19 13.02,80.24 13.25,80.24 	"/>
	<path class="st0" d="M13.6,73.19v3.99c0,0-0.04,0.46-0.45,0.79c-0.09,0.07-0.13,0.21-0.13,0.33v0.88"/>
	<line class="st0" x1="15.76" y1="80.24" x2="15.66" y2="80.24"/>
	<polyline class="st0" points="15.53,79.19 15.53,80.24 15.66,80.24 	"/>
	<path class="st0" d="M15.53,79.19v-0.32c0-0.14-0.09-0.36-0.23-0.36h-1.52c-0.16,0-0.32,0.2-0.32,0.36v1.38h-0.11"/>
	<line class="st0" x1="13.25" y1="80.24" x2="13.35" y2="80.24"/>
	<path class="st0" d="M15.38,76.31v0.87c0,0,0.04,0.46,0.45,0.79c0.09,0.07,0.13,0.21,0.13,0.33v1.94h-0.21"/>
	<line class="st0" x1="15.38" y1="75.07" x2="15.38" y2="73.4"/>
	<path class="st0" d="M15,74.83c0,0-0.25-0.34-0.46-0.31c-0.21,0.03-0.4,0.12-0.57,0.45v-1.73"/>
	<line class="st0" x1="15.01" y1="74.83" x2="15" y2="74.83"/>
	<line class="st0" x1="15.04" y1="73.37" x2="15.04" y2="74.74"/>
	<line class="st0" x1="13.02" y1="79.19" x2="13.44" y2="79.19"/>
	<line class="st0" x1="13.02" y1="79.19" x2="13.02" y2="79.19"/>
	<line class="st0" x1="15.53" y1="79.19" x2="15.52" y2="79.19"/>
	<line class="st0" x1="15.53" y1="79.19" x2="15.94" y2="79.19"/>
	<line class="st0" x1="14.79" y1="85.16" x2="14.18" y2="85.16"/>
	<line class="st0" x1="14.81" y1="79.86" x2="14.19" y2="79.86"/>
	<path class="st0" d="M14.37,78.49c-0.11-0.01-0.24-0.14-0.24-0.26v0"/>
	<path class="st0" d="M13.75,76.24c0,0,0.01,0.37,0.38,0.68v0.69"/>
	<line class="st0" x1="14.13" y1="78.22" x2="14.13" y2="77.6"/>
	<polyline class="st0" points="14.85,77.6 14.85,78.22 14.85,78.22 	"/>
	<path class="st0" d="M14.85,78.22c0,0.11-0.08,0.23-0.17,0.27"/>
	<line class="st0" x1="14.85" y1="77.6" x2="14.85" y2="76.76"/>
	<path class="st0" d="M22.01,74.52c-0.07-0.02-0.14-0.02-0.21-0.01l-3.57,0.51c-0.12,0.02-0.29,0.11-0.24,0.27l0.33,0.25
		c0.11,0.08,0.26,0.12,0.39,0.1l3.11-0.45c0.13-0.02,0.27-0.17,0.27-0.3"/>
	<line class="st0" x1="22.01" y1="74.52" x2="22.01" y2="74.52"/>
	<path class="st0" d="M37.5,59.5c-3.44,0-6.05,2.4-6.05,5.02c0,2.28,2.6,3.52,6.05,3.52"/>
	<path class="st0" d="M28.84,46l-2.32,4.8c-0.16,0.32,0.02,0.43,0.17,0.44c5.92,0.31,9.76,0.21,9.76,0.21
		c0.18-0.01,0.46-0.1,0.46-0.29v-5.84c0-0.15-0.22-0.25-0.37-0.25c-4.66,0.04-7.18,0.53-7.18,0.53C29.15,45.65,28.93,45.81,28.84,46
		z"/>
	<path class="st0" d="M25.76,46.96c-0.06,0.05-0.1,0.08-0.1,0.08s-1.25,1.84-1.78,3.53"/>
	<path class="st0" d="M25.76,46.96c0.25-0.21,1.03-0.79,2.31-1.04c0.06-0.01,0.19-0.02,0.1,0.14L26,50.7
		c-0.09,0.19-0.38,0.44-0.59,0.42l-1.64-0.17c0.03-0.12,0.08-0.25,0.11-0.38"/>
	<line class="st0" x1="37.48" y1="51.9" x2="23.47" y2="51.9"/>
	<line class="st0" x1="23.47" y1="51.9" x2="23.39" y2="51.9"/>
	<line class="st0" x1="21.65" y1="50.01" x2="24.05" y2="50.01"/>
	<line class="st0" x1="21.66" y1="46.06" x2="21.69" y2="46.06"/>
	<path class="st0" d="M21.69,46.06c-0.82-2.96-3.5-5.22-6.67-5.22c-3.83,0-6.94,3.29-6.94,7.12c0,1.75,0.47,4.11,1.68,5.73
		c1.28,1.72,3.36,2.65,5.21,2.62c5.73-0.06,6.62-5.95,6.62-5.95l0.07-0.35h0"/>
	<line class="st0" x1="21.69" y1="46.06" x2="26.43" y2="46.06"/>
	<path class="st0" d="M21.65,50.01c-0.03,0.21-0.07,0.35-0.07,0.35"/>
	<path class="st0" d="M21.66,46.06c-0.73,0.38-0.13,1.33,0.02,2.31c0.1,0.63,0.03,1.27-0.03,1.65"/>
	<path class="st0" d="M19.53,47.75c0-2.53-2.05-4.59-4.58-4.59c-2.53,0-4.59,2.05-4.59,4.59c0,2.53,2.06,4.59,4.59,4.59
		C17.47,52.34,19.53,50.29,19.53,47.75z"/>
	<path class="st0" d="M18.95,48.53c-0.1,0.54-0.31,1.04-0.6,1.48"/>
	<path class="st0" d="M17.19,44.34c0.89,0.59,1.54,1.51,1.76,2.59"/>
	<path class="st0" d="M15.76,51.76c0.54-0.11,1.03-0.32,1.47-0.62"/>
	<path class="st0" d="M18.95,48.53c0.05-0.25,0.08-0.51,0.08-0.77c0-0.28-0.03-0.56-0.08-0.82"/>
	<path class="st0" d="M12.69,51.16c-1.11-0.73-1.84-1.98-1.84-3.41c0-0.27,0.03-0.52,0.08-0.78"/>
	<path class="st0" d="M11.53,45.5c0.3-0.45,0.68-0.83,1.12-1.14"/>
	<path class="st0" d="M11.53,45.5c-0.29,0.44-0.5,0.94-0.6,1.48"/>
	<path class="st0" d="M14.12,43.75c-0.54,0.11-1.03,0.32-1.47,0.62"/>
	<path class="st0" d="M14.12,43.75c0.27-0.05,0.54-0.08,0.82-0.08c0.27,0,0.52,0.03,0.78,0.08"/>
	<path class="st0" d="M14.17,51.76c0.25,0.05,0.51,0.08,0.77,0.08c0.28,0,0.56-0.03,0.82-0.08"/>
	<path class="st0" d="M18.35,50c-0.3,0.45-0.68,0.84-1.12,1.14"/>
	<path class="st0" d="M14.17,51.76c-0.54-0.1-1.04-0.31-1.48-0.6"/>
	<path class="st0" d="M15.72,43.74c0.54,0.1,1.03,0.31,1.47,0.6"/>
	<path class="st0" d="M20.54,47.87c0-3.09-2.51-5.6-5.6-5.6c-3.09,0-5.6,2.51-5.6,5.6c0,3.09,2.5,5.6,5.6,5.6
		C18.03,53.47,20.54,50.96,20.54,47.87z"/>
	<line class="st0" x1="15.72" y1="43.74" x2="15.72" y2="43.74"/>
	<path class="st0" d="M14.88,46.58l0.42,0.1c0.2-0.99,0.04-1.04,0.11-1.79c0.08-0.73,0.29-1.13,0.3-1.15"/>
	<path class="st0" d="M14.44,46.69l0.42-0.07c-0.2-0.99-0.36-0.98-0.58-1.69c-0.21-0.71-0.17-1.17-0.17-1.18"/>
	<path class="st0" d="M14.07,46.97l0.37-0.23c-0.57-0.84-0.71-0.77-1.19-1.35c-0.47-0.58-0.6-1.02-0.6-1.02"/>
	<line class="st0" x1="11.53" y1="45.5" x2="11.53" y2="45.5"/>
	<path class="st0" d="M13.84,47.36L14.09,47c-0.84-0.56-0.95-0.44-1.61-0.79c-0.64-0.35-0.94-0.7-0.95-0.71"/>
	<path class="st0" d="M13.77,47.81l0.1-0.42c-0.99-0.19-1.04-0.04-1.79-0.11c-0.73-0.08-1.14-0.29-1.15-0.3"/>
	<line class="st0" x1="10.93" y1="46.98" x2="10.93" y2="46.97"/>
	<path class="st0" d="M10.94,48.57c0,0,0.46,0.05,1.18-0.17c0.72-0.21,0.71-0.38,1.7-0.58l0.07,0.43"/>
	<path class="st0" d="M11.56,50.04c0,0,0.45-0.14,1.02-0.61c0.58-0.47,0.51-0.62,1.35-1.18l0.23,0.37"/>
	<line class="st0" x1="12.69" y1="51.16" x2="12.69" y2="51.16"/>
	<path class="st0" d="M14.55,48.85l-0.36-0.25c-0.56,0.84-0.44,0.95-0.79,1.61c-0.35,0.65-0.7,0.94-0.71,0.95"/>
	<line class="st0" x1="14.17" y1="51.76" x2="14.17" y2="51.76"/>
	<path class="st0" d="M15,48.92l-0.42-0.09c-0.19,0.99-0.04,1.04-0.11,1.79c-0.08,0.73-0.29,1.14-0.29,1.15"/>
	<path class="st0" d="M15.44,48.81l-0.42,0.08c0.2,0.99,0.37,0.98,0.58,1.69c0.21,0.71,0.17,1.17,0.17,1.18"/>
	<path class="st0" d="M17.23,51.14c0,0-0.14-0.45-0.61-1.03c-0.47-0.58-0.62-0.51-1.18-1.34l0.37-0.23"/>
	<line class="st0" x1="17.23" y1="51.14" x2="17.23" y2="51.14"/>
	<line class="st0" x1="18.35" y1="50" x2="18.35" y2="50"/>
	<path class="st0" d="M16.05,48.14L15.8,48.5c0.84,0.55,0.95,0.44,1.61,0.79c0.65,0.35,0.94,0.7,0.95,0.71"/>
	<line class="st0" x1="18.95" y1="48.53" x2="18.96" y2="48.53"/>
	<path class="st0" d="M16.11,47.69l-0.1,0.42c0.99,0.19,1.05,0.04,1.79,0.12c0.74,0.08,1.15,0.29,1.15,0.29"/>
	<line class="st0" x1="18.95" y1="46.93" x2="18.95" y2="46.93"/>
	<path class="st0" d="M16,47.25l0.07,0.42c0.99-0.2,0.99-0.36,1.7-0.58c0.71-0.21,1.18-0.17,1.18-0.17"/>
	<path class="st0" d="M18.33,45.46c0,0-0.44,0.14-1.02,0.61c-0.58,0.47-0.51,0.62-1.35,1.18l-0.23-0.37"/>
	<line class="st0" x1="17.19" y1="44.34" x2="17.2" y2="44.34"/>
	<path class="st0" d="M15.34,46.65l0.35,0.25c0.56-0.84,0.44-0.95,0.79-1.61c0.35-0.65,0.7-0.94,0.71-0.95"/>
	<path class="st0" d="M23.97,61.36c2.73,6.97,9.9,7.5,9.9,7.5"/>
	<path class="st0" d="M37.5,40.98c-5.38,0.16-8.9,2.42-11.14,5.2"/>
	<path class="st0" d="M23.97,61.36c-0.62-1.59-1.02-3.51-1.04-5.83c-0.01-0.97,0.15-2.25,0.53-3.63"/>
	<path class="st0" d="M23.89,50.58c-0.17,0.45-0.3,0.89-0.42,1.32"/>
	<path class="st0" d="M25.76,46.96c-0.82,1.18-1.44,2.41-1.88,3.62"/>
	<path class="st0" d="M25.76,46.96c0.18-0.26,0.39-0.52,0.59-0.77"/>
	<path class="st0" d="M26.19,46.37c0,0,0.04-0.07,0.17-0.18"/>
	<path class="st0" d="M37.49,44.61c-2.87,0.01-4.9,0.11-6.49,0.28c-3.18,0.35-4.28,0.99-4.64,1.29"/>
	<path class="st0" d="M35.04,10.72c-0.48,0.24-0.89,0.54-0.89,1.16c0,0.63,0.42,1.21,0.88,1.43"/>
	<line class="st0" x1="37.51" y1="16.36" x2="37.5" y2="16.36"/>
	<path class="st0" d="M35.57,16.58c0.17-0.16,1.85-0.22,1.93-0.22"/>
	<path class="st0" d="M35.57,12.9c0.22-0.61,1.92-0.54,1.92-0.54"/>
	<path class="st0" d="M37.49,37.78c-0.25,0-0.4,0.24-0.4,0.24c-0.26,0.43-0.4,0.92-0.48,1.41c0,0.03-0.01,0.06-0.01,0.1
		c0,0.22,0.14,0.41,0.32,0.46c0.19,0.04,0.38,0.07,0.58,0.07"/>
	<path class="st0" d="M35.84,41.12c0,0,0.59-10.55,1.66-10.55"/>
	<path class="st0" d="M7.9,80.01c0,0,0.17-0.4,0.39-0.77c0.21-0.36,0.46-0.7,0.46-0.7"/>
	<path class="st0" d="M15.17,76.21l1.19-0.22c0.09-0.02,0.14-0.15,0.13-0.24l-0.07-0.42c-0.01-0.08-0.09-0.18-0.17-0.17l-1.18,0.1"
		/>
	<line class="st0" x1="14.87" y1="73.89" x2="14.89" y2="73.89"/>
	<line class="st0" x1="14.12" y1="73.89" x2="14.87" y2="73.89"/>
	<line class="st0" x1="15.01" y1="74.83" x2="15" y2="74.83"/>
	<line class="st0" x1="14.87" y1="73.89" x2="14.87" y2="73.35"/>
	<path class="st0" d="M14.87,73.89v0.27c0,0.23,0.05,0.46,0.13,0.67"/>
	<path class="st0" d="M14,74.91c0.07-0.23,0.11-0.49,0.11-0.73v-0.92"/>
	<line class="st0" x1="36.71" y1="69.01" x2="37.49" y2="69.01"/>
	<line class="st0" x1="36.44" y1="71.35" x2="36.75" y2="71.35"/>
	<line class="st0" x1="36.81" y1="70.92" x2="36.81" y2="70.86"/>
	<line class="st0" x1="36.81" y1="71.52" x2="36.81" y2="70.92"/>
	<line class="st0" x1="34.88" y1="71.78" x2="34.88" y2="71.04"/>
	<line class="st0" x1="34.4" y1="72.44" x2="34.32" y2="72.25"/>
	<line class="st0" x1="36.6" y1="73.33" x2="36.6" y2="72.9"/>
	<path class="st0" d="M36.01,69.83c0,0-0.53-0.04-0.95-0.07"/>
	<path class="st0" d="M35.75,69.37c0,0-0.3,0.01-0.72-0.03"/>
	<path class="st0" d="M35.5,69.01c0,0-0.12,0.03-0.51-0.01"/>
	<line class="st0" x1="36.49" y1="69.85" x2="35.32" y2="68.16"/>
	<line class="st0" x1="64.51" y1="79.91" x2="64.51" y2="88.24"/>
	<line class="st0" x1="61.75" y1="80.24" x2="61.75" y2="88.23"/>
	<path class="st0" d="M64.51,79.91c0.09,0.24,0.14,0.49,0.14,0.74v6.95c0,0.22-0.05,0.44-0.14,0.64"/>
	<path class="st0" d="M61.65,80.24c-0.03,0.14-0.04,0.28-0.04,0.42v6.94c0,0.22,0.05,0.44,0.14,0.64"/>
	<path class="st0" d="M61.98,79.64c0.08-0.08,0.19-0.15,0.3-0.2v0.15l0.19-0.07v-0.16c0.17-0.06,0.36-0.1,0.57-0.11v0.14h0"/>
	<path class="st0" d="M64.51,79.91c-0.12-0.2-0.31-0.37-0.55-0.49v0.16l-0.19-0.07v-0.17c-0.17-0.06-0.36-0.1-0.55-0.11v0.14h-0.19"
		/>
	<path class="st0" d="M61.75,88.23c0.11,0.2,0.3,0.37,0.54,0.49v-0.15l0.19,0.07v0.16c0.17,0.07,0.36,0.1,0.57,0.11v-0.14h0"/>
	<path class="st0" d="M64.51,88.24c-0.12,0.2-0.31,0.37-0.55,0.49v-0.16l-0.19,0.07v0.17c-0.17,0.06-0.36,0.1-0.55,0.11v-0.14h-0.19
		"/>
	<line class="st0" x1="63.78" y1="88.64" x2="63.78" y2="79.52"/>
	<line class="st0" x1="63.97" y1="88.57" x2="63.97" y2="79.59"/>
	<line class="st0" x1="63.04" y1="79.38" x2="63.04" y2="88.78"/>
	<line class="st0" x1="63.22" y1="88.78" x2="63.22" y2="79.38"/>
	<line class="st0" x1="62.28" y1="79.59" x2="62.28" y2="88.57"/>
	<line class="st0" x1="62.47" y1="79.52" x2="62.47" y2="88.64"/>
	<line class="st0" x1="60.87" y1="78.22" x2="61.93" y2="78.22"/>
	<line class="st0" x1="60.87" y1="78.22" x2="60.87" y2="78.22"/>
	<path class="st0" d="M61.73,78.08c-0.61-0.24-0.84-0.45-0.87-0.48"/>
	<polyline class="st0" points="60.66,77.59 60.85,77.59 60.87,77.6 	"/>
	<polyline class="st0" points="60.85,80.24 61.4,80.24 61.4,78.71 60.85,78.71 	"/>
	<line class="st0" x1="60.85" y1="80.24" x2="60.85" y2="78.71"/>
	<path class="st0" d="M60.54,78.86h0.14c0.08,0,0.17-0.08,0.18-0.15"/>
	<line class="st0" x1="59.08" y1="78.22" x2="60.15" y2="78.22"/>
	<line class="st0" x1="60.15" y1="78.22" x2="60.15" y2="78.22"/>
	<polyline class="st0" points="60.35,77.59 60.16,77.59 60.15,77.6 	"/>
	<path class="st0" d="M60.15,77.6c-0.04,0.04-0.27,0.25-0.87,0.48"/>
	<polyline class="st0" points="60.16,78.71 59.62,78.71 59.62,80.24 60.16,80.24 	"/>
	<line class="st0" x1="60.16" y1="80.24" x2="60.16" y2="78.71"/>
	<path class="st0" d="M60.47,78.86h-0.14c-0.07,0-0.16-0.08-0.17-0.15"/>
	<line class="st0" x1="60.47" y1="78.86" x2="60.54" y2="78.86"/>
	<path class="st0" d="M61.27,80.24v3.07c-0.14,0.39-0.42,0.89-0.5,1.04c-0.08,0.15-0.09,0.29-0.09,0.29
		c-0.01,0.15,0.17,0.33,0.32,0.32"/>
	<line class="st0" x1="61.37" y1="85.74" x2="61.37" y2="84.86"/>
	<polyline class="st0" points="61.37,85.74 61.37,85.92 61.61,85.92 61.61,84.74 61.37,84.74 61.37,84.86 	"/>
	<polyline class="st0" points="61.15,85.44 61.15,85.74 61.37,85.74 	"/>
	<line class="st0" x1="61.15" y1="85.18" x2="61.15" y2="85.44"/>
	<polyline class="st0" points="61.37,85.74 61.38,85.74 61.38,84.86 61.37,84.86 	"/>
	<polyline class="st0" points="61.15,85.18 61.15,84.86 61.37,84.86 	"/>
	<polyline class="st0" points="61.15,85.44 61.19,85.44 61.19,85.18 61.15,85.18 	"/>
	<polyline class="st0" points="61.15,85.18 60.98,85.18 60.98,85.44 61.15,85.44 	"/>
	<line class="st0" x1="56.47" y1="79.91" x2="56.47" y2="88.24"/>
	<line class="st0" x1="59.24" y1="80.24" x2="59.24" y2="88.23"/>
	<path class="st0" d="M56.47,79.91c-0.09,0.24-0.14,0.49-0.14,0.74v6.95c0,0.22,0.04,0.44,0.14,0.64"/>
	<path class="st0" d="M59.34,80.24c0.03,0.14,0.04,0.28,0.04,0.42v6.94c0,0.22-0.05,0.44-0.14,0.64"/>
	<path class="st0" d="M56.47,79.91c0.12-0.2,0.31-0.37,0.55-0.49v0.16l0.19-0.07v-0.17c0.17-0.06,0.35-0.1,0.55-0.11v0.14h0.19"/>
	<path class="st0" d="M59.01,79.64c-0.09-0.08-0.19-0.15-0.31-0.2v0.15l-0.19-0.07v-0.16c-0.17-0.06-0.36-0.1-0.56-0.11v0.14h0"/>
	<path class="st0" d="M59.24,88.23c-0.11,0.2-0.3,0.37-0.54,0.49v-0.15l-0.19,0.07v0.16c-0.17,0.07-0.36,0.1-0.56,0.11v-0.14h0"/>
	<path class="st0" d="M57.95,88.78h-0.19v0.14c-0.2-0.01-0.38-0.05-0.55-0.11v-0.17l-0.19-0.07v0.16c-0.24-0.12-0.43-0.29-0.55-0.49
		"/>
	<line class="st0" x1="57.21" y1="79.52" x2="57.21" y2="88.64"/>
	<line class="st0" x1="57.02" y1="79.59" x2="57.02" y2="88.57"/>
	<line class="st0" x1="57.95" y1="79.38" x2="57.95" y2="88.78"/>
	<line class="st0" x1="57.76" y1="79.38" x2="57.76" y2="88.78"/>
	<line class="st0" x1="58.7" y1="88.57" x2="58.7" y2="79.59"/>
	<line class="st0" x1="58.51" y1="88.64" x2="58.51" y2="79.52"/>
	<path class="st0" d="M59.92,84.98c0.17,0.03,0.39-0.17,0.38-0.34c0,0-0.01-0.14-0.09-0.29c-0.08-0.15-0.36-0.65-0.5-1.04v-3.07"/>
	<polyline class="st0" points="59.61,84.86 59.61,84.74 59.38,84.74 59.38,85.92 59.61,85.92 59.61,85.74 	"/>
	<line class="st0" x1="59.61" y1="84.86" x2="59.61" y2="85.74"/>
	<polyline class="st0" points="59.84,85.44 59.84,85.74 59.61,85.74 	"/>
	<polyline class="st0" points="59.61,84.86 59.84,84.86 59.84,85.18 	"/>
	<polyline class="st0" points="59.61,84.86 59.61,84.86 59.61,85.74 59.61,85.74 	"/>
	<line class="st0" x1="59.84" y1="85.44" x2="59.84" y2="85.18"/>
	<polyline class="st0" points="59.84,85.18 59.79,85.18 59.79,85.44 59.84,85.44 	"/>
	<polyline class="st0" points="59.84,85.44 60,85.44 60,85.18 59.84,85.18 	"/>
	<path class="st0" d="M61.23,80.29c0,0-0.17,0.3-0.51-0.02"/>
	<path class="st0" d="M60.26,80.27c-0.34,0.32-0.51,0.02-0.51,0.02"/>
	<path class="st0" d="M60.7,76.5c0.38,0,0.69-0.31,0.69-0.68c0-0.37-0.29-0.66-0.65-0.68c-0.01,0-0.02,0-0.03,0
		c-0.38,0-0.68,0.3-0.68,0.68C60.01,76.2,60.32,76.5,60.7,76.5z"/>
	<path class="st0" d="M58.96,75.05c0.24,0,0.44-0.2,0.44-0.44s-0.2-0.44-0.44-0.44c-0.24,0-0.44,0.2-0.44,0.44
		c0,0.24,0.19,0.43,0.42,0.44H58.96L58.96,75.05"/>
	<line class="st0" x1="60.73" y1="75.14" x2="58.96" y2="75.05"/>
	<line class="st0" x1="58.94" y1="75.05" x2="58.96" y2="75.05"/>
	<line class="st0" x1="57.96" y1="76.01" x2="57.83" y2="75.98"/>
	<line class="st0" x1="59.62" y1="76.31" x2="57.96" y2="76.01"/>
	<line class="st0" x1="60.62" y1="76.5" x2="59.62" y2="76.31"/>
	<path class="st0" d="M57.66,75.96l-4.93-0.67c-0.08-0.01-0.18,0-0.26,0.04l-0.51-0.08"/>
	<line class="st0" x1="51.96" y1="75.24" x2="51.96" y2="75.24"/>
	<line class="st0" x1="57.83" y1="75.98" x2="57.66" y2="75.96"/>
	<path class="st0" d="M57.62,75.5c0,0.17,0.14,0.31,0.31,0.31c0.18,0,0.32-0.14,0.32-0.31c0-0.18-0.14-0.32-0.32-0.32
		C57.76,75.18,57.62,75.32,57.62,75.5z"/>
	<path class="st0" d="M57.96,76.01c0.26-0.03,0.46-0.24,0.46-0.51c0-0.29-0.23-0.52-0.52-0.52c-0.29,0-0.52,0.23-0.52,0.52
		c0,0.21,0.12,0.38,0.29,0.46"/>
	<path class="st0" d="M57.66,75.96c0.07,0.04,0.15,0.06,0.23,0.06c0.02,0,0.04-0.01,0.07-0.01"/>
	<line class="st0" x1="53.05" y1="74.34" x2="53.04" y2="74.34"/>
	<line class="st0" x1="57.89" y1="74.98" x2="53.05" y2="74.34"/>
	<line class="st0" x1="52.99" y1="74.52" x2="52.76" y2="75.16"/>
	<line class="st0" x1="53.05" y1="74.34" x2="53.12" y2="74.16"/>
	<line class="st0" x1="53.05" y1="74.34" x2="52.99" y2="74.52"/>
	<line class="st0" x1="53.89" y1="74.07" x2="53.88" y2="74.07"/>
	<line class="st0" x1="56.2" y1="74.65" x2="53.89" y2="74.07"/>
	<line class="st0" x1="56.22" y1="73.8" x2="56.41" y2="73.85"/>
	<path class="st0" d="M56.41,73.85c0.13,0-0.09,0.82-0.21,0.8"/>
	<path class="st0" d="M57.13,74.59c0.19,0.14,0.28,0.04,0.32-0.06l1.07,0.08"/>
	<line class="st0" x1="57.13" y1="74.59" x2="56.77" y2="74.12"/>
	<line class="st0" x1="56.44" y1="74.04" x2="56.77" y2="74.12"/>
	<line class="st0" x1="66.16" y1="72.63" x2="62.41" y2="73.07"/>
	<line class="st0" x1="53.89" y1="74.07" x2="59.62" y2="73.4"/>
	<line class="st0" x1="59.62" y1="73.4" x2="60.89" y2="73.25"/>
	<line class="st0" x1="67.78" y1="72.44" x2="74.56" y2="71.65"/>
	<line class="st0" x1="52.58" y1="74.22" x2="53.89" y2="74.07"/>
	<line class="st0" x1="66.16" y1="72.63" x2="66.65" y2="72.57"/>
	<line class="st0" x1="67.78" y1="72.44" x2="66.65" y2="72.57"/>
	<line class="st0" x1="60.89" y1="73.25" x2="62.41" y2="73.07"/>
	<path class="st0" d="M49.28,69.07c-0.61,1.33-1.39,2.73-0.76,3.17c0.37,0.26,0.84,0.49,1.17,0.63"/>
	<path class="st0" d="M49.7,72.88c0.23,0.11,0.4,0.17,0.4,0.17c0.39,0.11,1.13,0.09,1.13,0.09"/>
	<path class="st0" d="M51.55,67.4c0.26,0.33,0.69,0.57,1.07,0.56l22.13-0.83"/>
	<path class="st0" d="M51.55,67.4c-0.1-0.13-0.18-0.26-0.22-0.41"/>
	<path class="st0" d="M49.28,69.07c0.61-1.33,0.84-1.78,1.2-2.81c0.41-1.18,0.76,0.37,0.85,0.73"/>
	<path class="st0" d="M68.21,73.92c-0.17-0.64-0.17-0.71-0.29-0.97c-0.06-0.13-0.11-0.33-0.14-0.5"/>
	<path class="st0" d="M68.3,72.38l-0.09,1.53c-0.11,0.37-0.45,0.65-0.86,0.65c-0.33,0-0.62-0.19-0.77-0.46"/>
	<line class="st0" x1="66.16" y1="72.63" x2="66.16" y2="72.63"/>
	<path class="st0" d="M66.16,72.63l0.34,1.33h0c0.02,0.05,0.05,0.1,0.08,0.15"/>
	<line class="st0" x1="66.58" y1="74.11" x2="66.58" y2="74.12"/>
	<path class="st0" d="M66.58,74.11c0-0.04-0.01-0.48,0.05-0.81c0.03-0.13,0.03-0.45,0.02-0.73"/>
	<path class="st0" d="M62.26,73.09c0.06,0.14,0.1,0.29,0.06,0.41l4,5.96l0.4,0.28l0.18,0.27c0.06,0.08,0.22,0.06,0.3,0.01l0.33-0.21
		c0.41-0.26,1.07-0.2,1.46,0.1l0.88,0.67l0.06-0.04l-1.46-2.38c-0.38-0.29-1.54-0.27-1.83,0.11l-0.33,0.21
		c-0.08,0.06-0.25,0.08-0.3-0.01l-0.18-0.27l-3.41-5.12"/>
	<line class="st0" x1="62.41" y1="73.07" x2="62.41" y2="73.07"/>
	<line class="st0" x1="38.64" y1="75.34" x2="38.64" y2="75.34"/>
	<path class="st0" d="M47.1,74.14L47.1,74.14c-3.83,1.11-8.42,1.2-8.45,1.2"/>
	<line class="st0" x1="49.7" y1="72.88" x2="49.7" y2="72.88"/>
	<path class="st0" d="M47.1,74.14c0,0,1.5-0.39,2.6-1.27"/>
	<line class="st0" x1="47.71" y1="75.96" x2="47.73" y2="76.02"/>
	<line class="st0" x1="47.1" y1="74.14" x2="47.71" y2="75.96"/>
	<path class="st0" d="M51.3,75.47c-0.8,0.01-1.67-0.4-2.54-0.76c-0.86-0.36-1.48-0.59-1.48-0.59"/>
	<path class="st0" d="M45.97,68.1c-0.16,0.04-0.33,0.09-0.51,0.17c-0.53,0.23-0.49,0.27-2.18,0.81c-0.12,0.04-0.32,0.12-0.3,0.25
		c0.08,0.36,0.24,0.69,0.39,0.94"/>
	<path class="st0" d="M44.52,70.64c-0.27,0.09-0.46,0.13-0.46,0.13c-0.11,0.03-0.27,0.08-0.35-0.01c0,0-0.17-0.19-0.35-0.49"/>
	<path class="st0" d="M44.52,70.64c0.36-0.12,0.87-0.32,1.33-0.62c0.72-0.48,1.33-1.23,1.41-1.71c0.02-0.11-0.11-0.22-0.22-0.24
		c-0.22-0.05-0.62-0.07-1.08,0.04"/>
	<path class="st0" d="M44.59,68.65c-0.49,0.8-0.98,1.38-1.22,1.63"/>
	<line class="st0" x1="43.37" y1="70.27" x2="43.37" y2="70.27"/>
	<line class="st0" x1="45.97" y1="68.1" x2="45.97" y2="68.1"/>
	<path class="st0" d="M45.97,68.1c-0.47,1.1-1.14,2.1-1.44,2.54"/>
	<line class="st0" x1="44.52" y1="70.64" x2="44.52" y2="70.64"/>
	<path class="st0" d="M40.04,70.96c0.37-2.07,0.11-3.14,0.11-3.14"/>
	<path class="st0" d="M41.06,68.83c0.1,1.45-0.3,3.04-0.3,3.04"/>
	<path class="st0" d="M40.14,67.82c0,0,0.59,0.22,0.92,1.01"/>
	<line class="st0" x1="40.75" y1="71.87" x2="40.75" y2="71.87"/>
	<path class="st0" d="M39.93,67.88c0,0,0.29,1-0.12,2.96l0.22,0.12c0,0,0.59,0.27,0.72,0.91"/>
	<line class="st0" x1="39.59" y1="80.14" x2="39.39" y2="82.02"/>
	<line class="st0" x1="39.58" y1="79.54" x2="39.58" y2="79.37"/>
	<line class="st0" x1="39.58" y1="79.54" x2="39.58" y2="80.14"/>
	<path class="st0" d="M39.58,79.37c0-0.16-0.14-0.33-0.3-0.39l-0.91-0.33"/>
	<path class="st0" d="M35.42,79.54c0-0.16,0.14-0.33,0.29-0.39l0.91-0.33l0.33,0.04h1.16l0.27-0.04l0.91,0.33
		c0.15,0.05,0.3,0.22,0.3,0.39"/>
	<path class="st0" d="M36.24,79.52l0.33-0.23c0.01-0.01,0.03-0.02,0.05-0.03"/>
	<polyline class="st0" points="38.88,85.7 38.88,85.7 38.87,85.71 	"/>
	<path class="st0" d="M38.87,79.6l-0.45-0.31c-0.01-0.01-0.03-0.02-0.05-0.03"/>
	<path class="st0" d="M38.87,85.71l-0.45,0.31c-0.01,0.01-0.03,0.02-0.05,0.03"/>
	<polyline class="st0" points="36.24,79.52 36.11,79.61 36.11,79.61 	"/>
	<polyline class="st0" points="36.11,79.61 35.68,79.8 35.68,85.51 36.11,85.7 	"/>
	<polyline class="st0" points="38.88,79.61 39.32,79.8 39.32,85.51 38.88,85.7 	"/>
	<path class="st0" d="M38.03,86.19c0.12-0.02,0.24-0.07,0.34-0.14"/>
	<path class="st0" d="M38.03,79.12c0.12,0.02,0.24,0.07,0.34,0.14"/>
	<polyline class="st0" points="38.87,79.6 38.88,79.61 38.88,79.61 	"/>
	<path class="st0" d="M38.03,86.19c-0.03,0.01-0.07,0.02-0.1,0.02"/>
	<polyline class="st0" points="36.24,85.79 36.11,85.7 36.11,85.7 	"/>
	<path class="st0" d="M37.94,86.21c-0.01,0-0.01,0-0.02,0l0,0"/>
	<path class="st0" d="M36.96,79.12c-0.12,0.02-0.24,0.07-0.35,0.14"/>
	<path class="st0" d="M37.08,79.1L37.08,79.1c-0.04,0-0.08,0.02-0.12,0.03"/>
	<path class="st0" d="M37.92,79.1L37.92,79.1c0.01,0,0.01,0,0.02,0"/>
	<path class="st0" d="M36.62,86.05c-0.01-0.01-0.03-0.02-0.05-0.03l-0.33-0.23"/>
	<path class="st0" d="M37.94,79.1c0.03,0,0.07,0.02,0.1,0.02"/>
	<path class="st0" d="M36.96,86.19c-0.12-0.03-0.24-0.08-0.35-0.14"/>
	<path class="st0" d="M36.96,86.19c0.04,0.01,0.08,0.03,0.11,0.03h0"/>
	<line class="st0" x1="37.08" y1="86.21" x2="37.92" y2="86.21"/>
	<line class="st0" x1="37.92" y1="79.1" x2="37.08" y2="79.1"/>
	<rect x="39.92" y="82.3" class="st0" width="0.19" height="0.71"/>
	<line class="st0" x1="36.92" y1="77.84" x2="38.05" y2="77.84"/>
	<path class="st0" d="M36.92,77.84H36.7c0-0.06,0.36-0.1,0.8-0.11"/>
	<path class="st0" d="M38.05,77.84h0.24c0-0.06-0.35-0.1-0.8-0.11"/>
	<path class="st0" d="M37.5,77.73c-0.01,0-0.02,0-0.03,0c-0.46,0-0.83,0.05-0.83,0.11v0.05l-1.49,0.69
		c-0.12,0.05-0.25,0.18-0.25,0.31v1.64c0,0.07,0.01,0.13,0.02,0.2l0.17,1.15v1.21h0.54"/>
	<path class="st0" d="M37.5,77.73c0.01,0,0.02,0,0.03,0c0.46,0,0.83,0.05,0.83,0.11v0.05l1.49,0.69c0.12,0.05,0.25,0.18,0.25,0.31
		v1.64c0,0.07-0.01,0.13-0.02,0.2l-0.17,1.15v1.21h-0.54"/>
	<line class="st0" x1="38.88" y1="85.7" x2="38.88" y2="79.61"/>
	<line class="st0" x1="38.38" y1="86.05" x2="38.38" y2="79.27"/>
	<line class="st0" x1="38.38" y1="79.26" x2="38.38" y2="79.26"/>
	<line class="st0" x1="38.03" y1="79.11" x2="38.03" y2="79.12"/>
	<line class="st0" x1="38.03" y1="79.12" x2="38.03" y2="86.19"/>
	<path class="st0" d="M37.98,74.8c0,0,0.67,0.02,0.67,0.25v0.29"/>
	<path class="st0" d="M38.59,76.48c-0.05,0.03-0.11,0.05-0.17,0.07"/>
	<path class="st0" d="M38.64,75.34v1.08c0,0.03-0.03,0.04-0.05,0.06"/>
	<path class="st0" d="M37.02,77.03c0,0,0-0.46-0.45-0.54l-0.07-0.02c0,0-0.04,0-0.09,0"/>
	<path class="st0" d="M36.41,76.48c-0.53,0.02-3.59,0.07-9.12-0.52"/>
	<path class="st0" d="M27.29,75.96c-0.93-0.1-1.93-0.21-3-0.35c-0.37-0.05-0.59-0.14-1.25-0.37"/>
	<path class="st0" d="M23.04,75.24c-0.14-0.05-0.29-0.1-0.48-0.16"/>
	<path class="st0" d="M51.96,75.24c-0.66,0.23-0.88,0.32-1.25,0.37c-1.07,0.14-2.07,0.25-3,0.35"/>
	<path class="st0" d="M38.59,76.48c0.54,0.02,3.6,0.06,9.12-0.52"/>
	<path class="st0" d="M52.44,75.08c-0.19,0.06-0.34,0.11-0.48,0.16"/>
	<path class="st0" d="M38.59,76.48c-0.06,0-0.1,0-0.1,0l-0.07,0.02c-0.45,0.08-0.45,0.54-0.45,0.54"/>
	<line class="st0" x1="37.97" y1="77.03" x2="37.97" y2="77.74"/>
	<line class="st0" x1="37.97" y1="73.81" x2="37.97" y2="73.44"/>
	<line class="st0" x1="37.97" y1="72.69" x2="37.97" y2="72.94"/>
	<line class="st0" x1="37.97" y1="73.81" x2="37.97" y2="73.98"/>
	<line class="st0" x1="37.97" y1="72.94" x2="37.97" y2="73.44"/>
	<line class="st0" x1="37.97" y1="73.98" x2="37.97" y2="77.03"/>
	<line class="st0" x1="37.97" y1="72.94" x2="37.97" y2="72.94"/>
	<line class="st0" x1="37.97" y1="72.94" x2="37.97" y2="72.94"/>
	<path class="st0" d="M37.5,71.48c-0.61,0-1.1,0.09-1.1,0.19v1.02"/>
	<path class="st0" d="M36.4,72.69v0.07c0,0.08,0.25,0.14,0.62,0.17"/>
	<path class="st0" d="M37.5,71.48c0.01,0,0.03,0,0.04,0c0.62,0,1.13,0.09,1.13,0.2v0.65"/>
	<path class="st0" d="M38.64,72.79c-0.07,0.06-0.32,0.12-0.67,0.15"/>
	<path class="st0" d="M38.64,72.79c0.01-0.01,0.03-0.02,0.03-0.03v-0.44"/>
	<path class="st0" d="M40.59,72.44l-1.13-0.16c-0.11-0.02-0.18,0.03-0.21,0.06c-0.05,0.04-0.07,0.09-0.07,0.11v1.05
		c0,0.27-0.22,0.49-0.49,0.49h-0.73"/>
	<line class="st0" x1="37.97" y1="73.98" x2="37.97" y2="73.98"/>
	<path class="st0" d="M40.68,71.87v0.38l-1.18-0.14c-0.18-0.03-0.29,0.05-0.35,0.09c-0.08,0.07-0.13,0.16-0.13,0.24v1.05
		c0,0.18-0.14,0.32-0.32,0.32h-0.73"/>
	<line class="st0" x1="37.97" y1="73.81" x2="37.97" y2="73.81"/>
	<path class="st0" d="M40.42,71.3v0.54l-0.86-0.09c-0.46-0.07-0.81,0.24-0.88,0.59"/>
	<line class="st0" x1="37.97" y1="73.44" x2="37.97" y2="73.44"/>
	<polyline class="st0" points="38.64,72.79 38.64,73.44 37.97,73.44 	"/>
	<path class="st0" d="M38.64,72.79v-0.35c0-0.04,0.02-0.08,0.03-0.12"/>
	<line class="st0" x1="39.97" y1="68.32" x2="39.5" y2="69.01"/>
	<line class="st0" x1="39.5" y1="69.01" x2="39.25" y2="69.37"/>
	<line class="st0" x1="38.19" y1="70.92" x2="38.01" y2="71.18"/>
	<line class="st0" x1="39.25" y1="69.37" x2="38.19" y2="70.92"/>
	<polyline class="st0" points="38.35,69.52 38.51,69.52 38.51,68.97 38.7,68.97 38.7,69.45 37.65,71.05 	"/>
	<line class="st0" x1="38.27" y1="69.52" x2="38.35" y2="69.52"/>
	<path class="st0" d="M38.35,69.52l-0.66,1c-0.04,0.05-0.12,0.08-0.18,0.06"/>
	<path class="st0" d="M37.5,69.94L37.5,69.94c0.23,0,0.42-0.11,0.42-0.24c0-0.14-0.19-0.24-0.42-0.24l0,0"/>
	<path class="st0" d="M37.5,69.94c-0.23,0-0.41-0.11-0.41-0.24c0-0.14,0.19-0.24,0.41-0.24"/>
	<path class="st0" d="M44.33,74.4c0,0,0.43-0.06,0.93-0.18c0.06-0.01-0.09-0.03-0.25-0.09c-0.12-0.05-0.24-0.14-0.27-0.14
		l-0.15,0.03c-0.07,0.01-0.03,0.1-0.09,0.19C44.41,74.31,44.25,74.41,44.33,74.4z"/>
	<line class="st0" x1="51.78" y1="68.7" x2="74.73" y2="67.77"/>
	<line class="st0" x1="51.22" y1="73.14" x2="74.6" y2="70.97"/>
	<polyline class="st0" points="38.97,71.87 38.97,70.96 38.56,70.96 38.56,71.35 	"/>
	<line class="st0" x1="38.56" y1="71.35" x2="38.56" y2="71.59"/>
	<line class="st0" x1="38.78" y1="72.05" x2="38.67" y2="72.05"/>
	<path class="st0" d="M37.98,75.61c0,0,0.18-0.58,0.59-0.6"/>
	<polyline class="st0" points="61.98,79.19 61.98,80.24 61.75,80.24 	"/>
	<path class="st0" d="M59.47,79.19v-0.32c0-0.14,0.09-0.36,0.23-0.36h1.52c0.16,0,0.32,0.2,0.32,0.36v1.38h0.11"/>
	<path class="st0" d="M61.4,73.19v3.99c0,0,0.04,0.46,0.45,0.79c0.1,0.07,0.13,0.21,0.13,0.33v0.88"/>
	<polyline class="st0" points="59.47,79.19 59.47,80.24 59.34,80.24 	"/>
	<line class="st0" x1="61.75" y1="80.24" x2="61.65" y2="80.24"/>
	<line class="st0" x1="59.24" y1="80.24" x2="59.34" y2="80.24"/>
	<path class="st0" d="M59.62,76.31v0.87c0,0-0.04,0.46-0.45,0.79c-0.09,0.07-0.13,0.21-0.13,0.33v1.94h0.21"/>
	<line class="st0" x1="59.62" y1="75.07" x2="59.62" y2="73.4"/>
	<line class="st0" x1="59.99" y1="74.83" x2="59.99" y2="74.83"/>
	<path class="st0" d="M61.03,73.24v1.73c-0.17-0.33-0.36-0.42-0.57-0.45c-0.21-0.03-0.46,0.31-0.46,0.31"/>
	<line class="st0" x1="59.96" y1="74.74" x2="59.96" y2="73.37"/>
	<line class="st0" x1="61.98" y1="79.19" x2="61.98" y2="79.19"/>
	<line class="st0" x1="61.98" y1="79.19" x2="61.56" y2="79.19"/>
	<line class="st0" x1="59.06" y1="79.19" x2="59.47" y2="79.19"/>
	<line class="st0" x1="59.48" y1="79.19" x2="59.47" y2="79.19"/>
	<line class="st0" x1="60.83" y1="85.16" x2="60.21" y2="85.16"/>
	<line class="st0" x1="60.19" y1="79.86" x2="60.8" y2="79.86"/>
	<path class="st0" d="M61.25,76.24c0,0-0.01,0.37-0.38,0.68v0.68"/>
	<path class="st0" d="M60.87,78.22L60.87,78.22c0,0.12-0.12,0.25-0.24,0.26"/>
	<line class="st0" x1="60.87" y1="78.22" x2="60.87" y2="77.6"/>
	<line class="st0" x1="60.15" y1="76.76" x2="60.15" y2="77.6"/>
	<polyline class="st0" points="60.15,78.22 60.15,78.22 60.15,77.6 	"/>
	<path class="st0" d="M60.32,78.5c-0.1-0.04-0.17-0.16-0.17-0.27"/>
	<line class="st0" x1="52.99" y1="74.52" x2="52.99" y2="74.52"/>
	<path class="st0" d="M52.99,74.52c0.07-0.02,0.15-0.02,0.21-0.01l3.58,0.51c0.12,0.02,0.29,0.11,0.24,0.27l-0.33,0.25
		c-0.1,0.08-0.26,0.12-0.39,0.1l-3.11-0.45c-0.13-0.02-0.27-0.17-0.27-0.3"/>
	<path class="st0" d="M37.5,68.04c3.44,0,6.05-1.24,6.05-3.52c0-2.62-2.6-5.02-6.05-5.02"/>
	<path class="st0" d="M38.08,51.16c0,0.18,0.28,0.28,0.47,0.29c0,0,3.84,0.1,9.76-0.21c0.16-0.01,0.33-0.12,0.17-0.44L46.16,46
		c-0.1-0.2-0.31-0.35-0.53-0.39c0,0-2.52-0.49-7.19-0.53c-0.15,0-0.37,0.1-0.37,0.25V51.16z"/>
	<path class="st0" d="M49.23,46.96c-0.26-0.21-1.04-0.78-2.31-1.04c-0.06-0.01-0.19-0.02-0.1,0.14L49,50.7
		c0.09,0.19,0.39,0.44,0.6,0.42l1.63-0.17c-0.03-0.11-0.07-0.23-0.1-0.34"/>
	<path class="st0" d="M49.23,46.96c0.06,0.05,0.1,0.09,0.1,0.09s1.27,1.87,1.79,3.57"/>
	<line class="st0" x1="51.53" y1="51.9" x2="51.61" y2="51.9"/>
	<line class="st0" x1="37.51" y1="51.9" x2="51.53" y2="51.9"/>
	<line class="st0" x1="48.57" y1="46.06" x2="53.31" y2="46.06"/>
	<line class="st0" x1="50.94" y1="50.01" x2="53.35" y2="50.01"/>
	<path class="st0" d="M53.31,46.06c0.82-2.96,3.5-5.22,6.68-5.22c3.83,0,6.93,3.29,6.93,7.12c0,1.75-0.47,4.11-1.67,5.73
		c-1.28,1.72-3.36,2.65-5.22,2.62c-5.73-0.06-6.62-5.95-6.62-5.95l-0.07-0.35h0"/>
	<line class="st0" x1="53.34" y1="46.06" x2="53.31" y2="46.06"/>
	<path class="st0" d="M53.34,46.06c0.74,0.38,0.13,1.33-0.02,2.31c-0.09,0.63-0.03,1.27,0.04,1.65"/>
	<path class="st0" d="M53.35,50.01c0.03,0.21,0.07,0.35,0.07,0.35"/>
	<path class="st0" d="M55.47,47.75c0,2.53,2.05,4.59,4.58,4.59c2.53,0,4.59-2.05,4.59-4.59c0-2.53-2.06-4.59-4.59-4.59
		C57.52,43.16,55.47,45.22,55.47,47.75z"/>
	<path class="st0" d="M63.45,50.04c-0.3,0.44-0.69,0.82-1.14,1.12"/>
	<path class="st0" d="M60.83,51.76c0.54-0.1,1.04-0.31,1.48-0.6"/>
	<path class="st0" d="M56.67,45.46c-0.3,0.44-0.51,0.93-0.62,1.47"/>
	<path class="st0" d="M60.87,43.75c-0.26-0.05-0.54-0.08-0.82-0.08c-0.26,0-0.52,0.03-0.77,0.08"/>
	<path class="st0" d="M57.77,51.14c0.44,0.3,0.93,0.51,1.47,0.62"/>
	<path class="st0" d="M63.45,50.04c0.44-0.65,0.7-1.44,0.7-2.29c0-0.27-0.03-0.52-0.08-0.78"/>
	<path class="st0" d="M59.28,43.74c-0.54,0.1-1.04,0.31-1.48,0.6"/>
	<path class="st0" d="M57.77,51.14c-0.45-0.3-0.82-0.69-1.12-1.14"/>
	<path class="st0" d="M56.05,48.53c0.1,0.54,0.31,1.03,0.6,1.47"/>
	<path class="st0" d="M56.05,48.53c-0.05-0.25-0.08-0.51-0.08-0.77c0-0.28,0.03-0.56,0.08-0.82"/>
	<path class="st0" d="M60.83,51.76c-0.25,0.05-0.51,0.08-0.78,0.08c-0.28,0-0.56-0.03-0.82-0.08"/>
	<path class="st0" d="M63.47,45.5c0.29,0.44,0.5,0.94,0.6,1.48"/>
	<path class="st0" d="M60.87,43.75c1.08,0.22,2.01,0.87,2.59,1.75"/>
	<path class="st0" d="M56.67,45.46c0.3-0.44,0.69-0.82,1.14-1.12"/>
	<path class="st0" d="M54.46,47.87c0,3.09,2.51,5.6,5.6,5.6c3.09,0,5.6-2.51,5.6-5.6c0-3.09-2.51-5.6-5.6-5.6
		C56.96,42.27,54.46,44.77,54.46,47.87z"/>
	<line class="st0" x1="59.28" y1="43.74" x2="59.28" y2="43.74"/>
	<path class="st0" d="M60.11,46.58l-0.42,0.1c-0.19-0.99-0.04-1.04-0.12-1.79c-0.08-0.73-0.29-1.13-0.29-1.15"/>
	<path class="st0" d="M60.56,46.69l-0.43-0.07c0.2-0.99,0.36-0.98,0.57-1.69c0.21-0.71,0.17-1.17,0.17-1.18"/>
	<path class="st0" d="M62.35,44.36c0,0-0.13,0.45-0.61,1.02c-0.47,0.58-0.62,0.51-1.18,1.35l0.37,0.23"/>
	<path class="st0" d="M61.16,47.36L60.91,47c0.84-0.56,0.95-0.44,1.61-0.79c0.65-0.35,0.94-0.7,0.95-0.71"/>
	<line class="st0" x1="63.47" y1="45.5" x2="63.47" y2="45.5"/>
	<line class="st0" x1="64.07" y1="46.97" x2="64.07" y2="46.98"/>
	<path class="st0" d="M61.23,47.81l-0.1-0.42c0.99-0.19,1.05-0.04,1.79-0.11c0.74-0.08,1.14-0.29,1.15-0.3"/>
	<path class="st0" d="M61.11,48.25l0.08-0.43c0.99,0.2,0.98,0.36,1.7,0.58c0.72,0.21,1.18,0.17,1.18,0.17"/>
	<line class="st0" x1="63.45" y1="50.04" x2="63.45" y2="50.04"/>
	<path class="st0" d="M60.84,48.62l0.23-0.37c0.84,0.56,0.77,0.71,1.35,1.18c0.58,0.47,1.02,0.61,1.03,0.61"/>
	<path class="st0" d="M60.45,48.85l0.35-0.25c0.56,0.84,0.44,0.95,0.79,1.61c0.35,0.65,0.7,0.94,0.71,0.95"/>
	<line class="st0" x1="62.31" y1="51.16" x2="62.31" y2="51.16"/>
	<path class="st0" d="M60,48.92l0.42-0.09c0.19,0.99,0.04,1.04,0.11,1.79c0.08,0.73,0.29,1.14,0.3,1.15"/>
	<line class="st0" x1="60.83" y1="51.76" x2="60.83" y2="51.76"/>
	<path class="st0" d="M59.56,48.81l0.42,0.08c-0.2,0.99-0.36,0.98-0.58,1.69c-0.21,0.71-0.17,1.17-0.17,1.18"/>
	<line class="st0" x1="57.77" y1="51.14" x2="57.77" y2="51.14"/>
	<path class="st0" d="M59.19,48.54l0.37,0.23c-0.56,0.83-0.71,0.77-1.18,1.34c-0.47,0.58-0.6,1.02-0.61,1.03"/>
	<line class="st0" x1="56.64" y1="50" x2="56.65" y2="50"/>
	<path class="st0" d="M58.95,48.14l0.25,0.36c-0.84,0.55-0.95,0.44-1.61,0.79c-0.64,0.35-0.94,0.7-0.95,0.71"/>
	<line class="st0" x1="56.05" y1="48.53" x2="56.04" y2="48.53"/>
	<path class="st0" d="M58.89,47.69l0.1,0.42c-0.99,0.19-1.05,0.04-1.79,0.12c-0.74,0.08-1.14,0.29-1.15,0.29"/>
	<line class="st0" x1="56.05" y1="46.93" x2="56.05" y2="46.93"/>
	<path class="st0" d="M59,47.25l-0.08,0.42c-0.99-0.2-0.98-0.36-1.7-0.58c-0.71-0.21-1.17-0.17-1.18-0.17"/>
	<line class="st0" x1="56.67" y1="45.46" x2="56.67" y2="45.46"/>
	<path class="st0" d="M59.27,46.88l-0.23,0.37c-0.84-0.57-0.77-0.71-1.35-1.18c-0.58-0.47-1.02-0.6-1.03-0.61"/>
	<path class="st0" d="M59.66,46.65l-0.36,0.25c-0.56-0.84-0.43-0.95-0.79-1.61c-0.35-0.65-0.7-0.94-0.71-0.95"/>
	<line class="st0" x1="57.81" y1="44.34" x2="57.8" y2="44.34"/>
	<path class="st0" d="M41.13,68.87c0,0,7.16-0.53,9.9-7.5"/>
	<path class="st0" d="M51.02,61.37c0-0.01,0.01-0.02,0.02-0.03"/>
	<line class="st0" x1="51.04" y1="61.33" x2="51.04" y2="61.33"/>
	<polyline class="st0" points="51.02,61.37 51.07,64.75 51.55,67.4 	"/>
	<path class="st0" d="M51.04,61.33L51.04,61.33c0.62-1.58,1-3.49,1.03-5.8c0.01-0.97-0.15-2.25-0.53-3.63"/>
	<polyline class="st0" points="51.04,61.33 51.02,61.36 51.02,61.37 	"/>
	<path class="st0" d="M48.64,46.19c0.2,0.25,0.41,0.51,0.59,0.77"/>
	<path class="st0" d="M51.53,51.9c-0.12-0.42-0.25-0.85-0.41-1.28"/>
	<line class="st0" x1="51.55" y1="67.42" x2="51.55" y2="67.4"/>
	<path class="st0" d="M49.23,46.96c0.83,1.19,1.45,2.44,1.89,3.66"/>
	<path class="st0" d="M48.64,46.19c-2.24-2.79-5.77-5.05-11.14-5.21"/>
	<path class="st0" d="M37.51,44.61c2.87,0.01,4.9,0.11,6.49,0.28c3.18,0.35,4.28,0.99,4.64,1.3"/>
	<path class="st0" d="M48.64,46.19c0.13,0.11,0.17,0.18,0.17,0.18"/>
	<path class="st0" d="M35.38,13.61c0,0,0.39-1.68-0.01-3.18"/>
	<path class="st0" d="M39.62,10.44c-0.4,1.5-0.01,3.18-0.01,3.18"/>
	<path class="st0" d="M40.11,41.21l-0.74-24.13c0.05-0.29,0.25-0.62,0.25-0.95v-2.52l32.93-0.71"/>
	<path class="st0" d="M34.89,41.21l0.74-24.13c-0.05-0.29-0.25-0.62-0.25-0.95v-2.52L2.5,12.9"/>
	<path class="st0" d="M3.19,11.13l32.19-0.75V7.67c0-0.76,0.93-1.25,2.1-1.25h0.02c1.17,0,2.11,0.49,2.11,1.25v2.71l32.24,0.75"/>
	<path class="st0" d="M39.97,13.31c0.46-0.22,0.88-0.8,0.88-1.43c0-0.63-0.41-0.92-0.89-1.16"/>
	<line class="st0" x1="37.48" y1="16.36" x2="37.5" y2="16.36"/>
	<path class="st0" d="M37.5,16.36c0.08,0,1.76,0.06,1.93,0.22"/>
	<path class="st0" d="M37.51,12.37c0,0,1.7-0.08,1.92,0.54"/>
	<path class="st0" d="M37.51,37.78c0.25,0,0.4,0.24,0.4,0.24c0.26,0.43,0.4,0.92,0.48,1.41c0.01,0.03,0.01,0.06,0.01,0.1
		c0,0.22-0.14,0.41-0.32,0.46c-0.19,0.04-0.38,0.07-0.58,0.07"/>
	<path class="st0" d="M37.5,30.57c1.07,0,1.67,10.55,1.67,10.55"/>
	<path class="st0" d="M67.1,80.01c0,0-0.17-0.4-0.39-0.77c-0.21-0.36-0.46-0.7-0.46-0.7"/>
	<path class="st0" d="M59.93,75.26l-1.18-0.1c-0.08-0.01-0.16,0.09-0.17,0.17l-0.07,0.42c-0.01,0.09,0.04,0.22,0.13,0.24l1.19,0.22"
		/>
	<line class="st0" x1="60.12" y1="73.89" x2="60.88" y2="73.89"/>
	<line class="st0" x1="60.12" y1="73.89" x2="60.11" y2="73.89"/>
	<line class="st0" x1="60.12" y1="73.89" x2="60.12" y2="73.35"/>
	<path class="st0" d="M60.12,73.89v0.27c0,0.23-0.04,0.46-0.13,0.67"/>
	<line class="st0" x1="59.99" y1="74.83" x2="59.99" y2="74.83"/>
	<path class="st0" d="M61,74.91c-0.08-0.23-0.11-0.49-0.11-0.73v-0.92"/>
	<line class="st0" x1="37.51" y1="69.01" x2="38.29" y2="69.01"/>
	<line class="st0" x1="38.56" y1="71.35" x2="38.25" y2="71.35"/>
	<line class="st0" x1="38.19" y1="70.86" x2="38.19" y2="70.92"/>
	<line class="st0" x1="38.19" y1="70.92" x2="38.19" y2="71.52"/>
	<line class="st0" x1="40.12" y1="71.04" x2="40.12" y2="71.78"/>
	<line class="st0" x1="40.59" y1="72.44" x2="40.68" y2="72.25"/>
	<line class="st0" x1="38.4" y1="72.9" x2="38.4" y2="73.33"/>
	<path class="st0" d="M38.99,69.83c0,0,0.54-0.04,0.96-0.07"/>
	<line class="st0" x1="39.25" y1="69.37" x2="39.25" y2="69.37"/>
	<path class="st0" d="M39.97,69.34c-0.42,0.03-0.72,0.03-0.72,0.03"/>
	<path class="st0" d="M39.5,69.01c0,0,0.12,0.03,0.51-0.01"/>
	<line class="st0" x1="39.5" y1="69.01" x2="39.5" y2="69.01"/>
	<line class="st0" x1="38.51" y1="69.85" x2="39.68" y2="68.16"/>
	<path class="st0" d="M36.62,78.66c0.1-0.03,0.21-0.03,0.3,0"/>
	<line class="st0" x1="36.92" y1="77.84" x2="36.92" y2="77.8"/>
	<line class="st0" x1="36.92" y1="77.84" x2="36.92" y2="78.66"/>
	<line class="st0" x1="37.35" y1="78.66" x2="36.92" y2="78.66"/>
	<path class="st0" d="M38.35,78.66c-0.1-0.03-0.21-0.03-0.3,0"/>
	<line class="st0" x1="38.05" y1="77.84" x2="38.05" y2="77.8"/>
	<line class="st0" x1="38.05" y1="78.66" x2="38.05" y2="77.84"/>
	<line class="st0" x1="37.63" y1="78.66" x2="38.05" y2="78.66"/>
	<line class="st0" x1="15.08" y1="85.44" x2="14.98" y2="85.44"/>
	<line class="st0" x1="14.98" y1="85.44" x2="14.03" y2="85.44"/>
	<line class="st0" x1="14.03" y1="85.44" x2="13.93" y2="85.44"/>
</g>
</svg>
