<?xml version="1.0" encoding="utf-8"?>
<!-- Generator: Adobe Illustrator 25.2.3, SVG Export Plug-In . SVG Version: 6.00 Build 0)  -->
<svg version="1.1" id="Layer_1" xmlns="http://www.w3.org/2000/svg" xmlns:xlink="http://www.w3.org/1999/xlink" x="0px" y="0px"
	 viewBox="0 0 75 100" style="enable-background:new 0 0 75 100;" xml:space="preserve">
<style type="text/css">
	.st0{fill:none;stroke:#BBB0A1;stroke-width:0.5;stroke-miterlimit:10;}
</style>
<g>
	<path class="st0" d="M40.32,78.8c-0.85,0.34-1.54,1.14-1.94,0.8c-0.4-0.34-0.49-1.36-0.8-1.88c-0.31-0.52,0-0.71-0.28-1.42
		c-0.28-0.72-1.77-1.42-1.77-1.94c0-0.51-0.34-1.31-1.14-1.54c-0.8-0.23-0.94,1.18-1.65,1.03c-0.72-0.16-1.25-0.28-1.88-0.23
		c-0.63,0.06-0.08,0.85,0,0.91c0.08,0.06-0.4-0.33-0.8-0.17s-0.34,0.57-0.63,0.68c-0.28,0.11-0.81-0.42-1.37-0.4
		c-0.55,0.02-1.06,0.1-1.94,0.68c-0.87,0.58,0.23,0.91,0.11,1.65c-0.11,0.74-0.17,0.68-1.42,0.28c-1.25-0.4-1.81-1.46-2.33-1.54
		c-0.52-0.08-1.37,0.11-1.77,0.17c-0.4,0.06-0.68,0.8-1.2,0.91c-0.51,0.11-1.94,2.24-2.45,2.22c-0.51-0.02-1.14-0.51-1.37-0.85
		s-1.74-1.7-2.33-1.82c-0.59-0.12-2.22-2.33-2.22-2.85c0-0.51,0.68-1.25,1.65-0.51c0.97,0.74,1.48,0.51,2.22,0.11
		c0.74-0.4,1.53-0.41,3.02,0.34s3.09,0.86,4.1,0.46c1.01-0.41-0.46-0.97-1.42-1.71"/>
	<path class="st0" d="M39.41,81.14c-0.8,0.55-1.48,1.08-1.31,1.82c0.17,0.74,0.57,0.91,1.37,1.25c0.8,0.34,0.51,0.8,1.37,1.2
		c0.85,0.4,0.63,0.51,1.31,0.28"/>
	<path class="st0" d="M69.42,20.56c0.17-0.91,0.27-1.73-0.35-2.11c-0.61-0.38-1-0.23-1.77,0.08c-0.77,0.31-0.88-0.19-1.73,0.12
		c-0.84,0.31-0.77,0.08-1.07,0.69"/>
	<path class="st0" d="M57.18,18.73c-0.02-0.33,0.14-0.78,0.85-0.54c1.21,0.42,1.53,0.59,1.53-0.06c0-0.65-0.96-1.53-0.25-1.78
		s0.76,0.25,1.21-0.7c0.45-0.96-0.84-2.23,0.76-2.04c1.6,0.19,1.83,0.13,2.17-0.25c0.33-0.39-0.7-2.1,1.34-1.85
		c2.04,0.25,1.43,1.14,2.29,0.96s0.93-1.35,1.66-1.02s-0.13,0.13,1.59-0.38c0.61-0.18,1.03-0.31,1.33-0.37"/>
	<path class="st0" d="M57.18,18.73c0.01,0.23,0.1,0.4,0.15,0.22C57.36,18.83,57.29,18.76,57.18,18.73"/>
	<path class="st0" d="M33.1,37.55c-0.58-0.78-1.18-1.32-0.75-2.92c0.42-1.6-1.46-1.36-2.68-2.54c-1.22-1.18,0.42-0.75,1.03-1.32
		c0.61-0.56,0.34-0.79,0.99-1.18c0.46-0.27-0.96-1.69,0.28-1.99c1.24-0.3,1.5,0.79,2.8,0.38c1.31-0.4,0.67-1.14,0.51-1.59
		c-0.16-0.45-0.61-0.26-0.76-0.89c-0.15-0.63-0.22-1.3,0.64-0.32c0.85,0.98-0.15,0.31,1.27,0.32s1.99,1.05,2.36,0.13
		c0.37-0.92-1.15-1.59,0.25-1.4c1.4,0.19,2.54-0.23,2.23,0.51c-0.31,0.74,0.19,1.08,0.19,1.08s-0.03,0.78,0.76,1.08
		c0.8,0.31,2.35,0.35,2.87,0.64c0.52,0.29,0.13,0.13,1.21-0.7c1.08-0.83,0.72-0.15,1.08-1.27c0.36-1.12-0.95-1.58,0.64-1.34
		c1.59,0.24,0.25-1.53,1.59-1.02c1.34,0.51,1.21-0.45,2.29-0.32c1.08,0.13,0.94,0.49,1.53,0.38c0.59-0.11,0.25-0.13,0.64-1.02
		c0.38-0.89-0.61-1.76,0.7-2.17c1.32-0.41,0.7-0.38,1.21-0.89c0.36-0.36,0.92-0.55,1.19-0.48"/>
	<path class="st0" d="M20.73,72.2c0,0-1.79-0.26-3.34-1.75c-1.55-1.48-1.21-0.22-2.2-1.82c-0.99-1.6-1.61-0.56-1.9-1.67
		c-0.29-1.11,1.06-0.91,0.68-1.97c-0.38-1.06-1.4-1.35-2.66-1.75c-1.26-0.4-1.24-0.81-1.67-1.52c-0.43-0.71-0.75-0.1-1.52,0
		c-0.77,0.1-0.36-0.46-0.61-0.76c-0.25-0.3-0.38,0.53-0.99,0.23c-0.61-0.3-1-0.69-1.37-1.29s-0.84,0.54-1.44,0.38
		c-0.6-0.16-1.13,0.24-1.14-0.15c-0.01-0.37-1.26-0.81-2.46-1.49"/>
	<path class="st0" d="M31.34,28.33c-0.45,0.37-0.37,0.75-0.89,0.82s-0.38-1.09-0.75-0.97c-0.37,0.12-0.34,0.51-1.19,0.22
		c-0.86-0.28-0.8-0.59-0.22-1.12c0.58-0.53,0.75-1.72,0.37-2.16s-0.82-1.29-2.46-1.79c-1.64-0.5-2.76-0.89-3.8-0.15
		c-1.04,0.75-2.02,0.69-2.24,1.34s1.09,1.3,0.37,1.27c-0.72-0.04-0.18-1.04-1.12-1.12c-0.94-0.08-0.37-0.82-1.04-0.67
		c-0.67,0.15-1.27-0.05-0.97-0.82c0.3-0.77,1.56-0.19,0.3-0.77c-1.27-0.57-1.27-0.57-1.27-0.57l-0.82,0.52
		c-0.96-0.49-0.22-0.07-0.89-1.04c-0.67-0.97-0.13-0.82-0.67-0.97c-0.55-0.15-0.82,1.49-1.79-0.15c-0.97-1.64,0.52-0.6,0.45-1.79
		c-0.07-1.19-0.75-1.02-0.15-1.79c0.6-0.77,2.39-1.27,1.49-2.31c-0.89-1.04-1.68-1.25-2.31-0.97c-0.63,0.28-1.34,0.45-1.86-0.45
		C9.34,12,8.1,11.84,7.55,12.52C7,13.21,4.94,12.08,5.98,13.42c1.04,1.34,2.68,1.12,2.76,1.94c0.07,0.82,0.89,1.42-0.6,1.42
		c-1.49,0-1.19-1.42-2.39-1.42c-1.19,0-2.91-0.57-1.94,0.3c0.97,0.87,2.01,1.25,0.52,1.57c-1.49,0.32-1.72-0.15-1.64-1.19
		c0.07-1.04,0.52-2.09,0.52-2.09s0.52-1.26-0.77-0.87"/>
	<path class="st0" d="M21.72,25.95c0.5-0.34,0.57-1.08,1.49-0.97c0.92,0.11,0.75-0.07,1.49,0.15"/>
	<path class="st0" d="M57.18,26.54c0,0-0.75,0.37-1.42-0.15c-0.67-0.52-1.27-0.22-2.09-0.3c-0.82-0.07-1.1,0.91-1.86,1.72
		c-0.76,0.8-1.34-0.89-2.16-0.67c-0.82,0.22-1.33,0.16-2.09,0.52"/>
	<polyline class="st0" points="50.32,51.87 49.93,52.25 49.43,52.22 	"/>
	<path class="st0" d="M50.32,51.87l1.74-1.71c0,0-0.46-0.1-0.82-0.05c-0.36,0.05-0.44,0.26-0.44,0.26l-1.36,1.85"/>
	<path class="st0" d="M68.73,48.27c0,0-0.02,0-0.14,0"/>
	<path class="st0" d="M67.76,43.71c-0.97-0.49-1.61-0.56-2.24-0.1c-0.64,0.46-0.93,1.19-0.79,1.84c0.14,0.65,0.87,1.52,1.42,1.95
		c0.55,0.43,1.52,0.88,2.05,0.88c0.21,0,0.32,0,0.4,0"/>
	<path class="st0" d="M23.36,43.41c0,0,0.76-0.32,1.85-0.57c1.09-0.24,3.27-0.68,4.7-0.96c1.43-0.28,9.29-1.83,11.53-2.26
		c2.24-0.43,8.43-1.67,9.51-1.89c1.09-0.22,2.84-0.58,4.78-0.51c1.94,0.06,2.93,0.82,4.33,1.66"/>
	<path class="st0" d="M55.98,39.12c0.17,0.02,0.34,0.04,0.51,0.07c2.49,0.44,3.11,0.37,6.22,1.86c0.02,0.01,0.04,0.02,0.06,0.03"/>
	<path class="st0" d="M67.76,43.71c-0.92-0.7-1.83-1.11-4.98-2.63"/>
	<path class="st0" d="M50.32,51.87c-0.02,0-0.04,0.01-0.04,0.01"/>
	<path class="st0" d="M68.59,48.27c0.48-0.34,0.75-0.66,0.91-0.92c0.36-0.59,0.4-1.26,0.19-1.92c-0.21-0.66-1.01-1.03-1.93-1.73"/>
	<path class="st0" d="M68.59,48.27c-0.6,0.41-1.52,0.85-3.05,1.23c-2.76,0.69-6.07,1.13-8.31,1.45c-2.13,0.31-6.5,0.87-6.91,0.92"/>
	<path class="st0" d="M55.66,37.41c-0.48-0.02-0.89,0.03-1.4,0.03c-0.91,0.01-2.06,0.19-2.4,0.39c-0.28,0.16-0.7,0.56-0.91,0.87
		c-0.21,0.31-0.44,0.8-0.44,0.8c1.11-0.16,3.17-0.66,5.47-0.38"/>
	<path class="st0" d="M55.66,37.41c0.38,0.01,0.81,0.06,1.37,0.2c1.27,0.32,1.98,0.62,3.12,1.39c1.13,0.77,1.59,1.26,1.82,1.44
		c0.23,0.18,0.8,0.64,0.8,0.64"/>
	<path class="st0" d="M55.66,37.41c0-0.01,0-0.03,0-0.03"/>
	<path class="st0" d="M55.66,37.41c0,0.03,0.01,0.14,0.07,0.35c0.06,0.24,0.16,0.95,0.25,1.36"/>
	<path class="st0" d="M55.99,39.15c0-0.01,0-0.02-0.01-0.03"/>
	<path class="st0" d="M45.16,54.63c-0.08,0.1-0.14,0.2-0.14,0.31c0,0.48,0.64,0.69,1.62,1.47c0.98,0.78,6.23,4.93,6.23,4.93
		s5.68,3.26,7.07,4.06c1.12,0.65,8.69,5.03,11.59,6.7"/>
	<path class="st0" d="M70.07,73.25c0.03,0.01,0.06,0.02,0.1,0.03c0.67,0.19,0.25-0.08,0.99,0.06c0.74,0.14,1.26,0.04,1.7-0.12
		c0.44-0.16-0.22-0.47-0.22-0.47s-0.27-0.16-0.73-0.42"/>
	<polyline class="st0" points="58.35,68.04 61.96,69.63 68.42,72.54 	"/>
	<path class="st0" d="M49.43,52.22c-0.89,0.51-2.01,0.99-2.72,1.42c-0.55,0.34-1.26,0.65-1.55,0.99"/>
	<path class="st0" d="M54.8,67.44c-0.46,0.03-0.99,0.06-1.09,0.06c-0.17,0-0.31,0-0.28-0.14"/>
	<path class="st0" d="M56.54,67.04c0.16-0.07,1.24-0.69,1.09-0.74c-0.15-0.05-0.86-0.04-1.55-0.17c-0.69-0.13-0.86-0.33-1-0.26
		c-0.14,0.07-0.1,0.34-0.1,0.34c-0.18,0.02-0.11-0.1-0.4,0.07"/>
	<path class="st0" d="M54.58,66.29c-0.29,0.18-1.13,0.94-1.16,1.07"/>
	<path class="st0" d="M56.54,67.04c-0.16,0.07-0.77,0.29-1.05,0.34c-0.11,0.02-0.39,0.04-0.69,0.06"/>
	<path class="st0" d="M54.9,66.7c0.02,0.17-0.03,0.24,0.12,0.26s0.4-0.07,0.66-0.07c0.27,0,0.69-0.13,0.77-0.04
		c0.08,0.09,0.09,0.14,0.09,0.19"/>
	<path class="st0" d="M56.99,66.81l2.36,1.12c-1.47-0.09-2.12,0.6-2.12,0.6l-2.43-1.09"/>
	<line class="st0" x1="54.8" y1="67.44" x2="54.77" y2="67.43"/>
	<path class="st0" d="M54.58,66.29l-0.05-0.35c0,0-0.36-0.05-0.78,0.25c-0.42,0.29-0.75,0.46-0.75,0.46"/>
	<path class="st0" d="M53.42,67.36c-0.2,0.24-0.37,0.13-0.36-0.04c0.01-0.17-0.07-0.69-0.07-0.69"/>
	<line class="st0" x1="49.3" y1="63.2" x2="54.96" y2="65.86"/>
	<line class="st0" x1="49.3" y1="63.2" x2="49.26" y2="63.18"/>
	<line class="st0" x1="52.99" y1="66.64" x2="46.87" y2="64.09"/>
	<path class="st0" d="M47.1,62.56c0,0-0.12-0.04-0.32-0.03c-0.2,0-0.57,0.36-1.34,1.09c-0.77,0.73,0.08,0.55,0.58,0.52
		c0.5-0.02,1.91-0.19,2.44-0.44c0.53-0.25,0.01-0.33-0.26-0.36c-0.26-0.03-0.97,0.07-1.19,0c-0.22-0.07,0.15-1.09,0.32-1.17
		c0,0,0.07,0.03,0.44,0.08c0.37,0.05,0.66,0.14,1.25,0.19c0.58,0.05,1.52-0.08,0.54,0.58c-0.11,0.08-0.19,0.12-0.28,0.18"/>
	<path class="st0" d="M49.3,63.2c-0.48,0.31-0.63,0.39-0.63,0.39"/>
	<line class="st0" x1="47.25" y1="62.23" x2="43.18" y2="60.26"/>
	<polyline class="st0" points="46.87,64.09 46.27,64.78 44.94,64.17 	"/>
	<path class="st0" d="M46.53,62.55c0-0.25,0.03-0.49-0.46-0.31c-0.49,0.18-0.93,0.82-1.09,1.09c-0.16,0.27-0.34,0.73-0.35,0.87
		c-0.01,0.14-0.01,0.15,0.2-0.02c0.21-0.17,0.34-0.24,0.34-0.24"/>
	<line class="st0" x1="41.82" y1="60.99" x2="45.45" y2="62.65"/>
	<line class="st0" x1="38.26" y1="61.42" x2="44.64" y2="64.05"/>
	<line class="st0" x1="38.26" y1="61.42" x2="38.2" y2="61.39"/>
	<path class="st0" d="M40.72,59.61c0.09-0.27,0.19-0.5,0.19-0.5c0.63,0.15,0.94,0.22,1.93,0.36c0.99,0.14,1.31-0.03,0.64,0.51
		c-0.67,0.55-1.23,0.82-1.23,0.82"/>
	<path class="st0" d="M40.72,59.61c0.01,0,0.02-0.01,0.03-0.02"/>
	<path class="st0" d="M40.72,59.61c-0.11,0.32-0.22,0.71-0.15,0.84c0.13,0.24,0.53-0.03,1.16-0.03c0.64,0.01,1.14,0.05,0.52,0.39"/>
	<path class="st0" d="M40.72,59.61c-0.34,0.16-1.2,0.61-1.86,1.24c-0.68,0.65-0.12,0.6,0.44,0.58c0.56-0.01,2.33-0.28,2.95-0.62"/>
	<path class="st0" d="M40.03,59.84c0.66-0.49-0.28-0.53-0.84-0.35c-0.56,0.18-1.02,0.8-1.35,1.55c-0.41,0.95,0,0.78,0.42,0.38"/>
	<path class="st0" d="M38.52,61.15c-0.08,0.09-0.17,0.18-0.26,0.27"/>
	<path class="st0" d="M34.12,57.89c-0.35,0.28-1.21,1.32-1.21,1.32l4.84,2.01"/>
	<path class="st0" d="M45.16,54.63c0.1-0.08,0.17-0.13,0.17-0.13"/>
	<path class="st0" d="M43.22,56.07c0.6-0.43,1.55-1.15,1.94-1.44"/>
	<path class="st0" d="M43.22,56.07c-1.2,0.86-3.4,1.9-4.62,2.04c-1.22,0.14-1.88,0.29-3.62-0.04c-1.75-0.32-3.39-0.83-5.12-1.37
		c-1.73-0.54-3.99-1.61-5.25-2.31c-1.26-0.7-2.6-1.49-2.6-1.49"/>
	<path class="st0" d="M18.15,40.69c-0.6-0.35-1.27-0.74-2.06-1.21"/>
	<path class="st0" d="M18.71,41.01c-0.18-0.1-0.36-0.21-0.56-0.32"/>
	<path class="st0" d="M43.22,56.07c0.57,0.25,0.03,0.19,0.57,0.25c0.53,0.06,1.35-0.63,1.43-0.93"/>
	<path class="st0" d="M15.35,39.05c0.26,0.15,0.5,0.3,0.74,0.43"/>
	<path class="st0" d="M34.38,50.93c-0.57-0.48-0.97-0.02-0.06-0.96c0.91-0.94,0.25-1.17-0.1-1.32c-2.27-1.02-9.29-4.52-11.73-5.65
		c-1.33-0.62-2.36-1.17-3.78-1.99"/>
	<path class="st0" d="M43.22,56.07c-0.57-0.25,0.19,0.11-0.92-0.29c-1.11-0.4-2.23-1.69-2.23-1.69s-2.05-0.69-3.17-1.39
		c-1.12-0.7-1.95-1.29-2.52-1.77"/>
	<path class="st0" d="M15.35,39.05c-0.45-0.26-0.93-0.55-1.46-0.85c-2.96-1.73-9.32-5.54-13.68-8.17"/>
	<path class="st0" d="M39.14,54.3c-0.95,0.42-2.42,0.96-3.12,1.12c-0.7,0.17-3.13,0.31-3.13,0.31"/>
	<path class="st0" d="M30.37,46.74c1.11-0.05,6.13-0.49,7.99-0.25c1.87,0.24,3.16,0.52,4.88,1.23c1.72,0.7,4.58,2.28,4.58,2.28"/>
	<line class="st0" x1="14.66" y1="35.79" x2="0.28" y2="28.26"/>
	<path class="st0" d="M14.66,35.79l0.95,0.5c0,0,1.76,0.01,2.55-0.07c0.79-0.08,1.41-0.08,1.85-0.44c0.45-0.36,0.95-0.53-0.8-1.26
		c-1.75-0.73-5.12-2.11-5.12-2.11L3.32,27.86c0,0-1.78-0.88-2.96-0.89"/>
	<path class="st0" d="M22.26,36.76c0,0-0.01-0.16-0.04-0.44"/>
	<path class="st0" d="M22.26,36.76c0,0,0.52,3.19,0.74,4.38"/>
	<path class="st0" d="M24.53,42.17c-0.06,0-0.13,0-0.19,0c-1.07-0.03-1.12,0.16-1.34-1.03"/>
	<path class="st0" d="M22.22,36.32c-0.03-0.3-0.09-0.74-0.18-1.27c-0.17-1.02-1.05-1.5-2.27-1.18c-1.23,0.32-1.23,0.32-1.23,0.32"/>
	<path class="st0" d="M24.53,42.17c1.11,0.02,2.94-0.01,4.18-0.06"/>
	<polyline class="st0" points="13.95,36.77 14.09,36.09 14.66,35.79 	"/>
	<path class="st0" d="M17.18,37.53c-0.25,0.03-0.51,0.05-0.74,0.04c-0.72-0.01-1.1-0.13-1.58-0.33s-0.65-0.11-0.65-0.11l-0.27-0.38"
		/>
	<path class="st0" d="M17.18,37.53c0.5-0.06,0.93-0.15,0.93-0.15"/>
	<line class="st0" x1="14.66" y1="35.79" x2="14.69" y2="35.77"/>
	<path class="st0" d="M22.26,36.76c-0.26-0.47-1.34,0.02-1.34,0.02s-0.46,0.07-1.88,0.37c-1.42,0.3-2.32,0.05-2.96-0.05
		c-0.65-0.11-1.41-0.35-2.13-0.33"/>
	<path class="st0" d="M22.22,36.32c-0.01-0.01-0.02-0.02-0.02-0.02"/>
	<path class="st0" d="M22.22,36.32c1.04,0.99,6.27,5.78,6.27,5.78"/>
	<line class="st0" x1="24.53" y1="42.17" x2="23" y2="41.14"/>
	<line class="st0" x1="24.6" y1="42.22" x2="24.53" y2="42.17"/>
	<line class="st0" x1="17.24" y1="37.79" x2="17.17" y2="37.81"/>
	<line class="st0" x1="15.4" y1="37.44" x2="15.38" y2="38.29"/>
	<line class="st0" x1="17.17" y1="37.81" x2="15.38" y2="38.29"/>
	<path class="st0" d="M15.99,39.5c0.03-0.01,0.06-0.01,0.09-0.02"/>
	<path class="st0" d="M21.73,42.63c0.46-0.53,0.43-1.64,0.25-2.01"/>
	<path class="st0" d="M19.49,39.2c-0.12-0.01-0.25-0.02-0.38-0.03c-0.63-0.04-1.35,0.04-2.01,0.14"/>
	<path class="st0" d="M17.1,39.32c-0.36,0.05-0.7,0.11-1.01,0.17"/>
	<path class="st0" d="M19.49,39.2c1.28,0.1,1.98,0.33,2.5,1.42"/>
	<path class="st0" d="M18.71,41.01c0,0.02-0.01,0.04-0.01,0.06"/>
	<path class="st0" d="M18.71,41.01c0.04-0.51,0.68-1.59,1.71-1.37c1.06,0.23,1.14,0.53,1.57,0.98"/>
	<path class="st0" d="M18.15,40.69c0.17-0.77,0.82-1.3,1.34-1.49"/>
	<line class="st0" x1="19.49" y1="39.2" x2="19.5" y2="39.2"/>
	<path class="st0" d="M18.15,40.69c0,0.02-0.01,0.03-0.02,0.05"/>
	<line class="st0" x1="17.1" y1="39.37" x2="17.1" y2="39.32"/>
	<line class="st0" x1="17.17" y1="37.81" x2="17.1" y2="39.32"/>
	<line class="st0" x1="17.18" y1="37.53" x2="17.18" y2="37.48"/>
	<line class="st0" x1="17.18" y1="37.53" x2="17.17" y2="37.81"/>
	<line class="st0" x1="15.35" y1="39.05" x2="15.38" y2="38.29"/>
	<line class="st0" x1="15.35" y1="39.05" x2="15.35" y2="39.12"/>
	<polyline class="st0" points="13.73,50.13 13.36,52.63 20.33,52.47 	"/>
	<path class="st0" d="M14.37,47.3c-0.17,0.11-1.2,0.37-1.24,1.45c-0.04,1.08,0.19,1.16,1.24,1.65c1.05,0.49,3.19,1.1,4.98,1.62
		c1.78,0.53,1.97,0.9,3.44,1.37"/>
	<path class="st0" d="M22.84,48.84l3.42,2.19l1.13,0.02c0,0,1.11,0.23,2.45,0.32c1.34,0.08,1.02,0.23,4.55-0.43"/>
	<line class="st0" x1="4.51" y1="36.36" x2="4.44" y2="36.31"/>
	<line class="st0" x1="0.11" y1="33.34" x2="4.44" y2="36.31"/>
	<line class="st0" x1="0.07" y1="35.59" x2="2.6" y2="37.42"/>
	<path class="st0" d="M3.95,36.64c0.4-0.41-0.1-0.32-0.79,0.21c-0.78,0.6-1.18,1.75-0.41,1.04"/>
	<path class="st0" d="M5.53,37.51C5.2,37.68,4.84,37.8,3.69,38.1c-1.74,0.46-0.93-0.13-0.01-1.16c0.3-0.33,0.5-0.5,0.68-0.59"/>
	<path class="st0" d="M4.44,36.31c-0.02,0.01-0.05,0.03-0.08,0.04"/>
	<path class="st0" d="M5.53,37.51c0.17-0.09,0.33-0.18,0.59-0.33c0.75-0.43,0.97-0.97-0.47-0.87c-0.62,0.04-0.87-0.12-1.21,0"/>
	<path class="st0" d="M4.36,36.35c0.01-0.02,0.02-0.04,0.03-0.06"/>
	<path class="st0" d="M5.53,37.51c0.37-0.33-0.38-0.43-1.07-0.36c-0.67,0.08-0.47-0.16-0.1-0.8"/>
	<path class="st0" d="M5.53,37.51c-0.01,0-0.01,0.01-0.01,0.01"/>
	<path class="st0" d="M10.02,42.18c0.08-0.06,0.13-0.11,0.13-0.11"/>
	<path class="st0" d="M10.02,42.18c-0.32,0.26-1.15,0.92-1.24,0.97l1.95,1.4"/>
	<path class="st0" d="M15.19,44.1c0,0.01,0,0.02,0,0.04"/>
	<path class="st0" d="M15.19,44.1c-0.01-0.5-0.54-0.42-1.25-0.33c-0.74,0.1-0.49-0.01-0.32-0.35c0.04-0.08,0.07-0.15,0.1-0.2
		c0.08-0.17,0.09-0.21,0.09-0.21s-0.33,0.04-0.57,0.27c-0.24,0.23-0.82,0.82-1.29,1.2c-0.47,0.38-0.43,0.46,0.81,0.35
		C13.72,44.76,14.37,44.57,15.19,44.1"/>
	<path class="st0" d="M15.19,44.1c0.23-0.13,0.46-0.27,0.73-0.45c1.23-0.82,0.19-0.78-0.9-0.89l-1.03-0.12l-0.23,0.15l-7.86-5.41"/>
	<path class="st0" d="M12.37,43.07c-0.85,0.21-0.42,0.26-1.09,1.15c-0.7,0.94-0.36,1.18,0.4,0.43"/>
	<path class="st0" d="M10.02,42.18c0.47-0.22,0.69-0.32,0.69-0.32l1.65,1.2"/>
	<path class="st0" d="M10.02,42.18c-0.16,0.07-0.35,0.16-0.56,0.26l-5.93-4.29"/>
	<line class="st0" x1="12.37" y1="43.07" x2="13.52" y2="42.85"/>
	<line class="st0" x1="17.47" y1="49.5" x2="11.38" y2="45.02"/>
	<line class="st0" x1="20.89" y1="47.65" x2="15.68" y2="43.91"/>
	<line class="st0" x1="20.89" y1="47.65" x2="20.91" y2="47.66"/>
	<line class="st0" x1="21.02" y1="47.74" x2="20.91" y2="47.66"/>
	<line class="st0" x1="18.99" y1="48.01" x2="14.42" y2="44.62"/>
	<path class="st0" d="M20.89,47.67c0.01,0,0.01,0,0.02,0"/>
	<path class="st0" d="M20.91,47.66c0.05-0.01,0.1-0.02,0.15-0.03"/>
	<path class="st0" d="M20.89,47.67c-1.3,0.26-2.63,0.47-2.98,1.03c-0.36,0.59-0.66,1.62-0.41,1.69c0.24,0.07,0.81-0.87,1.18-1.09"/>
	<path class="st0" d="M21.98,49.34c0.1-0.05,0.17-0.1,0.24-0.15"/>
	<path class="st0" d="M21.98,49.34c0,0,0.1-0.06,0.24-0.15"/>
	<path class="st0" d="M22.22,49.19c0.21-0.13,0.54-0.34,0.99-0.66c1.19-0.84,0.52-0.69-0.56-0.86c-1.08-0.16-1.5-0.17-1.5-0.17
		s-0.14,0.24-0.29,0.59c-0.15,0.36-0.92,0.65,0.53,0.64C22.47,48.74,22.61,48.92,22.22,49.19"/>
	<path class="st0" d="M20.89,47.65c0.02-0.02,0.02-0.04,0.02-0.04"/>
	<path class="st0" d="M20.89,47.65c0,0,0,0.01-0.01,0.01"/>
	<path class="st0" d="M20.89,47.67c-0.07,0.11-0.36,0.44-1.43,1.13c-1.45,0.93-2.13,1.72,0.23,1.18c1.14-0.26,1.53-0.32,1.92-0.45
		c0.15-0.05,0.27-0.13,0.38-0.18"/>
	<line class="st0" x1="23.88" y1="51.5" x2="21.34" y2="49.71"/>
	<path class="st0" d="M23.88,51.5l-1.74,1.44c0,0-3.75-2.74-3.82-2.78"/>
	<path class="st0" d="M25.5,50.68c0.15,0.34,0.19,0.34-0.65,0.62c-0.84,0.28-0.97,0.2-0.97,0.2"/>
	<path class="st0" d="M28.31,52.49c3.37,2.53,4.62,3.07,4.62,3.07"/>
	<path class="st0" d="M33.5,55.95c2.08,1.16,3.91,1.85,4.22,1.94"/>
	<path class="st0" d="M27.58,53.93c1.07,0.61,2.03,0.94,2.16,0.72c0.12-0.22-0.64-0.89-1.71-1.5c-1.07-0.61-2.03-0.94-2.16-0.72
		C25.75,52.65,26.52,53.32,27.58,53.93z"/>
	<path class="st0" d="M32.41,56.8c-0.06,0.23,0.81,0.67,1.94,0.99c1.14,0.31,2.11,0.38,2.17,0.15c0.06-0.23-0.81-0.67-1.94-0.99
		C33.44,56.64,32.47,56.57,32.41,56.8z"/>
	<path class="st0" d="M43.42,39.63c-0.49,0.1-0.81,0.36-1.05,0.56c-0.24,0.2-0.38,0.31-0.78,0.82c-0.39,0.51-0.26,0.62,0.17,0.61
		c0.42-0.02,0.58-0.23,0.81-0.5c0.23-0.28,0.71-0.81,1.2-1.32C44.15,39.42,43.91,39.53,43.42,39.63z"/>
	<path class="st0" d="M40.47,40.22c-0.49,0.1-0.68,0.25-0.93,0.45c-0.24,0.2-0.38,0.31-0.78,0.82c-0.39,0.51-0.17,0.62,0.24,0.54
		c0.4-0.08,0.5-0.16,0.74-0.43c0.23-0.28,0.56-0.66,1.04-1.17C41.12,40.09,40.95,40.12,40.47,40.22z"/>
	<path class="st0" d="M32.09,41.89c-0.44,0.07-0.63,0.22-0.86,0.41c-0.24,0.2-0.37,0.3-0.77,0.81s-0.21,0.63,0.16,0.58
		c0.36-0.06,0.46-0.13,0.69-0.4c0.23-0.27,0.56-0.65,1.04-1.15C32.68,41.79,32.53,41.82,32.09,41.89z"/>
	<path class="st0" d="M29.8,42.34c-0.39,0.06-0.57,0.2-0.79,0.4c-0.22,0.19-0.35,0.3-0.74,0.81s-0.24,0.64,0.1,0.59
		c0.32-0.05,0.42-0.12,0.65-0.39c0.23-0.27,0.54-0.65,1.01-1.15C30.32,42.26,30.19,42.28,29.8,42.34z"/>
	<path class="st0" d="M27.56,42.68c-0.39,0.06-0.57,0.2-0.79,0.4c-0.22,0.19-0.35,0.3-0.74,0.81s-0.24,0.64,0.1,0.59
		c0.32-0.05,0.42-0.12,0.65-0.39c0.23-0.27,0.54-0.65,1.01-1.15C28.08,42.6,27.95,42.62,27.56,42.68z"/>
	<path class="st0" d="M34.53,41.39c-0.49,0.1-0.68,0.25-0.93,0.45c-0.24,0.2-0.38,0.31-0.78,0.82c-0.39,0.51-0.17,0.62,0.24,0.54
		c0.4-0.08,0.5-0.16,0.74-0.43c0.23-0.28,0.56-0.66,1.04-1.17C35.18,41.26,35.02,41.29,34.53,41.39z"/>
	<path class="st0" d="M37.66,40.76c-0.49,0.1-0.74,0.2-0.98,0.4c-0.24,0.2-0.43,0.41-0.83,0.92c-0.39,0.51-0.17,0.62,0.24,0.54
		c0.4-0.08,0.5-0.16,0.74-0.43c0.23-0.28,0.66-0.71,1.15-1.22C38.31,40.62,38.15,40.66,37.66,40.76z"/>
	<path class="st0" d="M71.53,72.11c-0.38,0.05-0.85,0.08-1.28-0.03c-1.16-0.29-0.44-0.08-1.36,0.26c-0.19,0.07-0.33,0.13-0.47,0.19"
		/>
	<path class="st0" d="M68.42,72.54c-0.51,0.22-0.7,0.26-1.45-0.23c-0.94-0.62,0.51,0.5-0.45,0.86c-0.96,0.36-0.97,0.35-1.83,0.18
		c-0.85-0.17-1.49-0.73-2.18-0.97c-0.69-0.24-0.13,0.57-0.82,0.57c-0.69,0.01-0.21-0.68-0.6-0.89c-0.39-0.21-0.25,0.68-0.7,0.87
		c-0.45,0.19-0.23-0.31-1.39-0.24c-1.15,0.06,0.75,1.08-0.11,1.51c-0.86,0.43-1.23-0.28-1.8-0.43c-0.57-0.15-1.44-0.26-2.76-0.23
		c-1.32,0.03,0.02,0.94,0.92,1.28c0.91,0.34,0.18,0.69,1.36,0.86c1.19,0.17,0,0,0.54-0.38c0.54-0.38,0.32,0.66,0.36,1.16
		c0.04,0.5,0.58,0.22,0.18,0.71c-0.4,0.48-0.43-0.05-0.86,0.24"/>
	<path class="st0" d="M70.07,73.25c-0.48,0.23-0.78,0.41-0.56,0.49c0.49,0.18-1.91,1.52-0.53,1.32c1.38-0.19,2.43-0.85,1.97,0.19
		c-0.46,1.04-0.67,1.16-1.19,1.84c-0.52,0.68-1.3-0.47-0.62,1.53c0.68,2,1.82,1.68,1.82,2.49c0,0.81-2.4,0.98,0.24,1.29
		c1.24,0.14,1.78,0.02,2.06-0.06"/>
	<path class="st0" d="M70.07,73.25c0.56-0.27,1.36-0.6,1.85-0.92"/>
	<path class="st0" d="M71.92,72.34c0.04-0.03,0.08-0.05,0.12-0.08c0.53-0.38,0.14-0.23-0.51-0.15"/>
	<path class="st0" d="M73.25,82.35c-1.17,5.32-3.25,9.39-6.22,12.19"/>
	<path class="st0" d="M0.21,30.03c-0.04,1.1-0.07,2.2-0.1,3.31"/>
	<path class="st0" d="M62.33,97.58c-0.78,0.33-1.58,0.62-2.43,0.84c-6.35,1.64-11.26,1.59-17.58,1.54
		c-1.31-0.01-2.69-0.02-4.15-0.02c-5.58,0.02-11.63,0.28-18.03-0.47C5.09,97.72,2.76,87.91,1.12,77.91
		c-0.6-3.64-0.88-10.78-0.99-19.27"/>
	<path class="st0" d="M0.35,26.97c-0.03,0.43-0.05,0.86-0.07,1.29"/>
	<path class="st0" d="M0.07,35.59c0.01-0.75,0.02-1.5,0.04-2.25"/>
	<path class="st0" d="M0.07,35.59c-0.05,4.32-0.01,8.67-0.01,12.84c0,3.53,0.02,6.97,0.06,10.22"/>
	<path class="st0" d="M0.21,30.03c0.02-0.59,0.05-1.18,0.08-1.77"/>
	<path class="st0" d="M62.33,97.58c1.75-0.74,3.32-1.76,4.69-3.05"/>
	<path class="st0" d="M73.25,82.35c0.38-1.74,0.68-3.6,0.86-5.61c0.71-5.07,0.84-15.6,0.83-27.15c0-7.6,0.07-15.62-0.25-22.87
		c-0.09-2.1-0.27-4.23-0.54-6.4c-0.45-3.56-1.19-6.82-2.51-9.63"/>
	<path class="st0" d="M2.45,13.07C6.34,1.38,17.1,0.29,24.44,0.13C28.24,0.05,32.97,0,37.66,0c6.97,0,13.85,0.12,17.44,0.46
		c9.16,0.88,13.97,4.68,16.55,10.23"/>
	<path class="st0" d="M0.35,26.97c0.23-3.89,0.62-7.6,1.3-10.93c0.22-1.07,0.49-2.05,0.8-2.98"/>
	<path class="st0" d="M53.85,82.35c0.66,0.42,0.89,1.45,0.89,1.45s-0.74,0.82-1.05,1.37c-0.3,0.55-0.66,0.03-0.24,0.89
		c0.42,0.86-0.16,1.45,0.64,0.4c0.8-1.05,0-1.77,0.8-1.45c0.8,0.32,0.63-0.43,0.8,0.32c0.17,0.75-0.61,0.83,0.72,0.4
		c1.33-0.43,0.41-1.1,1.33-0.43"/>
	<path class="st0" d="M17.44,65.5c0.95,0.36,0.36,1.16,2.26,1.31c1.89,0.15,1.92-0.87,2.62-0.58c0.7,0.29,1.38,1.16,1.82,0.95
		c0.44-0.22,0.22-1.24,0.95-1.31c0.73-0.07,1.38-0.22,0.07-0.95c-1.31-0.73-2.18-1.09-2.33-1.45c-0.15-0.36-0.58-1.53-1.53-1.24
		c-1,0.31-0.07,1.31-0.87,1.89c-0.8,0.58-1.83-0.02-2.4-0.22C17.45,63.7,16.49,65.14,17.44,65.5z"/>
	<path class="st0" d="M17.35,5.41c-0.86,0.43-1.05-0.49-2.37,0.75c-1.32,1.24-0.62,1.91-1.27,2.22C13.06,8.69,12,8.61,11.87,9.05
		c-0.13,0.45,0.73,0.95,0.31,1.51c-0.42,0.56-0.73,1.11,0.62,0.66c1.35-0.46,2.17-0.84,2.52-0.71c0.35,0.13,1.45,0.57,1.85-0.28
		c0.43-0.9-0.88-0.89-0.77-1.83s1.19-1.28,1.7-1.55C18.61,6.58,18.21,4.98,17.35,5.41z"/>
	<path class="st0" d="M48.64,89.74c0,0,0.85,0.46,2.11,0.68c1.25,0.23,0.25,1.05-0.28,2.05c-0.53,1,1.28,1.26,2.45,1.37
		c1.17,0.11,2.22-0.63,2.9-0.8c0.68-0.17,2.54,1.93,3.53,1.71c0.82-0.19,2.11,1.89,2.99,2.83"/>
	<path class="st0" d="M40.32,78.8c0.85-0.34,1.71,0.16,2.28-0.46c0.57-0.62,0.17-0.97,0.85-1.08c0.68-0.11,1.78-0.86,1.94-0.68
		s0.11,0.87,0.51,0.63c0.4-0.25,0.78-1.01,1.31-0.68s0.12,0.49,0.63,0.68c0.5,0.19,0.99-0.1,1.14,0.06c0.15,0.16,0.4,0.57,1.02,1.2
		c0.63,0.63,1.96,1.12,1.94,1.65c-0.02,0.53-0.89,0.92-0.46,0.97c0.43,0.05,0.85-0.77,1.59-0.28c0.75,0.49,1.25,0.8,1.94,0.4
		c0.68-0.4-0.61-1.1-0.11-1.25c0.49-0.15,1,0.32,1.42-0.4c0.43-0.71-0.75-1.63,0.06-1.71c0.81-0.08,1.95-0.8,2.28,0
		c0.32,0.8,1.03,1.25,1.77,1.59c0.74,0.34,0.46,1.37,1.71,1.2c1.25-0.17,2.66-1.49,2.85-0.23c0.19,1.27,0.94,1.09-0.17,1.99
		c-1.11,0.91-1.61,1.9-1.14,1.94s-1.02,0.11-1.08,0.57c-0.06,0.46,0.8,0.74,0.28,1.02c-0.51,0.28-1.01,0.06-0.85,0.46
		c0.16,0.4,0.2,0.37,0.34,0.74c0.14,0.37-0.25,0.29,0,0.63c0.25,0.34,0.95-0.42,0.8,0.46c-0.15,0.88,0.63,0.9,0.17,1.37
		c-0.46,0.47-1.22,0.77-1.48,0.91c-0.26,0.14-1.14,0.57-0.74,0.74c0.4,0.17-0.06,0.63,0.97,0.68c1.02,0.06,1.72-0.58,2.45-0.06
		c0.73,0.52,1.83,1.21,1.94,1.54c0.09,0.27,0.24,0.26,0.56,1.15"/>
	<path class="st0" d="M31.73,11.64c0-3.09-2.5-5.59-5.59-5.59c-3.09,0-5.59,2.5-5.59,5.59c0,3.09,2.5,5.59,5.59,5.59
		C29.23,17.24,31.73,14.73,31.73,11.64z"/>
</g>
</svg>
