<svg xmlns="http://www.w3.org/2000/svg" viewBox="0 0 166.69 218.81"><title>アセット 1</title><path d="M116.11,209.79c.11-1,1.22-26.35,1.22-42.8a142.77,142.77,0,0,0-.66-14.34c0-.67-.12-1.11-.12-1.33s.12-.34,1.67-.34H119a73.8,73.8,0,0,1,10.34,1.11c-6-8.33-11.34-19.56-12.9-31.46a13.53,13.53,0,0,1-2.22.11c-4.22,9.79-12.78,20.79-23.79,30.69,4.89.22,16.34,1,16.34,4.11,0,1.22-1.56,2.22-4.33,2.67.22,4.22.33,7.67.33,11.23-.56,34.13-15.45,41-40.58,45.8a17,17,0,0,1-2.67.33c-.33,0-.55,0-.55-.11s.66-.66,2.11-1.11c17.12-5.89,27.46-14.12,27.46-44.8a131.08,131.08,0,0,0-1-15.57C73.86,165.77,59,173.66,57.41,173.66a.11.11,0,0,1-.11-.11c0-.22.67-.89,2.33-2.22,22-17.79,38.47-51.48,38.47-58.81,0-.78.22-.89,1.11-.89,5.23.11,20,4.55,20,7.11,0,.56-.44,1.11-1.44,1.45,8.34,14.89,32.46,31.46,47.25,36.91,1,.33,1.66.55,1.66.77s-.55.45-1.77.89c-2.78.89-11,2.23-14.46,5.34a6.87,6.87,0,0,1-4.67,2c-3.89,0-9.45-5.33-12.56-9a9.3,9.3,0,0,1-1.89.55c-.11,3.78-.22,8.34-.22,13.23,0,8.56.11,13.57,1.11,38.25,0,3.89-5.67,4.67-9.45,4.67-3.33,0-6.67-.67-6.67-3.67Z" style="fill:#fff"/><path d="M34,112.61c.21-4.67,2.33-6.44,3.54-10.69A12,12,0,0,0,38,98.59c0-4.68-3.61-6.88-7.79-6.88a14.42,14.42,0,0,0-9.63,3.83c-2.7,2.48-6.8,5.45-8.86,15.37,0,.78,0,1.56.07,2.27.07.92.21,1.77.21,2.55a5,5,0,0,1-.63,2.62c-.5.92-1.49,1.7-2.06,2.55A4.34,4.34,0,0,1,5.74,123a4.14,4.14,0,0,1-4.11-4.25c0-6.24,9.49-28.34,27.06-47.4a2.44,2.44,0,0,0,.71-1.77,3.21,3.21,0,0,0-1.63-2.69c-.28-.21-.56-.5-.56-.78,0-.43,1.62-1.63,3.75-1.63a5,5,0,0,1,4.39,2.62c.5.85,1.49,2.2,1.84,2.9a6.45,6.45,0,0,1,.93,2.91c0,1.63-1.21,2.62-3.41,3.61-6.23,2.91-13,9.85-17.49,17.79,1.7-1.49,8-6,14.87-6,8,0,13.68,5.6,13.68,12.47a14.23,14.23,0,0,1-.78,4.4,21.84,21.84,0,0,0-1.21,6.51c.07,3.55,2.77,5.39,6.66,5.39a21.73,21.73,0,0,0,10.42-3.33,10.12,10.12,0,0,1,2.83-1.42.19.19,0,0,1,.21.21c0,1.28-7.36,11.2-17.78,11.2-6.66,0-12.11-4-12.11-10.7Z" style="fill:#fff"/><path d="M32,173C13,173,10.63,157.32,10.63,155.12c0-.43.07-.64.28-.64s.85.78,1.49,2.13c2.69,5.81,9.35,7.86,15.66,7.86A25.88,25.88,0,0,0,37,163c1.7-.63,3.4-1.63,4.68-2.12a8.69,8.69,0,0,1,3.11-.57c2.2,0,5.25,1.42,5.25,4.11C50,169.08,41.3,173,32,173m4.32-37.76c-3-.14-5.88-.42-8.92-.42-1.14,0-2.34.07-3.55.14a10.5,10.5,0,0,1-1.41.07c-.78,0-1.21-.07-1.21-.36s.5-.63,1.84-1.27c2-.92,3.55-1.7,3.55-2.69a1.47,1.47,0,0,0-.43-.92c-1.41-1.56-5.74-2.34-7.93-4.54-.57-.64-1-1-1-1.27s1-.36,1.7-.36c1.34,0,3.33.36,5.88.36,4.6,0,11.76.49,14.17,3.4a16.56,16.56,0,0,0,2.33,2.55,3.39,3.39,0,0,1,1.56,2.41c0,1.7-2.34,2.9-5.81,2.9Z" style="fill:#fff"/><path d="M23.8,218.81c-1.56,0-7.86-.07-7.86-.85,0-.36,1.42-.71,3.4-.92,17.22-2.13,30.46-12.12,30.46-23a12.59,12.59,0,0,0-13-12.54,15.13,15.13,0,0,0-8.86,2.76c-6.8,4.89-10.48,12.69-13,16a8.76,8.76,0,0,1-7,3.68A7.71,7.71,0,0,1,0,196.07c0-1.63,1.42-6.1,2-6.1.22,0,.57.22,1.07.71,1.27,1.28,2.76,2.41,3.82,2.41A4.86,4.86,0,0,0,9.63,192c3.48-2.62,6.73-6.52,15.45-11.2a25.34,25.34,0,0,1,11.9-3c13.46,0,22.18,10.7,22.18,19.13,0,8.85-10.13,21.82-35.36,21.82" style="fill:#fff"/><path d="M53.83,190.72c3-1.49,6.06-3.55,7.85-6.14a4.75,4.75,0,0,0,.94-4A2.14,2.14,0,0,0,59.93,179a2.25,2.25,0,0,0-1.3,1.2,2.38,2.38,0,0,0-.05,1.87,4.55,4.55,0,0,0,3.56,2.52,9.3,9.3,0,0,0,5-.47,11.56,11.56,0,0,0,4.31-2.85.5.5,0,0,1,.71,0,.52.52,0,0,1,0,.69,11.83,11.83,0,0,1-10.31,4.28,7.32,7.32,0,0,1-2.91-1,5.54,5.54,0,0,1-2.21-2.4,4.51,4.51,0,0,1-.11-3.46,4.44,4.44,0,0,1,2.48-2.55,4.78,4.78,0,0,1,1.82-.31,4.62,4.62,0,0,1,1.82.5,5.07,5.07,0,0,1,2.34,2.73,6.3,6.3,0,0,1,.37,1.71,9.64,9.64,0,0,1-.11,1.71,9.53,9.53,0,0,1-1.17,3,18.3,18.3,0,0,1-4,4.49A31.36,31.36,0,0,1,55.45,194a1.81,1.81,0,1,1-1.77-3.15l.07,0Z" style="fill:#fff"/><path d="M49.52,5.5a9.55,9.55,0,0,0-5.45,1.91A17.36,17.36,0,0,1,37.3,9.57a1,1,0,0,0,.14,2h1.24a30,30,0,0,0,5.67-.43c.21,0,.5-.07.71-.07a1.81,1.81,0,0,1,2,2,9.85,9.85,0,0,1-1.91,4.81c-1.22,1.86-4.1,4-6.87,5.85-1.67,1-5.51,3.23-9.14,5.32-1.28-3.22-3.05-7.77-3.05-7.77C24,16.9,20.26,12.3,12.19,8.54A25.89,25.89,0,0,1,7.72,6.27c-.78-.56-1.2-.92-1.49-.92S6,5.5,6,5.78c0,2.9,3.69,5.6,4.11,5.88,6.8,4.89,9.35,13.71,13,20.85-3.13,1.79-7.23,4.44-9.22,8.24a10.55,10.55,0,0,0-1.51,5.55c0,7.65,8.92,15.16,20.83,15.16,6.73,0,15.94-2.26,15.94-7.43,0-2.27-2.55-3.9-5.18-3.9-2,0-3.75,1-5.52,1.77a20.68,20.68,0,0,1-8,1.63c-7.22,0-14-4.18-14-9.49a6,6,0,0,1,.71-2.8A10.82,10.82,0,0,1,18.89,39a28,28,0,0,1,5.53-4c2.35,3.92,5.3,7,9.94,8.19a10.83,10.83,0,0,0,2.06.21c3.82,0,5.52-2.41,5.52-4,0-2.27-2.62-5-7-5a4.63,4.63,0,0,1-4.6-2.8c3.84-2.21,18.08-9.26,21.1-11.79s4.68-5.74,4.68-8.5c0-4.25-3.75-5.88-6.59-5.88" style="fill:#fff"/><path d="M118.26,57.17a10.75,10.75,0,0,1-14.93,2,1.06,1.06,0,0,1-.32-1.37,1.08,1.08,0,0,1,1.31-.51,10.53,10.53,0,0,0,11.76-3.46,10,10,0,0,0,1.39-2.43l-.64-.35a9.1,9.1,0,0,1-.75,1.34,9.69,9.69,0,0,1-13.28,2.8,1.08,1.08,0,0,1,.86-2,9.25,9.25,0,0,0,10.08-3.76.43.43,0,0,1,0-.07l-.76-.4a5.35,5.35,0,0,1-9.47-4.47c-3.06-1.3-5.5-2.18-7.25-2.75l3.29,3.62a1.08,1.08,0,0,1-1.17,1.74L92.48,45A62.08,62.08,0,0,0,109.25,67.4c1.18,1,2.41,2,3.67,3h19.42v2c0,2.89,2.78,3.66,5.12,3.66,3,0,8.56-.77,8.56-4.89,0-.18,0-.38,0-.57A231.71,231.71,0,0,0,120.23,53a10.72,10.72,0,0,1-2,4.14m2.28.39c.06,0,6.13,3.82,9.22,5.26a1.09,1.09,0,0,1-.17,2,27.27,27.27,0,0,1-6.86.86,18.47,18.47,0,0,1-9.06-2.09,1.06,1.06,0,0,1-.54-1.08,1.1,1.1,0,0,1,.82-.91c.16,0,4.11-1,5-3.52a1.09,1.09,0,0,1,1.59-.55h0" style="fill:#fff"/><path d="M117.07,62.74a21.67,21.67,0,0,0,9,.58c-2.05-1.14-4.27-2.48-5.65-3.32a8.54,8.54,0,0,1-3.32,2.74" style="fill:#fff"/><path d="M111.86,46.54a3.19,3.19,0,0,0-3.11-3.92,3.19,3.19,0,0,0-2.53,1.26.87.87,0,0,1-.09.11,1.76,1.76,0,0,0-.22.37,3.53,3.53,0,0,0-.26.68,3.2,3.2,0,0,0,5.67,2.69l.07-.09.31.17-.29-.19a2.88,2.88,0,0,0,.24-.46,2.83,2.83,0,0,0,.21-.62m-1.41-.37a2.45,2.45,0,0,1-.13.38l-.13.25-.08.08a1.69,1.69,0,0,1-1.37.68,1.73,1.73,0,0,1-1.7-1.4,1.75,1.75,0,0,1,0-.72,1.63,1.63,0,0,1,.13-.37,1.34,1.34,0,0,1,.11-.21l.09-.1a1.73,1.73,0,0,1,2.32-.37,1.75,1.75,0,0,1,.74,1.78" style="fill:#fff"/><path d="M107.85,69C94,57.21,89.77,44.08,89.6,43.53a1.09,1.09,0,0,1,.28-1.1A1.06,1.06,0,0,1,91,42.2l4,1.47-2.9-3.19,0,0a1,1,0,0,1-.2-.39s0-.09,0-.1l0-.16a.69.69,0,0,1,0-.26.15.15,0,0,1,0-.07l0-.08a1.07,1.07,0,0,1,.23-.35l.09-.08a1,1,0,0,1,.42-.23,37,37,0,0,1,8.46-.8l1,0a52.22,52.22,0,0,1,21.42,5.31l.34.17,1.43.72.37.19,1.42.77.08,0,2,1.13,10.27-2.71a1.09,1.09,0,0,1,1,.25,1.06,1.06,0,0,1,.33,1,18,18,0,0,0,2.95,12c.56.48,1.1,1,1.64,1.46-.3-5.53-.61-11.38-.61-16.93,0-1.45.11-2.89.11-4.34,2.12-.55,3.45-1.78,3.45-3.22,0-2.67-9.45-8.67-11.23-8.67-1.22,0-4.22,3.55-5.56,6h-19c4.56-2.89,12.23-8.12,15.68-8.12H129c3.67,0,4.89-2,4.89-3.78,0-4.44-10.45-10.33-12.9-11-.33,0-.55-.11-.89-.11-1.33,0-4.22,3.55-5.45,5.33H103.44l2.89-3.89c.44,0,.89.11,1.22.11,2.45,0,3.78-1,3.78-2.11,0-3.33-15-7.56-18.12-7.56-1.11,0-.89.33-1.11,1.11-1.89,9.45-13.57,33.24-28.69,46.47-1.11,1-1.55,1.45-1.55,1.67H62c.78,0,6.89-2.78,17.12-11l.11.56c.11,1.22.11,2.56.11,4.23a275.84,275.84,0,0,1-1.78,28.9v.45c0,2.55,2.23,3.44,5,3.44,7.9,0,9.12-3.11,9.12-5v-.45h17.82c-.55-.44-1.1-.89-1.62-1.33m-6.53-53h13.46c-1.45,4.67-4,12-5.67,15.12H94.32c-.11-.11-.22-.22-.33-.22a32.12,32.12,0,0,0-4.23-2.34A146.69,146.69,0,0,0,101.32,16" style="fill:#fff"/><path d="M131.74,47.82c2.64,1.69,5.28,3.56,7.86,5.57A19.75,19.75,0,0,1,138.53,46Z" style="fill:#fff"/><path d="M64.08,96.5c0-2.11,1.33-4.33,4.23-6.11,5.78-3.34,11.33-7.12,12.11-13.46.11-.66.23-.88.34-.88.55,0,3.89,4.55,3.89,11.11,0,10.45-8.34,15.46-13.45,15.46-4.12,0-7.12-2.89-7.12-6.12" style="fill:#fff"/><path d="M93.65,94.39A53.59,53.59,0,0,0,94,88.16c0-3.44-.45-6.89-1.78-9.34a4.65,4.65,0,0,1-.67-1.11.11.11,0,0,1,.11-.11c.34,0,17,4.56,17,15,0,5.11-3,9.12-8.45,9.12-6.56,0-6.56-5.78-6.56-6.45Z" style="fill:#fff"/><path d="M118,96.06c-.56-5.45-2-13.68-6.11-17-.67-.56-1-.89-1-1s0-.12.22-.12c4.89,0,21.12,4.56,21.12,14.9,0,8.67-7.78,8.67-8.23,8.67a6.12,6.12,0,0,1-6-5.44" style="fill:#fff"/><path d="M144.13,96.17c-3.56-9.45-4.78-12.9-9.45-16.57-.78-.66-1.34-1-1.34-1.22s.11-.22.45-.22c3.11,0,25.12,3.56,25.12,15,0,4.11-2.89,8.45-8.11,8.45-2.78,0-5.23-1.56-6.67-5.45" style="fill:#fff"/></svg>