<svg xmlns="http://www.w3.org/2000/svg" viewBox="0 0 224.11 102.84">
  <title>アセット 1</title>
  <path d="M79.6,12.12a89,89,0,0,0,4.78,27,65.12,65.12,0,0,0,7.9-18c.11-.33.11-.44.33-.44,1.89,0,13.45,9.11,13.45,13.12,0,.78-.44,1.22-1.44,1.22a8.64,8.64,0,0,1-2.78-.67,77,77,0,0,1-16.57,7.34c6.45,18.12,16.9,33.13,23.79,38.69.45.44,1,.78,1,1.11s-.33.45-1.11.56c-2.11.33-8.56.55-12.56,2.89a6.25,6.25,0,0,1-2.89.89,4.34,4.34,0,0,1-3.78-2.23c-6.78-10.89-12-31.68-12-60.81,0-3.45.11-7,.22-10.67l-8-.11a13.42,13.42,0,0,1,2,.78c1.22.55,1.78,1.22,1.78,1.89,0,1.11-1.45,2-3.89,2.11a50.52,50.52,0,0,1-7.45,7.11C72.15,33.58,79.94,53,79.94,70.82c0,19.12-9,29.13-18.79,29.13a5.26,5.26,0,0,1-5-2.89c-1.55-3.23-5.67-6.12-7.67-7-1.22-.55-1.89-.89-1.89-1.11s.23-.22.78-.22,1,.11,1.67.11c1.11.11,2.67.22,4.33.22,7.45,0,15-1.55,15-21.46,0-2.22,0-4.44-.11-6.78A62.2,62.2,0,0,1,40,86.61c-1.22,12.22-13.89,13.67-14.23,13.67a4.11,4.11,0,0,1-4-2.56c-1.11-2.55-4.78-5.11-8.45-6.56a6.48,6.48,0,0,1-1.67-.66c-4,6-10.45,11.89-11.56,11.89a.38.38,0,0,1-.11-.22A7.71,7.71,0,0,1,1.33,100c8.45-11.23,10-36.58,10-56.81,0-10.68-.44-20-.44-25A124.81,124.81,0,0,0,9.45,5.45c-.11-.67-.33-1.11-.33-1.34s.11-.33.66-.33C12,3.78,19.12,6,23.9,8.23l.89.44h2.45C28,7.56,30.91,4,32.24,4c.89,0,10.23,4.67,10.23,7.67,0,1.12-1.33,2-3.56,2.78v3.23c0,3.55,0,9.56.11,16.34,7.9-4.67,17.57-15.68,19.9-21.9-4.67,0-10,.22-14.23.67,0,0-1.66-.78-2.33-4.12,7.89,1,22.9,1.11,27.35,1.11H84.38C85.27,8.34,89.94.44,91.83.44c3,0,13,8.34,13,10.57,0,1-1.67,1.11-2.45,1.11ZM28,58.15H21.57C20.12,71.26,17.23,81.6,12,89.94h3.44C25,89.94,28,87.72,28,83.16Zm0-24.8H22.79c-.11,8.23-.33,15.57-1,22.24H28Zm0-22.12H24.57a14.21,14.21,0,0,1-1.67.55c-.11.67-.11,1.12-.11,9.57.11,1.55.11,3.22.11,4.78s0,3.11-.11,4.67H28ZM39.36,57.37c7.56-6.45,15.56-17.79,17.56-27.69.11-.55.11-.77.45-.77.66,0,2.55.66,5.22,2.11A35.63,35.63,0,0,0,60,25.57,78,78,0,0,1,39,35.91Zm25.9-18c-3.78,6.56-15.68,16.56-25.9,20.56.22,7.67.33,13.9.55,15.79s.11,5.34.22,8.23C48.7,76.71,57.7,61.37,60.7,48.25c0-.22.11-.56,1-.56a20.4,20.4,0,0,1,5.56,2.45C66.71,46.47,66,42.8,65.26,39.36Z" style="fill:#fff" />
  <path d="M210.55,26.24a1.94,1.94,0,0,0-.78-.11c-1.11,0-2.11,1.44-5.56,6.22h-2c-.11-2-.11-5.89-.11-9.89s0-8,.11-10.45c2.44-.56,4-1.78,4-3.12,0-2.66-9.45-8.89-12.34-8.89-1.56,0-4.67,3.56-6,5.78H160l-.55-.44c-3-1.45-11.34-4.9-16.24-4.9-.55,0-.66.12-.66.45s.22,1,.33,2.11a150.27,150.27,0,0,1,.67,15.9c0,3.67-.11,8.23-.34,13.45h-2.89c-1.89-5.56-4.67-7.78-4.67-7.78s-.11.33-.11,1c-.22,6.56-5.56,11.12-11.23,14.68-2.66,1.66-3.78,3.78-3.78,5.78,0,3.67,3.56,6.89,8.12,6.89,2.67,0,12.56-2.67,12.56-14.34a22.19,22.19,0,0,0-.33-3.89h63.93a61.12,61.12,0,0,1-3.56,11c-1.89-1.55-7.9-5.33-9.45-5.33-.45,0-.56.22-1,.44a42.09,42.09,0,0,0-5.12,5.12H161.3c-.11-.12-.23-.23-.34-.23-3.22-2.11-12.78-4.78-16.78-4.78-.67,0-.89.11-.89.56s.22,1.22.33,2.56c.33,3.78.44,9.78.44,11.34,0,8.33-.33,25.45-.77,34.79-.56,8.45-.56,8.79-.56,8.9,0,2.78,3.11,3.78,5.89,3.78s9.56-.45,9.56-6V96.5c0-.89,0-2.45-.11-7V76.82h28.57v6.34c-.11,5.78-4.33,7-16.67,7h-1.89a11.7,11.7,0,0,0-1.78-.11c-.67,0-1,.11-1,.22s1,.56,2.33,1c4.34,1.55,9,4.55,10.9,8a5.44,5.44,0,0,0,5,2.78c3,0,17.79-3.78,17.79-15.57v-.22c0-3.11-.11-7.56-.22-9.56-.11-4.45-.45-12.9-.45-19.12,0-1.78,0-3.34.11-4.56,2.45-.78,3.89-2,3.89-3.33a5.66,5.66,0,0,0-2-2.89,19.84,19.84,0,0,1,9.9-2.67,14,14,0,0,1,3.89.44,12.66,12.66,0,0,0,2.67.34c3.44,0,5-2.23,5-4.56C224.11,35,213.33,27.24,210.55,26.24Zm-51.93-9c-3.28-2,2.8-8,4.85-6.14C165.06,12.55,160.88,18.63,158.62,17.22Zm23.69,10.39c-2.55,3.41-6.72,2.31-8.64,1.56a2.82,2.82,0,0,0-2.06,0c-1.92.75-6.1,1.85-8.65-1.56-4.32-5.77,4.21-12.72,8.88-16a1.38,1.38,0,0,1,1.6,0C178.11,14.89,186.63,21.84,182.31,27.61Zm4.34-10.39c-2.26,1.41-6.44-4.67-4.84-6.14C183.85,9.19,189.94,15.17,186.65,17.22Zm0,56.93H158.07c0-3.89.11-7.78.11-11.45h28.46Zm0-14.11H158.29c0-4.12.12-7.68.23-10a6,6,0,0,0,2.67-1.45h25.45Z" style="fill:#fff" />
  <path d="M175,20.57a.29.29,0,0,0-.45.22c-.1,1.41-.17,5.4,2.16,5C178.64,25.48,178.08,22.67,175,20.57Z" style="fill:#fff" />
  <path d="M170.29,20.57c-3.1,2.1-3.66,4.91-1.71,5.23,2.33.39,2.25-3.6,2.15-5A.29.29,0,0,0,170.29,20.57Z" style="fill:#fff" />
</svg>