<svg xmlns="http://www.w3.org/2000/svg" viewBox="0 0 316.58 93.12">
  <title>アセット 1</title>
  <path d="M51.7,88.45c0,2.94-4.45,4.56-8.9,4.67-3.89,0-7.56-.61-7.56-3.56v-.3c.45-4.57,1-22.13,1.23-36.14H14.79l.11,5.08c0,3.65-6.23,4.46-9.23,4.46S0,61.85,0,59.72v-.4c.22-1.43,1.78-17.87,1.78-27.51,0-1.12-.33-7.92-.78-12.08a5.85,5.85,0,0,1-.11-1.22c0-.2,0-.3.33-.3,4,0,13.12,2.94,16.35,4.87l.55.3H36.69c0-12.58-.34-16.24-.78-20.19-.11-1.12-.33-1.63-.33-1.93,0-.1,0-.41,3.11-.41s16.23.81,16.23,3.76c0,.91-1.11,2-4.11,2.84-.23,1.32-.34,7.51-.34,15.93H69.82c1.11-1.82,4.22-5.78,5.45-5.78,2.22,0,14.11,5.68,14.11,8.42,0,1.42-1.66,2.64-4.55,3.25v1.12c0,4.16.44,12.69.78,18.57l.66,8.32c0,4.57-8.67,4.78-9.34,4.78-2.55,0-5.89-.61-5.89-3.66v-.1c.11-1.72.11-3.45.11-5.18H50.7L51.14,75l.56,13.39ZM36.47,50.79c.22-8.53.22-17.36.22-25H17.9a6.74,6.74,0,0,1-2.56,1.52c-.44,4.16-.55,9.44-.55,15.13v8.32Zm34.79-.2c-.11-6.4-.22-20.1-.22-24.77H50.47c0,7.31.11,16.14.23,25H71.26Z" style="fill:#fff" />
  <path d="M219.7,77.36a9,9,0,0,1-6.4,3c-2.52,0-4.53-1.43-4.53-3.44A5.44,5.44,0,0,1,211,73.05,9.1,9.1,0,0,0,212.87,71c4.53-7.63,17.91-17.76,19.92-22.14a1.26,1.26,0,0,0,.15-.69,1,1,0,0,0-1.15-1,3,3,0,0,0-.94.19c-1.87.75-3.81,2.88-5.75,3.88a7.93,7.93,0,0,1-3.74.94c-3.1,0-5.68-1.94-5.68-4.94,0-1.76.86-3.69,1.51-3.69a1.53,1.53,0,0,1,.57.18c2.59,1.32,4.17,1.88,5.61,1.88a11.47,11.47,0,0,0,4.17-1.06c2.16-.88,3.89-3.19,6.62-3.19a5.57,5.57,0,0,1,2.45.56c1.29.62,2.73,2,3.81,2.44,2,.75,2.73,1.75,2.73,2.81,0,2.07-2.66,4.26-3.74,5.13-5.54,4.63-22.08,14.2-24.24,20.08a.7.7,0,0,0-.07.37c0,.75.86,1.07,1.44,1.07,5.9-.25,8.49-5.26,21.43-9.2a24.83,24.83,0,0,1,7.2-1.12c6.25,0,11.36,2.69,11.36,6.13,0,1.75-1.44,3.19-4,3.19a8,8,0,0,1-1.94-.25c-4.24-1-5-3.13-10.07-3.13a29.09,29.09,0,0,0-5.68.62c.07,0-.15.07-.65.13-7,1.25-12.59,6-12.59,10,0,2,1.37,5,9.57,5a29,29,0,0,0,5.39-.44,26.63,26.63,0,0,1,4-.37c6.05,0,6.26,3.25,6.26,3.88,0,2.31-2.66,4.62-9,4.62-13.16,0-19.21-5.37-19.21-10.75a9.56,9.56,0,0,1,2.67-6.26Z" style="fill:#fff" />
  <path d="M304,50a3.88,3.88,0,0,1,.79-.06c2.52,0,4,1.37,4,3.12,0,1.38-1,4.95-11.79,7.2.86,5.5,2.37,12,2.59,17.32,6,1.57,13.74,5.26,13.74,10.2a3.69,3.69,0,0,1-3.6,3.81,5.27,5.27,0,0,1-4-2.12,44.47,44.47,0,0,0-6.62-6.26c-1.43,4.94-6.47,8.07-12.15,8.07a15.9,15.9,0,0,1-7.19-1.69c-1.8-.94-1.66-2.12-3.39-2.69a3.27,3.27,0,0,1-2.51-3.06c0-3.57,5.61-7.63,15.32-7.63,1.36,0,2.73.12,4.1.25,0-.57.07-1.13.07-1.75a116,116,0,0,0-1.22-13.58c-3.24.38-6.33.44-6.48.44a11.16,11.16,0,0,1-11-7.38l-.15-.25c-.5-1.13-1.07-2.31-1.65-2.31-.29,0-.58.31-.65,1.37-.43,6.19-4,10.45-5.39,25.9,0,.18-.07.31-.07.43-.08,1.07-.15,2.13-.15,3.07a9.63,9.63,0,0,0,.43,3.25,6.4,6.4,0,0,1,.51,2.44,3.12,3.12,0,0,1-3.38,3.25c-4.1,0-9.79-5.06-9.79-15.88,0-5.82,1.87-11.95,4.32-21a31.74,31.74,0,0,0,1.37-8.13,5.38,5.38,0,0,0-.22-1.88,6.07,6.07,0,0,1-.36-1.44c0-.25.07-.43.29-.43.57,0,5.47,2.87,5.47,9.25a16.59,16.59,0,0,1-.94,5.26c-1.73,5.38-3.16,11.82-3.16,15.95,0,3.06.79,4.19,1.29,4.19.14,0,.29-.25.43-.63.43-1.44.86-2.75,1.44-4.19,3-9.32,6.47-16.14,6.83-19.39.15-1.62.87-2.19,1.66-2.19a2.36,2.36,0,0,1,1.58.75A25.35,25.35,0,0,0,277,53.78a16.51,16.51,0,0,0,8.77,2.38H286a35.23,35.23,0,0,0,5.54-.44,38.82,38.82,0,0,1-.22-3.88c0-2.62.36-4.69,1.3-6a6,6,0,0,1,4.67-2.75,3.21,3.21,0,0,1,3.46,3.25V47a3.25,3.25,0,0,0,3,3.07ZM285.8,79.36c-5.54,0-7,2-7,2.82,0,1.56,3.52,2.88,6.62,2.88,1.51,0,6.61-.25,7.33-4.57A20.38,20.38,0,0,0,285.8,79.36ZM301,51.72c0-1.25-1.22-3.13-2.15-3.13-.51,0-2.38,1.19-2.38,5.94C300.83,53.28,301,52.28,301,51.72Zm2.52-6c-.79-1.93,0-3.37-3-5.06-.5-.25-.79-.44-.79-.57s1.72-.18,1.8-.18c4.24,0,7.41,1.94,7.41,4.88a2.74,2.74,0,0,1-2.81,2.69A2.65,2.65,0,0,1,303.49,45.71Zm7.62-1.43c-1-2-.43-3.57-3.74-5-.5-.25-.79-.37-.79-.5,0-.31,2.31-.31,2.45-.31,7.41,0,7.55,4.19,7.55,4.82a2.68,2.68,0,0,1-2.8,2.68A2.92,2.92,0,0,1,311.11,44.28Z" style="fill:#fff" />
  <path d="M122.74,13.09h5.45a12.69,12.69,0,0,1-.11,2.24,31.1,31.1,0,0,1-.56,3.85v.41c0,1.93,2.89,3,5.78,3,4.34-.1,8.45-1.31,8.45-3.55,0-.4-.22-1.72-.22-3.65l.11-2.34h14.12v1.22c-.11,1.93-.33,3-.44,4.87v.11c0,2.23,3,3.34,6.11,3.34,4.11,0,8.23-1.11,8.23-3.45v-.1c0-.4-.11-2.23-.22-4a9.83,9.83,0,0,1-.12-2l27.91.11c.78,0,2.22-.21,2.22-1.22C199.45,9.64,189,.81,186.33.81a2.07,2.07,0,0,0-1,.41c-1.11.71-5.11,6.7-7.22,9.54h-8.9c0-1.83,0-3.76.11-4.87,2.45-.71,3.34-1.63,3.34-2.44C172.66,1,163,0,158.1,0h-.67c-1.67,0-2.11,0-2.11.41s.22.91.33,1.82c.11,1.53.22,2.44.22,4.27v4.26H141.64c0-1.73.11-3.55.11-5,2.56-.71,3.45-1.63,3.45-2.44C145.2.51,134.08,0,130.75,0H130c-1.78,0-2.11,0-2.11.51,0,.3.11.81.22,1.72a27.14,27.14,0,0,1,.22,4.27,8,8,0,0,1,.11,1.82,19.65,19.65,0,0,1-.11,2.44h-3.11s-17.12-.1-27.13-.81c0,1.32,1.33,3.25,1.89,3.85C108,13.09,118.3,13.09,122.74,13.09Z" style="fill:#fff" />
  <path d="M187.89,32.79c-1.11,0-5.67,5.68-7.78,8.83h-4.23V30c1.78-.6,2.67-1.42,2.67-2.13a.56.56,0,0,0-.11-.4h14.34c.78,0,2.23-.21,2.23-1.22,0-2.34-10.23-8.93-12.57-8.93-1.66,0-6,5.38-7.56,7.81h-38s-22.9,0-32.35-.81c0,1.22,1.44,3.15,1.89,3.65,3.22-.2,8-.3,12.67-.4.11.91.34,4.16.56,14.11-4.89-.1-15.45-.1-21.35-.81a7,7,0,0,0,1.89,3.75c6.34-.51,14.57-.61,19.46-.71,0,5.89-.11,12.08-.11,15-5.34,0-12.34-.2-16.79-.71A6.92,6.92,0,0,0,104.62,62c6.89-.51,16-.71,20.57-.71h16.67l-.44,10.55H134.3s-22.45,0-32.57-.71a6,6,0,0,0,1.89,3.76c8.12-.71,23.9-.71,28.35-.71h9.34l-.11,4c-.23,5.48-.45,8.62-.56,10.65v.11c0,2.74,2.89,4,6.12,4,.33,0,9.22,0,9.22-4.46v-.2c-.22-3.25-.33-5.59-.44-10.26l-.11-3.75h39.24c.78,0,2.23-.2,2.23-1.12,0-1.72-11-10.15-14-10.15-2.11,0-8.67,8.83-8.79,8.93H155.32c0-3.65-.11-7.2-.23-10.45h39.58c.67,0,1.89,0,1.89-1.12,0-2.94-10.11-9.95-11.34-9.95s-5.45,6-6.89,8.63h-2.45V54.2H128.51V31.93h37.35V44.87H143.14V40.62h18.47V36.18H132.77V50h43.11v-5.9h21.79c.89,0,2.12,0,2.12-1C199.79,40.3,189.78,32.79,187.89,32.79Z" style="fill:#fff" />
</svg>