<svg xmlns="http://www.w3.org/2000/svg" viewBox="0 0 107.98 96.43">
  <title>アセット 1</title>
  <path d="M38.36,62.93A179.46,179.46,0,0,1,11.67,80.38v.56c0,1.55-.55,3.44-1.78,3.44C7.12,84.38,0,70.82,0,69.48c0-.55.67-.55,2.11-.88,4-.78,8.56-1.89,13.12-3.12V38c-3.56,0-7.78.22-12.56.67A6.71,6.71,0,0,1,.89,34.58c4,.55,9.89.66,14.34.77,0-18.67-.11-23.57-.44-27.12C14.67,7,14.45,6.34,14.45,6c0-.55,3-.55,3.23-.55,3.11,0,14.56,1.22,14.56,3.89,0,.89-1.11,1.89-4.22,2.89-.12,1.33-.23,11.78-.23,23.12h1c1.23-2.22,3.34-7,4.9-8.89a.8.8,0,0,1,.66-.44c1.23,0,3.67,2.66,3.78,2.89C42.91,21.46,48,5.56,48.25,1.11,48.36.11,48.14,0,49.36,0c3.23.11,16.23,4.78,16.23,7.34,0,1-1.55,1.89-4.89,2.22a79.63,79.63,0,0,1-5.33,7.56h25c2.22-3.11,5-7.89,7.34-9.78.33-.22.55-.45.78-.45,3.33,0,13,9.45,13,11.68,0,1-1.33,1.11-2.11,1.11H53.25a50.8,50.8,0,0,1-7,6.78c3.67.33,10.34,3,12.45,4.45.11,0,.11.11.22.22H77.71a28.58,28.58,0,0,1,4-4.89c.34-.22.56-.45.89-.45,1.11,0,11.45,4.89,11.45,8.23,0,1.45-1.33,2.67-3.44,3.22.11,1.34.33,7.45.55,9.68.11,1.22.45,3.11.56,4.55v.12c0,4.22-6.78,4.78-8.67,4.78-2.23,0-4.56-.67-4.56-3.45V51.47H56.59a8.3,8.3,0,0,0,.11,1.45V53c0,3.67-3.67,4.89-7.89,4.89a6.44,6.44,0,0,1-3.89-1c-.45.56-1.45,1.34-2.79,2.67a13.79,13.79,0,0,1-1.33,1.33ZM43.91,54c0-1.55.34-3.56.45-5.11.22-2.23.33-8.34.33-12V34.8a35.2,35.2,0,0,0-.44-6.45V28c-1.45,1-2.89,2-4.45,2.89,1.78,2.33,3.45,4.78,3.45,5.67,0,1.11-1.34,1.44-2,1.44l-13.46-.11V62c5.9-1.78,10.79-3.34,13.23-4.23,1.67-.55,2.78-1.11,3.56-1.33a2.74,2.74,0,0,1-.67-2ZM78.49,33.69H58.92a4.58,4.58,0,0,1-2.44,1.44c0,2.11,0,10.12.11,13.68h21.9Z" style="fill:#fff" />
  <path d="M89.43,84.7c-2-2.66-19.25-26-24.44-26S42.51,82,40.55,84.7a.73.73,0,0,0-.06.74.71.71,0,0,0,.64.39H88.86a.71.71,0,0,0,.57-1.13ZM69.59,68.44a3.37,3.37,0,0,1,4.65,0,1.07,1.07,0,0,1,0,1.51,1.1,1.1,0,0,1-.75.31,1.08,1.08,0,0,1-.75-.31,1.2,1.2,0,0,0-1.65,0,1.06,1.06,0,0,1-1.5-1.51Zm-4.35-1.83a1.07,1.07,0,0,1-1.5,0,1.05,1.05,0,0,1,0-1.5,3.28,3.28,0,0,1,4.65,0,1.06,1.06,0,0,1-1.5,1.5A1.18,1.18,0,0,0,65.24,66.61Zm1.55,8.1a1.05,1.05,0,0,1,0-1.5,3.28,3.28,0,0,1,4.65,0A1.06,1.06,0,0,1,70.69,75a1,1,0,0,1-.75-.31,1.18,1.18,0,0,0-1.65,0A1.07,1.07,0,0,1,66.79,74.71ZM72.58,82a1.07,1.07,0,0,1-1.51,0,1.18,1.18,0,0,0-1.64,0,1.06,1.06,0,0,1-1.5-1.51,3.3,3.3,0,0,1,4.65,0A1.08,1.08,0,0,1,72.58,82Zm3.56-3.93a1.16,1.16,0,0,0-1.65,0,1.06,1.06,0,0,1-1.5,0,1.06,1.06,0,0,1,0-1.51,3.3,3.3,0,0,1,4.65,0,1.06,1.06,0,0,1-1.5,1.51ZM82.64,82a1,1,0,0,1-.75.31,1.05,1.05,0,0,1-.75-.31,1.2,1.2,0,0,0-1.65,0,1.06,1.06,0,0,1-1.5-1.5,3.28,3.28,0,0,1,4.65,0A1.05,1.05,0,0,1,82.64,82Z" style="fill:#fff" />
  <polygon points="93.93 95.72 107.28 89.09 22.7 89.09 36.05 95.72 93.93 95.72" style="fill:#fff;stroke:#fff;stroke-linecap:round;stroke-linejoin:round;stroke-width:1.41732283464567px" />
</svg>