<svg xmlns="http://www.w3.org/2000/svg" viewBox="0 0 102.73 214.28"><title>アセット 1</title><polygon points="63.1 184.32 56.04 184.32 56.15 188.32 63.1 188.32 63.1 184.32" style="fill:#fff;stroke:#fff;stroke-linecap:round;stroke-linejoin:round;stroke-width:0.708661417322835px"/><polygon points="63.1 204.25 63.1 193.99 56.31 193.99 56.6 204.25 63.1 204.25" style="fill:#fff;stroke:#fff;stroke-linecap:round;stroke-linejoin:round;stroke-width:0.708661417322835px"/><polygon points="65.94 204.25 72.45 204.25 72.72 193.99 65.94 193.99 65.94 204.25" style="fill:#fff;stroke:#fff;stroke-linecap:round;stroke-linejoin:round;stroke-width:0.708661417322835px"/><polygon points="49.16 204.25 53.76 204.25 53.48 193.99 48.78 193.99 49.16 204.25" style="fill:#fff;stroke:#fff;stroke-linecap:round;stroke-linejoin:round;stroke-width:0.708661417322835px"/><polygon points="72.98 184.32 65.94 184.32 65.94 188.32 72.87 188.32 72.98 184.32" style="fill:#fff;stroke:#fff;stroke-linecap:round;stroke-linejoin:round;stroke-width:0.708661417322835px"/><polygon points="43.12 204.25 46.32 204.25 45.95 193.99 42.5 193.99 43.12 204.25" style="fill:#fff;stroke:#fff;stroke-linecap:round;stroke-linejoin:round;stroke-width:0.708661417322835px"/><polygon points="83.24 188.32 86.81 188.32 87.05 184.32 83.38 184.32 83.24 188.32" style="fill:#fff;stroke:#fff;stroke-linecap:round;stroke-linejoin:round;stroke-width:0.708661417322835px"/><polygon points="48.58 188.32 53.32 188.32 53.2 184.32 48.43 184.32 48.58 188.32" style="fill:#fff;stroke:#fff;stroke-linecap:round;stroke-linejoin:round;stroke-width:0.708661417322835px"/><polygon points="80.2 193.99 75.56 193.99 75.29 204.25 79.83 204.25 80.2 193.99" style="fill:#fff;stroke:#fff;stroke-linecap:round;stroke-linejoin:round;stroke-width:0.708661417322835px"/><polygon points="86.47 193.99 83.04 193.99 82.67 204.25 85.85 204.25 86.47 193.99" style="fill:#fff;stroke:#fff;stroke-linecap:round;stroke-linejoin:round;stroke-width:0.708661417322835px"/><polygon points="75.81 184.32 75.71 188.32 80.4 188.32 80.55 184.32 75.81 184.32" style="fill:#fff;stroke:#fff;stroke-linecap:round;stroke-linejoin:round;stroke-width:0.708661417322835px"/><polygon points="46.53 209.92 43.46 209.92 43.71 213.93 46.68 213.93 46.53 209.92" style="fill:#fff;stroke:#fff;stroke-linecap:round;stroke-linejoin:round;stroke-width:0.708661417322835px"/><polygon points="45.74 188.32 45.59 184.32 41.91 184.32 42.15 188.32 45.74 188.32" style="fill:#fff;stroke:#fff;stroke-linecap:round;stroke-linejoin:round;stroke-width:0.708661417322835px"/><polygon points="82.47 209.92 82.33 213.93 85.26 213.93 85.5 209.92 82.47 209.92" style="fill:#fff;stroke:#fff;stroke-linecap:round;stroke-linejoin:round;stroke-width:0.708661417322835px"/><polygon points="53.92 209.92 49.37 209.92 49.52 213.93 54.03 213.93 53.92 209.92" style="fill:#fff;stroke:#fff;stroke-linecap:round;stroke-linejoin:round;stroke-width:0.708661417322835px"/><polygon points="63.1 209.92 56.76 209.92 56.87 213.93 63.1 213.93 63.1 209.92" style="fill:#fff;stroke:#fff;stroke-linecap:round;stroke-linejoin:round;stroke-width:0.708661417322835px"/><polygon points="72.31 209.92 65.94 209.92 65.94 213.93 72.2 213.93 72.31 209.92" style="fill:#fff;stroke:#fff;stroke-linecap:round;stroke-linejoin:round;stroke-width:0.708661417322835px"/><polygon points="79.63 209.92 75.14 209.92 75.03 213.93 79.49 213.93 79.63 209.92" style="fill:#fff;stroke:#fff;stroke-linecap:round;stroke-linejoin:round;stroke-width:0.708661417322835px"/><path d="M21.35,65.15c.11-1.67.22-3.23.22-5.45h-7.9v3.78c.12,2.34.23,6.23.23,6.78v.34c0,3-5.45,4.44-8.45,4.44C2.67,75,.33,73.93.33,71.82v-.45C.44,70.37,1.78,54.7,1.78,21c0-2.67-.22-5.67-.45-9a12.06,12.06,0,0,0-.11-1.23c0-.11,0-.11.23-.11,3.66,0,11.34,2.89,14.34,4.78l.33.23h4.45c1.89-3,4.67-5.34,5.33-5.34,2.34,0,11,5.89,11,8.23,0,1.33-1.33,2.55-3.56,3.11,0,.67-.11,1.56-.11,2.78,0,9.11,1,31.91,1.22,34,.12,1,.45,4.22.45,5,0,4.45-6.89,4.89-8.56,4.89-2.34,0-5-.55-5-3.11ZM69.26,96.94c0,3.12-4.56,4.9-8.78,4.9-3.45-.11-6.67-.89-6.67-4.12V97.5c.44-7.67.78-19.46,1.11-30C36.58,92.72,3.45,96.61,2.89,96.61S2,96.5,2,96.39s.78-.67,3-1.34c19.9-6.33,38.47-25.68,47.36-50.8-5.22.11-11.45.33-15.34.66a9.23,9.23,0,0,1-1.89-4.11c4.34.67,14.12.78,20.24.89.11-6.23.11-12.23.11-17.57-4.45.12-10.34.34-16,.78a12.3,12.3,0,0,1-1.89-4.11c5.44.33,12.78.56,17.9.67,0-10.12-.45-18.24-.56-19.57C54.81,1.11,54.7.67,54.7.44c0-.44,1.67-.44,2-.44S72.15.56,72.15,4.11c0,.89-1,2-3.89,2.78-.22,1.34-.22,6.9-.33,14.68H74.6c6-9.45,7.23-9.56,7.89-9.56a3,3,0,0,1,1.34.33c4.22,2,11,8.89,11,10.34,0,1.11-1.55,1.44-2.33,1.44H67.93c0,5.23.11,11.12.11,17.57H78.27c2-3.22,6.22-9.45,7.34-10.45a2.07,2.07,0,0,1,.88-.22c3.56,0,13.12,10.45,13.12,11.78,0,1.11-1.44,1.45-2.33,1.45H71C76.6,62.26,94.28,78,101.61,82.6c.67.45,1.12.78,1.12,1s-.34.45-1.34.67c-3,.56-9.11,1-13,3.34a7.5,7.5,0,0,1-3.22.89,4.48,4.48,0,0,1-3.45-1.45c-5.67-6.11-10.56-16.23-12-42.8H68c.11,15.23.44,32.24.78,44.58.11,3.67.33,5.34.44,8ZM21.57,57.14c0-6.44.11-24.45.11-33.79V18.23H15.56a8.08,8.08,0,0,1-2,1.11c0,2.89.11,23.35.11,37.8Z" style="fill:#fff"/><path d="M31.13,181.11c0,4.78-7.23,4.78-7.56,4.78-2.11,0-4.89-.56-4.89-3.34v-.11c.11-1.78.22-3.33.22-5.78V175h-6v4c0,2.33.11,6.22.11,6.78v.33c0,2.78-4.56,4.23-7.78,4.23-2.67,0-5.23-1.23-5.23-3.45v-.45c1.22-8.67,1.33-49.36,1.33-55.14,0-2.67-.22-5.67-.44-9a6.28,6.28,0,0,0-.22-1.23c0-.11.11-.11.33-.11,0,0,9,1,13.79,4.23l.22.22h3a13.29,13.29,0,0,1,3.89-4.56,1,1,0,0,1,.67-.33c2.33,0,10.34,5.56,10.34,8,0,1.22-1.22,2.34-3.23,2.89,0,.78-.11,2.11-.11,3.89,0,9,.67,39.36,1.56,45.59ZM18.9,172.44c0-9.12.11-29.24.11-39.25V128H14.45a6.49,6.49,0,0,1-1.66,1.11c0,2.89,0,27.68.11,43.36Zm75.27-10.23c0,3.78-5.56,4.67-8,4.67s-4.22-.67-4.45-3.23H47.81V164c0,3.89-6,4.44-8,4.44-2.67,0-4.78-1-4.78-3.44v-.34c.78-7.44,1.22-24.68,1.22-27.35-.11-3-.44-6.78-.66-8.22-.11-1.11-.34-1.78-.34-2.11s.11-.45.56-.45c3.11,0,9.56,1.78,14.34,4.89.11.11.22.22.33.22H66.93c.89-3,3.33-14.11,3.33-18.45v-.33A3.2,3.2,0,0,0,70,112c0-.23.22-.23,1.34-.23,5.22.12,16.56,3.67,16.56,6.56,0,1.12-1.56,1.89-4.45,2A108.78,108.78,0,0,1,70.6,131.63H80.94c2.66-4.78,3.78-5.11,4.22-5.11,1.78,0,11.79,5.34,11.79,8.12,0,1.33-1.45,2.55-3.67,3.11,0,3.78.44,16.68.66,19,0,1.56.23,3.89.23,5.34ZM45,113.18c5.55,0,17.56,1.22,17.56,9.78A8,8,0,0,1,55,130.63a5.1,5.1,0,0,1-4.89-3.44C47.81,121.85,48.69,118.4,43,114c-.44-.22-.55-.45-.55-.56s.33-.22,1.11-.22Zm13.45,35.35H47.69c0,2-.11,3.89-.11,5.45s.11,2.78.11,3.45c0,1.67.12,2.78.12,3.67H58.48Zm0-2.66c-.11-1.56-.11-3-.11-3.9-.11-2.78,0-4.67-.22-7.11v-.56H50a8.78,8.78,0,0,1-2.11,1.11c-.11,1.89-.23,6.23-.23,10.46ZM81.83,134.3H71l1,.11c.78.23,1.45.67,1.45,1.34s-.67,1.22-2.67,1.67c-.11.89-.22,4.33-.33,8.45H81.94Zm.11,14.23H70.49V161.1H81.83c0-1.23.11-2.56.11-4Z" style="fill:#fff"/><path d="M74.54,175.82c-3.66-2.69-7.16-5.77-9.91-5.77h0l-7.33,10.4s2.17-8.16,1.52-7.69c-1.32,1-2.69,2-4.09,3.06a44.78,44.78,0,0,1-8.39,4.62h36.6A44.78,44.78,0,0,1,74.54,175.82Z" style="fill:#fff;stroke:#fff;stroke-linecap:round;stroke-linejoin:round;stroke-width:0.992125984251969px"/></svg>