<svg xmlns="http://www.w3.org/2000/svg" viewBox="0 0 142.91 226.05"><title>アセット 1</title><path d="M44.6,149.68c2.59,2,3.67,4.4,3.67,6.44,0,2.58-1.94,4.72-5.29,4.72a11.81,11.81,0,0,1-5.18-1.39C25.71,179,16.43,179.2,15.35,179.2a5.19,5.19,0,0,1-4.64-2.36c-1.18-1.72-1.72-4.3-2.59-6.34-2.37-5.15-6.58-5.36-6.58-13,0-5.91,2.59-19.54,15-29.63-2.26-8.06-3.88-15-8.31-18.47q-1.62-1.29-1.62-2.25c0-.43.44-.75,1.3-.75a7,7,0,0,1,1.83.32c6.59,2,9.82,9.12,13.17,16.85a42.57,42.57,0,0,1,20.5-5.26h1.73a29.85,29.85,0,0,0,.75-6.65c0-2.47-.32-5.69-3-6.88-2.16-1-3-1.82-3-2.57s1.19-1.29,2.81-1.29a8.7,8.7,0,0,1,3.77.86c4.64,2.47,5.83,6.12,5.83,14.06,0,1.08,0,2.26-.11,3.44C68.66,123.38,80,138.3,80,152.68c0,19.22-19.86,31.57-44.47,31.57-4.1,0-10.89-.43-10.89-1.29,0-.43,1.51-.75,4.31-1.08,18-1.82,38.53-12.56,38.53-32.52,0-9.45-4.86-20.4-16-25a89.44,89.44,0,0,1-7.88,24.59ZM18.27,133.36A34.52,34.52,0,0,0,10.71,154c0,7.62,3.78,11.49,6.8,11.49.43,0,4.54,0,12.52-11.81-6.26-6.12-9.5-13.42-11.76-20.29M40.93,122.3a29,29,0,0,0-16.4,5.16c2.7,6.22,5.82,12.45,11,16.85a104.51,104.51,0,0,0,8.75-21.79c-1.08-.11-2.27-.22-3.35-.22" style="fill:#fff"/><path d="M95.33,209.09c.33-7.09,3.56-9.77,5.4-16.21a17.87,17.87,0,0,0,.75-5c0-7.08-5.5-10.41-11.87-10.41a22,22,0,0,0-14.67,5.8c-4.1,3.76-10.36,8.26-13.49,23.29,0,1.18,0,2.36.11,3.44.1,1.39.32,2.68.32,3.86a7.49,7.49,0,0,1-1,4c-.76,1.4-2.27,2.58-3.13,3.87a6.63,6.63,0,0,1-5.51,3.22A6.29,6.29,0,0,1,46,218.43c0-9.45,14.46-42.94,41.22-71.82a3.74,3.74,0,0,0,1.08-2.68,4.85,4.85,0,0,0-2.48-4.08c-.44-.33-.87-.76-.87-1.19,0-.64,2.49-2.46,5.72-2.46a7.54,7.54,0,0,1,6.69,4c.76,1.29,2.27,3.33,2.81,4.4a9.66,9.66,0,0,1,1.4,4.4c0,2.47-1.83,4-5.18,5.48-9.49,4.4-19.75,14.92-26.65,26.94,2.59-2.25,12.19-9,22.66-9,12.19,0,20.83,8.49,20.83,18.9a21.23,21.23,0,0,1-1.19,6.65,33.09,33.09,0,0,0-1.83,9.88c.1,5.37,4.2,8.16,10.14,8.16,4.53,0,10.14-1.72,15.86-5.05,1.62-1,3.56-2.14,4.32-2.14a.28.28,0,0,1,.32.32c0,1.93-11.22,17-27.08,17-10.15,0-18.46-6.12-18.46-16.21Z" style="fill:#fff"/><path d="M138.34,78.73l4.57-3.08L142,74.34c-4.58-6.79-12.13-7.84-19.94-6.58a35.17,35.17,0,0,0-3.62-13,23.26,23.26,0,0,0-9.19-9.14L108,45l-3.93,6a21.7,21.7,0,0,0-4.5-.85L98,50l-.65,9.47,1.58.11c1.36.09,3.88.75,4.56,1.54,1.62,1.86,2.22,3.22,3.2,11.34-2.1.86-4,1.71-5.76,2.46-1.93.85-3.76,1.65-4.69,1.94a7,7,0,0,1-2.24.33,7.85,7.85,0,0,1-4.15-2.65c-3.18-3.49-7.26-4.64-11.2-3.14C72.41,73.74,68.26,82.65,68.1,94.08a47,47,0,0,0,3.29,18.67c.21.6.43,1.19.63,1.79a17.65,17.65,0,0,1,1.21,5.5l-.15-.05c-2.75-.94-7-5.58-9.2-11.45-3.3-9-1.3-18,2.37-31.82a44.07,44.07,0,0,0,1.44-16.58H64.54a40.75,40.75,0,0,1-1.35,15.77c-3.83,14.4-5.9,23.85-2.28,33.72,2.6,7.09,7.69,12.17,11.15,13.36a3.78,3.78,0,0,0,3.3-.17c1.49-.94,1.36-4.33-.35-9.31-.21-.61-.42-1.22-.64-1.83a44.19,44.19,0,0,1-3.11-17.56c.14-10,3.57-17.92,8.53-19.8,2.51-.95,5-.28,7.24,1.83.16.16.33.31.5.49s.44.47.67.7a10.44,10.44,0,0,0,5.34,3c2.3.47,5.22.23,9-1.32q2.37-1,4.68-1.72c.06.5.11,1,.16,1.53a1.11,1.11,0,0,1,0,.19c0,.5.1,1,.14,1.52-1.23.41-2.49.87-3.81,1.41C96.06,85.06,90,84,85.22,78.8l0,0a6.21,6.21,0,0,0-1.27-1.09,3.2,3.2,0,0,0-3-.4c-3,1.15-6.34,6.92-6.48,16.89a40.36,40.36,0,0,0,2.92,16.45l.66,1.86c.86,2.53,3.5,10.2-1,13a6.84,6.84,0,0,1-6,.48c-5-1.7-10.48-8.11-13.1-15.26C54,100,56.26,89.66,60.13,75.1a37.45,37.45,0,0,0,1.25-15H58.15a33.76,33.76,0,0,1-1.07,14.14c-4,15.15-6.36,25.94-2.11,37.53,3,8.1,9.16,15.15,15,17.16a11.23,11.23,0,0,0,3.68.64,9.26,9.26,0,0,0,5-1.44c6.59-4.14,3.34-13.61,2.27-16.72-.22-.64-.45-1.27-.67-1.9a37.67,37.67,0,0,1-2.74-15.34c.13-9.42,3.3-13.54,4.41-14a2.09,2.09,0,0,1,.84.67c5.63,6.19,13.28,7.55,22.12,3.95,1-.4,1.89-.74,2.82-1.07a96.65,96.65,0,0,1-1.12,19.4C104.72,114,99.82,126.51,80.17,131l-.84.13v0a66,66,0,0,1-8.06,1.17l-1.58.14.81,9.45,1.58-.13A80.57,80.57,0,0,0,83.41,140c12.87-2.13,22.76-6.74,29.39-13.74A34.41,34.41,0,0,0,121,111.57l.21-.69c1.16-3.73,2-11.74,2.21-20.42a78.68,78.68,0,0,0-.47-9.12,2.83,2.83,0,0,1,0-.29,11.56,11.56,0,0,1,5.65,1.42A12,12,0,0,1,131.33,85l.84,1.15L140,81.47l-.74-1.34a9.94,9.94,0,0,0-.93-1.4M109.07,49.14a20.15,20.15,0,0,1,6.61,7.08A32.53,32.53,0,0,1,119,68.37c-1,.24-2.08.51-3.11.81-1-7.56-2.06-10.71-5.18-14.31a12,12,0,0,0-3.59-2.74Zm-8.54,79.06a41.56,41.56,0,0,1-17.14,8.49l-1.55.37c-.5.12-1,.23-1.55.33-2.16.44-4.44.8-6.9,1.06l-.27-3.16q3.52-.36,6.7-1l1.55-.34a44.53,44.53,0,0,0,11.48-4.26,32.67,32.67,0,0,0,5.89-4.14c.67-.6,1.33-1.22,1.94-1.87,6.11-6.44,8.12-14.46,9.1-19.93.28-1.56.59-3.84.83-6.58a103.65,103.65,0,0,0,.28-14.39c0-.54-.06-1.08-.1-1.62a.49.49,0,0,0,0-.12c0-.49-.07-1-.12-1.49v-.16l-.09-.91c0-.25,0-.48-.07-.72-.06-.48-.1-.94-.15-1.38s-.12-1.08-.17-1.59c0-.1,0-.2,0-.3,0-.44-.09-.87-.14-1.28,0-.11,0-.23,0-.35-.07-.56-.13-1.1-.2-1.62,0-.32-.07-.64-.11-.94-.88-6.76-1.66-8.88-3.73-11.27-1.23-1.42-3.6-2.1-5.18-2.4l.22-3.18a18.26,18.26,0,0,1,3.75,1.07A9.6,9.6,0,0,1,108.3,57,15.68,15.68,0,0,1,110,59.21c.21.35.4.72.58,1.1A20.61,20.61,0,0,1,112,64.94c.3,1.46.57,3.16.83,5.2,0,0,0,.08,0,.12.06.48.12,1,.18,1.49l.09.74c0,.29.07.57.1.87s0,.46.08.69c0,.51.11,1,.17,1.57,0,.32.07.66.1,1,.06.5.11,1,.17,1.52v.09l.06.55c0,.37.07.73.1,1.09,0,.17,0,.34,0,.51,0,.54.08,1.07.11,1.6a107.56,107.56,0,0,1-.23,15.14c-.25,3-.58,5.41-.88,7.09,0,0,0,.07,0,.09-1.07,6-3,12.92-7.72,19a33.2,33.2,0,0,1-4.64,4.9m17.64-18.27c-.07.22-.14.47-.22.75a31.35,31.35,0,0,1-14,18.81,38.57,38.57,0,0,0,8.56-12.65,19.48,19.48,0,0,0,1.32-3.45,58,58,0,0,0,2.2-8.54,107.91,107.91,0,0,0,1.14-23.46c.9-.13,1.76-.23,2.58-.29,0,.17,0,.35,0,.53a78,78,0,0,1,.46,8.76c-.18,8.28-1,16.14-2.07,19.54M134.93,80.8l-2,1.19a15.7,15.7,0,0,0-2.63-2.17,15.17,15.17,0,0,0-7.65-1.94c-.51,0-1,0-1.58,0l-1,0-.62,0c-.83.06-1.69.14-2.59.27,0-.13,0-.27,0-.41l-.06-.61c-.06-.54-.12-1.08-.17-1.59l-.06-.52c1-.13,1.87-.23,2.77-.3.12,0,.25,0,.36,0l1.22,0h1.58a24,24,0,0,1,4.75.55A14.65,14.65,0,0,1,132,77.17a15.65,15.65,0,0,1,3.59,3.22Zm-1.17-6.27c-2.88-1.89-6.8-2.86-11.36-3-.52,0-1.05,0-1.58,0s-1,0-1.58.08l-.57,0,.56-.14,1.56-.35c.52-.11,1-.21,1.57-.29,6.3-1,12.27-.45,16.08,3.92l-2.27,1.53a19.41,19.41,0,0,0-2.41-1.85" style="fill:#fff"/><path d="M94.47,22.9C91.52,13,82.89,4.84,72,1.68c-21.8-6.3-37.47,6.39-50.06,16.6-1.27,1-2.51,2-3.72,3A7,7,0,0,1,14.1,23c-2.43-.21-4.73-4-5.33-5.32l-.83-2L2.33,20.34,1.62,21l-.07,0-.05.13,0,0v0L1,22.43c-2.5,6.5-.27,15.78,7,19.24,11.42,5.4,19.72-6.36,23.26-11.38,8.35-11.85,18.81-23.38,33-19.1,5.44,1.65,8.91,4.9,10.33,9.65,1.9,6.42-.42,13.72-3.69,17.61-4.87,5.78-15,17.81-42.81,19.47L26.5,58l.57,9.47,1.58-.09a90.32,90.32,0,0,0,19.93-3.27v0L50.16,64C69.44,62.29,80.32,57.7,89,47.64A26,26,0,0,0,94.47,22.9M60.12,59.51c-1.77.33-3.63.62-5.6.86-1,.13-2,.24-3.07.35l-.08-.84-.2-2.31c2.81-.28,5.39-.64,7.8-1.06,1.7-.29,3.3-.63,4.82-1s3.16-.85,4.6-1.35a34.88,34.88,0,0,0,15.8-10.65A19.53,19.53,0,0,0,88.41,24.7,23.39,23.39,0,0,0,82.48,15a27.67,27.67,0,0,0-3.64-3.06A29.14,29.14,0,0,0,74,9.15a29.72,29.72,0,0,0-3.77-1.39C55.28,3.45,43.56,9.69,33.3,17.36c-1.91,1.43-3.78,2.9-5.6,4.37l-1.81,1.46c-1,.79-1.91,1.55-2.85,2.3l-.93.75a12.29,12.29,0,0,1-9.63,2.81,5.74,5.74,0,0,1-2.43-.88A8.41,8.41,0,0,1,8.54,27a14.05,14.05,0,0,1-1.87-2.33,23,23,0,0,1-1.21-2.16c-.07-.16-.14-.3-.21-.44l1.6-1.33A15.58,15.58,0,0,0,9.55,24a9.83,9.83,0,0,0,.93.75,6.73,6.73,0,0,0,3.36,1.32c2.79.24,5.53-1.74,6.31-2.35q1.84-1.45,3.76-3c2.27-1.84,4.65-3.77,7.15-5.64a85.9,85.9,0,0,1,7.83-5.3C47,5,56.19,1.85,67,3.77a40.85,40.85,0,0,1,4.1.95A33.93,33.93,0,0,1,75.7,6.46C83.37,10,89.22,16.34,91.44,23.8a22.86,22.86,0,0,1-4.85,21.77C80.17,53,72.32,57.26,60.12,59.51M30,64.13,29.85,61A79.42,79.42,0,0,0,48,57.64l.29,3.26A84,84,0,0,1,30,64.13M77.61,19.94a16.22,16.22,0,0,0-5.34-8.1,25.13,25.13,0,0,1,7.54,4.91A23.83,23.83,0,0,1,80.64,19a26.64,26.64,0,0,1-4.91,23.48,62.9,62.9,0,0,1-8.89,8.82,59.6,59.6,0,0,1-8.94,2.15,50.39,50.39,0,0,0,15.41-13c3.82-4.54,6.52-13,4.3-20.55M9.37,38.81c-5-2.37-6.93-8.53-5.95-13.43A17.38,17.38,0,0,0,7,29.79c.3,2.93,1.61,5.08,3.86,6.2,4.45,2.22,8.58-.12,14.53-8.29l2.55-2.05c2.49-2,5-4.09,7.71-6.06a104.75,104.75,0,0,0-6.91,8.87C23.34,36.05,17.3,42.56,9.37,38.81M10.89,32a9.9,9.9,0,0,0,1.23.24A16,16,0,0,0,17.37,32c-2.84,2.33-4.24,1.64-5.15,1.19A3.44,3.44,0,0,1,10.89,32m73.75-8.35a19.94,19.94,0,0,1,.74,2,16.46,16.46,0,0,1-3.59,15.84,33.35,33.35,0,0,1-5.13,4.84c.51-.58,1-1.15,1.49-1.73a30.18,30.18,0,0,0,6.49-21" style="fill:#fff"/></svg>