<svg xmlns="http://www.w3.org/2000/svg" viewBox="0 0 104.5 212.46"><title>アセット 1</title><path d="M85.16,72.26c0,3.12-6.78,4.23-9.34,4.23s-5.45-1-5.45-3.34V69.37H42.58v3c0,2.66-3.45,4.44-9.67,4.44-3.12,0-5.56-1-5.56-3.11v-.45a163.67,163.67,0,0,0,1.78-20.9V51.14C18.9,54.7,3.67,58.26.89,58.26c-.56,0-.89,0-.89-.23s.67-.44,2.22-.89A164.84,164.84,0,0,0,28.91,46.36a58.62,58.62,0,0,0-.34-6.45c-.11-.67-.22-1.11-.22-1.33s.11-.34.56-.34c4.11,0,9.89,2,10.78,2.34A106.11,106.11,0,0,0,50.25,33H37c-4.56,0-24.46.44-31.91.78a7.63,7.63,0,0,1-2-4.12c8.56.78,37.47.78,37.47.78h.11V17.9c-6.67.11-20.23.44-27.13.78a7.25,7.25,0,0,1-2-4.23c6.67.78,21.57.89,29.13.89-.11-2.33-.11-4.44-.11-5.56-.11-2.89-.22-4.33-.45-7C40,1.56,39.8.89,39.8.56S39.91,0,43.14,0c5.33,0,15.23,1.67,15.23,4.11,0,.78-1.11,1.78-4,2.67-.12.89-.23,4.45-.23,8.56h3c1.78-3.22,6.34-9.11,7.34-9.11,1.45,0,6.23,3.89,6.9,4.55a34.48,34.48,0,0,0,4.33-7.45c.11-.55.11-.66.45-.66,2.11,0,16.45,4.22,16.45,7.56,0,.89-1,1.44-3.45,1.44a9.61,9.61,0,0,1-1.66-.11A93.38,93.38,0,0,1,68,30.46h13.9c2.22-3.11,6-9.23,8-10.78a2.12,2.12,0,0,1,.89-.22c3.11,0,13.67,9.56,13.67,12.34,0,1.22-1.33,1.33-2.11,1.33H64.48A142.83,142.83,0,0,1,47.81,43H69.49c.22-.33,4.22-5,5.78-5s12.56,4.23,12.56,7.12c0,1.44-1.56,3.11-3.78,3.55-.11,1.34-.11,2.45-.11,3.56,0,4.12.44,7.23.78,12.23.22,3.34.44,5.78.44,7.67ZM6.45,95.5c0-2.11,1.22-4.34,4.22-6.12,5.78-3.33,11.45-7.78,12.23-14,.11-.67.11-.89.22-.89s4.12,3.11,4.12,11.34c0,10.23-7.67,15.78-13.57,15.78C9.45,101.61,6.45,98.72,6.45,95.5ZM35.8,93.28a59.5,59.5,0,0,0,.44-6.34c0-3.34-.44-6.56-1.78-8.78a3.21,3.21,0,0,1-.55-.89c0-.11.11-.11.22-.11,1.45,0,16.57,5.11,16.57,14.45,0,8.89-7.79,8.89-8.45,8.89-6.45,0-6.45-5.89-6.45-6.33Zm34.69-28.8V56.92H42.58v9.79H70.37ZM44.36,45.69A7.33,7.33,0,0,1,42.8,46.8c-.11,1.89-.11,4.45-.11,7.45h27.8c0-2.66-.12-5.33-.12-8.56ZM59.92,94.83c-.55-5.22-2-13.34-6-16.67-.56-.45-.78-.67-.78-.78s.11-.11.34-.11c4.22,0,20.45,4,20.45,14.56a8,8,0,0,1-8,8.45A6.14,6.14,0,0,1,59.92,94.83ZM54.14,17.9V29.79A90.32,90.32,0,0,0,65.82,17.9ZM85.72,95.05c-3.45-9.22-4.78-12.67-9.34-16.34A5.48,5.48,0,0,1,75,77.6c0-.11.12-.11.45-.11,1,0,24.79,2.45,24.79,14.45a8,8,0,0,1-7.89,8.34C89.61,100.28,87.16,98.83,85.72,95.05Z" style="fill:#fff"/><path d="M60.7,122.52a9.23,9.23,0,0,1,2.23.89A2.1,2.1,0,0,1,64,125.08c0,1-1,2.22-4,3v27.24h19.9c.44-.67,7.56-11.79,9.33-11.79,2.34,0,14.57,9.12,14.57,13,0,1.33-1.45,1.78-2.23,1.78L60,158.21c.33,34.57.33,34.57,1,49v.12c0,3.22-4.23,4.89-8.79,5.11-4,0-7.78-.67-7.78-4v-.34c.56-13.45.89-23,1.11-49.91H37.36c-4.56,0-25.91.11-32.47.66A10,10,0,0,1,3,154.43c9,.89,36.8.89,36.8.89h5.78c.11-4.56.11-8.79.11-12.35,0-5.67-.11-11.67-.55-15.78l-.22-.89Z" style="fill:#fff"/><path d="M79.09,118.88c-5.35,0-17.92-4.91-37.15-4.91s-27.58,7.52-27.58,7.52,5.08,4.58,16.43,6.59c4.54-5.41,4.17-13.69,4.17-13.69a17,17,0,0,1,1.22,14.39c1.8.15,3.72.24,5.76.24,19.23,0,31.8-4.91,37.15-4.91a42.45,42.45,0,0,1,10.77,1.53v-8.29A42.45,42.45,0,0,1,79.09,118.88Z" style="fill:#fff;stroke:#fff;stroke-linecap:round;stroke-linejoin:round;stroke-width:0.992125984251969px"/></svg>